<?xml version="1.0" encoding="utf-8"?>
<!-- Generator: Adobe Illustrator 23.1.0, SVG Export Plug-In . SVG Version: 6.00 Build 0)  -->
<svg version="1.1" id="Layer_1" xmlns="http://www.w3.org/2000/svg" xmlns:xlink="http://www.w3.org/1999/xlink" x="0px" y="0px"
	 width="50.9px" height="66.4px" viewBox="0 0 50.9 66.4" enable-background="new 0 0 50.9 66.4" xml:space="preserve">
<path fill="#4AC8EF" d="M50,28.3c-1.3,1.3-3.4,1.3-4.8-0.1l-20-20L5.8,27.5c-1.3,1.3-3.4,1.3-4.8-0.1c-1.3-1.3-1.4-3.5-0.1-4.8
	L22.7,0.9c1.3-1.3,3.4-1.3,4.8,0.1l22.4,22.4C51.2,24.8,51.3,27,50,28.3"/>
<path fill="#4AC8EF" d="M28.8,65.5c-0.6,0.6-1.4,1-2.4,0.9c-1.9,0-3.4-1.6-3.4-3.4L21.8,3.8c0-1.9,1.4-3.3,3.3-3.3
	c1.9,0,3.4,1.6,3.4,3.4l1.2,59.1C29.8,64,29.4,64.9,28.8,65.5"/>
</svg>
