<svg width="59" viewBox="0 0 59 32.2"><defs><path id="a" d="M0 0h59v32.2H0z"/></defs><clipPath id="b"><use xlink:href="#a" overflow="visible"/></clipPath><path clip-path="url(#b)" fill="#FFF" d="M.5 19.6h2.2c1.3 0 2.1.6 2.1 1.6 0 1.1-1 1.7-2.2 1.7H1.4v1.6h-1v-4.9zm2.1 2.5c.7 0 1.2-.4 1.2-.9 0-.6-.5-.9-1.2-.9H1.4v1.8h1.2zM5.5 19.6H8c.7 0 1.2.2 1.6.5.3.3.5.6.5 1.1 0 .8-.5 1.3-1.3 1.5l1.5 1.8H9l-1.4-1.7H6.5v1.7h-1v-4.9zM7.9 22c.7 0 1.1-.3 1.1-.8s-.4-.8-1.1-.8H6.5V22h1.4zM13.1 19.6h.9l2.4 4.9h-1l-.6-1.2h-2.6l-.6 1.2h-1l2.5-4.9zm1.4 2.9l-1-2-.9 2h1.9zM18.1 25.3l.6-.8a2.5 2.5 0 01-2.2-2.5c0-1.4 1.2-2.5 2.8-2.5 1 0 1.6.3 2.2.8l-.6.6a2 2 0 00-1.5-.6c-1.1 0-1.8.8-1.8 1.7 0 1 .8 1.7 1.8 1.7.7 0 1.1-.2 1.6-.6l.6.6c-.5.5-1.1.8-2.1.9l-.5 1-.9-.3zM24.3 19.6h.9l2.4 4.9h-1l-.6-1.2h-2.6l-.6 1.2h-1l2.5-4.9zm1.4 2.9l-1-2-.9 2h1.9zM30.3 19.6h2.1c1.7 0 2.9 1.1 2.9 2.4 0 1.4-1.2 2.4-2.9 2.4h-2.1v-4.8zm2.1 4.1c1.2 0 1.9-.7 1.9-1.6 0-1-.8-1.7-1.9-1.7h-1.1v3.3h1.1zM37.8 19.6h.9l2.4 4.9h-1l-.6-1.2H37l-.6 1.2h-1l2.4-4.9zm1.4 3l-1-2-.9 2h1.9zM0 29.2c0-1.7 1.5-3 3.4-3 1.4 0 2.4.6 2.9 1.5l-1.8.9c-.2-.4-.6-.7-1.2-.7-.7 0-1.2.6-1.2 1.3 0 .7.5 1.3 1.2 1.3.6 0 1-.3 1.2-.7l1.8.9c-.5.9-1.5 1.6-3.1 1.6C1.6 32.2 0 31 0 29.2M6.8 26.3H9v5.8H6.8zM9.7 26.3h2.5c2.6 0 3.9 1.1 3.9 2.8 0 1.7-1.3 2.9-3.9 2.9H9.7v-5.7zm2.5 4.1c1 0 1.6-.4 1.6-1.2 0-.8-.6-1.2-1.6-1.2h-.4v2.4h.4zM18.3 26.2h2.2l2.7 5.8h-2.4l-.3-.8h-2.3l-.3.8h-2.3l2.7-5.8zm1.7 3.7l-.6-1.4-.6 1.4H20zM23.3 26.3h2.5c2.6 0 3.9 1.1 3.9 2.8 0 1.7-1.3 2.9-3.9 2.9h-2.4v-5.7zm2.6 4.1c1 0 1.6-.4 1.6-1.2 0-.8-.6-1.2-1.6-1.2h-.4v2.4h.4zM31.9 26.2h2.2l2.7 5.8h-2.4l-.3-.8h-2.3l-.3.8h-2.3l2.7-5.8zm1.7 3.7l-.6-1.4-.6 1.4h1.2zM37 26.3h2l2.3 2.5v-2.5h2.2V32h-2l-2.4-2.6V32H37zM44.3 26.3h2.2v5.8h-2.2zM49.3 26.2h2.2l2.7 5.8h-2.4l-.3-.8h-2.3l-.3.8h-2.3l2.7-5.8zm1.6 3.7l-.6-1.4-.6 1.4h1.2z"/><path clip-path="url(#b)" fill="#FFF" d="M58.3 13.1c-1-.3-1.8-.1-2.5.4v-.1c-.1 0-.6-.3-1.6-.1l-.9.3-.3-.2c-3.7-.6-6.4 4.3-6.5 4.5v.1c-.9-.1-1.7-.4-2.2-.9-.5-.5-.5-.9-.5-.9.4-.7 1.5-.8 2.5-.9.8-.1 1.7-.1 1.7-.8a1 1 0 00-.4-.8c-.9-.7-2.9-.7-5.1-.7H35l-.4.1-.1.3c0 .1.3 2.4 1.9 4.7.1.2.4.3.7.2.2-.1.3-.4.2-.6a11.6 11.6 0 01-1.7-3.9h6.9c1.7 0 3.9-.1 4.4.4l.1.1-.8.1c-1.1.1-2.7.2-3.3 1.4-.2.5 0 1.2.6 1.8.4.4 1.1.9 2.4 1.1 1.2.2 2.6.1 4.2-.3 2.4-.6 3.7-2 4.9-3.1 1-1 1.7-1.6 2.5-1.5-.3 2.2-3.2 8.4-10.6 8.4-1.5 0-2.8-.2-4-.5-.3-.1-.5 0-.6.3-.1.2.1.5.3.5 1.4.3 2.8.5 4.4.5a11.6 11.6 0 0011.6-9.6l-.3-.3m-9.2 2.8c.8-.8 2-1.8 3.3-1.8-1.1.8-2.3 2-3.4 3.7l-1.4.2c.2-.4.8-1.3 1.5-2.1m1.3 1.6c2.4-3.2 4.1-3.5 4.7-3.4l-.7.7a10 10 0 01-4 2.7M46.8 12.6l-.4-.2-.1-.1c-1.8-2.1-4.7-5.8-4.7-7.8C41.6 2.1 44 0 46.8 0 49.7 0 52 2.1 52 4.6c0 2-3 5.7-4.7 7.8l-.1.1-.4.1M46.4 12v0zM46.8.8c-2.3 0-4.3 1.7-4.3 3.7 0 1.2 1.6 3.8 4.3 6.9 2.7-3.2 4.3-5.7 4.3-6.9 0-2-1.9-3.7-4.3-3.7"/><path clip-path="url(#b)" fill="#FFF" d="M46.8 6c-.9 0-1.6-.6-1.6-1.4 0-.8.7-1.4 1.6-1.4.9 0 1.6.6 1.6 1.4 0 .8-.7 1.4-1.6 1.4m0-2c-.4 0-.7.3-.7.6s.3.6.7.6c.4 0 .7-.3.7-.6s-.3-.6-.7-.6M58.1 10.4h-.8v-.7c0-.2-.2-.4-.5-.4s-.5.2-.5.4v.7h-.8c-.3 0-.5.2-.5.4l.1.3.3.1h.8v.7l.1.3.3.1c.3 0 .5-.2.5-.4v-.7h.8c.3 0 .5-.2.5-.4.2-.2-.1-.4-.3-.4M58.9 7.7l-1.2-1.4v-2c0-.2-.2-.4-.5-.4h-3.8c-.3 0-.5.2-.5.4v2l-1.2 1.3-.1.4.4.2h6.4l.4-.2c.2 0 .2-.2.1-.3m-5.1-2.9h2.9V6h-2.9V4.8zm-.7 2.7l.6-.6H57l.6.6h-4.5zM52.2 8.9c-1.1 0-2.1.8-2.1 1.8s.9 1.8 2.1 1.8c1.1 0 2.1-.8 2.1-1.8a2 2 0 00-2.1-1.8m0 2.8c-.6 0-1.1-.4-1.1-1 0-.5.5-1 1.1-1 .6 0 1.1.4 1.1 1s-.5 1-1.1 1M35.8 6c-1.3 0-2.3.9-2.3 2 0 1 .8 1.8 1.8 2v1.8c0 .2.2.4.5.4s.5-.2.5-.4V10c1.1-.2 1.8-1 1.8-2 .1-1.1-1-2-2.3-2m0 3.2c-.8 0-1.4-.5-1.4-1.2s.6-1.2 1.4-1.2c.8 0 1.4.5 1.4 1.2s-.6 1.2-1.4 1.2M42.7 7.9l-.5-.1L38.5 9l-.2.1c-.2.1-.2.4-.1.5l.1.1.4.4-.6.5c-.2.2-.2.4 0 .6l1.2 1 .3.1.3-.1.6-.5.6.5.5.1c.2 0 .3-.2.3-.3l.8-3.7c.2-.1.1-.3 0-.4m-1.4 3.2l-.3-.3a.5.5 0 00-.7 0l-.6.5-.5-.4.6-.5.1-.3-.1-.3-.3-.3 2.2-.7-.4 2.3zM38.3 5.3l1.5 1.3c.2.2.6.2.9 0 .2-.2.2-.6 0-.8l-1.5-1.3c.3-.6.2-1.4-.4-1.9a2 2 0 00-2.1-.3L38 3.4l-.9.8-1.3-1.1c-.3.6-.2 1.4.4 1.9a2 2 0 002.1.3"/></svg>