<svg width="52"  viewBox="0 0 52 26.8"><g fill="#4AC8EF"><path d="M50.9 4.9c0 .1-.1.3-.3.3H1.4l-.3-.3V1.4c0-.1.1-.3.3-.3h49.3c.1 0 .3.1.3.3v3.5zm-4.4 16.9a4.4 4.4 0 01-4.3 3.9H9.8a4.3 4.3 0 01-4.3-3.9L3.6 6.2h44.7l-1.8 15.6zM50.6 0H1.4C.6 0 0 .6 0 1.4v3.5c0 .8.6 1.4 1.4 1.4h1.2L4.5 22a5.5 5.5 0 005.4 4.8h32.3c2.8 0 5.1-2.1 5.4-4.8l1.9-15.7h1.2c.8 0 1.4-.6 1.4-1.4V1.4C52 .6 51.4 0 50.6 0"/><path d="M13.7 11.5c0-1.1.9-2 2-2a2 2 0 012 2v8.8a2 2 0 01-2 2 2 2 0 01-2-2v-8.8zm2 12c1.7 0 3.1-1.4 3.1-3.1v-8.8c0-1.7-1.4-3.1-3.1-3.1a3.1 3.1 0 00-3.1 3.1v8.8c0 1.7 1.4 3.1 3.1 3.1M24 11.5c0-1.1.9-2 2-2a2 2 0 012 2v8.8a2 2 0 01-2 2 2 2 0 01-2-2v-8.8zm2 12c1.7 0 3.1-1.4 3.1-3.1v-8.8c0-1.7-1.4-3.1-3.1-3.1a3.1 3.1 0 00-3.1 3.1v8.8c0 1.7 1.4 3.1 3.1 3.1M34.2 11.5c0-1.1.9-2 2-2a2 2 0 012 2v8.8a2 2 0 01-2 2 2 2 0 01-2-2v-8.8zm2.1 12c1.7 0 3.1-1.4 3.1-3.1v-8.8c0-1.7-1.4-3.1-3.1-3.1a3.1 3.1 0 00-3.1 3.1v8.8c-.1 1.7 1.3 3.1 3.1 3.1"/></g></svg>