<svg width="63" viewBox="0 0 63 37.2" preserveAspectRatio="xMidYMid meet">
<g>
	<path fill="#FFFFFF" d="M41.1,19.7c-0.9,0-1.7-0.3-2.3-0.8c-0.6-0.5-0.9-1.2-0.9-2.1v0c0-1,0.3-1.7,1-2.2c0.7-0.5,1.6-0.8,2.8-0.8
		c0.8,0,1.5,0.1,2.3,0.4V14c0-1.1-0.7-1.7-2-1.7c-0.8,0-1.7,0.2-2.6,0.5l-0.7-2c1.1-0.5,2.4-0.8,3.6-0.8c1.4,0,2.5,0.4,3.2,1.1
		c0.7,0.7,1,1.7,1,3v5.5h-2.6v-1C43.2,19.3,42.3,19.7,41.1,19.7 M41.9,17.9c0.6,0,1.1-0.2,1.5-0.5c0.4-0.3,0.6-0.7,0.6-1.2v-0.5
		c-0.5-0.2-1.1-0.4-1.7-0.4c-0.6,0-1,0.1-1.3,0.3c-0.3,0.2-0.5,0.5-0.5,1v0c0,0.4,0.1,0.6,0.4,0.8C41.1,17.8,41.5,17.9,41.9,17.9"/>
	<rect x="48.9" y="6.7" fill="#FFFFFF" width="2.7" height="12.8"/>
	<path fill="#FFFFFF" d="M58.5,19.7c-1.4,0-2.6-0.5-3.5-1.4c-0.9-0.9-1.4-2.1-1.4-3.5v0c0-1.4,0.4-2.5,1.3-3.5
		c0.9-0.9,2-1.4,3.3-1.4c1.5,0,2.6,0.5,3.4,1.5c0.8,1,1.2,2.2,1.2,3.6c0,0.1,0,0.4,0,0.7h-6.5c0.1,0.6,0.4,1.1,0.8,1.4
		c0.4,0.3,0.9,0.5,1.5,0.5c0.8,0,1.6-0.3,2.3-1l1.5,1.3C61.4,19.2,60.2,19.7,58.5,19.7 M56.2,14.1h4c-0.1-0.6-0.3-1.1-0.6-1.5
		c-0.3-0.4-0.8-0.5-1.3-0.5c-0.5,0-1,0.2-1.3,0.5C56.6,13,56.3,13.5,56.2,14.1"/>
	<path fill="#FFFFFF" d="M25.6,4.3V0.1h1.7c0.5,0,0.9,0.1,1.2,0.4c0.3,0.3,0.4,0.6,0.4,1.1v0c0,0.5-0.2,0.8-0.5,1.1
		c-0.3,0.3-0.7,0.4-1.2,0.4h-0.7v1.3H25.6z M26.5,2.2h0.7c0.2,0,0.4-0.1,0.5-0.2C27.9,1.9,28,1.8,28,1.6v0c0-0.2-0.1-0.4-0.2-0.5
		c-0.1-0.1-0.3-0.2-0.6-0.2h-0.7V2.2z"/>
	<path fill="#FFFFFF" d="M29.6,4.3V0.1h2c0.5,0,1,0.1,1.2,0.4c0.2,0.2,0.4,0.6,0.4,1v0c0,0.7-0.3,1.1-0.9,1.3l1,1.5h-1.1L31.3,3
		h-0.7v1.4H29.6z M30.6,2.2h1c0.2,0,0.4-0.1,0.5-0.2c0.1-0.1,0.2-0.3,0.2-0.4v0c0-0.2-0.1-0.4-0.2-0.5c-0.1-0.1-0.3-0.2-0.5-0.2
		h-0.9V2.2z"/>
	<path fill="#FFFFFF" d="M37.8,3.8c-0.4,0.4-1,0.6-1.6,0.6c-0.7,0-1.2-0.2-1.6-0.6c-0.4-0.4-0.6-0.9-0.6-1.6v0
		c0-0.6,0.2-1.1,0.6-1.6C35,0.2,35.5,0,36.1,0s1.2,0.2,1.6,0.6c0.4,0.4,0.6,0.9,0.6,1.6v0C38.4,2.8,38.2,3.3,37.8,3.8 M35.2,3.2
		c0.2,0.3,0.6,0.4,0.9,0.4s0.7-0.1,0.9-0.4c0.2-0.3,0.4-0.6,0.4-0.9v0c0-0.4-0.1-0.7-0.4-1c-0.2-0.3-0.6-0.4-0.9-0.4
		c-0.4,0-0.7,0.1-0.9,0.4c-0.2,0.3-0.4,0.6-0.4,0.9v0C34.8,2.6,35,2.9,35.2,3.2"/>
	<path fill="#FFFFFF" d="M41.3,4.4c-0.7,0-1.2-0.2-1.6-0.6c-0.4-0.4-0.6-0.9-0.6-1.6v0c0-0.6,0.2-1.1,0.6-1.6c0.4-0.4,1-0.6,1.6-0.6
		c0.4,0,0.7,0,0.9,0.1c0.3,0.1,0.5,0.2,0.7,0.4l-0.6,0.7C42.2,1.2,42,1,41.9,1c-0.2-0.1-0.4-0.1-0.6-0.1c-0.3,0-0.6,0.1-0.9,0.4
		C40.2,1.5,40,1.8,40,2.2v0c0,0.4,0.1,0.7,0.4,1c0.2,0.3,0.6,0.4,0.9,0.4c0.4,0,0.6-0.1,0.9-0.3V2.7h-0.9V1.9h1.9v1.9
		C42.6,4.2,42,4.4,41.3,4.4"/>
	<path fill="#FFFFFF" d="M44,4.3V0.1h2c0.5,0,1,0.1,1.2,0.4c0.2,0.2,0.4,0.6,0.4,1v0c0,0.7-0.3,1.1-0.9,1.3l1,1.5h-1.1L45.7,3H45
		v1.4H44z M45,2.2h1c0.2,0,0.4-0.1,0.5-0.2c0.1-0.1,0.2-0.3,0.2-0.4v0c0-0.2-0.1-0.4-0.2-0.5c-0.1-0.1-0.3-0.2-0.5-0.2H45V2.2z"/>
	<path fill="#FFFFFF" d="M48.1,4.4L49.9,0h0.9l1.8,4.3h-1l-0.4-1h-1.8l-0.4,1H48.1z M49.8,2.6h1.1l-0.6-1.4L49.8,2.6z"/>
	<polygon fill="#FFFFFF" points="53.3,4.3 53.3,0.1 54.3,0.1 55.4,1.9 56.5,0.1 57.6,0.1 57.6,4.3 56.6,4.3 56.6,1.6 55.4,3.4 
		55.4,3.4 54.2,1.6 54.2,4.3 	"/>
	<path fill="#FFFFFF" d="M58.2,4.4L60,0h0.9l1.8,4.3h-1l-0.4-1h-1.8l-0.4,1H58.2z M59.9,2.6H61l-0.6-1.4L59.9,2.6z"/>
	<path fill="#FFFFFF" d="M33.4,37.2c-2.2,0-4.1-0.7-5.5-2.1c-1.4-1.4-2.1-3.2-2.1-5.3v0c0-2.1,0.7-3.9,2.2-5.3
		c1.4-1.5,3.3-2.2,5.4-2.2c1.3,0,2.3,0.2,3.2,0.5c0.9,0.3,1.7,0.8,2.5,1.5l-2,2.4c-0.6-0.5-1.2-0.9-1.8-1.1c-0.6-0.2-1.2-0.4-2-0.4
		c-1.2,0-2.1,0.4-3,1.3c-0.8,0.9-1.2,1.9-1.2,3.2v0c0,1.3,0.4,2.4,1.2,3.3c0.8,0.9,1.9,1.3,3.2,1.3c1.2,0,2.2-0.3,3-0.9v-2.1h-3.2
		v-2.8h6.3v6.3C37.8,36.4,35.8,37.2,33.4,37.2"/>
	<path fill="#FFFFFF" d="M45.7,37.1c-1.1,0-2-0.3-2.7-0.9c-0.7-0.6-1.1-1.4-1.1-2.5v0c0-1.2,0.4-2.1,1.2-2.7
		c0.8-0.6,1.9-0.9,3.3-0.9c0.9,0,1.8,0.2,2.7,0.5v-0.2c0-1.4-0.8-2-2.4-2c-1,0-2,0.2-3.1,0.6l-0.8-2.4c1.4-0.6,2.8-0.9,4.3-0.9
		c1.7,0,2.9,0.4,3.8,1.2c0.8,0.8,1.2,2,1.2,3.5v6.4h-3v-1.2C48.3,36.6,47.1,37.1,45.7,37.1 M46.7,34.9c0.7,0,1.3-0.2,1.8-0.5
		c0.5-0.4,0.7-0.8,0.7-1.4v-0.6c-0.6-0.3-1.3-0.4-2-0.4c-0.7,0-1.2,0.1-1.6,0.4C45.2,32.7,45,33,45,33.5v0c0,0.4,0.2,0.7,0.5,1
		C45.8,34.8,46.2,34.9,46.7,34.9 M46.1,24.6l2.3-3.7l2.7,1.2l-2.7,2.5H46.1z"/>
	<path fill="#FFFFFF" d="M58.8,37.1c-1.8,0-3.3-0.6-4.8-1.7l1.3-2.1c1.2,0.9,2.4,1.3,3.5,1.3c0.9,0,1.3-0.3,1.3-0.8v0
		c0-0.1,0-0.1,0-0.2c0-0.1-0.1-0.1-0.1-0.2c-0.1-0.1-0.1-0.1-0.2-0.2c-0.1,0-0.1-0.1-0.2-0.1c-0.1,0-0.2-0.1-0.3-0.1
		c-0.1,0-0.2-0.1-0.3-0.1c-0.1,0-0.3-0.1-0.4-0.1c-0.1,0-0.2-0.1-0.4-0.1c-0.2,0-0.3-0.1-0.4-0.1c-0.5-0.1-0.9-0.3-1.2-0.4
		c-0.3-0.1-0.7-0.3-1-0.6c-0.4-0.2-0.6-0.6-0.8-1c-0.2-0.4-0.3-0.8-0.3-1.4v0c0-1.1,0.4-2,1.2-2.6c0.8-0.6,1.7-0.9,2.9-0.9
		c1.5,0,2.9,0.4,4.1,1.3l-1.2,2.2c-1.2-0.7-2.2-1-3-1c-0.4,0-0.7,0.1-0.9,0.2c-0.2,0.1-0.3,0.3-0.3,0.5v0c0,0.3,0.4,0.7,1.2,1
		c0.1,0,0.4,0.1,1.1,0.4c0.5,0.2,0.9,0.3,1.2,0.5c0.3,0.1,0.7,0.3,1,0.6c0.4,0.3,0.6,0.6,0.8,0.9c0.2,0.4,0.3,0.8,0.3,1.3v0
		c0,1.2-0.4,2.1-1.2,2.7C61,36.8,60,37.1,58.8,37.1"/>
	<path fill="#FFFFFF" d="M24,21.2v-4.7c0-2.8-2.3-5.1-5.1-5.2V8.9c0-1-0.8-1.7-1.7-1.7H7.4c-1,0-1.7,0.8-1.7,1.7v2.5
		c-2.8,0.1-5.1,2.4-5.1,5.2v4.7c-0.3,0.2-0.6,0.6-0.6,1c0,0.4,0.2,0.8,0.6,1V30c0,2.8,2.3,5.2,5.1,5.2v0.5c0,0.8,0.6,1.4,1.4,1.4
		h10.3c0.8,0,1.4-0.6,1.4-1.4v-0.5c2.8,0,5.1-2.4,5.1-5.2v-6.8c0.3-0.2,0.6-0.6,0.6-1C24.5,21.8,24.3,21.4,24,21.2 M15.3,10.6
		c0,0.3-0.2,0.5-0.5,0.5h-5c-0.3,0-0.5-0.2-0.5-0.5v-1c0-0.3,0.2-0.5,0.5-0.5h5c0.3,0,0.5,0.2,0.5,0.5V10.6z"/>
	<polygon fill="#FFFFFF" points="30.7,19.6 25.7,7.3 28.7,7.3 31.9,15.9 35.1,7.3 38,7.3 33.1,19.6 	"/>
</g>
</svg>
