<svg width="48"  viewBox="0 0 48 33.8"><path fill="#4AC8EF" d="M19.6 29.1h-6.4l-3-16.9c-.1-.5.3-1 .8-1.1.5-.1 1 .3 1.1.8l2.7 15.3h2.8V12a1 1 0 012 0v17.1zM34.8 29.1h-6.4V12a1 1 0 012 0v15.1h2.8l2.7-15.3c.1-.5.6-.9 1.1-.8.5.1.9.6.8 1.1l-3 17z"/><path fill="#4AC8EF" d="M2 9.9h4l3.5 20c.2 1.2 1.2 2 2.4 2h24.2c1.2 0 2.2-.8 2.4-2l3.5-20h4V7.5h-3.4l-4.8-4.8c-.5-.5-1.1-.7-1.7-.7H11.9c-.6 0-1.3.3-1.7.7L5.4 7.5H2v2.4zm34.1 23.9H11.9a4.4 4.4 0 01-4.3-3.6L4.4 11.8H0V5.5h4.6l4.2-4.2c.8-.8 2-1.3 3.1-1.3h24.2c1.2 0 2.3.5 3.1 1.3l4.2 4.2H48v6.3h-4.4l-3.2 18.4a4.4 4.4 0 01-4.3 3.6"/></svg>