<svg width="73" viewBox="0 0 73 24.4"><path fill="#FFF" d="M25.8 9.2h-1.7l-2.7 6.5h1.9l.5-1.2h2.5l.5 1.2h1.9l-2.9-6.5zm-1.6 3.9l.7-1.8.7 1.8h-1.4zM31 14.1V9.2h-1.8v6.5h4.9v-1.6zM34.7 9.2h1.8v6.5h-1.8zM42.5 9.2L41 11.7l-1.6-2.5h-1.9v6.5h1.8V12l1.6 2.5h.1l1.6-2.5v3.7h1.8V9.2zM46.9 14.1v-1H50v-1.4h-3.1v-1h3.5V9.2h-5.2v6.5h5.2v-1.6zM55.5 9.2v3.4l-2.7-3.4h-1.7v6.5h1.8v-3.6l2.8 3.6h1.5V9.2zM58 9.2v1.6h2v4.9h1.8v-4.9h1.9V9.2zM0 9.3c-.1.7 0 5.2 1 7.2 1.3 2.3 2.7 2.1 3.3 3.8.7 2 .6 3.7.6 3.7h3.5s.3-4.1-.1-6.3c-.2-1.4-3.5-4.4-4-5-.5-.6-1.4 0-1.1.6.4.6 2 2.6 2 3 0 .4-1.2-.4-2-1.4-.8-1-1-3.3-1.4-4.9C1.5 8.4.3 7.7 0 9.3"/><path fill="#BE202E" d="M12.7 0c.1 0 .1 0 .1.1 0 .3-.1.6-.3.9-.4.7-1 1.1-1.7 1.4-.2.1-.4.1-.6.1-.1 0-.1 0-.1-.1 0-.4.2-.7.4-1 .2-.2.3-.5.5-.6.2-.2.5-.4.8-.5.3-.2.6-.3.9-.3"/><path fill="#FFF" d="M67.3 9.1c-2 0-3.5 1.5-3.5 3.4s1.5 3.3 3.5 3.3 3.5-1.5 3.5-3.4c-.1-1.8-1.5-3.3-3.5-3.3m1.6 3.4c0 .9-.7 1.7-1.6 1.7-1 0-1.7-.8-1.7-1.7 0-.9.7-1.7 1.6-1.7 1-.1 1.7.7 1.7 1.7zM24.6 20.2c-.9-.2-1.1-.3-1.1-.6 0-.2.2-.4.6-.4.6 0 1.2.2 1.8.6l.9-1.3c-.7-.6-1.6-.9-2.7-.9-1.5 0-2.5.9-2.5 2.1 0 1.3 1.1 1.7 2.4 2 .9.2 1.1.4 1.1.6 0 .3-.3.4-.7.4-.7 0-1.5-.3-2.1-.8l-1 1.2c.8.7 1.9 1.1 3 1.1 1.6 0 2.6-.8 2.6-2.1.1-1.1-.8-1.5-2.3-1.9M30.8 17.7c-2 0-3.5 1.5-3.5 3.4s1.5 3.3 3.5 3.3 3.5-1.5 3.5-3.4c-.1-1.8-1.5-3.3-3.5-3.3m1.6 3.3c0 .9-.7 1.7-1.6 1.7-1 0-1.7-.8-1.7-1.7 0-.9.7-1.7 1.6-1.7 1 0 1.7.8 1.7 1.7zM36.6 22.7v-4.9h-1.8v6.5h4.9v-1.6zM40.5 17.8h1.8v6.5h-1.8zM46 17.8h-2.5v6.5H46c2.3 0 3.7-1.4 3.7-3.2-.1-2-1.4-3.3-3.7-3.3m1.8 3.2c0 1-.7 1.6-1.8 1.6h-.7v-3.3h.7c1.1.1 1.8.7 1.8 1.7zM53.6 17.7h-1.7l-2.7 6.5H51l.5-1.2H54l.5 1.2h1.9l-2.8-6.5zm-1.6 4l.7-1.8.7 1.8H52zM54.4 16.4L53 16l-.8 1.5h1.1zM61.4 22c.8-.3 1.3-1 1.3-2 0-.6-.2-1.1-.6-1.5-.4-.5-1.1-.7-2.1-.7h-3v6.5h1.8v-2h.8l1.3 2H63L61.4 22zm-.5-1.9c0 .5-.4.8-1 .8h-1.2v-1.5h1.2c.6-.1 1 .2 1 .7zM18.7 9.3c.1.7 0 5.2-1 7.2-1.3 2.3-2.7 2.1-3.3 3.8-.7 2-.6 3.7-.6 3.7h-3.5s-.3-4.1.1-6.3c.2-1.4 3.6-4.4 4-5 .5-.6 1.4 0 1.1.6-.4.6-2 2.6-2 3 0 .4 1.2-.4 2-1.4.8-1 1-3.3 1.4-4.9.3-1.6 1.5-2.3 1.8-.7"/><path fill="#BE202E" d="M8.9 3.5c0-.3-.1-.6-.2-.9-.1-.4-.3-.7-.5-1-.3-.4-.7-.6-1.2-.8-.3 0-.6-.1-.9-.1-.3 0-.4-.2-.4-.4.1-.1.2-.3.4-.3.3 0 .7 0 1 .1.5.1.9.3 1.3.6s.7.7.9 1.1c.2.3.3.6.4 1 .1.3.1.5.1.8.1-.1.3-.2.4-.3.3-.1.6-.2.8-.3.5-.1 1-.2 1.5-.1s.9.2 1.3.4.7.5 1 .8c.2.2.3.4.4.6.1.1.2.3.2.4.2.4.3.8.3 1.2v1c-.1.5-.3 1-.6 1.4-.1.3-.4.5-.6.8l-.7.7-.6.6-.6.6-1.4 1.4-1.1 1.1c-.2.2-.4.3-.7.3-.2 0-.4 0-.6-.1-.2-.1-.4-.2-.5-.4-.4-.4-.7-.8-1.1-1.2-.4-.5-.8-.9-1.2-1.3-.6-.6-1.2-1.3-1.8-1.9-.3-.4-.6-.6-.8-.9C3.1 8 3 7.5 2.9 7c-.1-.7 0-1.3.3-2 .1-.3.3-.7.6-1 .4-.4.8-.7 1.3-.9.5-.2.9-.3 1.4-.3.5 0 .9 0 1.3.2.5.1.8.3 1.1.5"/><path fill="#FFF" d="M63.5 17.8h1.8v6.5h-1.8zM69.5 17.7c-2 0-3.5 1.5-3.5 3.4s1.5 3.3 3.5 3.3S73 22.9 73 21c0-1.8-1.5-3.3-3.5-3.3m1.7 3.3c0 .9-.7 1.7-1.6 1.7-1 0-1.7-.8-1.7-1.7 0-.9.7-1.7 1.6-1.7 1 0 1.7.8 1.7 1.7z"/></svg>