<svg width="63" viewBox="0 0 63 26.4"><g fill="#FFF"><path d="M6 8.3H3.2c-.2 0-.3.1-.3.3v3.9c0 .2.1.3.3.3h2.7c1.4 0 2-.6 2-1.9 0-.6-.2-1.2-.5-1.7-.4-.6-.9-.9-1.4-.9m-.5-5.7H3.2c-.2 0-.3.1-.3.3v2.5c0 .2.1.3.3.3h2.5c.9 0 1.4-.5 1.4-1.4 0-.5-.1-.9-.4-1.2-.4-.4-.7-.5-1.2-.5m5.1 8.6c0 1.2-.3 2.1-.9 2.9-.7.8-1.6 1.2-2.7 1.2H.4c-.2 0-.3-.1-.3-.3V.6C.1.4.2.3.4.3h4.9c1.3 0 2.4.3 3.2.9.9.7 1.4 1.7 1.4 2.9 0 .6-.1 1.2-.4 1.7-.3.6-.8 1-1.4 1 .3 0 .7.2 1.2.7.9 1 1.3 2.2 1.3 3.7M18.8 10.2V5.3c0-.6-.2-1.1-.7-1.6-.6-.5-1.1-.7-1.7-.7-.6 0-1.2.2-1.6.7-.4.5-.7 1-.7 1.6v4.9c0 .6.2 1.2.7 1.6.4.4 1 .7 1.6.7.6 0 1.2-.2 1.7-.7.4-.4.7-.9.7-1.6m2.9.2c0 3.2-1.8 4.8-5.3 4.8-1.6 0-2.9-.4-3.8-1.2-1-.8-1.5-2.1-1.5-3.7V4.9c0-1.7.7-2.9 2-3.7.9-.6 2-.9 3.3-.9 1.2 0 2.3.3 3.3.9 1.3.8 2 2.1 2 3.7v5.5zM33.5 14.9c0 .2-.1.3-.3.3h-2.7c-.2 0-.3-.1-.3-.3V6.1c0-.2-.1-.2-.2-.1l-2 2.2c-.1.2-.3.1-.4 0L25.8 6c-.1-.2-.2-.1-.2.1v8.8c0 .2-.1.3-.3.3h-2.7c-.2 0-.3-.1-.3-.3V.6c0-.2.1-.3.3-.3h2.7c.2 0 .4.1.5.2l1.9 2.8c.1.2.2.2.4 0l2-2.8c.1-.2.3-.2.5-.2h2.7c.2 0 .3.1.3.3v14.3zM4.8 19.7c0-.4-.1-.7-.4-1-.3-.2-.6-.3-1-.3H2.2c-.1 0-.2.1-.2.2v2.1c0 .1.1.2.2.2h1.1c.4 0 .7-.1 1-.3.3-.2.5-.5.5-.9m-1.5-2.9c.9 0 1.7.3 2.3.8.6.5.9 1.3.9 2.2 0 .8-.3 1.5-1 2.1-.6.5-1.4.8-2.2.8H2.2c-.1 0-.2.1-.2.2v3c0 .1 0 .2-.2.2H.2c-.1 0-.2-.1-.2-.2V17c0-.1.1-.2.2-.2h3.1zM11.7 19.8c0-.9-.4-1.3-1.3-1.3H9.1c-.1 0-.2.1-.2.2v2.1c0 .1.1.2.2.2h1.3c.4 0 .7-.1 1-.3.2-.3.3-.5.3-.9m2 6.2c.1.1.1.2-.1.2h-2c-.1 0-.2-.1-.3-.2L9 22.6l-.1-.1V25.8c0 .1-.1.2-.2.2H7.1c-.1 0-.2-.1-.2-.2V17c0-.1.1-.2.2-.2h3.3c1.1 0 2 .3 2.5 1 .4.5.7 1.2.6 1.9 0 .4-.1.9-.3 1.3-.4.9-1.1 1.4-2.1 1.4-.1 0-.1.1-.1.2l2.7 3.4zM18 21.5c.1 0 .2-.1.2-.2v-1c0-.3-.1-.6-.4-1-.3-.3-.5-.5-.8-.5-.3 0-.5.2-.8.6-.3.4-.4.7-.4 1v.9c0 .1.1.2.2.2h2zm2 4.4c0 .1-.1.2-.2.2h-1.4c-.1 0-.2-.1-.2-.2v-2.3c0-.1-.1-.2-.2-.2h-2c-.1 0-.2.1-.2.2v2.3c0 .1-.1.2-.2.2h-1.5c-.1 0-.2-.1-.2-.2v-5.5c0-.9.4-1.8 1.1-2.5.7-.7 1.3-1.1 1.9-1.1.6 0 1.2.3 1.9 1 .8.8 1.1 1.6 1.1 2.6v5.5zM26.6 18.3c0 .1-.1.2-.2.2h-1.9c-.1 0-.2.1-.2.2v7.2c0 .1-.1.2-.2.2h-1.5c-.1 0-.2-.1-.2-.2v-7.2c0-.1-.1-.2-.2-.2h-1.8c-.1 0-.2-.1-.2-.2V17c0-.1.1-.2.2-.2h6.1c.1 0 .2.1.2.2v1.3zM31.7 23v-3.1c0-.4-.2-.7-.5-1-.3-.3-.6-.4-1-.4s-.7.1-1 .4c-.3.3-.4.6-.4 1V23c0 .4.1.7.4 1 .3.3.6.4 1 .4s.7-.1 1-.4c.3-.3.5-.6.5-1m1.8.1c0 2-1.1 3-3.3 3-1 0-1.8-.2-2.4-.7-.6-.5-.9-1.3-.9-2.3v-3.4c0-1.1.4-1.8 1.2-2.3.6-.4 1.3-.5 2.1-.5s1.5.2 2.1.6c.8.5 1.2 1.3 1.2 2.3v3.3zM55.3 22.2c-.1-1.5-.3-3-.4-6.2.4 0 1.1-.3 1.6-.9.7-.6 1.2-1.4 1.2-2.6.2-1.2-.8-6-1.9-6.1v.5l.1 5.7c-.1.1-.2.1-.4.1-.3 0-.6-.2-.6-.4 0 0-.2-5.7-.9-6.1-.6.4-.9 6.1-.9 6.1 0 .2-.3.4-.6.4-.2 0-.3-.1-.4-.1l.1-5.7v-.5c-1 .2-1.8 4.9-1.9 6.1 0 1.3.6 2.2 1.3 2.7.5.5 1.1.8 1.5.8-.2 3.9-.3 5.4-.5 7.3-.9.3-1.9.4-2.9.4s-1.9-.1-2.8-.4c-.2-1.9-.3-3.5-.5-7.3.3-.1.2-.1.5-.2 1-.4 1.8-1.1 2.1-1.9v-.1c0-.1 0-.1.1-.2.3-1.1.2-2.8-.3-3.9-.5-1.3-1-2.3-2.2-3.1-.1-.1-.6-.3-1-.4-.4 0-.9.3-1 .4-1.2.8-1.7 1.8-2.2 3.1-.4 1.1-.6 2.8-.3 3.9 0 .1 0 .1.1.2v.1c.2.9 1 1.6 2.1 1.9.3.1.2.1.5.2-.1 3.1-.3 4.7-.4 6.3-3.1-1.8-5.2-5.2-5.2-9.1 0-5.8 4.7-10.5 10.5-10.5s10.5 4.7 10.5 10.5c.1 3.8-1.9 7.1-4.9 9M49.9 0c-7.4 0-13.2 5.8-13.2 13.2 0 7.3 5.9 13.2 13.2 13.2 7.3 0 13.2-5.9 13.2-13.2C63 5.9 57.2 0 49.9 0"/></g></svg>