<svg width="75.8" viewBox="0 0 75.8 31.8"><g fill="#FFF"><path d="M7.2 9.9H3.9c-.2 0-.4.1-.4.4V15c0 .2.1.4.4.4h3.2c1.6 0 2.4-.8 2.4-2.3 0-.7-.2-1.4-.6-2-.5-.8-1-1.2-1.7-1.2m-.6-6.8H3.9c-.2 0-.4.1-.4.4v3.1c0 .2.1.4.4.4h3C8 7 8.6 6.4 8.6 5.3c0-.6-.2-1.1-.5-1.5-.5-.5-.9-.7-1.5-.7m6.2 10.3c0 1.4-.4 2.6-1.1 3.5-.8.9-1.9 1.4-3.3 1.4h-8c-.2 0-.4-.1-.4-.4V.8C0 .6.1.4.4.4h5.9c1.6 0 2.9.4 3.9 1.1 1.1.8 1.7 2 1.7 3.5 0 .8-.2 1.5-.5 2.1-.4.8-1 1.2-1.7 1.2.4 0 .9.3 1.5.9 1 1 1.6 2.5 1.6 4.2M22.6 12.3V6.4c0-.7-.3-1.4-.9-1.9-.6-.6-1.2-.8-2-.8s-1.4.3-1.9.8c-.6.5-.8 1.1-.8 1.9v5.9c0 .8.3 1.4.8 1.9s1.2.8 1.9.8 1.4-.3 2-.8c.6-.5.9-1.1.9-1.9m3.6.2c0 3.9-2.1 5.8-6.4 5.8a7 7 0 01-4.6-1.4c-1.2-1-1.8-2.5-1.8-4.4V5.9a5 5 0 012.4-4.5c1.1-.7 2.5-1 4-1s2.8.4 4 1.1a5 5 0 012.4 4.4v6.6zM40.4 17.9c0 .2-.1.4-.4.4h-3.2c-.2 0-.4-.1-.4-.4V7.3c0-.3-.1-.3-.2-.1l-2.4 2.6c-.2.2-.3.2-.5 0L31 7.2c-.2-.2-.2-.2-.2.1v10.6c0 .2-.1.4-.4.4h-3.3c-.2 0-.4-.1-.4-.4V.7c0-.2.1-.4.4-.4h3.3l.6.3L33.3 4c.1.2.3.2.4 0L36.2.7c.1-.2.3-.3.6-.3H40c.2 0 .4.1.4.4v17.1zM5.7 23.8c0-.5-.2-.9-.5-1.2-.2-.3-.6-.4-1.2-.4H2.7c-.2 0-.2.1-.2.2v2.5l.2.2H4c.5 0 .8-.1 1.2-.3.3-.3.5-.6.5-1M4 20.3c1.1 0 2.1.3 2.8.9A3 3 0 018 23.8c0 1-.4 1.8-1.2 2.5-.8.6-1.6 1-2.7 1H2.7c-.2 0-.2.1-.2.2v3.7l-.2.2h-2a.2.2 0 01-.2-.2V20.5l.2-.2H4zM14.1 23.8c0-1.1-.5-1.6-1.6-1.6h-1.6c-.2 0-.2.1-.2.2V25l.2.2h1.6c.5 0 .8-.1 1.1-.4.4-.2.5-.5.5-1m2.3 7.4c.1.1.1.2-.1.2H14l-.4-.2-2.8-4-.1-.1v4l-.2.2H8.6a.2.2 0 01-.2-.2V20.5l.2-.2h4c1.3 0 2.4.4 3 1.2.5.7.8 1.4.8 2.3 0 .5-.1 1.1-.4 1.6-.5 1.1-1.4 1.6-2.6 1.7-.1 0-.2.1-.1.2l3.1 3.9zM21.7 25.9l.2-.2v-1.3c0-.4-.2-.7-.5-1.2-.3-.4-.6-.6-1-.6-.3 0-.6.2-1 .7a2 2 0 00-.5 1.2v1.1l.2.2h2.6zm2.4 5.3l-.2.2h-1.7a.2.2 0 01-.2-.2v-2.8l-.2-.2h-2.4l-.2.2v2.8l-.2.2h-1.8a.2.2 0 01-.2-.2v-6.6c0-1.1.5-2.1 1.4-3.1.8-.9 1.6-1.3 2.2-1.3.7 0 1.4.4 2.2 1.2.9.9 1.4 2 1.4 3.1v6.7zM32 22.1l-.2.2h-2.3l-.2.2v8.7l-.2.2h-1.8a.2.2 0 01-.2-.2v-8.7l-.2-.2h-2.2a.2.2 0 01-.2-.2v-1.6l.2-.2H32l.2.2v1.6zM38.1 27.7V24c0-.5-.2-.9-.5-1.2a2 2 0 00-1.2-.5c-.5 0-.9.2-1.2.5-.3.3-.5.7-.5 1.2v3.7c0 .5.2.9.5 1.2s.7.5 1.2.5.9-.2 1.2-.5c.4-.3.5-.7.5-1.2m2.3.1c0 2.4-1.3 3.6-4 3.6-1.2 0-2.2-.3-2.9-.9-.7-.6-1.1-1.5-1.1-2.8v-4.1c0-1.3.5-2.2 1.5-2.8.7-.4 1.5-.6 2.5-.6.9 0 1.8.2 2.5.7 1 .6 1.5 1.6 1.5 2.8v4.1zM66.5 26.7l-.5-7.4c.5 0 1.3-.4 1.9-1a4 4 0 001.5-3.2c.2-1.4-1-7.2-2.2-7.4v.6l.1 6.9-.5.2c-.4 0-.7-.2-.7-.5 0 0-.3-6.8-1.1-7.3-.8.5-1.1 7.3-1.1 7.3 0 .3-.4.5-.7.5a.8.8 0 01-.5-.2l.1-6.9v-.6c-1.2.2-2.2 5.9-2.2 7.4s.7 2.6 1.5 3.3c.6.6 1.4 1 1.9 1-.2 4.7-.4 6.5-.6 8.8a12.7 12.7 0 01-6.7.1c-.2-2.3-.4-4.3-.6-8.8l.6-.2c1.2-.4 2.2-1.3 2.5-2.3v-.1l.1-.2c.4-1.4.2-3.4-.3-4.8-.6-1.5-1.2-2.8-2.6-3.7-.1-.1-.8-.4-1.2-.4-.5 0-1.1.3-1.2.4-1.4.9-2 2.1-2.6 3.7a8.7 8.7 0 00-.3 4.8l.1.3v.1c.3 1.1 1.2 1.9 2.5 2.3l.6.2c-.1 3.8-.3 5.7-.5 7.6a12.5 12.5 0 016.3-23.5c7 0 12.6 5.6 12.6 12.6-.1 4.2-2.6 8.2-6.2 10.4M60 0c-8.8 0-15.9 7-15.9 15.9A15.9 15.9 0 1060 0"/></g></svg>