<svg width="73" viewBox="0 0 73 24.8"><path fill-rule="evenodd" clip-rule="evenodd" fill="#3DB54A" d="M11.5 8.8s.4-.2.9-.6l-1.1-.5h-.1c0-.1-.1-.1-.1-.1-.6-.1-.9-.1-1.6-.2-2-.3-4.3-.7-6.2-2.7C2.3 3.6 1.4.4.9.3-.6-.2-.1 2.6.8 4.8c.3.9.9 1.9 1.5 2.6.2 1.4.2 2.9.1 4 0 .4-.7 3.8-1.5 6 .3.7 1.1 1.4 2.2 1.8.2 1.3.5 3.3 1.6 3.2.6 0 .5-1.6.5-2.7h1c.1.5.8 3.2 1.4 3.4.7.3.9-.3 1-.8 0-.3-.1-2.2-.2-3.2.7-.4 1.4-1 1.9-1.8-2.1-1.8-2.8-5-2.7-7.9 1.3.1 3-.2 3.9-.6M6.3 5.6c1.1 0 2-.9 2-2s-.9-2-2-2-2 .9-2 2 .9 2 2 2"/><path fill-rule="evenodd" clip-rule="evenodd" fill="#1C76BC" d="M21.7 1.5c-.5-1.4-1.6-.5-2-.1-1.1 1.2-1.8 1.8-3.2 2.6-2.7 1.4-7.8 1.3-10.1 2.8.6.2 1.4.6 5 .9.4.8.5 3 .3 4.4 0 0-.1 1.6-.1 2.2-.1 1-.1 2.1-.2 3-.2 1.5-.4 5.3-.1 6.8.1.5.2.8.8.7 1.2-.1 1.6-2.2 1.9-3.1.5-2 .4-4.3.6-6.2 0 0-.4-.1.4-.1 0 1.5-.1 8.5.2 8.9.3.5 1.1.4 1.4.1.9-.6 1.1-4.5 1.1-5.7 0-2.3-.1-8.1-.3-11.4.3-.8 1.8-1.6 3.1-3.3.5-.8 1.3-2 1.2-2.5M13 4.3c1.2 0 2.1-1 2.1-2.1C15.1 1 14.2 0 13 0c-1.2 0-2.1 1-2.1 2.1-.1 1.2.9 2.2 2.1 2.2"/><path fill-rule="evenodd" clip-rule="evenodd" fill="#F89521" d="M20.8 8.7c1 .1 1.7 1 1.6 2-.1 1-1 1.7-2 1.6-1-.1-1.7-1-1.6-2 .1-1.1 1-1.7 2-1.6m-2.5 5.7c-.2 2.2-.7 9.1-.3 9.9.1.2.4.4.6.4.2 0 .4 0 .6-.3.4-.6.5-3 .7-3.8 0 0 .3-1.8.3-1.2 0 .4-.2 3.9-.2 4.2 0 .6.3 1.1.8.8.8-.3 1.2-3 1.5-5.5.2-1.5.3-3 .4-4.2 1-.8 2.3-1.8 3-3.7.5-1.6.3-1.8-.2-2-.8-.4-1.6 3.4-4.5 3.7-3.5.4-4.1-4.2-5.2-3.9-1.7.5 1.3 4.6 2.5 5.6"/><path fill-rule="evenodd" clip-rule="evenodd" fill="#EB0D8C" d="M9.4 11.4c1 0 1.7.8 1.7 1.7 0 1-.8 1.7-1.7 1.7-1 0-1.7-.8-1.7-1.7 0-1 .7-1.7 1.7-1.7m3.2 9.5v-4.4-.3c.2-.1.5-.3.7-.5 1.2-.9 2-2.5 1.1-2.6-.5 0-2.3 2.4-5.5 1.7C7 14.7 6 14 5.7 14h-.3c-.6.8 1.3 2.1 2.4 2.6V20H7V20.3h.1c.1 1.7.2 3.1 1 2.8.6-.2.6-1 .7-1.8v-.8c0 1.2 0 2.9 1 2.5.5-.2.6-1.3.6-2.7h.1l2.1.6z"/><path fill="#FFF" d="M28.6 5.1h2.9c.7 0 1.3.2 1.6.6.3.3.4.6.4 1.1 0 .2 0 .3-.1.5 0 .1-.1.3-.2.4l-.3.3-.1.1c.4.1.7.3.9.6.2.2.3.6.3 1 0 .3-.1.5-.2.8-.1.2-.3.4-.5.5-.2.1-.5.3-.7.3-.3.1-.6.1-1 .1h-3V5.1zm2.7 2.5c.3 0 .6-.1.7-.2.2-.1.3-.3.3-.5s-.1-.4-.2-.5c-.2-.1-.4-.2-.7-.2H30v1.3h1.3zm.3 2.6c.3 0 .5-.1.7-.2.2-.1.3-.3.3-.5s-.1-.4-.2-.5c-.2-.1-.4-.2-.8-.2H30v1.4h1.6zM37.5 11.5c-.5 0-.9-.1-1.3-.3-.4-.2-.8-.4-1.1-.7-.3-.3-.5-.6-.7-1-.2-.4-.2-.8-.2-1.3s.1-.9.3-1.3c.2-.4.4-.7.7-1 .3-.3.7-.5 1.1-.7.4-.2.9-.3 1.4-.3.5 0 .9.1 1.3.3.4.2.8.4 1.1.7.3.3.5.6.7 1 .2.4.2.8.2 1.3s-.1.9-.3 1.3c-.2.4-.4.7-.7 1-.3.3-.7.5-1.1.7-.4.2-.9.3-1.4.3m.1-1.3c.3 0 .5-.1.8-.2.2-.1.4-.2.6-.4.2-.2.3-.4.4-.6.1-.2.1-.5.1-.8 0-.3 0-.5-.1-.8-.1-.2-.2-.5-.4-.6-.2-.2-.4-.3-.6-.4-.2-.1-.5-.2-.8-.2-.3 0-.5.1-.8.2-.2.1-.4.2-.6.4-.2.2-.3.4-.4.6-.1.2-.1.5-.1.8 0 .3 0 .5.1.8.1.2.2.5.4.6.2.2.4.3.6.4.2.1.5.2.8.2M41.5 5.1h1.4v5H46v1.3h-4.5z"/><path fill="#FFF" d="M48.6 11.5c-.5 0-1-.1-1.4-.2-.5-.2-.9-.4-1.3-.8l.8-1 .9.6c.3.1.6.2 1 .2.3 0 .5-.1.7-.2.2-.1.2-.3.2-.4 0-.1 0-.2-.1-.2 0-.1-.1-.1-.2-.2 0-.2-.1-.2-.2-.3-.2-.1-.4-.1-.6-.2l-.9-.3c-.3-.1-.5-.2-.7-.4-.2-.1-.3-.3-.4-.5-.1-.2-.1-.5-.1-.8 0-.3.1-.5.2-.8.1-.2.3-.4.5-.6.2-.2.4-.3.7-.4h.7c.5 0 .9.1 1.3.2s.7.3 1.1.6l-.7 1c-.3-.2-.6-.3-.8-.5-.3-.1-.5-.2-.8-.2-.3 0-.5.1-.6.2-.1.1-.2.2-.2.4 0 .1 0 .2.1.3 0 .1.1.1.2.2s.2.1.4.2.4.1.7.2l.9.3c0 .1.3.2.4.4.2.1.3.3.4.5.1.2.2.4.2.7 0 .3-.1.6-.2.8-.1.2-.3.4-.5.6-.2.2-.4.3-.7.4-.3.1-.6.2-1 .2M53.5 5h1.3l2.7 6.4H56l-.5-1.4h-2.7l-.6 1.4h-1.4L53.5 5zM55 8.7l-.8-2.1-.8 2.1H55zM60.2 5.1h2.5c.5 0 .9.1 1.4.2.4.2.8.4 1.1.7.3.3.5.6.7 1 0 .3.1.8.1 1.2 0 .4-.1.9-.2 1.2-.2.4-.4.7-.7 1-.3.3-.7.5-1.1.7-.4.2-.9.2-1.4.2h-2.5V5.1zm2.4 5c.3 0 .5 0 .8-.1.2-.1.4-.2.6-.4.2-.2.3-.4.4-.6.1-.2.1-.5.1-.8 0-.3 0-.5-.1-.8-.1-.2-.2-.4-.4-.6-.2-.2-.4-.3-.6-.4-.2-.1-.5-.1-.8-.1h-1.1v3.8h1.1zM69.6 11.5c-.5 0-.9-.1-1.3-.3-.4-.2-.8-.4-1.1-.7-.3-.3-.5-.6-.7-1-.2-.4-.2-.8-.2-1.3s.1-.9.3-1.3c.2-.4.4-.7.7-1 .3-.3.7-.5 1.1-.7.4-.2.9-.3 1.4-.3.5 0 .9.1 1.3.3.4.2.8.4 1.1.7.3.3.5.6.7 1 0 .4.1.8.1 1.3s-.1.9-.3 1.3c-.2.4-.4.7-.7 1-.3.3-.7.5-1.1.7-.3.2-.8.3-1.3.3m0-1.3c.3 0 .5-.1.8-.2.2-.1.4-.2.6-.4.2-.2.3-.4.4-.6.1-.2.1-.5.1-.8 0-.3 0-.5-.1-.8-.1-.2-.2-.4-.4-.6-.2-.2-.4-.3-.6-.4-.2-.1-.5-.2-.8-.2-.3 0-.5.1-.8.2-.2.1-.4.2-.6.4l-.3.6c-.1.2-.1.5-.1.8 0 .3 0 .5.1.8.1.2.2.5.4.6.2.2.4.3.6.4.2.1.5.2.7.2M28.6 13.4h4.8c.7 0 1.3.1 1.9.3.6.2 1.1.4 1.5.8.4.3.7.7.9 1.2.2.5.3 1 .3 1.7s-.1 1.2-.4 1.7-.6.9-1 1.3c-.4.3-.9.6-1.5.8-.6.2-1.2.3-1.9.3h-1.5v3.2h-3.1V13.4zm4.6 5.6c.6 0 1-.1 1.3-.4.3-.3.5-.6.5-1.1 0-.5-.2-.8-.5-1.1-.3-.3-.8-.4-1.3-.4h-1.5v3h1.5zM44.7 24.8c-.9 0-1.7-.2-2.4-.5s-1.4-.7-1.9-1.2-.9-1.1-1.3-1.8c-.3-.7-.5-1.5-.5-2.2 0-.8.2-1.5.5-2.3.3-.7.7-1.3 1.3-1.8.5-.5 1.2-.9 1.9-1.2.7-.3 1.5-.5 2.4-.5.9 0 1.7.2 2.4.5s1.4.7 1.9 1.2.9 1.1 1.3 1.8c.3.7.5 1.5.5 2.2 0 .8-.2 1.5-.5 2.3-.3.7-.8 1.3-1.3 1.8s-1.2.9-1.9 1.2c-.8.4-1.6.5-2.4.5m0-2.8c.4 0 .8-.1 1.2-.2.4-.2.6-.4.9-.6l.6-.9c.1-.4.2-.7.2-1.1 0-.4-.1-.8-.2-1.1-.1-.4-.3-.7-.6-1-.3-.3-.6-.5-.9-.7-.4-.2-.7-.2-1.2-.2-.4 0-.8.1-1.2.2l-.9.6c-.3.3-.4.6-.6.9-.1.4-.2.7-.2 1.1 0 .4.1.8.2 1.1.1.4.3.7.6 1 .2.3.6.5.9.7.4.1.8.2 1.2.2M49.8 13.4h3.4l2.6 7.1 2.5-7.1h3.4l-4.5 11.3h-2.9zM67 24.8c-.9 0-1.7-.2-2.4-.5s-1.4-.7-1.9-1.2-.9-1.1-1.3-1.8c-.3-.7-.4-1.5-.4-2.3 0-.8.2-1.5.5-2.3.3-.7.7-1.3 1.3-1.8.5-.5 1.2-.9 1.9-1.2.7-.3 1.5-.5 2.4-.5s1.7.2 2.4.5 1.4.7 1.9 1.2.9 1.1 1.3 1.8c.3.7.5 1.5.5 2.2 0 .8-.2 1.5-.5 2.3-.3.7-.7 1.3-1.3 1.9-.5.5-1.2.9-1.9 1.2-.9.4-1.7.5-2.5.5m0-2.8c.4 0 .8-.1 1.2-.2.4-.2.6-.4.9-.6l.6-.9c.1-.4.2-.7.2-1.1 0-.4-.1-.8-.2-1.1-.1-.4-.3-.7-.6-1-.3-.3-.6-.5-.9-.7-.4-.3-.8-.4-1.2-.4-.4 0-.8.1-1.2.2l-.9.6c-.3.3-.4.6-.6.9-.1.4-.2.7-.2 1.1 0 .4.1.8.2 1.1.1.4.3.7.6 1 .2.3.6.5.9.7.4.3.8.4 1.2.4"/></svg>