<svg width="52"  viewBox="0 0 52 34.8"><g fill="#4AC8EF"><path d="M6 9.5c-.5 0-.9-.4-1-.9l-.2-7.4c0-.5.4-.9.9-.9s1 .4 1 .9L7 8.6c0 .5-.4.9-1 .9M1 9.6c-.1 0-.1 0 0 0a1 1 0 01-1-1l.4-7.5c0-.5.5-.9 1-.9s.9.5.9 1l-.4 7.5c0 .5-.4.9-.9.9M3.4 9.5c-.1 0-.1 0 0 0-.6 0-1-.4-1-.9l.3-7.4c0-.5.5-.9 1-.9s.9.4.9.9l-.3 7.5c0 .4-.4.8-.9.8M8.6 9.5c-.5 0-.9-.4-1-.9l-.4-7.4c0-.5.4-.9.9-1 .5 0 1 .4 1 .9l.4 7.4c0 .6-.4 1-.9 1"/><path d="M2 9.6c.3 2.1 1.4 3.8 2.8 3.8 1.3 0 2.5-1.6 2.8-3.8H2zm2.7 5.6C2.1 15.2 0 12.3 0 8.7c0-.5.4-.9 1-.9h7.5c.5 0 1 .4 1 .9 0 3.6-2.1 6.5-4.8 6.5"/><path d="M4.5 20.2c-.7 3.9-1.3 8.3-1.3 9.5 0 2 .9 3.2 1.3 3.2.5 0 1.3-1.2 1.3-3.2 0-1.1-.7-5.5-1.3-9.5m0 14.6c-1.9 0-3.2-2.2-3.2-5.1 0-2.3 2.2-14.8 2.3-15.3 0-.4.4-.7.9-.7s.9.3.9.8c.1.5 2.3 12.9 2.3 15.3 0 2.8-1.4 5-3.2 5M48.1 2.5c-1 2.3-2.3 8.7-2.5 10.8-.2 2.4.1 5.4 1.9 5.9l.6.1c.3 0 .5.2.6.4l.2.7a82.4 82.4 0 00-1.4 9c0 2 .8 3.2 1.3 3.2v.9-.9c.5 0 1.4-1.1 1.4-3.2 0-1-.4-4.6-1.3-10.2v-.4c.2-.6.2-1.5.3-2.5v-.5c.2-2.8-.3-10.6-1.1-13.3m.6 32.1c-1.9 0-3.2-2.2-3.2-5.1 0-1 .5-3.8 1.3-8.5-3.5-1.1-3.2-6.3-3.1-7.8.1-1 .6-4 1.3-6.9C46.3.9 47.1.3 47.9.1h.3c.3 0 .6.1 1 .4 1.7 1.8 2.1 13.4 1.9 15.6v.5c-.1 1.1-.1 2-.3 2.7.8 5.7 1.2 9.2 1.2 10.3-.1 2.8-1.5 5-3.3 5M25.8 3.6a14 14 0 00-14.3 13.7c0 7.6 6.4 13.7 14.3 13.7s14.3-6.2 14.3-13.7A14 14 0 0025.8 3.6m0 29.3A16 16 0 019.6 17.3c0-8.6 7.3-15.6 16.2-15.6S42 8.7 42 17.3a16 16 0 01-16.2 15.6"/><path d="M25.8 8.4c-5.1 0-9.3 4-9.3 8.9s4.2 8.9 9.3 8.9c5.1 0 9.3-4 9.3-8.9s-4.2-8.9-9.3-8.9m0 19.6a11 11 0 01-11.2-10.8c0-5.9 5-10.8 11.2-10.8S37 11.4 37 17.3A11 11 0 0125.8 28"/></g></svg>