<svg width="60" viewBox="0 0 60 55.4"><defs><path id="a" d="M0 0h60v55.4H0z"/></defs><clipPath id="b"><use xlink:href="#a" overflow="visible"/></clipPath><path clip-path="url(#b)" fill="#FFF" d="M28.4 43.3c-.4-.5-1-.8-1.7-.8-1.2 0-2 .9-2 2 0 1.2.8 2 2 2 .6 0 1.3-.3 1.7-.8V48c-.6.2-1.1.3-1.7.3-1 0-2-.4-2.8-1.1-.8-.7-1.2-1.7-1.2-2.8 0-1 .4-2 1.1-2.7.7-.7 1.8-1.2 2.8-1.2.6 0 1.2.1 1.8.4v2.4zM29.8 40.8h1.9v7.4h-1.9zM32.9 40.8h2l3.5 4.5v-4.5h1.9v7.4h-1.9l-3.5-4.5v4.5h-2zM43.6 46.9l-.5 1.3h-2l2.8-7.4H46l2.8 7.4h-2l-.5-1.3h-2.7zm1.4-3.8l-.8 2.3h1.6l-.8-2.3zM3.9 51.8c-.3-.4-.7-.6-1.2-.6-.8 0-1.4.6-1.4 1.4.1.9.7 1.4 1.5 1.4.4 0 .9-.2 1.2-.5v1.6c-.4.1-.8.2-1.2.2-.7 0-1.4-.3-1.9-.8-.6-.5-.8-1.2-.8-2 0-.7.3-1.4.8-1.9s1.2-.8 2-.8c.4 0 .8.1 1.2.3v1.7zM10.2 52.5c0 1.7-1.2 2.8-2.9 2.8s-2.9-1.2-2.9-2.8c0-1.6 1.4-2.7 2.9-2.7 1.6.1 2.9 1.2 2.9 2.7m-4.3 0c0 .9.7 1.5 1.5 1.5s1.5-.6 1.5-1.5c0-.7-.7-1.4-1.5-1.4-.8.1-1.5.7-1.5 1.4M10.8 50h1.4l2.4 3.2h.1V50H16v5.2h-1.3L12.2 52v3.2h-1.4zM18.9 55.2h-1.3v-4h-1.1V50H20v1.2h-1.1zM24.8 55.2h-1.7l-1.3-2v2h-1.3V50h2c1 0 1.8.5 1.8 1.6 0 .7-.4 1.3-1.1 1.5l1.6 2.1zm-2.9-2.8h.1c.4 0 .9-.1.9-.6 0-.6-.5-.6-.9-.6h-.1v1.2z"/><path clip-path="url(#b)" fill="#FFF" d="M26.5 54.3l-.4.9h-1.4l2-5.2h1.5l1.9 5.2h-1.4l-.3-.9h-1.9zm.9-2.7l-.6 1.6H28l-.6-1.6zM34.2 54.3l-.4.9h-1.4l2-5.2h1.5l1.9 5.2h-1.4l-.4-.9h-1.8zm.9-2.7l-.6 1.6h1.1l-.5-1.6zM41.9 51.2v.8h1.5v1.2h-1.5v2h-1.3V50h2.9v1.2zM49.7 52.5c0 1.7-1.2 2.8-2.9 2.8s-2.9-1.2-2.9-2.8c0-1.6 1.4-2.7 2.9-2.7 1.5.1 2.9 1.2 2.9 2.7m-4.3 0c0 .9.7 1.5 1.5 1.5s1.5-.6 1.5-1.5c0-.7-.7-1.4-1.5-1.4-.8.1-1.5.7-1.5 1.4M50.9 50h1.3l1.1 2.8 1.1-2.8h1.3l.8 5.2h-1.3l-.4-3-1.3 3H53l-1.2-3-.4 3H50zM58.4 51.2v.8h1.5v1.2h-1.5v.9H60v1.1h-2.9V50H60v1.2zM48.5 5.9c-2.2-3.2-4.8-5.1-8-5.4C35 0 30.4 4.3 28.8 5.7 27.2 4.3 22.6 0 17 .6 13.9.9 11.2 2.7 9 6c-2 3-2.2 6.7-.6 10.8 1.3 3.2 3.7 6.7 7.1 10.5 5.8 6.3 12.8 11.1 12.9 11.1l.4.3.4-.3c.1 0 7-4.8 12.9-11.1 3.5-3.7 5.9-7.2 7.1-10.5 1.6-4.1 1.4-7.8-.7-10.9"/><path clip-path="url(#b)" fill="#1A6E40" d="M33 12.8h-8.5c-.3 0-.5.2-.5.5s.2.5.5.5h1.2v14c0 .5.4.9.9.9h4.3c.5 0 .9-.4.9-.9v-14H33c.3 0 .5-.2.5-.5.1-.3-.2-.5-.5-.5m-3.3 3.4h-1.6c-.1 0-.1.1-.1.1 0 .1.1.1.1.1h1.6v2.1h-1.6c-.1 0-.1.1-.1.1l.1.1h1.6v2.1h-1.6c-.1 0-.1.1-.1.1 0 .1.1.1.1.1h1.6v2.1h-1.6c-.1 0-.1.1-.1.1 0 .1.1.1.1.1h1.6v2.1h-1.6c-.1 0-.1.1-.1.1 0 .1.1.1.1.1h1.6v1.9h-3c-.2 0-.3-.1-.3-.3v-14h3.3v3zM30 29H27.7c-.1 0-.1.1-.1.1v.1c0 .1.1.1.1.1h.2l.3 2c0 .2.2.3.4.3h.1v4.6l.4-1v-3.6h.1c.2 0 .3-.1.4-.3l.3-2h.1c.1 0 .1-.1.1-.1v-.1L30 29"/><path transform="translate(-.015 .04)" clip-path="url(#b)" fill="#1A6E40" d="M27 8.7h3.6v3.6H27z"/><path clip-path="url(#b)" fill="#1A6E40" d="M26.2 8.5h5.2c.2 0 .4-.2.4-.4s-.2-.4-.4-.4h-5.2c-.2 0-.4.2-.4.4s.2.4.4.4"/><path clip-path="url(#b)" fill="#FFF" d="M11.8 45.3l1.8-4.5h2.1l-3.2 7.4h-1.4L8 40.8h2zM17.2 46.9l-.5 1.3h-2l2.8-7.4h2.1l2.8 7.4h-2l-.5-1.3h-2.7zm1.3-3.8l-.8 2.3h1.6l-.8-2.3z"/></svg>