<svg width="85px" viewBox="0 0 85 50.2" preserveAspectRatio="xMidYMid meet">
<path fill="#FFFFFF" d="M77.7,34.6v-8.4h3.9c1.1,0,1.9,0.3,2.5,0.9c0.5,0.5,0.7,1.1,0.7,1.9l0,0c0,1.3-0.6,2.2-1.8,2.6l2.1,3h-2.2
	L81,31.9h-1.5v2.7H77.7z M79.5,30.3h1.9c0.4,0,0.8-0.1,1-0.3c0.3-0.2,0.4-0.5,0.4-0.9l0,0c0-0.4-0.1-0.7-0.4-0.9
	c-0.3-0.2-0.6-0.3-1.1-0.3h-1.8V30.3z"/>
<path fill="#FFFFFF" d="M43.1,23.5c-2.8,0-5.3-0.9-7.3-2.8L38,18c1.7,1.4,3.4,2.1,5.1,2.1c0.8,0,1.4-0.1,1.8-0.4
	c0.4-0.3,0.7-0.7,0.7-1.2l0,0c0-0.5-0.2-0.9-0.7-1.2s-1.4-0.6-2.8-1c-1-0.2-1.8-0.5-2.4-0.7c-0.6-0.2-1.2-0.6-1.7-0.9
	c-0.5-0.4-1-0.9-1.2-1.5c-0.3-0.6-0.4-1.3-0.4-2.1l0,0c0-1.6,0.6-2.8,1.7-3.8c1.1-1,2.6-1.4,4.3-1.4c2.4,0,4.6,0.7,6.4,2.2l-2,2.9
	c-1.6-1.1-3.1-1.7-4.5-1.7c-0.7,0-1.3,0.1-1.6,0.4c-0.4,0.3-0.6,0.6-0.6,1.1v0.1c0,0.6,0.2,1,0.7,1.3s1.5,0.6,3,1
	c1.9,0.5,3.2,1.1,4.1,1.9c0.9,0.8,1.3,1.9,1.3,3.3l0,0c0,1.7-0.6,3-1.7,3.9C46.6,23.1,45,23.5,43.1,23.5"/>
<path fill="#FFFFFF" d="M67.2,21c-1.7,1.7-3.9,2.6-6.6,2.6c-2.6,0-4.8-0.9-6.5-2.6s-2.6-3.8-2.6-6.3l0,0c0-2.5,0.9-4.6,2.6-6.3
	c1.7-1.7,3.9-2.6,6.6-2.6c2.6,0,4.8,0.9,6.5,2.6s2.6,3.8,2.6,6.3l0,0C69.8,17.2,68.9,19.3,67.2,21 M56.9,18.5c1,1,2.2,1.6,3.7,1.6
	s2.7-0.5,3.7-1.5s1.5-2.3,1.5-3.8l0,0c0-1.5-0.5-2.8-1.5-3.8s-2.2-1.6-3.7-1.6s-2.7,0.5-3.7,1.5s-1.5,2.3-1.5,3.8l0,0
	C55.5,16.2,56,17.5,56.9,18.5"/>
<path fill="#FFFFFF" d="M78.3,23.5c-2.8,0-5.3-0.9-7.3-2.8l2.2-2.7c1.7,1.4,3.4,2.1,5.1,2.1c0.8,0,1.4-0.1,1.8-0.4s0.7-0.7,0.7-1.2
	l0,0c0-0.5-0.2-0.9-0.7-1.2c-0.5-0.3-1.4-0.6-2.8-1c-1-0.2-1.8-0.5-2.4-0.7s-1.2-0.6-1.7-0.9c-0.5-0.4-1-0.9-1.2-1.5
	c-0.3-0.6-0.4-1.3-0.4-2.1l0,0c0-1.6,0.6-2.8,1.7-3.8s2.6-1.4,4.3-1.4c2.4,0,4.6,0.7,6.4,2.2L82,11c-1.6-1.1-3.1-1.7-4.5-1.7
	c-0.7,0-1.3,0.1-1.6,0.4c-0.4,0.3-0.6,0.6-0.6,1.1v0.1c0,0.6,0.2,1,0.7,1.3s1.5,0.6,3,1c1.9,0.5,3.2,1.1,4.1,1.9
	c0.9,0.8,1.3,1.9,1.3,3.3l0,0c0,1.7-0.6,3-1.7,3.9C81.7,23.1,80.2,23.5,78.3,23.5"/>
<polygon fill="#FFFFFF" points="35.8,34.6 35.8,26.2 37.8,26.2 40.1,29.8 42.3,26.2 44.3,26.2 44.3,34.6 42.4,34.6 42.4,29.1 
	40.1,32.7 40,32.7 37.7,29.2 37.7,34.6 "/>
<path fill="#FFFFFF" d="M49.3,34.8c-1.2,0-2-0.3-2.7-1c-0.6-0.6-1-1.6-1-2.8v-4.8h1.9V31c0,0.7,0.2,1.2,0.5,1.5
	c0.3,0.4,0.8,0.5,1.3,0.5s1-0.2,1.3-0.5s0.5-0.8,0.5-1.5v-4.8H53V31c0,1.3-0.3,2.2-1,2.8C51.4,34.5,50.5,34.8,49.3,34.8"/>
<polygon fill="#FFFFFF" points="54.4,34.6 54.4,26.2 56.3,26.2 56.3,33 60.5,33 60.5,34.6 "/>
<polygon fill="#FFFFFF" points="61.4,34.6 61.4,26.2 63.3,26.2 63.3,29.5 66.7,29.5 66.7,26.2 68.6,26.2 68.6,34.6 66.7,34.6 
	66.7,31.3 63.3,31.3 63.3,34.6 "/>
<polygon fill="#FFFFFF" points="70.1,34.6 70.1,26.2 76.5,26.2 76.5,27.9 71.9,27.9 71.9,29.6 75.9,29.6 75.9,31.2 71.9,31.2 
	71.9,33 76.5,33 76.5,34.6 "/>
<g>
	<path fill="#C64C9C" d="M16.7,16.8c3.1,0,5.6-2.5,5.6-5.6s-2.5-5.6-5.6-5.6s-5.6,2.5-5.6,5.6S13.6,16.8,16.7,16.8z"/>
	<path fill="#C64C9C" d="M33.6,16.8C33.6,7.5,26.1,0,16.8,0l0,0C7.5,0,0,7.5,0,16.8c0,8.5,6.3,15.5,14.6,16.6v5.8
		c0,0.3-0.3,0.6-0.6,0.6H9.6c-0.3,0-0.6,0.3-0.6,0.6v3.2c0,0.3,0.3,0.6,0.6,0.6h4.3c0.3,0,0.6,0.3,0.6,0.6v4.7
		c0,0.3,0.3,0.6,0.6,0.6h3.2c0.3,0,0.6-0.3,0.6-0.6v-4.7c0-0.3,0.3-0.6,0.6-0.6h4.3c0.3,0,0.6-0.3,0.6-0.6v-3.2
		c0-0.3-0.3-0.6-0.6-0.6h-4.3c-0.3,0-0.6-0.3-0.6-0.6v-5.8C27.2,32.4,33.6,25.4,33.6,16.8z M4.2,16.8c0-7,5.7-12.6,12.6-12.6
		c7,0,12.6,5.7,12.6,12.6c0,3.9-1.8,7.4-4.5,9.7c-0.4-1.5-0.8-2.9-1-3.9c-0.7-2.6-2.6-4.3-4.4-4.3h-5.3c-1.8,0-3.7,1.8-4.4,4.3
		c-0.2,0.9-0.6,2.4-1,3.9C5.9,24.2,4.2,20.7,4.2,16.8z"/>
</g>
</svg>
