<svg width="47px" viewBox="0 0 47 35" preserveAspectRatio="xMidYMid meet">
<polygon fill="#4AC8EF" points="0,0 0,35 34.6,35 34.6,33.1 1.9,33.1 1.9,1.9 45.1,1.9 45.1,33.1 34.6,33.1 34.6,35 47,35 47,0 "/>
<polygon fill="#4AC8EF" points="10.6,4 4.1,4 4.1,10.5 6,10.5 6,5.9 10.6,5.9 "/>
<polygon fill="#4AC8EF" points="42.9,10.5 42.9,4 36.3,4 36.3,5.9 41,5.9 41,10.5 "/>
<polygon fill="#4AC8EF" points="36.3,31.1 42.9,31.1 42.9,24.5 41,24.5 41,29.2 36.3,29.2 "/>
<polygon fill="#4AC8EF" points="4.1,24.5 4.1,31.1 10.6,31.1 10.6,29.2 6,29.2 6,24.5 "/>
</svg>
