<svg width="83px" viewBox="0 0 83 29.01" preserveAspectRatio="xMidYMid meet">
<g>
	<path fill="#8FC640" d="M5.68,0.04L5.68,0.04C2.54,0.04,0,2.58,0,5.72V14h11.36V5.72C11.36,2.58,8.82,0.04,5.68,0.04"/>
	<path fill="#FFFFFF" d="M18.69,28.76l4.95-11.83h3.89l4.95,11.83h-4.26l-0.62-1.58h-4.11l-0.61,1.58H18.69z M24.48,24.4h2.15
		l-1.08-2.85L24.48,24.4z"/>
	<path fill="#FFFFFF" d="M38.54,29.01c-1.87,0-3.43-0.57-4.7-1.7c-1.26-1.14-1.89-2.6-1.89-4.39v-0.03c0-1.76,0.62-3.22,1.84-4.38
		c1.23-1.16,2.78-1.74,4.63-1.74c1.91,0,3.55,0.59,4.92,1.78l-2.2,2.65c-0.8-0.68-1.67-1.02-2.6-1.02c-0.76,0-1.39,0.26-1.89,0.79
		c-0.5,0.53-0.75,1.19-0.75,1.98v0.03c0,0.83,0.26,1.5,0.78,2.02c0.52,0.52,1.19,0.78,2.02,0.78c0.57,0,1.02-0.09,1.34-0.27v-1.18
		h-2.01v-2.51h5.69v5.43C42.28,28.43,40.55,29.01,38.54,29.01"/>
	<path fill="#FFFFFF" d="M55.55,27.23c-1.24,1.19-2.76,1.78-4.56,1.78c-1.8,0-3.32-0.59-4.55-1.76c-1.23-1.17-1.85-2.62-1.85-4.33
		v-0.03c0-1.71,0.62-3.16,1.86-4.35c1.24-1.19,2.76-1.78,4.56-1.78c1.8,0,3.31,0.59,4.55,1.76c1.23,1.18,1.85,2.62,1.85,4.33v0.03
		C57.42,24.6,56.79,26.05,55.55,27.23 M49.24,24.76c0.46,0.52,1.05,0.78,1.78,0.78c0.73,0,1.31-0.26,1.76-0.77
		c0.45-0.51,0.67-1.13,0.67-1.84v-0.03c0-0.73-0.23-1.35-0.69-1.87c-0.46-0.52-1.05-0.78-1.78-0.78c-0.73,0-1.31,0.26-1.76,0.77
		c-0.45,0.51-0.67,1.13-0.67,1.85v0.03C48.56,23.62,48.78,24.24,49.24,24.76"/>
	<path fill="#FFFFFF" d="M58.49,28.76V17.02h5.74c1.92,0,3.33,0.45,4.23,1.34c0.72,0.71,1.07,1.64,1.07,2.78v0.04
		c0,1.64-0.77,2.84-2.31,3.59l2.73,3.99h-4.48l-2.22-3.35h-0.84v3.35H58.49z M62.41,22.6h1.7c0.47,0,0.84-0.1,1.11-0.3
		c0.27-0.2,0.4-0.48,0.4-0.84v-0.03c0-0.37-0.13-0.65-0.4-0.84c-0.26-0.19-0.63-0.28-1.1-0.28h-1.71V22.6z"/>
	<path fill="#FFFFFF" d="M69.21,28.76l4.95-11.83h3.89L83,28.76h-4.26l-0.62-1.58h-4.11l-0.61,1.58H69.21z M75,24.4h2.15l-1.08-2.85
		L75,24.4z"/>
	<path fill="#BDBEC0" d="M27.75,14.13c0.08,0.14-0.03,0.25-0.17,0.25h-3.4c-0.16,0-0.3-0.11-0.36-0.25l-1.65-3.46h-0.19v3.49
		c0,0.11-0.11,0.22-0.25,0.22h-2.79c-0.13,0-0.24-0.11-0.24-0.22V3.68c0-0.13,0.11-0.24,0.24-0.24h4.19c2.44,0,4.06,1.43,4.06,3.58
		c0,1.25-0.76,2.52-1.95,3.03L27.75,14.13z M22.91,7.98c0.54,0,0.91-0.33,0.91-0.84S23.45,6.3,22.91,6.3h-0.94v1.68H22.91z"/>
	<path fill="#BDBEC0" d="M35.56,11.53c0.13,0,0.24,0.1,0.24,0.21v2.43c0,0.11-0.11,0.22-0.24,0.22h-7.38
		c-0.11,0-0.22-0.13-0.25-0.24V3.66c0-0.14,0.08-0.22,0.22-0.22h7.22c0.14,0,0.25,0.11,0.25,0.22v2.4c0,0.14-0.11,0.24-0.25,0.24
		h-4.14v1.25h3.36c0.14,0,0.22,0.11,0.21,0.21l-0.22,2.22c-0.01,0.1-0.13,0.21-0.27,0.21h-3.08v1.35H35.56z"/>
	<path fill="#BDBEC0" d="M48.59,3.44c0.13,0,0.22,0.11,0.22,0.24v10.49c0,0.11-0.1,0.22-0.22,0.22h-2.93
		c-0.13,0-0.24-0.11-0.24-0.22V9.5l-1.6,4.65c-0.05,0.13-0.25,0.24-0.4,0.24h-1.75c-0.14,0-0.35-0.11-0.4-0.24l-1.6-4.65v4.66
		c0,0.11-0.11,0.22-0.24,0.22h-2.94c-0.13,0-0.22-0.11-0.22-0.22V3.68c0-0.13,0.09-0.24,0.22-0.24h3.32c0.21,0,0.44,0.14,0.54,0.32
		l2.19,6.06l2.19-6.06c0.1-0.17,0.33-0.32,0.54-0.32H48.59z"/>
	<path fill="#BDBEC0" d="M57.16,11.53c0.13,0,0.24,0.1,0.24,0.21v2.43c0,0.11-0.11,0.22-0.24,0.22h-7.38
		c-0.11,0-0.22-0.13-0.25-0.24V3.66c0-0.14,0.08-0.22,0.22-0.22h7.22c0.14,0,0.25,0.11,0.25,0.22v2.39c0,0.14-0.11,0.24-0.25,0.24
		h-4.14v1.25h3.36c0.14,0,0.22,0.11,0.21,0.21l-0.22,2.22c-0.02,0.09-0.13,0.21-0.27,0.21h-3.08v1.35H57.16z M51.39,2.11
		c-0.08-0.13-0.05-0.27,0.06-0.35l2.86-1.68c0.1-0.08,0.25-0.03,0.32,0.11l0.62,1.16c0.06,0.13,0.03,0.25-0.13,0.32l-3.09,1.27
		C51.91,3,51.75,2.92,51.69,2.76L51.39,2.11z"/>
	<path fill="#BDBEC0" d="M61.79,3.44c3.36,0,5.6,2.17,5.6,5.47c0,3.27-2.24,5.47-5.6,5.47h-3.68c-0.11,0-0.22-0.11-0.22-0.24V3.68
		c0-0.13,0.11-0.24,0.22-0.24H61.79z M61.98,11.53c1.22,0,2.04-1.05,2.04-2.62S63.2,6.3,61.98,6.3h-0.82v5.23H61.98z"/>
	<path fill="#BDBEC0" d="M70.91,3.44c0.14,0,0.24,0.11,0.24,0.24v10.49c0,0.11-0.09,0.22-0.24,0.22H68.1
		c-0.11,0-0.22-0.11-0.22-0.22V3.68c0-0.13,0.11-0.24,0.22-0.24H70.91z"/>
	<path fill="#BDBEC0" d="M77.37,14.61c-3.38,0-5.63-2.28-5.63-5.69c0-3.44,2.25-5.73,5.63-5.73c3.38,0,5.63,2.28,5.63,5.73
		C83,12.32,80.75,14.61,77.37,14.61 M77.37,6.39c-1.3,0-2.17,1.02-2.17,2.52c0,1.51,0.87,2.52,2.17,2.52c1.3,0,2.17-1.02,2.17-2.52
		C79.54,7.41,78.67,6.39,77.37,6.39"/>
	<path fill="#3DB54A" d="M0,23.11c0,3.14,2.54,5.68,5.68,5.68s5.68-2.54,5.68-5.68v-8.28H0V23.11z"/>
	<rect fill="none" width="83" height="29.01"/>
</g>
</svg>
