<svg width="85px" viewBox="0 0 85 31.2" preserveAspectRatio="xMidYMid meet">
<g>
	<path fill="#FFFFFF" d="M38.7,7c-0.5,0-0.9-0.1-1.4-0.3c-0.4-0.2-0.8-0.4-1.1-0.7c-0.3-0.3-0.6-0.7-0.7-1.1
		c-0.2-0.4-0.3-0.9-0.3-1.4v0c0-0.5,0.1-0.9,0.3-1.4c0.2-0.4,0.4-0.8,0.7-1.1c0.3-0.3,0.7-0.6,1.1-0.7C37.8,0.1,38.2,0,38.7,0
		c0.3,0,0.7,0,0.9,0.1c0.3,0.1,0.5,0.2,0.8,0.3c0.2,0.1,0.4,0.3,0.6,0.4c0.2,0.2,0.4,0.4,0.5,0.6l-1.4,1.1C40,2.2,39.8,2,39.6,1.9
		c-0.2-0.1-0.5-0.2-0.8-0.2c-0.2,0-0.5,0-0.6,0.1c-0.2,0.1-0.4,0.2-0.5,0.4c-0.1,0.2-0.3,0.3-0.3,0.6c-0.1,0.2-0.1,0.4-0.1,0.7v0
		c0,0.3,0,0.5,0.1,0.7c0.1,0.2,0.2,0.4,0.3,0.6c0.1,0.2,0.3,0.3,0.5,0.4c0.2,0.1,0.4,0.1,0.6,0.1c0.2,0,0.3,0,0.5-0.1
		c0.1,0,0.3-0.1,0.4-0.2c0.1-0.1,0.2-0.2,0.3-0.3c0.1-0.1,0.2-0.2,0.3-0.3l1.4,1c-0.2,0.2-0.3,0.4-0.5,0.6c-0.2,0.2-0.4,0.3-0.6,0.5
		c-0.2,0.1-0.5,0.2-0.8,0.3C39.4,6.9,39,7,38.7,7"/>
	<polygon fill="#FFFFFF" points="42.2,0.1 47.6,0.1 47.6,1.7 44,1.7 44,2.7 47.2,2.7 47.2,4.2 44,4.2 44,5.3 47.6,5.3 47.6,6.8 
		42.2,6.8 	"/>
	<polygon fill="#FFFFFF" points="48.3,0.1 50.1,0.1 52.8,3.7 52.8,0.1 54.7,0.1 54.7,6.8 53,6.8 50.2,3.2 50.2,6.8 48.3,6.8 	"/>
	<polygon fill="#FFFFFF" points="57.3,1.8 55.3,1.8 55.3,0.1 61.1,0.1 61.1,1.8 59.1,1.8 59.1,6.8 57.3,6.8 	"/>
	<path fill="#FFFFFF" d="M61.7,0.1h3.2c0.5,0,1,0.1,1.3,0.2c0.4,0.1,0.7,0.3,0.9,0.5c0.4,0.4,0.6,0.9,0.6,1.6v0
		c0,0.5-0.1,0.9-0.4,1.3c-0.3,0.3-0.6,0.6-1,0.8l1.6,2.3h-2.1l-1.4-2h0h-0.8v2h-1.9V0.1z M64.8,3.4c0.3,0,0.6-0.1,0.7-0.2
		c0.2-0.1,0.3-0.3,0.3-0.6v0c0-0.3-0.1-0.5-0.3-0.6c-0.2-0.1-0.4-0.2-0.7-0.2h-1.2v1.6H64.8z"/>
	<path fill="#FFFFFF" d="M71.7,7c-0.5,0-1-0.1-1.4-0.3c-0.4-0.2-0.8-0.4-1.1-0.7c-0.3-0.3-0.6-0.7-0.8-1.1c-0.2-0.4-0.3-0.9-0.3-1.4
		v0c0-0.5,0.1-0.9,0.3-1.4c0.2-0.4,0.4-0.8,0.8-1.1s0.7-0.6,1.2-0.7S71.2,0,71.8,0s1,0.1,1.4,0.3S74,0.7,74.3,1
		c0.3,0.3,0.6,0.7,0.8,1.1c0.2,0.4,0.3,0.9,0.3,1.4v0c0,0.5-0.1,0.9-0.3,1.4c-0.2,0.4-0.4,0.8-0.8,1.1c-0.3,0.3-0.7,0.6-1.2,0.7
		C72.7,6.9,72.3,7,71.7,7 M71.8,5.3c0.3,0,0.5,0,0.7-0.1c0.2-0.1,0.4-0.2,0.5-0.4c0.1-0.2,0.3-0.4,0.3-0.6c0.1-0.2,0.1-0.4,0.1-0.7
		v0c0-0.2,0-0.5-0.1-0.7c-0.1-0.2-0.2-0.4-0.4-0.6c-0.2-0.2-0.3-0.3-0.5-0.4c-0.2-0.1-0.4-0.1-0.7-0.1c-0.3,0-0.5,0-0.7,0.1
		c-0.2,0.1-0.4,0.2-0.5,0.4c-0.2,0.2-0.3,0.4-0.3,0.6C70.1,3,70,3.2,70,3.5v0c0,0.2,0,0.5,0.1,0.7c0.1,0.2,0.2,0.4,0.4,0.6
		c0.1,0.2,0.3,0.3,0.5,0.4C71.3,5.3,71.5,5.3,71.8,5.3"/>
	<path fill="#FFFFFF" d="M35.2,9.7h2.6c0.6,0,1.1,0.1,1.6,0.2c0.5,0.2,0.9,0.4,1.2,0.7c0.3,0.3,0.6,0.6,0.7,1.1
		c0.2,0.4,0.3,0.9,0.3,1.3v0c0,0.5-0.1,0.9-0.3,1.3c-0.2,0.4-0.4,0.8-0.7,1.1c-0.3,0.3-0.7,0.5-1.2,0.7c-0.5,0.2-1,0.3-1.6,0.3h-2.6
		V9.7z M37.8,14.7c0.6,0,1-0.1,1.3-0.4c0.3-0.3,0.5-0.7,0.5-1.3v0c0-0.5-0.2-1-0.5-1.3c-0.3-0.3-0.8-0.4-1.3-0.4h-0.8v3.4H37.8z"/>
	<polygon fill="#FFFFFF" points="42.3,9.7 47.7,9.7 47.7,11.3 44.1,11.3 44.1,12.3 47.3,12.3 47.3,13.7 44.1,13.7 44.1,14.8 
		47.7,14.8 47.7,16.4 42.3,16.4 	"/>
	<polygon fill="#FFFFFF" points="50.9,9.7 52.8,9.7 54.4,12.3 56,9.7 58,9.7 58,16.4 56.1,16.4 56.1,12.5 54.4,15.2 54.4,15.2 
		52.7,12.6 52.7,16.4 50.9,16.4 	"/>
	<path fill="#FFFFFF" d="M59,9.7h1.9v6.7H59V9.7z M60.2,7.5L61.9,8l-1.4,1.2h-1.3L60.2,7.5z"/>
	<path fill="#FFFFFF" d="M61.8,9.7h2.6c0.6,0,1.1,0.1,1.6,0.2c0.5,0.2,0.9,0.4,1.2,0.7c0.3,0.3,0.6,0.6,0.7,1.1
		c0.2,0.4,0.3,0.9,0.3,1.3v0c0,0.5-0.1,0.9-0.3,1.3c-0.2,0.4-0.4,0.8-0.7,1.1c-0.3,0.3-0.7,0.5-1.2,0.7c-0.5,0.2-1,0.3-1.6,0.3h-2.5
		V9.7z M64.5,14.7c0.6,0,1-0.1,1.3-0.4c0.3-0.3,0.5-0.7,0.5-1.3v0c0-0.5-0.2-1-0.5-1.3c-0.3-0.3-0.8-0.4-1.3-0.4h-0.8v3.4H64.5z"/>
	<rect x="69" y="9.7" fill="#FFFFFF" width="1.9" height="6.7"/>
	<path fill="#FFFFFF" d="M74.2,9.6h1.8l2.9,6.8h-2l-0.5-1.2h-2.6l-0.5,1.2h-2L74.2,9.6z M75.8,13.8L75,11.8l-0.8,1.9H75.8z"/>
	<path fill="#FFFFFF" d="M81.8,16.5c-0.6,0-1.2-0.1-1.7-0.3c-0.5-0.2-1-0.5-1.4-0.8l1-1.2c0.7,0.5,1.4,0.8,2.2,0.8
		c0.3,0,0.4,0,0.6-0.1c0.1-0.1,0.2-0.2,0.2-0.3v0c0-0.1,0-0.1,0-0.2c0-0.1-0.1-0.1-0.2-0.2c-0.1-0.1-0.2-0.1-0.3-0.1
		c-0.1,0-0.3-0.1-0.6-0.1c-0.4-0.1-0.7-0.2-1-0.3c-0.3-0.1-0.6-0.2-0.8-0.4c-0.2-0.2-0.4-0.4-0.5-0.6c-0.1-0.2-0.2-0.5-0.2-0.9v0
		c0-0.3,0.1-0.6,0.2-0.9c0.1-0.3,0.3-0.5,0.5-0.7c0.2-0.2,0.5-0.3,0.8-0.4c0.3-0.1,0.7-0.2,1.1-0.2c0.6,0,1.1,0.1,1.5,0.2
		c0.5,0.2,0.9,0.4,1.2,0.7l-0.9,1.3c-0.3-0.2-0.6-0.4-0.9-0.5c-0.3-0.1-0.6-0.2-0.9-0.2c-0.2,0-0.4,0-0.5,0.1
		c-0.1,0.1-0.2,0.2-0.2,0.3v0c0,0.1,0,0.1,0.1,0.2c0,0.1,0.1,0.1,0.2,0.2c0.1,0,0.2,0.1,0.4,0.1c0.2,0,0.3,0.1,0.6,0.1
		c0.4,0.1,0.7,0.2,1,0.3c0.3,0.1,0.6,0.2,0.8,0.4c0.2,0.2,0.4,0.4,0.5,0.6c0.1,0.2,0.2,0.5,0.2,0.8v0c0,0.3-0.1,0.7-0.2,0.9
		c-0.1,0.3-0.3,0.5-0.5,0.7c-0.2,0.2-0.5,0.3-0.9,0.4C82.6,16.5,82.3,16.5,81.8,16.5"/>
	<path fill="#FFFFFF" d="M35.2,19.3h1.9c1.5,0,2.5,1,2.5,2.4v0c0,1.3-1,2.4-2.5,2.4h-1.9V19.3z M37.1,23.2c0.9,0,1.4-0.6,1.4-1.4v0
		c0-0.8-0.6-1.4-1.4-1.4h-0.8v2.9H37.1z"/>
	<path fill="#FFFFFF" d="M41.6,19.3h1l2,4.8h-1.1L43.1,23h-2l-0.4,1.1h-1.1L41.6,19.3z M42.7,22.1l-0.6-1.5l-0.6,1.5H42.7z"/>
	<polygon fill="#FFFFFF" points="47.1,19.3 50.7,19.3 50.7,20.3 48.1,20.3 48.1,21.2 50.4,21.2 50.4,22.2 48.1,22.2 48.1,23.2 
		50.7,23.2 50.7,24.1 47.1,24.1 	"/>
	<path fill="#FFFFFF" d="M51.3,19.3h1.9c1.5,0,2.5,1,2.5,2.4v0c0,1.3-1,2.4-2.5,2.4h-1.9V19.3z M53.1,23.2c0.9,0,1.4-0.6,1.4-1.4v0
		c0-0.8-0.6-1.4-1.4-1.4h-0.8v2.9H53.1z"/>
	<path fill="#FFFFFF" d="M56.2,22.1v-2.7h1V22c0,0.8,0.4,1.2,1,1.2c0.6,0,1-0.4,1-1.1v-2.7h1V22c0,1.4-0.8,2.1-2.1,2.1
		C56.9,24.2,56.2,23.5,56.2,22.1"/>
	<path fill="#FFFFFF" d="M60.8,21.7L60.8,21.7c0-1.4,1-2.5,2.5-2.5c0.9,0,1.4,0.3,1.9,0.7l-0.7,0.8c-0.4-0.3-0.7-0.5-1.2-0.5
		c-0.8,0-1.4,0.7-1.4,1.5v0c0,0.8,0.6,1.5,1.4,1.5c0.5,0,0.9-0.2,1.3-0.6l0.7,0.7c-0.5,0.5-1,0.8-2,0.8
		C61.8,24.2,60.8,23.1,60.8,21.7"/>
	<path fill="#FFFFFF" d="M67.5,19.3h1l2,4.8h-1.1L69,23h-2l-0.4,1.1h-1.1L67.5,19.3z M68.6,22.1L68,20.6l-0.6,1.5H68.6z"/>
	<path fill="#FFFFFF" d="M71.8,24.9l0.5-0.8c-1.1-0.3-1.9-1.2-1.9-2.4v0c0-1.4,1-2.5,2.5-2.5c0.9,0,1.4,0.3,1.9,0.7l-0.7,0.8
		c-0.4-0.3-0.7-0.5-1.2-0.5c-0.8,0-1.4,0.7-1.4,1.5v0c0,0.8,0.6,1.5,1.4,1.5c0.5,0,0.9-0.2,1.2-0.6l0.7,0.7c-0.5,0.5-1,0.8-1.8,0.8
		l-0.4,1.1L71.8,24.9z"/>
	<path fill="#FFFFFF" d="M77,19.3h1l2,4.8h-1.1L78.4,23h-2L76,24.1h-1.1L77,19.3z M76,18.9c0.2-0.6,0.4-0.9,0.8-0.9
		c0.4,0,0.8,0.3,1,0.3c0.2,0,0.3-0.1,0.4-0.3l0.6,0.2C78.7,18.6,78.5,19,78,19c-0.4,0-0.8-0.3-1-0.3c-0.2,0-0.3,0.1-0.4,0.3L76,18.9
		z M78.1,22.1l-0.6-1.5l-0.6,1.5H78.1z"/>
	<path fill="#FFFFFF" d="M79.9,21.7L79.9,21.7c0-1.4,1.1-2.5,2.5-2.5c1.5,0,2.5,1.1,2.5,2.4v0c0,1.4-1.1,2.5-2.5,2.5
		C81,24.2,79.9,23.1,79.9,21.7 M83.9,21.7L83.9,21.7c0-0.8-0.6-1.5-1.4-1.5c-0.8,0-1.4,0.7-1.4,1.5v0c0,0.8,0.6,1.5,1.4,1.5
		C83.3,23.2,83.9,22.5,83.9,21.7"/>
	<path fill="#FFFFFF" d="M35.2,26.4h1.9c1.5,0,2.5,1,2.5,2.4v0c0,1.3-1,2.4-2.5,2.4h-1.9V26.4z M37.1,30.2c0.9,0,1.4-0.6,1.4-1.4v0
		c0-0.8-0.6-1.4-1.4-1.4h-0.8v2.9H37.1z"/>
	<polygon fill="#FFFFFF" points="40,26.4 43.6,26.4 43.6,27.3 41,27.3 41,28.3 43.3,28.3 43.3,29.2 41,29.2 41,30.2 43.6,30.2 
		43.6,31.1 40,31.1 	"/>
	<path fill="#FFFFFF" d="M45.9,30.4l0.6-0.7c0.4,0.4,0.9,0.6,1.4,0.6c0.4,0,0.7-0.2,0.7-0.4v0c0-0.3-0.2-0.4-1-0.6
		c-1-0.2-1.6-0.5-1.6-1.5v0c0-0.9,0.7-1.4,1.7-1.4c0.7,0,1.3,0.2,1.8,0.6L49,27.7c-0.4-0.3-0.8-0.5-1.2-0.5c-0.4,0-0.6,0.2-0.6,0.4
		v0c0,0.3,0.2,0.4,1,0.6c1,0.3,1.5,0.6,1.5,1.4v0c0,0.9-0.7,1.5-1.7,1.5C47.2,31.2,46.5,30.9,45.9,30.4"/>
	<path fill="#FFFFFF" d="M51.7,26.3h1l2,4.8h-1.1l-0.4-1.1h-2l-0.4,1.1h-1.1L51.7,26.3z M50.7,25.9c0.2-0.6,0.4-0.9,0.8-0.9
		c0.4,0,0.8,0.3,1,0.3c0.2,0,0.3-0.1,0.4-0.3l0.6,0.2c-0.2,0.6-0.4,0.9-0.8,0.9c-0.4,0-0.8-0.3-1-0.3c-0.2,0-0.3,0.1-0.4,0.3
		L50.7,25.9z M52.8,29.1l-0.6-1.5l-0.6,1.5H52.8z"/>
	<path fill="#FFFFFF" d="M54.6,28.8L54.6,28.8c0-1.4,1.1-2.5,2.5-2.5c1.5,0,2.5,1.1,2.5,2.4v0c0,1.4-1.1,2.5-2.5,2.5
		C55.7,31.2,54.6,30.1,54.6,28.8 M58.6,28.8L58.6,28.8c0-0.8-0.6-1.5-1.4-1.5c-0.8,0-1.4,0.7-1.4,1.5v0c0,0.8,0.6,1.5,1.4,1.5
		C58,30.2,58.6,29.6,58.6,28.8"/>
	<path fill="#FFFFFF" d="M62.3,26.4h1.9c1.1,0,1.8,0.7,1.8,1.6v0c0,1.1-0.9,1.7-1.9,1.7h-0.8v1.4h-1V26.4z M64.2,28.8
		c0.5,0,0.8-0.3,0.8-0.7v0c0-0.5-0.3-0.7-0.8-0.7h-0.8v1.5H64.2z"/>
	<path fill="#FFFFFF" d="M67.7,26.3h1l2,4.8h-1.1l-0.4-1.1h-2l-0.4,1.1h-1.1L67.7,26.3z M68.8,29.1l-0.6-1.5l-0.6,1.5H68.8z"/>
	<path fill="#FFFFFF" d="M70.8,29.1v-2.7h1v2.7c0,0.8,0.4,1.2,1,1.2c0.6,0,1-0.4,1-1.1v-2.7h1v2.7c0,1.4-0.8,2.1-2.1,2.1
		S70.8,30.5,70.8,29.1"/>
	<polygon fill="#FFFFFF" points="75.6,26.4 76.7,26.4 76.7,30.2 79.1,30.2 79.1,31.1 75.6,31.1 	"/>
	<path fill="#FFFFFF" d="M79.2,28.8L79.2,28.8c0-1.4,1.1-2.5,2.5-2.5c1.5,0,2.5,1.1,2.5,2.4v0c0,1.4-1.1,2.5-2.5,2.5
		C80.3,31.2,79.2,30.1,79.2,28.8 M83.2,28.8L83.2,28.8c0-0.8-0.6-1.5-1.4-1.5c-0.8,0-1.4,0.7-1.4,1.5v0c0,0.8,0.6,1.5,1.4,1.5
		C82.6,30.2,83.2,29.6,83.2,28.8"/>
	<path fill="#8FC640" d="M25.3,28.2c0-1.6,1.3-3,3-3c1.6,0,3,1.3,3,3c0,1.6-1.3,3-3,3C26.6,31.2,25.3,29.9,25.3,28.2"/>
	<path fill="#2A3C90" d="M25.3,3c0-1.6,1.3-3,3-3c1.6,0,3,1.3,3,3c0,1.6-1.3,3-3,3C26.6,5.9,25.3,4.6,25.3,3"/>
	<path fill="#3DB54A" d="M19.4,25.1c0.8-1.4,2.6-1.9,4-1.1c1.4,0.8,1.9,2.6,1.1,4c-0.8,1.4-2.6,1.9-4,1.1
		C19,28.3,18.5,26.5,19.4,25.1"/>
	<path fill="#019547" d="M15.8,19.4c1.4-0.8,3.2-0.3,4,1.1c0.8,1.4,0.3,3.2-1.1,4c-1.4,0.8-3.2,0.3-4-1.1
		C13.9,22,14.4,20.2,15.8,19.4"/>
	<path fill="#01A79D" d="M15.6,12.6c1.6,0,3,1.3,3,3s-1.3,3-3,3c-1.6,0-3-1.3-3-3S14,12.6,15.6,12.6"/>
	<path fill="#2BACE2" d="M18.8,6.7c1.4,0.8,1.9,2.6,1.1,4c-0.8,1.4-2.6,1.9-4,1.1c-1.4-0.8-1.9-2.6-1.1-4
		C15.5,6.4,17.4,5.9,18.8,6.7"/>
	<path fill="#1C76BC" d="M24.5,3.2c0.8,1.4,0.3,3.2-1.1,4c-1.4,0.8-3.2,0.3-4-1.1c-0.8-1.4-0.3-3.2,1.1-4
		C21.9,1.3,23.7,1.8,24.5,3.2"/>
	<path fill="#8FC640" d="M3,25.3c1.6,0,3,1.3,3,3s-1.3,3-3,3c-1.6,0-3-1.3-3-3S1.3,25.3,3,25.3"/>
	<path fill="#2A3C90" d="M28.2,25.3c1.6,0,3,1.3,3,3s-1.3,3-3,3c-1.6,0-3-1.3-3-3S26.6,25.3,28.2,25.3"/>
	<path fill="#3DB54A" d="M6.1,19.4c1.4,0.8,1.9,2.6,1.1,4c-0.8,1.4-2.6,1.9-4,1.1c-1.4-0.8-1.9-2.6-1.1-4C2.9,19,4.7,18.5,6.1,19.4"
		/>
	<path fill="#019547" d="M11.9,15.8c0.8,1.4,0.3,3.2-1.1,4c-1.4,0.8-3.2,0.3-4-1.1c-0.8-1.4-0.3-3.2,1.1-4
		C9.2,13.9,11,14.4,11.9,15.8"/>
	<path fill="#01A79D" d="M18.6,15.6c0,1.6-1.3,3-3,3s-3-1.3-3-3c0-1.6,1.3-3,3-3S18.6,14,18.6,15.6"/>
	<path fill="#2BACE2" d="M24.5,18.8c-0.8,1.4-2.6,1.9-4,1.1c-1.4-0.8-1.9-2.6-1.1-4c0.8-1.4,2.6-1.9,4-1.1
		C24.8,15.5,25.3,17.4,24.5,18.8"/>
	<path fill="#1C76BC" d="M28,24.5c-1.4,0.8-3.2,0.3-4-1.1c-0.8-1.4-0.3-3.2,1.1-4c1.4-0.8,3.2-0.3,4,1.1
		C29.9,21.9,29.4,23.7,28,24.5"/>
</g>
</svg>
