<svg width="53px" viewBox="0 0 53 44.9" preserveAspectRatio="xMidYMid meet">
<g>
	<path fill="#4AC8EF" d="M3.4,2.1c-0.7,0-1.3,0.6-1.3,1.3v30.1c0,0.7,0.6,1.3,1.3,1.3h46.2c0.7,0,1.3-0.6,1.3-1.3V3.4
		c0-0.7-0.6-1.3-1.3-1.3H3.4z M49.6,36.9H3.4c-1.9,0-3.4-1.5-3.4-3.4V3.4C0,1.5,1.5,0,3.4,0h46.2C51.5,0,53,1.5,53,3.4v30.1
		C53,35.3,51.5,36.9,49.6,36.9"/>
	<path fill="#4AC8EF" d="M25.7,30.1h-2.1v-4.3c0-2.4-2-3.6-4-3.7l-3.1,3.4c-0.2,0.2-0.5,0.3-0.8,0.3c-0.3,0-0.6-0.1-0.8-0.3
		l-3.4-3.5c-1.9,0.1-3.8,1.2-3.8,3.7v4.3H5.7v-4.3c0-3.5,2.5-5.8,6.3-5.8c0.3,0,0.5,0.1,0.7,0.3l2.9,3l2.7-3
		c0.2-0.2,0.5-0.3,0.8-0.3c3.9,0,6.6,2.4,6.6,5.8V30.1z"/>
	<path fill="#4AC8EF" d="M15.7,8.5c-1.7,0-3.1,1.4-3.1,3.1v1.6c0,1.7,1.4,3.1,3.1,3.1c1.7,0,3.1-1.4,3.1-3.1v-1.6
		C18.8,9.9,17.4,8.5,15.7,8.5 M15.7,18.4c-2.8,0-5.2-2.3-5.2-5.2v-1.6c0-2.9,2.3-5.2,5.2-5.2c2.8,0,5.2,2.3,5.2,5.2v1.6
		C20.9,16,18.6,18.4,15.7,18.4"/>
	<path fill="#4AC8EF" d="M44.6,16.8H30.4c-0.6,0-1-0.5-1-1c0-0.6,0.5-1,1-1h14.3c0.6,0,1,0.5,1,1C45.7,16.3,45.2,16.8,44.6,16.8"/>
	<path fill="#4AC8EF" d="M44.6,11.4H30.4c-0.6,0-1-0.5-1-1s0.5-1,1-1h14.3c0.6,0,1,0.5,1,1S45.2,11.4,44.6,11.4"/>
	<path fill="#4AC8EF" d="M44.6,27.5H30.4c-0.6,0-1-0.5-1-1c0-0.6,0.5-1,1-1h14.3c0.6,0,1,0.5,1,1C45.7,27.1,45.2,27.5,44.6,27.5"/>
	<path fill="#4AC8EF" d="M44.6,22.2H30.4c-0.6,0-1-0.5-1-1c0-0.6,0.5-1,1-1h14.3c0.6,0,1,0.5,1,1C45.7,21.7,45.2,22.2,44.6,22.2"/>
	<path fill="#4AC8EF" d="M36.7,44.9H16.3c-0.6,0-1-0.5-1-1c0-0.6,0.5-1,1-1h20.4c0.6,0,1,0.5,1,1C37.7,44.5,37.3,44.9,36.7,44.9"/>
	<rect x="31" y="36.1" fill="#4AC8EF" width="2.1" height="7.4"/>
	<rect x="19.9" y="36.1" fill="#4AC8EF" width="2.1" height="7.4"/>
</g>
</svg>
