<svg width="50px" viewBox="0 0 50 50.7" preserveAspectRatio="xMidYMid meet">
<g>
	<path fill="#47C7EF" d="M14.6,50.6c-0.3,0-0.6-0.1-0.8-0.4c-0.4-0.5-0.3-1.1,0.2-1.5l10.3-7.9c0.5-0.4,1.1-0.3,1.5,0.2
		c0.4,0.5,0.3,1.1-0.2,1.5l-10.3,7.9C15.1,50.6,14.8,50.6,14.6,50.6"/>
	<path fill="#47C7EF" d="M35.4,50.6c-0.2,0-0.4-0.1-0.6-0.2l-10.3-7.9c-0.5-0.4-0.5-1-0.2-1.5c0.4-0.5,1-0.5,1.5-0.2L36,48.7
		c0.5,0.4,0.5,1,0.2,1.5C36,50.5,35.7,50.6,35.4,50.6"/>
	<path fill="#47C7EF" d="M42.1,34H7.9c-2.9,0-5.3-2.4-5.3-5.3V1.3h2.1v27.4c0,1.7,1.4,3.2,3.2,3.2h34.2c1.7,0,3.2-1.4,3.2-3.2V1.3
		h2.1v27.4C47.4,31.6,45,34,42.1,34"/>
	<path fill="#47C7EF" d="M48.9,2.1H1.1C0.5,2.1,0,1.6,0,1.1C0,0.5,0.5,0,1.1,0h47.9C49.5,0,50,0.5,50,1.1C50,1.6,49.5,2.1,48.9,2.1"
		/>
	<path fill="#47C7EF" d="M12.3,27.5c-0.2,0-0.4,0-0.5-0.2c-0.5-0.3-0.7-0.9-0.4-1.4l5.8-9.5c0.2-0.3,0.5-0.5,0.9-0.5
		c0.4,0,0.7,0.2,0.9,0.4l3.6,5.2l4.3-4.5c0.4-0.4,1-0.4,1.4-0.1l3.7,3.1L37.1,7c0.2-0.5,0.8-0.8,1.4-0.6C39,6.6,39.2,7.2,39,7.7
		l-5.7,14.5c-0.1,0.3-0.4,0.6-0.7,0.6c-0.3,0.1-0.7,0-0.9-0.2l-4-3.5l-4.5,4.7c-0.2,0.2-0.5,0.3-0.8,0.3c-0.3,0-0.6-0.2-0.8-0.4
		l-3.4-4.9L13.2,27C13,27.4,12.7,27.5,12.3,27.5"/>
	<path fill="#47C7EF" d="M25,50.7c-0.6,0-1.1-0.5-1.1-1.1v-9.9c0-0.6,0.5-1.1,1.1-1.1c0.6,0,1.1,0.5,1.1,1.1v9.9
		C26.1,50.2,25.6,50.7,25,50.7"/>
</g>
</svg>
