<svg width="56px" viewBox="0 0 56 47.2" preserveAspectRatio="xMidYMid meet">
<path fill="#4AC8EF" d="M36.3,21.1c-0.2,0-0.4-0.1-0.6-0.2c-0.3-0.3-0.3-0.9,0-1.2L45.8,9.3C46.1,9,46.7,9,47,9.3
	c0.3,0.3,0.3,0.9,0,1.2L36.9,20.9C36.7,21.1,36.5,21.1,36.3,21.1"/>
<path fill="#4AC8EF" d="M46.5,18.1c-0.5,0-0.8-0.4-0.8-0.8v-6.6h-6.5c-0.5,0-0.8-0.4-0.8-0.8c0-0.5,0.4-0.8,0.8-0.8h7.3
	c0.2,0,0.4,0.1,0.6,0.2c0.2,0.2,0.3,0.4,0.3,0.6v7.4C47.3,17.7,47,18.1,46.5,18.1"/>
<path fill="#4AC8EF" d="M39.1,47.2H16.9c-0.5,0-0.8-0.4-0.8-0.8c0-0.5,0.4-0.8,0.8-0.8h22.1c0.5,0,0.8,0.4,0.8,0.8
	C39.9,46.8,39.5,47.2,39.1,47.2"/>
<path fill="#4AC8EF" d="M24.2,47c-0.5,0-0.8-0.4-0.8-0.8v-7c0-0.5,0.4-0.8,0.8-0.8c0.5,0,0.8,0.4,0.8,0.8v7C25,46.6,24.6,47,24.2,47
	"/>
<path fill="#4AC8EF" d="M31.8,47c-0.5,0-0.8-0.4-0.8-0.8v-7c0-0.5,0.4-0.8,0.8-0.8c0.5,0,0.8,0.4,0.8,0.8v7
	C32.7,46.6,32.3,47,31.8,47"/>
<path fill="#4AC8EF" d="M5.4,1.7c-2.1,0-3.7,1.7-3.7,3.8v28.6c0,2.1,1.7,3.8,3.7,3.8h45.2c2.1,0,3.7-1.7,3.7-3.8V5.5
	c0-2.1-1.7-3.8-3.7-3.8H5.4z M50.6,39.7H5.4c-3,0-5.4-2.5-5.4-5.5V5.5C0,2.5,2.4,0,5.4,0h45.2c3,0,5.4,2.5,5.4,5.5v28.6
	C56,37.2,53.6,39.7,50.6,39.7"/>
<rect x="4.7" y="31.3" fill="#4AC8EF" width="46.7" height="1.7"/>
</svg>
