<svg width="52px" viewBox="0 0 52 42.5" preserveAspectRatio="xMidYMid meet">
<g id="Layer_1">
	<g id="Layer_3">
		<g>
			<rect x="45.5" y="17.5" fill="#4AC8EF" width="1.8" height="16.7"/>
			<path fill="#4AC8EF" d="M6.5,34.2H4.7V12.3c0-2.1,1.7-3.9,3.9-3.9h8.9v1.8H8.6c-1.1,0-2.1,0.9-2.1,2.1V34.2z"/>
			<path fill="#4AC8EF" d="M2.1,38.4c0.4,1,1.2,2.3,2.5,2.3h42.7c1.3,0,2.1-1.3,2.5-2.3H2.1z M47.4,42.5H4.6c-3.6,0-4.6-4.6-4.6-4.8
				c-0.1-0.3,0-0.5,0.2-0.8c0.2-0.2,0.4-0.3,0.7-0.3h50.2c0.3,0,0.5,0.1,0.7,0.3c0.2,0.2,0.2,0.5,0.2,0.8
				C51.9,37.9,50.9,42.5,47.4,42.5"/>
			<path fill="#4AC8EF" d="M35,7.7c0,0.2-0.2,0.4-0.4,0.4c-0.2,0-0.4-0.2-0.4-0.4c0-0.2,0.2-0.4,0.4-0.4C34.8,7.2,35,7.4,35,7.7"/>
			<path fill="#4AC8EF" d="M34.6,7.2c-0.3,0-0.5,0.2-0.5,0.5c0,0.3,0.2,0.5,0.5,0.5c0.3,0,0.5-0.2,0.5-0.5
				C35.1,7.4,34.9,7.2,34.6,7.2 M34.6,9c-0.7,0-1.3-0.6-1.3-1.3c0-0.7,0.6-1.3,1.3-1.3c0.7,0,1.3,0.6,1.3,1.3
				C35.9,8.4,35.3,9,34.6,9"/>
			<path fill="#4AC8EF" d="M39.6,7.7c0,0.2-0.2,0.4-0.4,0.4c-0.2,0-0.4-0.2-0.4-0.4c0-0.2,0.2-0.4,0.4-0.4
				C39.4,7.2,39.6,7.4,39.6,7.7"/>
			<path fill="#4AC8EF" d="M39.2,7.2c-0.3,0-0.5,0.2-0.5,0.5c0,0.3,0.2,0.5,0.5,0.5c0.3,0,0.5-0.2,0.5-0.5
				C39.7,7.4,39.5,7.2,39.2,7.2 M39.2,9c-0.7,0-1.3-0.6-1.3-1.3c0-0.7,0.6-1.3,1.3-1.3c0.7,0,1.3,0.6,1.3,1.3
				C40.5,8.4,39.9,9,39.2,9"/>
			<path fill="#4AC8EF" d="M44.2,7.7c0,0.2-0.2,0.4-0.4,0.4c-0.2,0-0.4-0.2-0.4-0.4c0-0.2,0.2-0.4,0.4-0.4C44,7.2,44.2,7.4,44.2,7.7
				"/>
			<path fill="#4AC8EF" d="M43.8,7.2c-0.3,0-0.5,0.2-0.5,0.5c0,0.3,0.2,0.5,0.5,0.5c0.3,0,0.5-0.2,0.5-0.5
				C44.3,7.4,44.1,7.2,43.8,7.2 M43.8,9c-0.7,0-1.3-0.6-1.3-1.3c0-0.7,0.6-1.3,1.3-1.3c0.7,0,1.3,0.6,1.3,1.3
				C45.1,8.4,44.5,9,43.8,9"/>
			<path fill="#4AC8EF" d="M26,8.3c-1.7,0-2.9,0.4-3.6,1.1c-1,1.1-0.9,3-0.7,5c0.3,3.6,2.5,6.2,4.3,6.2c1.7,0,4-2.7,4.3-6.2
				c0.2-2,0.2-3.9-0.7-5C28.9,8.7,27.8,8.3,26,8.3 M26,22.4c-2.9,0-5.7-3.5-6.1-7.9c-0.2-2.4-0.2-4.8,1.2-6.4c1-1.1,2.6-1.7,4.9-1.7
				c2.3,0,3.9,0.5,4.9,1.7c1.4,1.6,1.4,4,1.2,6.4C31.7,18.9,29,22.4,26,22.4"/>
			<path fill="#4AC8EF" d="M31.2,14.4c-0.1,0-0.2,0-0.2,0c-1.5-0.4-2.6-1.1-3.3-1.6c-0.6,0.5-1.6,1.1-3.4,1.3c-0.5,0.1-1-0.3-1-0.7
				c-0.1-0.5,0.3-1,0.7-1c2.2-0.4,2.7-1.2,2.7-1.2c0.1-0.3,0.4-0.4,0.7-0.5c0.3-0.1,0.6,0.1,0.8,0.3c0,0,1.3,1.2,3.2,1.7
				c0.5,0.1,0.8,0.6,0.6,1.1C31.9,14.1,31.6,14.4,31.2,14.4"/>
			<path fill="#4AC8EF" d="M49.3,15.3H34.5v-1.8h13.8V1.8H28.9v2.8h-1.8V0.9C27.1,0.4,27.5,0,28,0h21.3c0.5,0,0.9,0.4,0.9,0.9v13.5
				C50.2,14.9,49.8,15.3,49.3,15.3"/>
			<path fill="#4AC8EF" d="M37.2,34.2h-1.8v-5.8c0-2.4-3-3.2-3.1-3.2l-1.4-0.4L26.7,30c-0.3,0.4-1.1,0.4-1.4,0l-4.2-5.2l-1.4,0.4
				c-0.2,0-3.2,0.8-3.2,3.3v5.8h-1.8v-5.8c0-3.8,4.3-4.9,4.5-5l1.9-0.6c0.4-0.1,0.7,0,1,0.3L26,28l3.9-4.8c0.2-0.3,0.6-0.4,1-0.3
				l1.9,0.6c0.1,0,4.5,1.2,4.5,5V34.2z"/>
			<path fill="#4AC8EF" d="M36,19.4c-0.2,0-0.4-0.1-0.6-0.2c-0.4-0.3-0.4-0.9-0.1-1.3l3.4-4c0.3-0.4,0.9-0.4,1.3-0.1
				c0.4,0.3,0.4,0.9,0.1,1.3l-3.4,4C36.5,19.3,36.2,19.4,36,19.4"/>
		</g>
	</g>
</g>
<g id="Layer_2">
</g>
</svg>
