<svg width="50px" viewBox="0 0 50 68.45" preserveAspectRatio="xMidYMid meet">
<g>
	<path fill="#DCDDDE" d="M48.88,34.48H1.11C0.5,34.48,0,34.98,0,35.6v31.73c0,0.62,0.5,1.12,1.11,1.12h47.77
		c0.62,0,1.12-0.5,1.12-1.12V35.6C50,34.98,49.5,34.48,48.88,34.48"/>
	<path fill="#F2F2F2" d="M48.88,34.48H1.11C0.5,34.48,0,34.98,0,35.6v0.47c0-0.62,0.5-1.11,1.11-1.11h47.77
		c0.62,0,1.12,0.5,1.12,1.11V35.6C50,34.98,49.5,34.48,48.88,34.48"/>
	<rect x="2.51" y="37.37" fill="#AF606E" width="44.98" height="28.2"/>
	<g opacity="0.2">
		<g>
			<defs>
				<rect id="SVGID_1_" x="2.51" y="64.75" width="44.98" height="0.81"/>
			</defs>
			<clipPath id="SVGID_2_">
				<use xlink:href="#SVGID_1_"  overflow="visible"/>
			</clipPath>
			<g clip-path="url(#SVGID_2_)">
				<defs>
					<rect id="SVGID_3_" x="2.51" y="64.75" width="44.98" height="0.81"/>
				</defs>
				<clipPath id="SVGID_4_">
					<use xlink:href="#SVGID_3_"  overflow="visible"/>
				</clipPath>
				<rect x="2.51" y="64.75" clip-path="url(#SVGID_4_)" fill="#231F20" width="44.98" height="0.81"/>
			</g>
		</g>
	</g>
	<path fill="#FFFFFF" d="M9.21,3.12c-0.1,0.16-0.2,0.28-0.32,0.36C8.78,3.55,8.64,3.59,8.47,3.59c-0.15,0-0.32-0.05-0.49-0.14
		C7.8,3.35,7.6,3.24,7.38,3.13C7.15,3.01,6.9,2.9,6.61,2.8C6.33,2.7,6,2.66,5.64,2.66c-0.63,0-1.1,0.13-1.41,0.4
		C3.92,3.33,3.76,3.69,3.76,4.15c0,0.29,0.09,0.54,0.28,0.73c0.19,0.19,0.43,0.36,0.73,0.5c0.3,0.14,0.65,0.27,1.04,0.38
		C6.2,5.88,6.6,6.01,7,6.16c0.41,0.14,0.8,0.31,1.19,0.5C8.59,6.85,8.93,7.1,9.23,7.4c0.3,0.3,0.55,0.67,0.73,1.09
		c0.19,0.43,0.28,0.95,0.28,1.55c0,0.67-0.12,1.3-0.35,1.89c-0.23,0.59-0.57,1.1-1.01,1.53c-0.44,0.44-0.99,0.78-1.64,1.03
		c-0.65,0.25-1.39,0.37-2.21,0.37c-0.45,0-0.91-0.04-1.38-0.14c-0.47-0.09-0.92-0.22-1.36-0.39c-0.44-0.17-0.85-0.37-1.24-0.6
		c-0.38-0.23-0.72-0.49-1.01-0.78l1-1.58c0.08-0.11,0.19-0.21,0.32-0.29c0.13-0.08,0.27-0.11,0.42-0.11c0.2,0,0.4,0.06,0.6,0.19
		c0.2,0.12,0.43,0.27,0.69,0.42c0.26,0.15,0.55,0.29,0.88,0.42c0.34,0.13,0.73,0.19,1.18,0.19c0.61,0,1.09-0.14,1.43-0.4
		c0.34-0.27,0.51-0.7,0.51-1.28c0-0.34-0.09-0.62-0.28-0.83C6.61,9.46,6.36,9.28,6.06,9.14C5.76,9,5.41,8.88,5.03,8.77
		C4.64,8.67,4.25,8.55,3.84,8.42c-0.4-0.13-0.8-0.29-1.19-0.48C2.26,7.75,1.92,7.5,1.62,7.19C1.31,6.88,1.07,6.5,0.88,6.03
		C0.7,5.57,0.6,5,0.6,4.32c0-0.55,0.11-1.08,0.33-1.6C1.15,2.21,1.48,1.75,1.9,1.34c0.43-0.4,0.95-0.73,1.57-0.97
		C4.09,0.12,4.8,0,5.6,0c0.45,0,0.88,0.03,1.3,0.1c0.42,0.07,0.82,0.17,1.2,0.31c0.38,0.14,0.73,0.3,1.06,0.49
		c0.33,0.19,0.62,0.4,0.88,0.65L9.21,3.12z"/>
	<path fill="#FFFFFF" d="M25.28,14.7h-2.62c-0.29,0-0.53-0.07-0.71-0.2c-0.18-0.14-0.32-0.31-0.41-0.53l-0.86-2.53h-5.53l-0.86,2.53
		c-0.07,0.19-0.21,0.35-0.39,0.51c-0.19,0.15-0.42,0.22-0.7,0.22h-2.63l5.63-14.54h3.45L25.28,14.7z M19.92,9.14l-1.35-3.98
		c-0.1-0.25-0.21-0.55-0.32-0.89c-0.11-0.34-0.23-0.71-0.34-1.11c-0.1,0.41-0.21,0.78-0.32,1.13c-0.11,0.35-0.22,0.65-0.32,0.9
		l-1.34,3.96H19.92z"/>
	<polygon fill="#FFFFFF" points="35.19,12.01 35.19,14.7 26.43,14.7 26.43,0.16 29.8,0.16 29.8,12.01 	"/>
	<path fill="#FFFFFF" d="M49.95,14.7h-2.61c-0.29,0-0.53-0.07-0.71-0.2c-0.18-0.14-0.32-0.31-0.41-0.53l-0.86-2.53h-5.53l-0.86,2.53
		c-0.07,0.19-0.21,0.35-0.39,0.51c-0.19,0.15-0.42,0.22-0.7,0.22h-2.63l5.63-14.54h3.45L49.95,14.7z M44.59,9.14l-1.35-3.98
		c-0.1-0.25-0.21-0.55-0.32-0.89c-0.11-0.34-0.23-0.71-0.34-1.11c-0.1,0.41-0.21,0.78-0.32,1.13c-0.11,0.35-0.22,0.65-0.32,0.9
		l-1.34,3.96H44.59z"/>
	<path fill="#FFFFFF" d="M14.14,24.62c0,1.12-0.19,2.16-0.58,3.1c-0.39,0.95-0.93,1.77-1.64,2.46c-0.7,0.69-1.55,1.23-2.54,1.62
		c-0.99,0.39-2.09,0.58-3.3,0.58H0.06V16.86h6.03c1.21,0,2.31,0.19,3.3,0.59c0.99,0.39,1.84,0.93,2.54,1.62
		c0.7,0.69,1.25,1.51,1.64,2.46C13.95,22.47,14.14,23.5,14.14,24.62 M10.46,24.62c0-0.77-0.1-1.46-0.3-2.08
		c-0.2-0.62-0.49-1.14-0.86-1.57c-0.37-0.43-0.83-0.76-1.37-0.99c-0.54-0.23-1.15-0.34-1.84-0.34H3.68v9.98h2.41
		c0.69,0,1.3-0.11,1.84-0.34c0.54-0.23,1-0.56,1.37-0.99c0.37-0.43,0.66-0.96,0.86-1.57C10.36,26.09,10.46,25.39,10.46,24.62"/>
	<path fill="#FFFFFF" d="M30.36,24.62c0,1.12-0.19,2.16-0.58,3.1c-0.39,0.95-0.93,1.77-1.64,2.46c-0.7,0.69-1.55,1.23-2.54,1.62
		c-0.99,0.39-2.09,0.58-3.3,0.58h-6.03V16.86h6.03c1.21,0,2.31,0.19,3.3,0.59c0.99,0.39,1.84,0.93,2.54,1.62
		c0.7,0.69,1.25,1.51,1.64,2.46C30.16,22.47,30.36,23.5,30.36,24.62 M26.67,24.62c0-0.77-0.1-1.46-0.3-2.08
		c-0.2-0.62-0.49-1.14-0.86-1.57c-0.37-0.43-0.83-0.76-1.37-0.99c-0.54-0.23-1.16-0.34-1.84-0.34H19.9v9.98h2.41
		c0.69,0,1.3-0.11,1.84-0.34c0.54-0.23,1-0.56,1.37-0.99c0.37-0.43,0.66-0.96,0.86-1.57C26.57,26.09,26.67,25.39,26.67,24.62"/>
	<path fill="#FFFFFF" d="M49.94,16.86v15.52h-3.17v-8.93c0-0.21,0.01-0.43,0.01-0.67c0.01-0.24,0.03-0.49,0.06-0.73l-4.12,7.98
		c-0.13,0.25-0.3,0.44-0.52,0.57c-0.22,0.13-0.46,0.19-0.74,0.19h-0.49c-0.28,0-0.52-0.06-0.74-0.19c-0.22-0.13-0.39-0.32-0.52-0.57
		l-4.12-8c0.02,0.26,0.04,0.51,0.05,0.75c0.01,0.25,0.02,0.47,0.02,0.68v8.93h-3.17V16.86h2.75c0.16,0,0.29,0,0.41,0.01
		c0.12,0.01,0.22,0.03,0.31,0.06c0.09,0.03,0.18,0.09,0.25,0.17c0.08,0.07,0.15,0.18,0.22,0.31l4,7.87
		c0.14,0.27,0.28,0.55,0.41,0.84c0.13,0.29,0.26,0.59,0.38,0.9c0.12-0.31,0.25-0.62,0.38-0.92c0.13-0.3,0.27-0.58,0.42-0.85
		L46,17.41c0.07-0.13,0.14-0.24,0.22-0.31c0.07-0.07,0.16-0.13,0.25-0.17c0.09-0.03,0.2-0.06,0.32-0.06
		c0.12-0.01,0.25-0.01,0.41-0.01H49.94z"/>
	<path fill="#FFFFFF" d="M18.85,59.31c0.22,0,0.4,0.06,0.53,0.18c0.13,0.12,0.2,0.29,0.2,0.49v1.21h-6.86v-0.67
		c0-0.13,0.03-0.27,0.08-0.41c0.05-0.15,0.15-0.28,0.28-0.4l2.81-2.84c0.24-0.24,0.45-0.47,0.63-0.69c0.18-0.22,0.33-0.43,0.44-0.65
		c0.12-0.21,0.2-0.42,0.26-0.64c0.06-0.21,0.09-0.44,0.09-0.67c0-0.39-0.09-0.69-0.28-0.9c-0.19-0.21-0.47-0.31-0.85-0.31
		c-0.31,0-0.57,0.08-0.78,0.24c-0.21,0.16-0.36,0.36-0.44,0.61c-0.09,0.25-0.22,0.41-0.37,0.49c-0.15,0.08-0.37,0.1-0.65,0.05
		l-1.1-0.19c0.07-0.49,0.21-0.91,0.41-1.27c0.2-0.36,0.45-0.66,0.76-0.91c0.3-0.24,0.65-0.42,1.03-0.54
		c0.39-0.12,0.81-0.18,1.25-0.18c0.48,0,0.92,0.07,1.3,0.21c0.39,0.14,0.72,0.34,0.99,0.59c0.27,0.25,0.48,0.55,0.63,0.89
		c0.14,0.35,0.22,0.73,0.22,1.14c0,0.36-0.05,0.69-0.15,0.99c-0.1,0.31-0.24,0.59-0.41,0.87c-0.17,0.28-0.38,0.54-0.61,0.8
		c-0.23,0.26-0.47,0.52-0.73,0.78l-1.91,1.96c0.25-0.07,0.49-0.13,0.73-0.17c0.24-0.04,0.47-0.06,0.67-0.06H18.85z"/>
	<path fill="#FFFFFF" d="M27.56,57.39v1.17c0,0.1-0.03,0.19-0.1,0.27c-0.07,0.08-0.17,0.11-0.3,0.11h-0.6v2.24h-1.81v-2.24h-3.93
		c-0.13,0-0.25-0.04-0.35-0.12c-0.1-0.08-0.17-0.18-0.2-0.3l-0.21-1.03l4.52-6.07h1.98v5.97H27.56z M24.74,57.39v-2.55
		c0-0.16,0-0.33,0.02-0.51c0.01-0.18,0.03-0.37,0.05-0.57l-2.58,3.62H24.74z"/>
	<polygon fill="#FFFFFF" points="37.33,51.42 37.33,61.19 35.05,61.19 35.05,57.06 31.08,57.06 31.08,61.19 28.8,61.19 28.8,51.42 
		31.08,51.42 31.08,55.5 35.05,55.5 35.05,51.42 	"/>
	<path fill="#FFFFFF" d="M15.66,42.62c0,0.25-0.04,0.47-0.12,0.68s-0.2,0.38-0.35,0.53c-0.15,0.15-0.33,0.26-0.54,0.34
		c-0.21,0.08-0.44,0.12-0.7,0.12h-1.28v-3.36h1.28c0.26,0,0.49,0.04,0.7,0.12c0.21,0.08,0.39,0.2,0.54,0.35
		c0.15,0.15,0.27,0.33,0.35,0.53S15.66,42.38,15.66,42.62 M15.02,42.62c0-0.18-0.02-0.35-0.07-0.5c-0.05-0.15-0.12-0.27-0.21-0.37
		c-0.09-0.1-0.2-0.18-0.33-0.23c-0.13-0.05-0.28-0.08-0.44-0.08h-0.65v2.37h0.65c0.16,0,0.31-0.03,0.44-0.08
		c0.13-0.05,0.24-0.13,0.33-0.23c0.09-0.1,0.16-0.23,0.21-0.37C15,42.97,15.02,42.81,15.02,42.62"/>
	<polygon fill="#FFFFFF" points="16.77,41.44 16.77,42.37 17.95,42.37 17.95,42.85 16.77,42.85 16.77,43.8 18.26,43.8 18.26,44.3 
		16.14,44.3 16.14,40.94 18.26,40.94 18.26,41.44 	"/>
	<polygon fill="#FFFFFF" points="20.71,43.79 20.71,44.3 18.74,44.3 18.74,40.94 19.37,40.94 19.37,43.79 	"/>
	<polygon fill="#FFFFFF" points="21.72,41.44 21.72,42.37 22.89,42.37 22.89,42.85 21.72,42.85 21.72,43.8 23.21,43.8 23.21,44.3 
		21.09,44.3 21.09,40.94 23.21,40.94 23.21,41.44 	"/>
	<path fill="#FFFFFF" d="M26.46,42.62v1.36c-0.17,0.12-0.35,0.22-0.55,0.28c-0.19,0.06-0.4,0.09-0.62,0.09
		c-0.28,0-0.52-0.04-0.74-0.13c-0.22-0.08-0.41-0.2-0.57-0.35c-0.16-0.15-0.28-0.33-0.36-0.54c-0.08-0.21-0.13-0.44-0.13-0.69
		c0-0.25,0.04-0.48,0.12-0.69c0.08-0.21,0.2-0.39,0.35-0.54c0.15-0.15,0.34-0.27,0.55-0.35c0.22-0.08,0.46-0.13,0.73-0.13
		c0.14,0,0.26,0.01,0.38,0.03c0.12,0.02,0.23,0.05,0.33,0.09c0.1,0.04,0.19,0.08,0.28,0.14c0.08,0.05,0.16,0.11,0.23,0.18
		l-0.18,0.28c-0.03,0.04-0.06,0.07-0.11,0.08c-0.04,0.01-0.09,0-0.15-0.03c-0.05-0.03-0.1-0.06-0.15-0.09
		c-0.05-0.03-0.11-0.05-0.17-0.08c-0.06-0.02-0.13-0.04-0.21-0.05c-0.08-0.01-0.17-0.02-0.27-0.02c-0.17,0-0.32,0.03-0.45,0.08
		c-0.13,0.06-0.25,0.14-0.34,0.24c-0.09,0.1-0.17,0.23-0.22,0.37c-0.05,0.15-0.08,0.31-0.08,0.49c0,0.19,0.03,0.36,0.08,0.51
		c0.05,0.15,0.13,0.28,0.23,0.38c0.1,0.1,0.22,0.18,0.36,0.24c0.14,0.05,0.3,0.08,0.47,0.08c0.12,0,0.23-0.01,0.33-0.04
		c0.1-0.02,0.19-0.06,0.29-0.11v-0.61h-0.42c-0.04,0-0.07-0.01-0.09-0.03c-0.02-0.02-0.03-0.05-0.03-0.08v-0.35H26.46z"/>
	<path fill="#FFFFFF" d="M29.87,44.3h-0.48c-0.05,0-0.1-0.01-0.13-0.04c-0.03-0.03-0.06-0.06-0.08-0.1l-0.25-0.68h-1.39l-0.25,0.68
		c-0.01,0.03-0.04,0.07-0.07,0.1c-0.04,0.03-0.08,0.04-0.13,0.04H26.6l1.32-3.36h0.64L29.87,44.3z M28.77,43.03l-0.41-1.12
		c-0.02-0.05-0.04-0.11-0.06-0.18c-0.02-0.07-0.04-0.14-0.06-0.22c-0.02,0.08-0.04,0.15-0.06,0.22c-0.02,0.07-0.04,0.13-0.06,0.18
		l-0.41,1.11H28.77z"/>
	<path fill="#FFFFFF" d="M32.46,43.51c0.03,0,0.06,0.01,0.09,0.04l0.25,0.27c-0.14,0.17-0.31,0.3-0.5,0.39
		c-0.2,0.09-0.44,0.13-0.72,0.13c-0.25,0-0.47-0.04-0.67-0.13c-0.2-0.09-0.37-0.2-0.51-0.36c-0.14-0.15-0.25-0.33-0.33-0.54
		c-0.07-0.21-0.11-0.44-0.11-0.69c0-0.25,0.04-0.48,0.12-0.69c0.08-0.21,0.19-0.39,0.34-0.54c0.15-0.15,0.32-0.27,0.52-0.35
		c0.2-0.08,0.43-0.13,0.67-0.13c0.25,0,0.46,0.04,0.65,0.12c0.19,0.08,0.35,0.19,0.48,0.32l-0.21,0.29
		c-0.01,0.02-0.03,0.03-0.05,0.05c-0.02,0.01-0.05,0.02-0.08,0.02c-0.02,0-0.05-0.01-0.07-0.02c-0.02-0.01-0.05-0.03-0.08-0.05
		c-0.03-0.02-0.06-0.04-0.1-0.06c-0.04-0.02-0.08-0.04-0.13-0.06c-0.05-0.02-0.11-0.04-0.18-0.05c-0.07-0.01-0.14-0.02-0.23-0.02
		c-0.15,0-0.29,0.03-0.41,0.08c-0.12,0.05-0.23,0.13-0.32,0.23c-0.09,0.1-0.16,0.23-0.21,0.37c-0.05,0.15-0.07,0.31-0.07,0.5
		c0,0.19,0.03,0.36,0.08,0.5c0.05,0.15,0.12,0.27,0.22,0.37c0.09,0.1,0.2,0.18,0.32,0.23c0.12,0.05,0.26,0.08,0.4,0.08
		c0.09,0,0.16,0,0.23-0.01c0.07-0.01,0.13-0.02,0.19-0.04c0.06-0.02,0.11-0.04,0.17-0.08c0.05-0.03,0.1-0.07,0.15-0.12
		c0.01-0.01,0.03-0.02,0.05-0.03C32.42,43.52,32.44,43.51,32.46,43.51"/>
	<rect x="33.16" y="40.94" fill="#FFFFFF" width="0.63" height="3.36"/>
	<path fill="#FFFFFF" d="M37.34,44.3h-0.48c-0.05,0-0.1-0.01-0.13-0.04c-0.03-0.03-0.06-0.06-0.08-0.1l-0.25-0.68h-1.39l-0.25,0.68
		c-0.01,0.03-0.04,0.07-0.07,0.1c-0.04,0.03-0.08,0.04-0.13,0.04h-0.49l1.32-3.36h0.64L37.34,44.3z M36.24,43.03l-0.41-1.12
		c-0.02-0.05-0.04-0.11-0.06-0.18c-0.02-0.07-0.04-0.14-0.06-0.22c-0.02,0.08-0.04,0.15-0.06,0.22c-0.02,0.07-0.04,0.13-0.06,0.18
		l-0.41,1.11H36.24z"/>
	<path fill="#FFFFFF" d="M15.43,47.39c0,0.23-0.04,0.44-0.11,0.63c-0.08,0.19-0.18,0.36-0.32,0.5c-0.14,0.14-0.31,0.25-0.5,0.32
		c-0.19,0.08-0.41,0.11-0.65,0.11h-1.19v-3.13h1.19c0.24,0,0.45,0.04,0.65,0.12c0.2,0.08,0.36,0.18,0.5,0.32
		c0.14,0.14,0.24,0.3,0.32,0.5C15.39,46.95,15.43,47.16,15.43,47.39 M14.83,47.39c0-0.17-0.02-0.33-0.07-0.46
		c-0.05-0.14-0.11-0.25-0.2-0.35c-0.08-0.09-0.19-0.17-0.31-0.22c-0.12-0.05-0.26-0.08-0.41-0.08h-0.61v2.2h0.61
		c0.15,0,0.29-0.02,0.41-0.07c0.12-0.05,0.23-0.12,0.31-0.22c0.09-0.09,0.15-0.21,0.2-0.34C14.81,47.72,14.83,47.56,14.83,47.39"/>
	<path fill="#FFFFFF" d="M18.56,48.96h-0.45c-0.05,0-0.09-0.01-0.12-0.04c-0.03-0.03-0.05-0.06-0.07-0.09l-0.23-0.64h-1.3
		l-0.23,0.64c-0.01,0.03-0.03,0.06-0.07,0.09c-0.03,0.03-0.07,0.04-0.12,0.04H15.5l1.23-3.13h0.59L18.56,48.96z M17.53,47.78
		l-0.38-1.04c-0.02-0.05-0.04-0.1-0.06-0.16c-0.02-0.06-0.04-0.13-0.06-0.21c-0.02,0.07-0.04,0.14-0.06,0.21
		c-0.02,0.06-0.04,0.12-0.06,0.17l-0.38,1.03H17.53z"/>
	<path fill="#FFFFFF" d="M23.19,45.83v3.13h-0.51v-2.02c0-0.08,0-0.17,0.01-0.26l-0.95,1.77c-0.04,0.08-0.11,0.13-0.21,0.13h-0.08
		c-0.09,0-0.16-0.04-0.21-0.13l-0.96-1.78c0,0.05,0.01,0.09,0.01,0.14c0,0.04,0,0.09,0,0.13v2.02H19.8v-3.13h0.44
		c0.02,0,0.05,0,0.07,0c0.02,0,0.03,0,0.05,0.01c0.01,0.01,0.03,0.01,0.04,0.03c0.01,0.01,0.02,0.03,0.03,0.05l0.94,1.73
		c0.02,0.05,0.05,0.09,0.07,0.14c0.02,0.05,0.04,0.1,0.06,0.15c0.02-0.05,0.04-0.11,0.06-0.16c0.02-0.05,0.04-0.1,0.07-0.14
		l0.92-1.73c0.01-0.02,0.02-0.04,0.04-0.05c0.01-0.01,0.03-0.02,0.04-0.03c0.01,0,0.03-0.01,0.05-0.01c0.02,0,0.04,0,0.07,0H23.19z"
		/>
	<path fill="#FFFFFF" d="M25.08,48.49c0.11,0,0.21-0.02,0.3-0.06c0.09-0.04,0.16-0.09,0.22-0.16c0.06-0.07,0.11-0.15,0.14-0.25
		c0.03-0.1,0.05-0.2,0.05-0.32v-1.87h0.58v1.87c0,0.19-0.03,0.36-0.09,0.51c-0.06,0.16-0.15,0.3-0.26,0.41
		c-0.11,0.11-0.25,0.2-0.41,0.27c-0.16,0.06-0.34,0.1-0.54,0.1c-0.2,0-0.38-0.03-0.54-0.1c-0.16-0.06-0.3-0.15-0.41-0.27
		c-0.11-0.11-0.2-0.25-0.26-0.41c-0.06-0.16-0.09-0.33-0.09-0.51v-1.87h0.58v1.87c0,0.12,0.01,0.23,0.05,0.32
		c0.03,0.1,0.08,0.18,0.14,0.25c0.06,0.07,0.14,0.12,0.22,0.16C24.87,48.47,24.97,48.49,25.08,48.49"/>
	<polygon fill="#FFFFFF" points="28.8,48.48 28.8,48.96 26.97,48.96 26.97,45.83 27.55,45.83 27.55,48.48 	"/>
	<polygon fill="#FFFFFF" points="31.79,45.83 31.79,48.96 31.2,48.96 31.2,47.59 29.74,47.59 29.74,48.96 29.15,48.96 29.15,45.83 
		29.74,45.83 29.74,47.18 31.2,47.18 31.2,45.83 	"/>
	<polygon fill="#FFFFFF" points="33,46.29 33,47.16 34.1,47.16 34.1,47.61 33,47.61 33,48.49 34.39,48.49 34.39,48.96 32.42,48.96 
		32.42,45.83 34.39,45.83 34.39,46.29 	"/>
	<path fill="#FFFFFF" d="M37.28,48.96h-0.53c-0.1,0-0.17-0.04-0.22-0.12l-0.66-1c-0.02-0.04-0.05-0.06-0.08-0.08
		c-0.03-0.02-0.07-0.02-0.13-0.02h-0.25v1.22h-0.58v-3.12h0.95c0.21,0,0.39,0.02,0.55,0.06c0.15,0.04,0.28,0.11,0.37,0.19
		c0.1,0.08,0.17,0.17,0.22,0.28C36.97,46.48,37,46.6,37,46.73c0,0.1-0.01,0.21-0.05,0.3c-0.03,0.09-0.07,0.18-0.13,0.26
		c-0.06,0.08-0.13,0.14-0.22,0.2c-0.09,0.06-0.18,0.1-0.29,0.14c0.04,0.02,0.07,0.05,0.1,0.08c0.03,0.03,0.06,0.06,0.09,0.1
		L37.28,48.96z M35.79,47.32c0.11,0,0.21-0.01,0.29-0.04c0.08-0.03,0.15-0.06,0.2-0.11c0.05-0.05,0.09-0.11,0.12-0.17
		c0.02-0.06,0.04-0.14,0.04-0.22c0-0.16-0.05-0.28-0.16-0.36c-0.1-0.08-0.26-0.13-0.48-0.13h-0.37v1.04H35.79z"/>
	<rect fill="none" width="50" height="68.45"/>
</g>
</svg>
