<svg width="86px" viewBox="0 0 86 26.76" preserveAspectRatio="xMidYMid meet">
<g>
	<path fill="#FFFFFF" d="M22.71,26.76H4.05C1.81,26.76,0,24.95,0,22.71V4.05C0,1.81,1.81,0,4.05,0h18.66c2.23,0,4.05,1.81,4.05,4.05
		v18.66C26.76,24.95,24.94,26.76,22.71,26.76"/>
	<path fill="#3061AD" d="M17.72,15.99l-0.81-1.2l-1.4,4.09c-0.05,0.16-0.21,0.27-0.37,0.27c-0.01,0-0.02,0-0.02,0
		c-0.18-0.01-0.33-0.14-0.36-0.32l-1.41-6.88l-1.06,4.13c-0.04,0.15-0.16,0.26-0.32,0.29c-0.15,0.03-0.31-0.04-0.39-0.17l-1.13-1.66
		l-0.77,1.4c-0.07,0.13-0.2,0.21-0.35,0.21H5.49c1.49,2.09,3.92,4.35,7.61,6.77c0.37,0.24,0.84,0.24,1.21,0
		c3.68-2.41,6.12-4.68,7.61-6.77h-3.86C17.91,16.17,17.79,16.1,17.72,15.99 M18.26,5.32c-1.88,0-3.55,1.25-4.56,2.68
		c-1.01-1.43-2.68-2.68-4.56-2.68c-3.08,0-5.58,2.5-5.58,5.58c0,1.37,0.42,2.87,1.4,4.48h4.12l0.97-1.77
		c0.07-0.12,0.19-0.2,0.33-0.21s0.27,0.06,0.35,0.17l1,1.47l1.27-4.94c0.05-0.18,0.21-0.31,0.39-0.3c0.19,0,0.34,0.14,0.38,0.32
		l1.47,7.13l1.19-3.47c0.05-0.14,0.17-0.24,0.32-0.26c0.15-0.02,0.3,0.05,0.38,0.17l1.13,1.69h4.18c0.99-1.61,1.41-3.11,1.41-4.48
		C23.84,7.81,21.34,5.32,18.26,5.32 M21.91,10.98c0,0.11-0.09,0.19-0.19,0.19h-1.09v1.05c0,0.12-0.1,0.21-0.21,0.21h-0.8
		c-0.14,0-0.25-0.11-0.25-0.25v-1.02h-1.15c-0.07,0-0.13-0.06-0.13-0.13V10.1c0-0.08,0.06-0.14,0.14-0.14h1.14v-1.1
		c0-0.09,0.07-0.16,0.16-0.16h0.94c0.09,0,0.16,0.07,0.16,0.16v1.1h1.07c0.12,0,0.21,0.1,0.21,0.21V10.98z"/>
	<polygon fill="#FFFFFF" points="30.8,5.32 32.8,5.32 32.8,8.02 35.37,8.02 35.37,5.32 37.38,5.32 37.38,12.54 35.37,12.54 
		35.37,9.8 32.8,9.8 32.8,12.54 30.8,12.54 	"/>
	<path fill="#FFFFFF" d="M38.42,8.95V8.93c0-2.08,1.67-3.76,3.9-3.76c2.23,0,3.88,1.66,3.88,3.74v0.02c0,2.07-1.67,3.76-3.9,3.76
		C40.07,12.69,38.42,11.03,38.42,8.95 M44.15,8.95V8.93c0-1.05-0.74-1.95-1.85-1.95c-1.1,0-1.84,0.89-1.84,1.93v0.02
		c0,1.04,0.75,1.95,1.86,1.95C43.42,10.88,44.15,9.99,44.15,8.95"/>
	<path fill="#FFFFFF" d="M47.24,5.32h3.42c1.1,0,1.87,0.29,2.35,0.77c0.42,0.42,0.64,0.97,0.64,1.68v0.02
		c0,1.12-0.59,1.85-1.49,2.23l1.72,2.52h-2.3l-1.46-2.19h-0.89v2.19h-2V5.32z M50.58,8.79c0.67,0,1.07-0.33,1.07-0.86V7.91
		c0-0.58-0.42-0.87-1.08-0.87h-1.32v1.74H50.58z"/>
	<path fill="#FFFFFF" d="M57.03,5.26h1.93l3.08,7.28h-2.15l-0.52-1.3h-2.8l-0.52,1.3h-2.09L57.03,5.26z M58.79,9.68l-0.8-2.05
		l-0.82,2.05H58.79z"/>
	<polygon fill="#FFFFFF" points="30.8,14.21 32.92,14.21 34.64,17.01 36.37,14.21 38.48,14.21 38.48,21.44 36.49,21.44 36.49,17.29 
		34.64,20.12 34.6,20.12 32.76,17.3 32.76,21.44 30.8,21.44 	"/>
	<path fill="#FFFFFF" d="M42.26,14.16h1.93l3.08,7.28h-2.15l-0.52-1.3h-2.8l-0.52,1.3H39.2L42.26,14.16z M44.02,18.58l-0.8-2.05
		l-0.82,2.05H44.02z"/>
	<path fill="#FFFFFF" d="M47.97,14.21h3.42c1.11,0,1.87,0.29,2.35,0.77c0.42,0.42,0.64,0.97,0.64,1.68v0.02
		c0,1.12-0.59,1.85-1.49,2.23l1.72,2.52h-2.3l-1.46-2.19h-0.89v2.19h-2V14.21z M51.31,17.68c0.67,0,1.07-0.33,1.07-0.86V16.8
		c0-0.58-0.42-0.87-1.08-0.87h-1.32v1.74H51.31z"/>
	<path fill="#FFFFFF" d="M55.16,17.85v-0.02c0-2.11,1.61-3.76,3.8-3.76c1.48,0,2.43,0.62,3.07,1.5l-1.51,1.17
		c-0.41-0.51-0.89-0.85-1.58-0.85c-1.01,0-1.72,0.87-1.72,1.92v0.02c0,1.08,0.71,1.93,1.72,1.93c0.75,0,1.2-0.35,1.63-0.88
		l1.51,1.07c-0.68,0.94-1.6,1.63-3.19,1.63C56.82,21.59,55.16,20.01,55.16,17.85"/>
	<path fill="#FFFFFF" d="M65.38,14.16h1.93l3.08,7.28h-2.15l-0.52-1.3h-2.8l-0.52,1.3h-2.09L65.38,14.16z M67.14,18.58l-0.8-2.05
		l-0.82,2.05H67.14z"/>
	<path fill="#FFFFFF" d="M71.1,14.21h2.8c2.57,0,4.07,1.49,4.07,3.57v0.02c0,2.09-1.52,3.64-4.11,3.64H71.1V14.21z M73.1,15.98v3.69
		h0.81c1.21,0,2-0.66,2-1.83v-0.02c0-1.15-0.8-1.84-2-1.84H73.1z"/>
	<path fill="#FFFFFF" d="M80.99,14.16h1.93L86,21.44h-2.15l-0.52-1.3h-2.8l-0.52,1.3h-2.09L80.99,14.16z M82.75,18.58l-0.8-2.05
		l-0.82,2.05H82.75z"/>
	<rect y="0" fill="none" width="86" height="26.75"/>
</g>
</svg>
