<svg width="58px" viewBox="0 0 57.5 10.2" preserveAspectRatio="xMidYMid meet">
<g>
	<g>
		<defs>
			<rect id="SVGID_1_" y="0" width="57.5" height="10.2"/>
		</defs>
		<clipPath id="SVGID_2_">
			<use xlink:href="#SVGID_1_"  overflow="visible"/>
		</clipPath>
		<path clip-path="url(#SVGID_2_)" fill="#FFFFFF" d="M26.5,1.7c0-0.3,0.3-0.6,0.7-0.6c0.2,0,0.3,0.1,0.4,0.2l-0.2,0.1
			c-0.1-0.1-0.1-0.1-0.3-0.1c-0.2,0-0.4,0.2-0.4,0.4C26.8,1.9,26.9,2,27,2c0.1,0,0.2,0,0.3-0.1L27.4,2c-0.1,0.1-0.2,0.2-0.4,0.2
			C26.7,2.2,26.5,2,26.5,1.7"/>
		<polygon clip-path="url(#SVGID_2_)" fill="#FFFFFF" points="27.8,1.1 28.7,1.1 28.6,1.3 28,1.3 28,1.5 28.5,1.5 28.4,1.8 
			27.9,1.8 27.8,2 28.4,2 28.4,2.2 27.6,2.2 		"/>
		<polygon clip-path="url(#SVGID_2_)" fill="#FFFFFF" points="28.9,1.1 29.1,1.1 29.4,1.8 29.6,1.1 29.8,1.1 29.5,2.2 29.3,2.2 
			29,1.5 28.8,2.2 28.6,2.2 		"/>
		<polygon clip-path="url(#SVGID_2_)" fill="#FFFFFF" points="30.3,1.3 29.9,1.3 30,1.1 30.9,1.1 30.8,1.3 30.5,1.3 30.3,2.2 
			30,2.2 		"/>
		<path clip-path="url(#SVGID_2_)" fill="#FFFFFF" d="M31,1.1h0.4c0.2,0,0.3,0,0.3,0.1c0.1,0.1,0.1,0.1,0.1,0.2c0,0.1,0,0.2-0.1,0.3
			c-0.1,0.1-0.1,0.1-0.2,0.1l0.2,0.4h-0.3l-0.2-0.3h-0.2L31,2.2h-0.2L31,1.1z M31.3,1.6c0.1,0,0.2,0,0.2-0.1c0,0,0-0.1,0-0.1
			c0,0,0-0.1,0-0.1c0,0-0.1,0-0.2,0h-0.2l-0.1,0.3H31.3z"/>
		<path clip-path="url(#SVGID_2_)" fill="#FFFFFF" d="M32,1.7c0-0.3,0.3-0.6,0.6-0.6c0.3,0,0.5,0.2,0.5,0.5c0,0.3-0.3,0.6-0.7,0.6
			C32.2,2.2,32,2,32,1.7 M32.9,1.6c0-0.2-0.1-0.3-0.3-0.3c-0.2,0-0.4,0.2-0.4,0.4c0,0.2,0.1,0.3,0.3,0.3C32.7,2,32.9,1.8,32.9,1.6"
			/>
		<polygon clip-path="url(#SVGID_2_)" fill="#FFFFFF" points="26.7,3.5 27,3.5 26.7,4.6 26.4,4.6 		"/>
		<polygon clip-path="url(#SVGID_2_)" fill="#FFFFFF" points="27.2,3.5 27.5,3.5 27.8,4.2 28,3.5 28.2,3.5 27.9,4.6 27.7,4.6 
			27.4,3.9 27.2,4.6 27,4.6 		"/>
		<polygon clip-path="url(#SVGID_2_)" fill="#FFFFFF" points="28.6,3.7 28.3,3.7 28.4,3.5 29.3,3.5 29.2,3.7 28.9,3.7 28.6,4.6 
			28.4,4.6 		"/>
		<polygon clip-path="url(#SVGID_2_)" fill="#FFFFFF" points="29.4,3.5 30.2,3.5 30.2,3.7 29.6,3.7 29.5,3.9 30,3.9 30,4.1 
			29.5,4.1 29.4,4.4 30,4.4 29.9,4.6 29.1,4.6 		"/>
		<path clip-path="url(#SVGID_2_)" fill="#FFFFFF" d="M30.4,3.5h0.4c0.2,0,0.3,0,0.3,0.1c0.1,0.1,0.1,0.1,0.1,0.2
			c0,0.1,0,0.2-0.1,0.3c-0.1,0.1-0.1,0.1-0.2,0.1l0.2,0.4h-0.3l-0.2-0.3h-0.2l-0.1,0.3h-0.2L30.4,3.5z M30.7,4C30.8,4,30.9,4,31,4
			c0,0,0-0.1,0-0.1c0,0,0-0.1,0-0.1c0,0-0.1,0-0.2,0h-0.2L30.5,4H30.7z"/>
		<polygon clip-path="url(#SVGID_2_)" fill="#FFFFFF" points="31.6,3.5 31.8,3.5 32.1,4.2 32.3,3.5 32.5,3.5 32.2,4.6 32,4.6 
			31.7,3.9 31.5,4.6 31.3,4.6 		"/>
		<path clip-path="url(#SVGID_2_)" fill="#FFFFFF" d="M33.1,3.5h0.2l0.2,1.1h-0.2l0-0.2h-0.5l-0.2,0.2h-0.3L33.1,3.5z M33.2,4.1
			l0-0.4l-0.2,0.4H33.2z"/>
		<path clip-path="url(#SVGID_2_)" fill="#FFFFFF" d="M33.7,4.1c0-0.3,0.3-0.6,0.7-0.6c0.2,0,0.3,0.1,0.4,0.2l-0.2,0.1
			c-0.1-0.1-0.1-0.1-0.3-0.1c-0.2,0-0.4,0.2-0.4,0.4c0,0.2,0.1,0.3,0.3,0.3c0.1,0,0.2,0,0.3-0.1l0.2,0.2c-0.1,0.1-0.2,0.2-0.4,0.2
			C33.9,4.6,33.7,4.4,33.7,4.1"/>
		<polygon clip-path="url(#SVGID_2_)" fill="#FFFFFF" points="35,3.5 35.2,3.5 34.9,4.6 34.7,4.6 		"/>
		<path clip-path="url(#SVGID_2_)" fill="#FFFFFF" d="M35.3,4.1c0-0.3,0.3-0.6,0.6-0.6c0.3,0,0.5,0.2,0.5,0.5c0,0.3-0.3,0.6-0.7,0.6
			C35.5,4.6,35.3,4.4,35.3,4.1 M36.2,4c0-0.2-0.1-0.3-0.3-0.3c-0.2,0-0.4,0.2-0.4,0.4c0,0.2,0.1,0.3,0.3,0.3C36,4.4,36.2,4.2,36.2,4
			"/>
		<polygon clip-path="url(#SVGID_2_)" fill="#FFFFFF" points="36.8,3.5 37,3.5 37.3,4.2 37.5,3.5 37.7,3.5 37.4,4.6 37.2,4.6 
			36.9,3.9 36.7,4.6 36.5,4.6 		"/>
		<path clip-path="url(#SVGID_2_)" fill="#FFFFFF" d="M38.4,3.5h0.2l0.2,1.1h-0.2l0-0.2H38l-0.2,0.2h-0.3L38.4,3.5z M38.4,4.1l0-0.4
			l-0.2,0.4H38.4z"/>
		<polygon clip-path="url(#SVGID_2_)" fill="#FFFFFF" points="39.2,3.5 39.4,3.5 39.2,4.4 39.7,4.4 39.7,4.6 38.9,4.6 		"/>
		<path clip-path="url(#SVGID_2_)" fill="#FFFFFF" d="M26.7,5.9H27c0.2,0,0.3,0.1,0.4,0.1c0.1,0.1,0.1,0.2,0.1,0.3
			c0,0.2-0.1,0.3-0.2,0.4C27.3,6.9,27.1,7,26.8,7h-0.4L26.7,5.9z M26.9,6.8c0.1,0,0.3,0,0.4-0.1c0.1-0.1,0.1-0.2,0.1-0.3
			c0-0.1,0-0.1-0.1-0.2c0,0-0.1-0.1-0.2-0.1h-0.1l-0.2,0.7H26.9z"/>
		<polygon clip-path="url(#SVGID_2_)" fill="#FFFFFF" points="27.9,5.9 28.7,5.9 28.7,6.1 28.1,6.1 28,6.3 28.5,6.3 28.5,6.5 
			28,6.5 27.9,6.8 28.5,6.8 28.4,7 27.6,7 		"/>
		<polygon clip-path="url(#SVGID_2_)" fill="#FFFFFF" points="29.6,6.1 29.3,6.1 29.3,5.9 30.2,5.9 30.1,6.1 29.8,6.1 29.6,7 
			29.3,7 		"/>
		<polygon clip-path="url(#SVGID_2_)" fill="#FFFFFF" points="30.4,5.9 31.2,5.9 31.1,6.1 30.5,6.1 30.5,6.3 31,6.3 30.9,6.5 
			30.4,6.5 30.4,6.8 30.9,6.8 30.9,7 30.1,7 		"/>
		<path clip-path="url(#SVGID_2_)" fill="#FFFFFF" d="M31.2,6.5c0-0.3,0.3-0.6,0.7-0.6c0.2,0,0.3,0.1,0.4,0.2l-0.2,0.1
			c-0.1-0.1-0.1-0.1-0.3-0.1c-0.2,0-0.4,0.2-0.4,0.4c0,0.2,0.1,0.3,0.3,0.3c0.1,0,0.2,0,0.3-0.1l0.2,0.2C32,6.9,31.9,7,31.7,7
			C31.4,7,31.2,6.8,31.2,6.5"/>
		<polygon clip-path="url(#SVGID_2_)" fill="#FFFFFF" points="32.5,5.9 32.7,5.9 33,6.6 33.2,5.9 33.5,5.9 33.2,7 33,7 32.6,6.3 
			32.5,7 32.2,7 		"/>
		<path clip-path="url(#SVGID_2_)" fill="#FFFFFF" d="M33.5,6.5c0-0.3,0.3-0.6,0.6-0.6c0.3,0,0.5,0.2,0.5,0.5C34.7,6.7,34.4,7,34,7
			C33.7,7,33.5,6.8,33.5,6.5 M34.4,6.4c0-0.2-0.1-0.3-0.3-0.3c-0.2,0-0.4,0.2-0.4,0.4c0,0.2,0.1,0.3,0.3,0.3
			C34.3,6.8,34.4,6.6,34.4,6.4"/>
		<polygon clip-path="url(#SVGID_2_)" fill="#FFFFFF" points="35,5.9 35.2,5.9 35,6.8 35.6,6.8 35.5,7 34.7,7 		"/>
		<path clip-path="url(#SVGID_2_)" fill="#FFFFFF" d="M35.7,6.5c0-0.3,0.3-0.6,0.6-0.6c0.3,0,0.5,0.2,0.5,0.5c0,0.3-0.3,0.6-0.7,0.6
			C35.8,7,35.7,6.8,35.7,6.5 M36.5,6.4c0-0.2-0.1-0.3-0.3-0.3c-0.2,0-0.4,0.2-0.4,0.4c0,0.2,0.1,0.3,0.3,0.3
			C36.4,6.8,36.5,6.6,36.5,6.4"/>
		<path clip-path="url(#SVGID_2_)" fill="#FFFFFF" d="M36.9,6.5c0-0.3,0.3-0.6,0.7-0.6C37.8,5.9,38,6,38,6.1l-0.2,0.2
			c-0.1-0.1-0.1-0.1-0.3-0.1c-0.2,0-0.4,0.2-0.4,0.4c0,0.2,0.1,0.3,0.3,0.3c0.1,0,0.1,0,0.2,0l0.1-0.2h-0.2l0.1-0.2H38l-0.2,0.5
			C37.7,7,37.6,7,37.4,7C37.2,7,36.9,6.8,36.9,6.5"/>
		<polygon clip-path="url(#SVGID_2_)" fill="#FFFFFF" points="38.4,5.9 38.6,5.9 38.3,7 38.1,7 		"/>
		<path clip-path="url(#SVGID_2_)" fill="#FFFFFF" d="M39.2,5.9h0.2L39.6,7h-0.2l0-0.2h-0.5L38.7,7h-0.3L39.2,5.9z M39.3,6.5l0-0.4
			L39,6.5H39.3z"/>
		<polygon clip-path="url(#SVGID_2_)" fill="#FFFFFF" points="26.7,8.3 27.5,8.3 27.5,8.5 26.9,8.5 26.8,8.7 27.3,8.7 27.3,8.9 
			26.8,8.9 26.7,9.2 27.3,9.2 27.3,9.4 26.4,9.4 		"/>
		<polygon clip-path="url(#SVGID_2_)" fill="#FFFFFF" points="28.2,8.3 28.5,8.3 28.2,9.4 27.9,9.4 		"/>
		<polygon clip-path="url(#SVGID_2_)" fill="#FFFFFF" points="28.7,8.3 29,8.3 29.3,9 29.5,8.3 29.7,8.3 29.4,9.4 29.2,9.4 
			28.9,8.7 28.7,9.4 28.4,9.4 		"/>
		<path clip-path="url(#SVGID_2_)" fill="#FFFFFF" d="M29.7,8.9c0-0.3,0.3-0.6,0.6-0.6c0.3,0,0.5,0.2,0.5,0.5c0,0.3-0.3,0.6-0.7,0.6
			C29.9,9.4,29.7,9.2,29.7,8.9 M30.6,8.8c0-0.2-0.1-0.3-0.3-0.3c-0.2,0-0.4,0.2-0.4,0.4c0,0.2,0.1,0.3,0.3,0.3
			C30.5,9.2,30.6,9,30.6,8.8"/>
		<polygon clip-path="url(#SVGID_2_)" fill="#FFFFFF" points="31,8.3 31.3,8.3 31.4,9 31.8,8.3 32.1,8.3 31.4,9.4 31.2,9.4 		"/>
		<path clip-path="url(#SVGID_2_)" fill="#FFFFFF" d="M32.5,8.3h0.2l0.2,1.1h-0.2l0-0.2h-0.5L32,9.4h-0.3L32.5,8.3z M32.6,8.9l0-0.4
			l-0.2,0.4H32.6z"/>
		<path clip-path="url(#SVGID_2_)" fill="#FFFFFF" d="M33.4,9.6l-0.2-0.1l0.2-0.2c-0.2-0.1-0.3-0.2-0.3-0.4c0-0.3,0.3-0.6,0.7-0.6
			c0.2,0,0.3,0.1,0.4,0.2L34,8.6c-0.1-0.1-0.1-0.1-0.3-0.1c-0.2,0-0.4,0.2-0.4,0.4c0,0.2,0.1,0.3,0.3,0.3c0.1,0,0.2,0,0.3-0.1
			L34,9.2c-0.1,0.1-0.2,0.2-0.4,0.2h0L33.4,9.6z"/>
		<path clip-path="url(#SVGID_2_)" fill="#FFFFFF" d="M34.8,8.3H35l0.2,1.1H35l0-0.2h-0.5l-0.2,0.2H34L34.8,8.3z M34.6,8.2
			c0.1-0.1,0.1-0.2,0.2-0.2c0.1,0,0.1,0,0.1,0C35,8,35,8,35,8c0,0,0.1,0,0.1-0.1L35.3,8c-0.1,0.1-0.1,0.2-0.2,0.2
			c-0.1,0-0.1,0-0.1,0c0,0-0.1,0-0.1,0c0,0-0.1,0-0.1,0.1L34.6,8.2z M34.9,8.9l0-0.4l-0.2,0.4H34.9z"/>
		<path clip-path="url(#SVGID_2_)" fill="#FFFFFF" d="M35.4,8.9c0-0.3,0.3-0.6,0.6-0.6c0.3,0,0.5,0.2,0.5,0.5c0,0.3-0.3,0.6-0.7,0.6
			C35.6,9.4,35.4,9.2,35.4,8.9 M36.3,8.8c0-0.2-0.1-0.3-0.3-0.3c-0.2,0-0.4,0.2-0.4,0.4c0,0.2,0.1,0.3,0.3,0.3
			C36.2,9.2,36.3,9,36.3,8.8"/>
	</g>
	<g>
		<defs>
			<path id="SVGID_3_" d="M40.6,3.2L40.6,3.2c0,2.1,1.6,2.6,3.7,3.1C45.6,6.6,46,6.8,46,7.2v0C46,7.7,45.6,8,44.8,8
				c-1.1,0-2.2-0.4-3.2-1.2l-1.5,1.8c1.2,1.1,2.9,1.6,4.6,1.6c2.4,0,4-1.2,4-3.2v0c0-1.8-1.4-2.6-3.7-3.1c-1.4-0.3-1.7-0.5-1.7-1v0
				c0-0.4,0.3-0.6,1-0.6c0.9,0,1.9,0.3,2.8,1l1.4-1.9C47.4,0.5,46.1,0,44.4,0C42,0,40.6,1.3,40.6,3.2"/>
		</defs>
		<clipPath id="SVGID_4_">
			<use xlink:href="#SVGID_3_"  overflow="visible"/>
		</clipPath>
		
			<linearGradient id="SVGID_5_" gradientUnits="userSpaceOnUse" x1="-213.3013" y1="213.8804" x2="-212.3013" y2="213.8804" gradientTransform="matrix(0 14.4278 14.4278 0 -3041.4043 3075.1997)">
			<stop  offset="0" style="stop-color:#4C439B"/>
			<stop  offset="0.1323" style="stop-color:#684294"/>
			<stop  offset="0.5606" style="stop-color:#AF3C85"/>
			<stop  offset="0.859" style="stop-color:#DB357A"/>
			<stop  offset="1" style="stop-color:#EE3277"/>
		</linearGradient>
		<rect x="40.1" y="0" clip-path="url(#SVGID_4_)" fill="url(#SVGID_5_)" width="8.6" height="10.2"/>
	</g>
	<g>
		<defs>
			<path id="SVGID_6_" d="M51.9,2.5h1.3c1,0,1.6,0.4,1.6,1.3v0c0,0.8-0.6,1.3-1.6,1.3h-1.3V2.5z M49.2,0.2v9.9h2.7V7.2h1.4
				c2.5,0,4.2-1.2,4.2-3.6v0c0-2.2-1.6-3.5-4.1-3.5H49.2z"/>
		</defs>
		<clipPath id="SVGID_7_">
			<use xlink:href="#SVGID_6_"  overflow="visible"/>
		</clipPath>
		
			<linearGradient id="SVGID_8_" gradientUnits="userSpaceOnUse" x1="-213.3013" y1="213.8804" x2="-212.3013" y2="213.8804" gradientTransform="matrix(0 14.4279 14.4279 0 -3032.4595 3075.2085)">
			<stop  offset="0" style="stop-color:#4C439B"/>
			<stop  offset="0.1323" style="stop-color:#684294"/>
			<stop  offset="0.5606" style="stop-color:#AF3C85"/>
			<stop  offset="0.859" style="stop-color:#DB357A"/>
			<stop  offset="1" style="stop-color:#EE3277"/>
		</linearGradient>
		<rect x="49.2" y="0.2" clip-path="url(#SVGID_7_)" fill="url(#SVGID_8_)" width="8.3" height="9.9"/>
	</g>
	<g>
		<defs>
			<rect id="SVGID_9_" x="22.7" y="0.2" width="2.7" height="9.8"/>
		</defs>
		<clipPath id="SVGID_10_">
			<use xlink:href="#SVGID_9_"  overflow="visible"/>
		</clipPath>
		
			<linearGradient id="SVGID_11_" gradientUnits="userSpaceOnUse" x1="-214.112" y1="218.0913" x2="-213.112" y2="218.0913" gradientTransform="matrix(0 10.3724 10.3724 0 -2238.093 2220.5308)">
			<stop  offset="0" style="stop-color:#4C439B"/>
			<stop  offset="0.1323" style="stop-color:#684294"/>
			<stop  offset="0.5606" style="stop-color:#AF3C85"/>
			<stop  offset="0.859" style="stop-color:#DB357A"/>
			<stop  offset="1" style="stop-color:#EE3277"/>
		</linearGradient>
		<rect x="22.7" y="0.2" clip-path="url(#SVGID_10_)" fill="url(#SVGID_11_)" width="2.7" height="9.8"/>
	</g>
	<g>
		<defs>
			<polygon id="SVGID_12_" points="13.4,0.2 13.4,2.6 16.3,2.6 16.3,10 19.1,10 19.1,2.6 22,2.6 22,0.2 			"/>
		</defs>
		<clipPath id="SVGID_13_">
			<use xlink:href="#SVGID_12_"  overflow="visible"/>
		</clipPath>
		
			<linearGradient id="SVGID_14_" gradientUnits="userSpaceOnUse" x1="-214.112" y1="218.0913" x2="-213.112" y2="218.0913" gradientTransform="matrix(0 10.3724 10.3724 0 -2244.4185 2220.5308)">
			<stop  offset="0" style="stop-color:#4C439B"/>
			<stop  offset="0.1323" style="stop-color:#684294"/>
			<stop  offset="0.5606" style="stop-color:#AF3C85"/>
			<stop  offset="0.859" style="stop-color:#DB357A"/>
			<stop  offset="1" style="stop-color:#EE3277"/>
		</linearGradient>
		<rect x="13.4" y="0.2" clip-path="url(#SVGID_13_)" fill="url(#SVGID_14_)" width="8.6" height="9.8"/>
	</g>
	<g>
		<defs>
			<path id="SVGID_15_" d="M0,5.1L0,5.1c0,2.9,2.2,5.1,5,5.1c2.2,0,3.4-0.9,4.3-2.2l-2-1.4C6.7,7.2,6.1,7.7,5.1,7.7
				c-1.4,0-2.3-1.1-2.3-2.6v0c0-1.4,1-2.6,2.3-2.6c0.9,0,1.6,0.4,2.1,1.1l2-1.6C8.4,0.8,7.1,0,5.1,0C2.2,0,0,2.2,0,5.1"/>
		</defs>
		<clipPath id="SVGID_16_">
			<use xlink:href="#SVGID_15_"  overflow="visible"/>
		</clipPath>
		
			<linearGradient id="SVGID_17_" gradientUnits="userSpaceOnUse" x1="-214.112" y1="218.0912" x2="-213.112" y2="218.0912" gradientTransform="matrix(0 10.3724 10.3724 0 -2257.4404 2220.532)">
			<stop  offset="0" style="stop-color:#4C439B"/>
			<stop  offset="0.1323" style="stop-color:#684294"/>
			<stop  offset="0.5606" style="stop-color:#AF3C85"/>
			<stop  offset="0.859" style="stop-color:#DB357A"/>
			<stop  offset="1" style="stop-color:#EE3277"/>
		</linearGradient>
		<rect x="0" clip-path="url(#SVGID_16_)" fill="url(#SVGID_17_)" width="9.4" height="10.2"/>
	</g>
	<g>
		<defs>
			<rect id="SVGID_18_" x="10" y="0.2" width="2.7" height="9.8"/>
		</defs>
		<clipPath id="SVGID_19_">
			<use xlink:href="#SVGID_18_"  overflow="visible"/>
		</clipPath>
		
			<linearGradient id="SVGID_20_" gradientUnits="userSpaceOnUse" x1="-214.112" y1="218.0913" x2="-213.112" y2="218.0913" gradientTransform="matrix(0 10.3724 10.3724 0 -2250.7441 2220.5308)">
			<stop  offset="0" style="stop-color:#4C439B"/>
			<stop  offset="0.1323" style="stop-color:#684294"/>
			<stop  offset="0.5606" style="stop-color:#AF3C85"/>
			<stop  offset="0.859" style="stop-color:#DB357A"/>
			<stop  offset="1" style="stop-color:#EE3277"/>
		</linearGradient>
		<rect x="10" y="0.2" clip-path="url(#SVGID_19_)" fill="url(#SVGID_20_)" width="2.7" height="9.8"/>
	</g>
</g>
</svg>
