<svg width="65px" viewBox="0 0 65 59.45" preserveAspectRatio="xMidYMid meet">
<g>
	<path fill="#1F77BA" d="M52.83,11.6V3.68c0-2.2-1.43-3.68-3.57-3.68h-2.16c-0.62,0-1.13,0.51-1.13,1.14c0,0.63,0.5,1.14,1.13,1.14
		h2.16c1.18,0,1.31,0.8,1.31,1.4v7.82c0,2.35-1.2,4.43-3.02,5.64c-0.43-1.44-1.08-2.79-1.94-3.97c-2.02-2.75-5.05-4.39-8.41-4.56
		v2.9c0,3.72,3,6.75,6.68,6.75c1.35,0,2.61-0.41,3.67-1.11c0.22,0.76,0.39,1.54,0.49,2.35c-0.93,0.49-1.95,0.83-3.03,0.97v1.21
		c-0.01,1.29-0.21,2.61-0.61,3.9c-2.7,8.8-13.4,12.82-13.86,12.99l-0.38,0.14l-0.39-0.14c-0.45-0.17-11.15-4.19-13.85-12.99
		c-1.14-3.7-0.66-7.5,1.29-10.17c1.55-2.13,3.86-3.3,6.49-3.3c3.42,0,5.26,1.64,6.21,3.01c0.51,0.74,0.85,1.54,1.07,2.29
		c1.28,0.37,2.22,1.55,2.22,2.96v0.7h0.72c1.68,0,3.05,1.38,3.05,3.08c0,1.7-1.37,3.08-3.05,3.08H33.2v0.7
		c0,1.7-1.37,3.08-3.04,3.08c-0.81,0-1.57-0.32-2.15-0.9c-0.58-0.59-0.9-1.36-0.9-2.18v-0.7h-0.67c-0.82,0-1.58-0.32-2.16-0.9
		c-0.58-0.58-0.89-1.36-0.89-2.18c0-1.7,1.37-3.08,3.05-3.08h0.67v-0.7c0-1.17,0.65-2.19,1.6-2.71c-0.51-1.45-1.79-3.28-5-3.28
		c-1.9,0-3.56,0.84-4.68,2.38c-1.52,2.09-1.88,5.13-0.95,8.15c2.11,6.86,10.22,10.59,12.09,11.37c1.87-0.78,9.99-4.53,12.09-11.37
		c0.33-1.08,0.5-2.17,0.51-3.24v-1.21c-4.39-0.56-7.8-4.36-7.8-8.95V8.68c-1.95,0.25-3.53,0.92-4.8,1.81
		c-1.61-1.13-3.74-1.92-6.47-1.92c-3.58,0-6.86,1.67-8.99,4.58c-2.57,3.51-3.24,8.43-1.81,13.16c3.15,10.4,15.27,15.02,15.78,15.21
		l1.48,0.55l1.48-0.55c0.51-0.19,12.63-4.81,15.78-15.21c0.7-2.3,0.9-4.64,0.62-6.84c2.78-1.48,4.71-4.4,4.78-7.78
		C52.83,11.65,52.83,11.63,52.83,11.6"/>
	<path fill="#1F77BA" d="M37.22,8.6V8.58v-4.9c0-0.6,0.13-1.4,1.31-1.4h2.16c0.62,0,1.13-0.51,1.13-1.14c0-0.63-0.5-1.14-1.13-1.14
		h-2.16c-2.13,0-3.57,1.48-3.57,3.68v4.9v0.1c0.53-0.07,1.09-0.1,1.67-0.1C36.83,8.58,37.02,8.58,37.22,8.6"/>
	<path fill="#1F77BA" d="M33.92,22.7h-2.35v-2.35c0-0.79-0.64-1.43-1.42-1.43c-0.78,0-1.42,0.64-1.42,1.43v2.35h-2.3
		c-0.78,0-1.42,0.64-1.42,1.43c0,0.4,0.16,0.75,0.42,1.01c0.26,0.26,0.61,0.42,1,0.42h2.3v2.35c0,0.39,0.17,0.75,0.43,1.01
		c0.25,0.26,0.6,0.42,1,0.42c0.78,0,1.41-0.64,1.41-1.43v-2.35h2.35c0.78,0,1.42-0.64,1.42-1.43C35.34,23.34,34.7,22.7,33.92,22.7"
		/>
	<path fill="#FFFFFF" d="M11.68,45.41h2.05c1.21,0,1.99,0.62,1.99,1.68v0.01c0,1.13-0.87,1.72-2.06,1.72H13v1.37h-1.33V45.41z
		 M13.63,47.79c0.47,0,0.76-0.25,0.76-0.62v-0.02c0-0.41-0.29-0.63-0.77-0.63H13v1.27H13.63z"/>
	<path fill="#FFFFFF" d="M16.28,45.41h2.27c0.73,0,1.24,0.19,1.56,0.52c0.28,0.27,0.43,0.64,0.43,1.12v0.01
		c0,0.73-0.39,1.22-0.99,1.47l1.14,1.67h-1.53l-0.97-1.45h-0.58v1.45h-1.33V45.41z M18.48,47.71c0.45,0,0.71-0.22,0.71-0.57v-0.01
		c0-0.38-0.27-0.57-0.72-0.57h-0.87v1.15H18.48z"/>
	<path fill="#FFFFFF" d="M21.03,47.82v-0.01c0-1.38,1.11-2.49,2.59-2.49c1.48,0,2.57,1.1,2.57,2.48v0.02c0,1.37-1.11,2.49-2.59,2.49
		C22.13,50.29,21.03,49.19,21.03,47.82 M24.84,47.82v-0.01c0-0.69-0.5-1.29-1.23-1.29c-0.73,0-1.21,0.59-1.21,1.28v0.02
		c0,0.69,0.5,1.29,1.23,1.29C24.35,49.1,24.84,48.51,24.84,47.82"/>
	<path fill="#FFFFFF" d="M26.72,47.82v-0.01c0-1.4,1.1-2.49,2.58-2.49c0.84,0,1.44,0.26,1.94,0.7l-0.78,0.94
		c-0.34-0.29-0.69-0.45-1.16-0.45c-0.69,0-1.23,0.58-1.23,1.31v0.02c0,0.77,0.54,1.33,1.3,1.33c0.32,0,0.57-0.07,0.76-0.2v-0.58
		H29.2V47.4h2.2v2.16c-0.51,0.42-1.21,0.74-2.08,0.74C27.83,50.29,26.72,49.27,26.72,47.82"/>
	<path fill="#FFFFFF" d="M32.14,45.41h2.27c0.73,0,1.24,0.19,1.56,0.52c0.28,0.27,0.43,0.64,0.43,1.12v0.01
		c0,0.73-0.39,1.22-0.99,1.47l1.14,1.67h-1.53l-0.97-1.45h-0.58v1.45h-1.33V45.41z M34.35,47.71c0.45,0,0.71-0.22,0.71-0.57v-0.01
		c0-0.38-0.27-0.57-0.72-0.57h-0.87v1.15H34.35z"/>
	<path fill="#FFFFFF" d="M38.63,45.38h1.28l2.04,4.82h-1.42l-0.35-0.86h-1.85l-0.34,0.86h-1.4L38.63,45.38z M39.79,48.31l-0.53-1.36
		l-0.54,1.36H39.79z"/>
	<polygon fill="#FFFFFF" points="42.41,45.41 43.81,45.41 44.96,47.26 46.1,45.41 47.5,45.41 47.5,50.2 46.18,50.2 46.18,47.45 
		44.96,49.32 44.93,49.32 43.71,47.46 43.71,50.2 42.41,50.2 	"/>
	<path fill="#FFFFFF" d="M50.01,45.38h1.28l2.04,4.82H51.9l-0.35-0.86H49.7l-0.34,0.86h-1.4L50.01,45.38z M51.17,48.31l-0.53-1.36
		l-0.54,1.36H51.17z"/>
	<polygon fill="#FFFFFF" points="0,53.08 1.83,53.08 3.32,55.5 4.81,53.08 6.64,53.08 6.64,59.33 4.92,59.33 4.92,55.74 3.32,58.19 
		3.28,58.19 1.7,55.76 1.7,59.33 0,59.33 	"/>
	<path fill="#FFFFFF" d="M7.67,56.59v-3.51h1.76v3.47c0,0.9,0.46,1.33,1.15,1.33c0.7,0,1.15-0.41,1.15-1.28v-3.52h1.76v3.46
		c0,2.02-1.15,2.9-2.93,2.9S7.67,58.54,7.67,56.59"/>
	<polygon fill="#FFFFFF" points="14.51,53.08 16.25,53.08 16.25,57.81 19.27,57.81 19.27,59.33 14.51,59.33 	"/>
	<polygon fill="#FFFFFF" points="20.65,54.6 18.77,54.6 18.77,53.08 24.25,53.08 24.25,54.6 22.38,54.6 22.38,59.33 20.65,59.33 	
		"/>
	<rect x="25.05" y="53.08" fill="#FFFFFF" width="1.74" height="6.25"/>
	<path fill="#FFFFFF" d="M33.33,58.4l0.96-1.15c0.62,0.49,1.3,0.75,2.03,0.75c0.46,0,0.71-0.16,0.71-0.43v-0.02
		c0-0.26-0.21-0.4-1.05-0.6c-1.33-0.3-2.36-0.68-2.36-1.96v-0.02c0-1.16,0.92-2,2.42-2c1.06,0,1.89,0.29,2.57,0.83l-0.87,1.22
		c-0.57-0.4-1.19-0.62-1.75-0.62c-0.42,0-0.63,0.18-0.63,0.4v0.02c0,0.29,0.21,0.41,1.08,0.61c1.44,0.31,2.33,0.78,2.33,1.95v0.02
		c0,1.28-1.01,2.03-2.53,2.03C35.15,59.44,34.1,59.09,33.33,58.4"/>
	<path fill="#FFFFFF" d="M27.51,58.4l0.96-1.15c0.62,0.49,1.3,0.75,2.03,0.75c0.46,0,0.71-0.16,0.71-0.43v-0.02
		c0-0.26-0.21-0.4-1.05-0.6c-1.33-0.3-2.36-0.68-2.36-1.96v-0.02c0-1.16,0.92-2,2.42-2c1.06,0,1.89,0.29,2.57,0.83l-0.87,1.22
		c-0.57-0.4-1.19-0.62-1.75-0.62c-0.42,0-0.63,0.18-0.63,0.4v0.02c0,0.29,0.21,0.41,1.08,0.61c1.44,0.31,2.33,0.78,2.33,1.95v0.02
		c0,1.28-1.01,2.03-2.53,2.03C29.33,59.44,28.28,59.09,27.51,58.4"/>
	<path fill="#FFFFFF" d="M41.65,53.04h1.67l2.66,6.29h-1.86l-0.46-1.12h-2.41l-0.45,1.12h-1.82L41.65,53.04z M43.17,56.87l-0.7-1.78
		l-0.71,1.78H43.17z"/>
	<path fill="#FFFFFF" d="M46.25,56.59v-3.51h1.76v3.47c0,0.9,0.46,1.33,1.15,1.33c0.7,0,1.15-0.41,1.15-1.29v-3.52h1.76v3.46
		c0,2.02-1.15,2.9-2.93,2.9C47.37,59.45,46.25,58.55,46.25,56.59 M49.46,51.21l1.62,0.49l-1.32,0.96H48.5L49.46,51.21z"/>
	<path fill="#FFFFFF" d="M53.1,53.08h2.41c2.23,0,3.53,1.29,3.53,3.09v0.02c0,1.8-1.31,3.14-3.56,3.14H53.1V53.08z M55.54,57.8
		c1.03,0,1.72-0.57,1.72-1.58V56.2c0-1-0.69-1.58-1.72-1.58h-0.71v3.18H55.54z"/>
	<polygon fill="#FFFFFF" points="59.93,53.08 64.95,53.08 64.95,54.55 61.64,54.55 61.64,55.5 64.64,55.5 64.64,56.87 61.64,56.87 
		61.64,57.86 65,57.86 65,59.33 59.93,59.33 	"/>
	<rect fill="none" width="65" height="59.45"/>
</g>
</svg>
