<svg width="46px" viewBox="0 0 66 31.4" preserveAspectRatio="xMidYMid meet">
<g>
	<path fill="#FFFFFF" d="M2.3,14.9h4L7.6,10c0.7,1.1,1.7,1.8,3.4,1.8c3.2,0,6.1-3.1,6.1-7.2c0-2.9-1.8-4.6-4-4.6
		c-1.2,0-2.3,0.6-3.2,1.4l0.3-1.2h-4L2.3,14.9z M10.3,8.5c-1.1,0-2-0.8-2-2c0-1.7,1.3-3.2,2.8-3.2c1.1,0,1.9,0.8,1.9,2
		C13.1,7.1,11.8,8.5,10.3,8.5"/>
	<path fill="#FFFFFF" d="M22.8,11.8c3.8,0,6.7-3.1,6.7-6.6c0-3-2.1-5.2-5.5-5.2c-3.8,0-6.6,3.2-6.6,6.6
		C17.3,9.5,19.3,11.8,22.8,11.8 M23,8.5c-1.2,0-2-0.8-2-2.1c0-1.5,1.1-3.1,2.6-3.1c1.2,0,2,0.8,2,2.1C25.6,6.9,24.6,8.5,23,8.5"/>
	<path fill="#FFFFFF" d="M32.7,11.8c1.3,0,2.4-0.7,3.2-1.5l-0.3,1.3h4l3-11.3h-4l-1.6,6c-0.3,1.3-1,2-2.1,2c-0.8,0-1.3-0.4-1.3-1.2
		c0-0.2,0.1-0.6,0.1-0.9l1.6-5.9h-4l-1.7,6.1c-0.2,0.7-0.3,1.4-0.3,2C29.4,10.5,30.6,11.8,32.7,11.8"/>
	<path fill="#FFFFFF" d="M48.1,11.8c-1.7,0-2.7-0.7-3.4-1.8l-1.1,4.2h-4l3.7-13.9h4L47,1.4c0.9-0.9,2-1.4,3.2-1.4c2.2,0,4,1.7,4,4.6
		C54.2,8.7,51.3,11.8,48.1,11.8 M48.2,3.3c-1.5,0-2.8,1.5-2.8,3.2c0,1.2,0.8,2,2,2c1.5,0,2.8-1.4,2.8-3.2C50.2,4,49.4,3.3,48.2,3.3"
		/>
	<path fill="#FFFFFF" d="M57.3,11.8c1.3,0,2.3-0.5,3.3-1.4l-0.3,1.2h3.9l1.7-6.2C65.9,4.8,66,4.2,66,3.7c0-2.3-1.6-3.6-5-3.6
		c-1.6,0-3.3,0.3-4.4,0.7l0.6,2.9c0.8-0.3,2-0.6,3-0.6c1.4,0,1.9,0.5,1.9,1.2C62.1,4.6,62,4.8,62,5l0,0.1c-0.9-0.3-1.8-0.4-2.9-0.4
		c-3,0-5,1.5-5,4C54.1,10.6,55.4,11.8,57.3,11.8 M59.1,9.3c-0.7,0-1.1-0.4-1.1-1c0-1,0.8-1.6,2.1-1.6c0.5,0,1,0.1,1.5,0.3l-0.1,0.4
		C61.1,8.4,60.1,9.3,59.1,9.3"/>
	<path fill="#FFFFFF" d="M10.4,14.8C9.1,15.6,8,16.7,7.4,18l-1.9,0l-1,3.5c0,0.1,0,0.2-0.1,0.3c0,0.1-0.1,0.2-0.1,0.3
		c0,0.2,0,0.4,0.1,0.5h0h2.1c0.3,1.7,1.2,3,2.7,3.7H5.9H4.5H3.3v0c-2.1-0.1-3.2-1.1-3.2-2.7c0-0.5,0.1-0.9,0.2-1.5L1.5,18H0.1
		L1,14.8h1.3L3.1,12h4l-0.8,2.9L10.4,14.8z"/>
	<path fill="#FFFFFF" d="M34.9,31.4h4l1.8-6.8c0.7,1.1,1.7,1.8,3.4,1.8c3.2,0,6.1-3.1,6.1-7.2c0-2.9-1.8-4.6-4-4.6
		c-1.2,0-2.3,0.6-3.2,1.4l0.3-1.2h-4L34.9,31.4z M43.5,23.1c-1.1,0-2-0.8-2-2c0-1.7,1.3-3.2,2.8-3.2c1.1,0,1.9,0.8,1.9,2
		C46.2,21.6,45,23.1,43.5,23.1"/>
	<path fill="#FFFFFF" d="M56.2,26.4c3.8,0,6.7-3.1,6.7-6.6c0-3-2.1-5.2-5.5-5.2c-3.8,0-6.6,3.1-6.6,6.6
		C50.7,24.1,52.8,26.4,56.2,26.4 M56.5,23.1c-1.2,0-2-0.8-2-2.1c0-1.5,1.1-3.1,2.6-3.1c1.2,0,2,0.8,2,2.1
		C59.1,21.5,58,23.1,56.5,23.1"/>
	<path fill="#FFFFFF" d="M11,21.6h7.5c0.3-0.7,0.4-1.5,0.4-2.3c0-2.4-1.5-4.7-4.8-4.7c-4.2,0-6.8,3.5-6.8,6.8c0,3,2,5,5.4,5
		c2,0,3.5-0.7,4.6-1.7l-1.8-2.2c-0.9,0.6-1.6,0.9-2.4,0.9C11.8,23.4,11.1,22.7,11,21.6 M11.3,19.6c0.5-1.4,1.5-2,2.6-2
		c1,0,1.5,0.7,1.5,1.4c0,0.2,0,0.4-0.1,0.6H11.3z"/>
	<path fill="#FFFFFF" d="M18.1,26.1h3.8l1.6-6c0.4-1.3,0.9-2,1.9-2c0.8,0,1.1,0.4,1.1,1.2c0,0.2-0.1,0.6-0.1,0.9l-1.6,5.9h4l1.6-6
		c0.4-1.3,0.8-2,1.8-2c0.8,0,1.2,0.4,1.2,1.2c0,0.2-0.1,0.6-0.1,0.9l-1.6,5.9h3.9l1.6-6.1c0.2-0.7,0.3-1.4,0.3-2
		c0-2.1-1.1-3.4-3.3-3.4c-1.6,0-2.8,0.8-3.9,2c-0.4-1.2-1.4-2-2.9-2c-1.3,0-2.1,0.7-2.9,1.5l0.3-1.3h-3.8L18.1,26.1z"/>
	<path fill="#ED1C24" d="M34.1,31.4c-11.5,0-18.8,0-23.3,0c-6.2,0-8.7-2.8-9.6-3.9c-0.9-1-1.2-2.1-1.2-2.1c0.6,1.4,1.8,1.7,2.6,1.7
		c0.8,0,32.7,0,32.7,0L34.1,31.4z"/>
	<path fill="#ED1C24" d="M60.5,27.3c-1,1.3-3.8,4.1-9.8,4.1c-3.7,0-7.9,0.1-11,0.1l1.1-4.3c0,0,14.6,0,16.2,0c1.8,0,4-0.9,4.9-2.8
		C62,24.4,61.5,26,60.5,27.3"/>
	<rect x="0" y="0" fill="none" width="66" height="31.4"/>
</g>
</svg>
