<svg width="40px" viewBox="0 0 40 56.9" preserveAspectRatio="xMidYMid meet">
<g>
	<path fill="#4AC8EF" d="M17.8,2c-0.2,0-0.5,0.1-0.7,0.2L2.3,15.4C2.1,15.6,2,15.9,2,16.2v37.7c0,0.6,0.4,1,1,1h34c0.5,0,1-0.5,1-1
		V3c0-0.6-0.4-1-1-1H17.8z M37,56.9H3c-1.7,0-3-1.4-3-3V16.2c0-0.9,0.4-1.7,1-2.3L15.8,0.8C16.3,0.3,17,0,17.8,0H37c1.7,0,3,1.4,3,3
		v50.8C40,55.5,38.7,56.9,37,56.9"/>
	<path fill="#4AC8EF" d="M7,32.5c-0.5,0-1,0.5-1,1v16.2c0,0.6,0.4,1,1,1h26c0.5,0,1-0.5,1-1V33.5c0-0.6-0.4-1-1-1H7z M33,52.8H7
		c-1.7,0-3-1.4-3-3V33.5c0-1.7,1.3-3,3-3h26c1.7,0,3,1.4,3,3v16.2C36,51.4,34.7,52.8,33,52.8"/>
	<path fill="#4AC8EF" d="M35,16.2c-0.6,0-1-0.5-1-1V5.1c0-0.6,0.4-1,1-1c0.6,0,1,0.5,1,1v10.2C36,15.8,35.6,16.2,35,16.2"/>
	<path fill="#4AC8EF" d="M31,16.2c-0.6,0-1-0.5-1-1V5.1c0-0.6,0.4-1,1-1c0.6,0,1,0.5,1,1v10.2C32,15.8,31.6,16.2,31,16.2"/>
	<path fill="#4AC8EF" d="M27,16.2c-0.6,0-1-0.5-1-1V5.1c0-0.6,0.4-1,1-1c0.6,0,1,0.5,1,1v10.2C28,15.8,27.6,16.2,27,16.2"/>
	<path fill="#4AC8EF" d="M23,16.2c-0.6,0-1-0.5-1-1V5.1c0-0.6,0.4-1,1-1c0.6,0,1,0.5,1,1v10.2C24,15.8,23.6,16.2,23,16.2"/>
	<path fill="#4AC8EF" d="M19,16.2c-0.6,0-1-0.5-1-1V5.1c0-0.6,0.4-1,1-1c0.6,0,1,0.5,1,1v10.2C20,15.8,19.6,16.2,19,16.2"/>
	<path fill="#4AC8EF" d="M15,16.2c-0.6,0-1-0.5-1-1V7.1c0-0.6,0.4-1,1-1c0.6,0,1,0.5,1,1v8.1C16,15.8,15.6,16.2,15,16.2"/>
	<path fill="#4AC8EF" d="M11,16.2c-0.6,0-1-0.5-1-1v-4.1c0-0.6,0.4-1,1-1c0.6,0,1,0.5,1,1v4.1C12,15.8,11.6,16.2,11,16.2"/>
</g>
</svg>
