<svg width="46px" viewBox="0 0 46 37.2" preserveAspectRatio="xMidYMid meet">
<g>
	<path fill="#4AC8EF" d="M42.9,37.2H3.1c-1.7,0-3.1-1.4-3.1-3.1V9.7C0,8,1.4,6.6,3.1,6.6h13v1.8h-13C2.4,8.4,1.8,9,1.8,9.7v24.4
		c0,0.7,0.6,1.3,1.3,1.3h39.7c0.7,0,1.3-0.6,1.3-1.3V9.7c0-0.7-0.6-1.3-1.3-1.3h-13V6.6h13C44.6,6.6,46,8,46,9.7v24.4
		C46,35.8,44.6,37.2,42.9,37.2"/>
	<path fill="#4AC8EF" d="M39.3,17.7H26.5c-0.5,0-0.9-0.4-0.9-0.9s0.4-0.9,0.9-0.9h12.8c0.5,0,0.9,0.4,0.9,0.9S39.8,17.7,39.3,17.7"
		/>
	<path fill="#4AC8EF" d="M39.3,23.2H26.5c-0.5,0-0.9-0.4-0.9-0.9c0-0.5,0.4-0.9,0.9-0.9h12.8c0.5,0,0.9,0.4,0.9,0.9
		C40.2,22.8,39.8,23.2,39.3,23.2"/>
	<path fill="#4AC8EF" d="M39.3,28.7H26.5c-0.5,0-0.9-0.4-0.9-0.9s0.4-0.9,0.9-0.9h12.8c0.5,0,0.9,0.4,0.9,0.9S39.8,28.7,39.3,28.7"
		/>
	<path fill="#4AC8EF" d="M22.6,36.1h-1.8v-4.7c0-2.4-1.7-3.5-3.6-3.7L14.4,31c-0.2,0.2-0.4,0.3-0.7,0.3c-0.3,0-0.5-0.1-0.7-0.3
		l-3-3.3c-2.1,0.2-3.4,1.5-3.4,3.7v4.7H4.7v-4.7c0-3.3,2.3-5.5,5.6-5.5c0.3,0,0.5,0.1,0.7,0.3l2.6,2.9l2.4-2.8
		c0.2-0.2,0.4-0.3,0.7-0.3c3.4,0,5.8,2.3,5.8,5.5V36.1z"/>
	<path fill="#4AC8EF" d="M13.7,15.1c-1.7,0-3,1.4-3,3.1v1.5c0,1.7,1.4,3.1,3,3.1c1.7,0,3-1.4,3-3.1v-1.5
		C16.7,16.5,15.3,15.1,13.7,15.1 M13.7,24.6c-2.7,0-4.9-2.2-4.9-4.9v-1.5c0-2.7,2.2-4.9,4.9-4.9c2.7,0,4.9,2.2,4.9,4.9v1.5
		C18.5,22.4,16.4,24.6,13.7,24.6"/>
	<polygon fill="#4AC8EF" points="26.9,11 25.1,11 25.1,1.8 20.9,1.8 20.9,11 19.1,11 19.1,0 26.9,0 	"/>
	<rect x="17.3" y="10.2" fill="#4AC8EF" width="11.5" height="1.8"/>
</g>
</svg>
