<svg width="50" viewBox="0 0 225 225" preserveAspectRatio="xMidYMid meet">
<rect fill="#FFFFFF" width="225" height="225"/>
<rect x="13.5" y="13.5" width="7.9" height="7.9"/>
<rect x="21.4" y="13.5" width="7.9" height="7.9"/>
<rect x="29.2" y="13.5" width="7.9" height="7.9"/>
<rect x="37.1" y="13.5" width="7.9" height="7.9"/>
<rect x="45" y="13.5" width="7.9" height="7.9"/>
<rect x="52.9" y="13.5" width="7.9" height="7.9"/>
<rect x="60.8" y="13.5" width="7.9" height="7.9"/>
<rect x="84.4" y="13.5" width="7.9" height="7.9"/>
<rect x="115.9" y="13.5" width="7.9" height="7.9"/>
<rect x="155.3" y="13.5" width="7.9" height="7.9"/>
<rect x="163.1" y="13.5" width="7.9" height="7.9"/>
<rect x="171" y="13.5" width="7.9" height="7.9"/>
<rect x="178.9" y="13.5" width="7.9" height="7.9"/>
<rect x="186.7" y="13.5" width="7.9" height="7.9"/>
<rect x="194.6" y="13.5" width="7.9" height="7.9"/>
<rect x="202.5" y="13.5" width="7.9" height="7.9"/>
<rect x="13.5" y="21.4" width="7.9" height="7.9"/>
<rect x="60.8" y="21.4" width="7.9" height="7.9"/>
<rect x="76.5" y="21.4" width="7.9" height="7.9"/>
<rect x="84.4" y="21.4" width="7.9" height="7.9"/>
<rect x="100.1" y="21.4" width="7.9" height="7.9"/>
<rect x="108" y="21.4" width="7.9" height="7.9"/>
<rect x="115.9" y="21.4" width="7.9" height="7.9"/>
<rect x="123.7" y="21.4" width="7.9" height="7.9"/>
<rect x="131.6" y="21.4" width="7.9" height="7.9"/>
<rect x="155.3" y="21.4" width="7.9" height="7.9"/>
<rect x="202.5" y="21.4" width="7.9" height="7.9"/>
<rect x="13.5" y="29.2" width="7.9" height="7.9"/>
<rect x="29.2" y="29.2" width="7.9" height="7.9"/>
<rect x="37.1" y="29.2" width="7.9" height="7.9"/>
<rect x="45" y="29.2" width="7.9" height="7.9"/>
<rect x="60.8" y="29.2" width="7.9" height="7.9"/>
<rect x="84.4" y="29.2" width="7.9" height="7.9"/>
<rect x="92.2" y="29.2" width="7.9" height="7.9"/>
<rect x="100.1" y="29.2" width="7.9" height="7.9"/>
<rect x="139.5" y="29.2" width="7.9" height="7.9"/>
<rect x="155.3" y="29.2" width="7.9" height="7.9"/>
<rect x="171" y="29.2" width="7.9" height="7.9"/>
<rect x="178.9" y="29.2" width="7.9" height="7.9"/>
<rect x="186.7" y="29.2" width="7.9" height="7.9"/>
<rect x="202.5" y="29.2" width="7.9" height="7.9"/>
<rect x="13.5" y="37.1" width="7.9" height="7.9"/>
<rect x="29.2" y="37.1" width="7.9" height="7.9"/>
<rect x="37.1" y="37.1" width="7.9" height="7.9"/>
<rect x="45" y="37.1" width="7.9" height="7.9"/>
<rect x="60.8" y="37.1" width="7.9" height="7.9"/>
<rect x="76.5" y="37.1" width="7.9" height="7.9"/>
<rect x="84.4" y="37.1" width="7.9" height="7.9"/>
<rect x="100.1" y="37.1" width="7.9" height="7.9"/>
<rect x="115.9" y="37.1" width="7.9" height="7.9"/>
<rect x="123.7" y="37.1" width="7.9" height="7.9"/>
<rect x="131.6" y="37.1" width="7.9" height="7.9"/>
<rect x="139.5" y="37.1" width="7.9" height="7.9"/>
<rect x="155.3" y="37.1" width="7.9" height="7.9"/>
<rect x="171" y="37.1" width="7.9" height="7.9"/>
<rect x="178.9" y="37.1" width="7.9" height="7.9"/>
<rect x="186.7" y="37.1" width="7.9" height="7.9"/>
<rect x="202.5" y="37.1" width="7.9" height="7.9"/>
<rect x="13.5" y="45" width="7.9" height="7.9"/>
<rect x="29.2" y="45" width="7.9" height="7.9"/>
<rect x="37.1" y="45" width="7.9" height="7.9"/>
<rect x="45" y="45" width="7.9" height="7.9"/>
<rect x="60.8" y="45" width="7.9" height="7.9"/>
<rect x="92.2" y="45" width="7.9" height="7.9"/>
<rect x="108" y="45" width="7.9" height="7.9"/>
<rect x="139.5" y="45" width="7.9" height="7.9"/>
<rect x="155.3" y="45" width="7.9" height="7.9"/>
<rect x="171" y="45" width="7.9" height="7.9"/>
<rect x="178.9" y="45" width="7.9" height="7.9"/>
<rect x="186.7" y="45" width="7.9" height="7.9"/>
<rect x="202.5" y="45" width="7.9" height="7.9"/>
<rect x="13.5" y="52.9" width="7.9" height="7.9"/>
<rect x="60.8" y="52.9" width="7.9" height="7.9"/>
<rect x="76.5" y="52.9" width="7.9" height="7.9"/>
<rect x="92.2" y="52.9" width="7.9" height="7.9"/>
<rect x="115.9" y="52.9" width="7.9" height="7.9"/>
<rect x="131.6" y="52.9" width="7.9" height="7.9"/>
<rect x="139.5" y="52.9" width="7.9" height="7.9"/>
<rect x="155.3" y="52.9" width="7.9" height="7.9"/>
<rect x="202.5" y="52.9" width="7.9" height="7.9"/>
<rect x="13.5" y="60.7" width="7.9" height="7.9"/>
<rect x="21.4" y="60.7" width="7.9" height="7.9"/>
<rect x="29.2" y="60.7" width="7.9" height="7.9"/>
<rect x="37.1" y="60.7" width="7.9" height="7.9"/>
<rect x="45" y="60.7" width="7.9" height="7.9"/>
<rect x="52.9" y="60.7" width="7.9" height="7.9"/>
<rect x="60.8" y="60.7" width="7.9" height="7.9"/>
<rect x="76.5" y="60.7" width="7.9" height="7.9"/>
<rect x="92.2" y="60.7" width="7.9" height="7.9"/>
<rect x="108" y="60.7" width="7.9" height="7.9"/>
<rect x="123.7" y="60.7" width="7.9" height="7.9"/>
<rect x="139.5" y="60.7" width="7.9" height="7.9"/>
<rect x="155.3" y="60.7" width="7.9" height="7.9"/>
<rect x="163.1" y="60.7" width="7.9" height="7.9"/>
<rect x="171" y="60.7" width="7.9" height="7.9"/>
<rect x="178.9" y="60.7" width="7.9" height="7.9"/>
<rect x="186.7" y="60.7" width="7.9" height="7.9"/>
<rect x="194.6" y="60.7" width="7.9" height="7.9"/>
<rect x="202.5" y="60.7" width="7.9" height="7.9"/>
<rect x="108" y="68.6" width="7.9" height="7.9"/>
<rect x="139.5" y="68.6" width="7.9" height="7.9"/>
<rect x="13.5" y="76.5" width="7.9" height="7.9"/>
<rect x="21.4" y="76.5" width="7.9" height="7.9"/>
<rect x="29.2" y="76.5" width="7.9" height="7.9"/>
<rect x="37.1" y="76.5" width="7.9" height="7.9"/>
<rect x="45" y="76.5" width="7.9" height="7.9"/>
<rect x="60.8" y="76.5" width="7.9" height="7.9"/>
<rect x="68.6" y="76.5" width="7.9" height="7.9"/>
<rect x="76.5" y="76.5" width="7.9" height="7.9"/>
<rect x="84.4" y="76.5" width="7.9" height="7.9"/>
<rect x="92.2" y="76.5" width="7.9" height="7.9"/>
<rect x="108" y="76.5" width="7.9" height="7.9"/>
<rect x="115.9" y="76.5" width="7.9" height="7.9"/>
<rect x="123.7" y="76.5" width="7.9" height="7.9"/>
<rect x="147.4" y="76.5" width="7.9" height="7.9"/>
<rect x="163.1" y="76.5" width="7.9" height="7.9"/>
<rect x="178.9" y="76.5" width="7.9" height="7.9"/>
<rect x="194.6" y="76.5" width="7.9" height="7.9"/>
<rect x="13.5" y="84.4" width="7.9" height="7.9"/>
<rect x="21.4" y="84.4" width="7.9" height="7.9"/>
<rect x="29.2" y="84.4" width="7.9" height="7.9"/>
<rect x="68.6" y="84.4" width="7.9" height="7.9"/>
<rect x="84.4" y="84.4" width="7.9" height="7.9"/>
<rect x="123.7" y="84.4" width="7.9" height="7.9"/>
<rect x="139.5" y="84.4" width="7.9" height="7.9"/>
<rect x="163.1" y="84.4" width="7.9" height="7.9"/>
<rect x="194.6" y="84.4" width="7.9" height="7.9"/>
<rect x="21.4" y="92.2" width="7.9" height="7.9"/>
<rect x="29.2" y="92.2" width="7.9" height="7.9"/>
<rect x="60.8" y="92.2" width="7.9" height="7.9"/>
<rect x="68.6" y="92.2" width="7.9" height="7.9"/>
<rect x="84.4" y="92.2" width="7.9" height="7.9"/>
<rect x="100.1" y="92.2" width="7.9" height="7.9"/>
<rect x="108" y="92.2" width="7.9" height="7.9"/>
<rect x="115.9" y="92.2" width="7.9" height="7.9"/>
<rect x="131.6" y="92.2" width="7.9" height="7.9"/>
<rect x="139.5" y="92.2" width="7.9" height="7.9"/>
<rect x="147.4" y="92.2" width="7.9" height="7.9"/>
<rect x="163.1" y="92.2" width="7.9" height="7.9"/>
<rect x="186.7" y="92.2" width="7.9" height="7.9"/>
<rect x="194.6" y="92.2" width="7.9" height="7.9"/>
<rect x="202.5" y="92.2" width="7.9" height="7.9"/>
<rect x="21.4" y="100.1" width="7.9" height="7.9"/>
<rect x="29.2" y="100.1" width="7.9" height="7.9"/>
<rect x="45" y="100.1" width="7.9" height="7.9"/>
<rect x="52.9" y="100.1" width="7.9" height="7.9"/>
<rect x="68.6" y="100.1" width="7.9" height="7.9"/>
<rect x="76.5" y="100.1" width="7.9" height="7.9"/>
<rect x="84.4" y="100.1" width="7.9" height="7.9"/>
<rect x="92.2" y="100.1" width="7.9" height="7.9"/>
<rect x="100.1" y="100.1" width="7.9" height="7.9"/>
<rect x="139.5" y="100.1" width="7.9" height="7.9"/>
<rect x="155.3" y="100.1" width="7.9" height="7.9"/>
<rect x="178.9" y="100.1" width="7.9" height="7.9"/>
<rect x="194.6" y="100.1" width="7.9" height="7.9"/>
<rect x="13.5" y="108" width="7.9" height="7.9"/>
<rect x="21.4" y="108" width="7.9" height="7.9"/>
<rect x="29.2" y="108" width="7.9" height="7.9"/>
<rect x="37.1" y="108" width="7.9" height="7.9"/>
<rect x="52.9" y="108" width="7.9" height="7.9"/>
<rect x="60.8" y="108" width="7.9" height="7.9"/>
<rect x="68.6" y="108" width="7.9" height="7.9"/>
<rect x="76.5" y="108" width="7.9" height="7.9"/>
<rect x="84.4" y="108" width="7.9" height="7.9"/>
<rect x="100.1" y="108" width="7.9" height="7.9"/>
<rect x="131.6" y="108" width="7.9" height="7.9"/>
<rect x="155.3" y="108" width="7.9" height="7.9"/>
<rect x="171" y="108" width="7.9" height="7.9"/>
<rect x="178.9" y="108" width="7.9" height="7.9"/>
<rect x="186.7" y="108" width="7.9" height="7.9"/>
<rect x="194.6" y="108" width="7.9" height="7.9"/>
<rect x="202.5" y="108" width="7.9" height="7.9"/>
<rect x="13.5" y="115.9" width="7.9" height="7.9"/>
<rect x="21.4" y="115.9" width="7.9" height="7.9"/>
<rect x="52.9" y="115.9" width="7.9" height="7.9"/>
<rect x="76.5" y="115.9" width="7.9" height="7.9"/>
<rect x="84.4" y="115.9" width="7.9" height="7.9"/>
<rect x="92.2" y="115.9" width="7.9" height="7.9"/>
<rect x="108" y="115.9" width="7.9" height="7.9"/>
<rect x="115.9" y="115.9" width="7.9" height="7.9"/>
<rect x="139.5" y="115.9" width="7.9" height="7.9"/>
<rect x="163.1" y="115.9" width="7.9" height="7.9"/>
<rect x="186.7" y="115.9" width="7.9" height="7.9"/>
<rect x="194.6" y="115.9" width="7.9" height="7.9"/>
<rect x="13.5" y="123.7" width="7.9" height="7.9"/>
<rect x="29.2" y="123.7" width="7.9" height="7.9"/>
<rect x="37.1" y="123.7" width="7.9" height="7.9"/>
<rect x="45" y="123.7" width="7.9" height="7.9"/>
<rect x="60.8" y="123.7" width="7.9" height="7.9"/>
<rect x="68.6" y="123.7" width="7.9" height="7.9"/>
<rect x="92.2" y="123.7" width="7.9" height="7.9"/>
<rect x="115.9" y="123.7" width="7.9" height="7.9"/>
<rect x="123.7" y="123.7" width="7.9" height="7.9"/>
<rect x="131.6" y="123.7" width="7.9" height="7.9"/>
<rect x="147.4" y="123.7" width="7.9" height="7.9"/>
<rect x="171" y="123.7" width="7.9" height="7.9"/>
<rect x="178.9" y="123.7" width="7.9" height="7.9"/>
<rect x="186.7" y="123.7" width="7.9" height="7.9"/>
<rect x="194.6" y="123.7" width="7.9" height="7.9"/>
<rect x="202.5" y="123.7" width="7.9" height="7.9"/>
<rect x="13.5" y="131.6" width="7.9" height="7.9"/>
<rect x="37.1" y="131.6" width="7.9" height="7.9"/>
<rect x="76.5" y="131.6" width="7.9" height="7.9"/>
<rect x="108" y="131.6" width="7.9" height="7.9"/>
<rect x="115.9" y="131.6" width="7.9" height="7.9"/>
<rect x="139.5" y="131.6" width="7.9" height="7.9"/>
<rect x="194.6" y="131.6" width="7.9" height="7.9"/>
<rect x="13.5" y="139.5" width="7.9" height="7.9"/>
<rect x="45" y="139.5" width="7.9" height="7.9"/>
<rect x="60.8" y="139.5" width="7.9" height="7.9"/>
<rect x="76.5" y="139.5" width="7.9" height="7.9"/>
<rect x="108" y="139.5" width="7.9" height="7.9"/>
<rect x="123.7" y="139.5" width="7.9" height="7.9"/>
<rect x="139.5" y="139.5" width="7.9" height="7.9"/>
<rect x="147.4" y="139.5" width="7.9" height="7.9"/>
<rect x="155.3" y="139.5" width="7.9" height="7.9"/>
<rect x="163.1" y="139.5" width="7.9" height="7.9"/>
<rect x="171" y="139.5" width="7.9" height="7.9"/>
<rect x="178.9" y="139.5" width="7.9" height="7.9"/>
<rect x="186.7" y="139.5" width="7.9" height="7.9"/>
<rect x="194.6" y="139.5" width="7.9" height="7.9"/>
<rect x="202.5" y="139.5" width="7.9" height="7.9"/>
<rect x="76.5" y="147.4" width="7.9" height="7.9"/>
<rect x="92.2" y="147.4" width="7.9" height="7.9"/>
<rect x="131.6" y="147.4" width="7.9" height="7.9"/>
<rect x="139.5" y="147.4" width="7.9" height="7.9"/>
<rect x="171" y="147.4" width="7.9" height="7.9"/>
<rect x="194.6" y="147.4" width="7.9" height="7.9"/>
<rect x="13.5" y="155.2" width="7.9" height="7.9"/>
<rect x="21.4" y="155.2" width="7.9" height="7.9"/>
<rect x="29.2" y="155.2" width="7.9" height="7.9"/>
<rect x="37.1" y="155.2" width="7.9" height="7.9"/>
<rect x="45" y="155.2" width="7.9" height="7.9"/>
<rect x="52.9" y="155.2" width="7.9" height="7.9"/>
<rect x="60.8" y="155.2" width="7.9" height="7.9"/>
<rect x="76.5" y="155.2" width="7.9" height="7.9"/>
<rect x="84.4" y="155.2" width="7.9" height="7.9"/>
<rect x="100.1" y="155.2" width="7.9" height="7.9"/>
<rect x="108" y="155.2" width="7.9" height="7.9"/>
<rect x="139.5" y="155.2" width="7.9" height="7.9"/>
<rect x="155.3" y="155.2" width="7.9" height="7.9"/>
<rect x="171" y="155.2" width="7.9" height="7.9"/>
<rect x="186.7" y="155.2" width="7.9" height="7.9"/>
<rect x="194.6" y="155.2" width="7.9" height="7.9"/>
<rect x="202.5" y="155.2" width="7.9" height="7.9"/>
<rect x="13.5" y="163.1" width="7.9" height="7.9"/>
<rect x="60.8" y="163.1" width="7.9" height="7.9"/>
<rect x="92.2" y="163.1" width="7.9" height="7.9"/>
<rect x="100.1" y="163.1" width="7.9" height="7.9"/>
<rect x="123.7" y="163.1" width="7.9" height="7.9"/>
<rect x="131.6" y="163.1" width="7.9" height="7.9"/>
<rect x="139.5" y="163.1" width="7.9" height="7.9"/>
<rect x="171" y="163.1" width="7.9" height="7.9"/>
<rect x="202.5" y="163.1" width="7.9" height="7.9"/>
<rect x="13.5" y="171" width="7.9" height="7.9"/>
<rect x="29.2" y="171" width="7.9" height="7.9"/>
<rect x="37.1" y="171" width="7.9" height="7.9"/>
<rect x="45" y="171" width="7.9" height="7.9"/>
<rect x="60.8" y="171" width="7.9" height="7.9"/>
<rect x="76.5" y="171" width="7.9" height="7.9"/>
<rect x="92.2" y="171" width="7.9" height="7.9"/>
<rect x="100.1" y="171" width="7.9" height="7.9"/>
<rect x="131.6" y="171" width="7.9" height="7.9"/>
<rect x="139.5" y="171" width="7.9" height="7.9"/>
<rect x="147.4" y="171" width="7.9" height="7.9"/>
<rect x="155.3" y="171" width="7.9" height="7.9"/>
<rect x="163.1" y="171" width="7.9" height="7.9"/>
<rect x="171" y="171" width="7.9" height="7.9"/>
<rect x="178.9" y="171" width="7.9" height="7.9"/>
<rect x="186.7" y="171" width="7.9" height="7.9"/>
<rect x="194.6" y="171" width="7.9" height="7.9"/>
<rect x="202.5" y="171" width="7.9" height="7.9"/>
<rect x="13.5" y="178.9" width="7.9" height="7.9"/>
<rect x="29.2" y="178.9" width="7.9" height="7.9"/>
<rect x="37.1" y="178.9" width="7.9" height="7.9"/>
<rect x="45" y="178.9" width="7.9" height="7.9"/>
<rect x="60.8" y="178.9" width="7.9" height="7.9"/>
<rect x="76.5" y="178.9" width="7.9" height="7.9"/>
<rect x="92.2" y="178.9" width="7.9" height="7.9"/>
<rect x="108" y="178.9" width="7.9" height="7.9"/>
<rect x="115.9" y="178.9" width="7.9" height="7.9"/>
<rect x="123.7" y="178.9" width="7.9" height="7.9"/>
<rect x="131.6" y="178.9" width="7.9" height="7.9"/>
<rect x="147.4" y="178.9" width="7.9" height="7.9"/>
<rect x="155.3" y="178.9" width="7.9" height="7.9"/>
<rect x="171" y="178.9" width="7.9" height="7.9"/>
<rect x="186.7" y="178.9" width="7.9" height="7.9"/>
<rect x="194.6" y="178.9" width="7.9" height="7.9"/>
<rect x="202.5" y="178.9" width="7.9" height="7.9"/>
<rect x="13.5" y="186.7" width="7.9" height="7.9"/>
<rect x="29.2" y="186.7" width="7.9" height="7.9"/>
<rect x="37.1" y="186.7" width="7.9" height="7.9"/>
<rect x="45" y="186.7" width="7.9" height="7.9"/>
<rect x="60.8" y="186.7" width="7.9" height="7.9"/>
<rect x="76.5" y="186.7" width="7.9" height="7.9"/>
<rect x="92.2" y="186.7" width="7.9" height="7.9"/>
<rect x="115.9" y="186.7" width="7.9" height="7.9"/>
<rect x="123.7" y="186.7" width="7.9" height="7.9"/>
<rect x="131.6" y="186.7" width="7.9" height="7.9"/>
<rect x="147.4" y="186.7" width="7.9" height="7.9"/>
<rect x="163.1" y="186.7" width="7.9" height="7.9"/>
<rect x="178.9" y="186.7" width="7.9" height="7.9"/>
<rect x="202.5" y="186.7" width="7.9" height="7.9"/>
<rect x="13.5" y="194.6" width="7.9" height="7.9"/>
<rect x="60.8" y="194.6" width="7.9" height="7.9"/>
<rect x="76.5" y="194.6" width="7.9" height="7.9"/>
<rect x="84.4" y="194.6" width="7.9" height="7.9"/>
<rect x="92.2" y="194.6" width="7.9" height="7.9"/>
<rect x="108" y="194.6" width="7.9" height="7.9"/>
<rect x="115.9" y="194.6" width="7.9" height="7.9"/>
<rect x="139.5" y="194.6" width="7.9" height="7.9"/>
<rect x="155.3" y="194.6" width="7.9" height="7.9"/>
<rect x="163.1" y="194.6" width="7.9" height="7.9"/>
<rect x="171" y="194.6" width="7.9" height="7.9"/>
<rect x="202.5" y="194.6" width="7.9" height="7.9"/>
<rect x="13.5" y="202.5" width="7.9" height="7.9"/>
<rect x="21.4" y="202.5" width="7.9" height="7.9"/>
<rect x="29.2" y="202.5" width="7.9" height="7.9"/>
<rect x="37.1" y="202.5" width="7.9" height="7.9"/>
<rect x="45" y="202.5" width="7.9" height="7.9"/>
<rect x="52.9" y="202.5" width="7.9" height="7.9"/>
<rect x="60.8" y="202.5" width="7.9" height="7.9"/>
<rect x="76.5" y="202.5" width="7.9" height="7.9"/>
<rect x="108" y="202.5" width="7.9" height="7.9"/>
<rect x="123.7" y="202.5" width="7.9" height="7.9"/>
<rect x="147.4" y="202.5" width="7.9" height="7.9"/>
<rect x="163.1" y="202.5" width="7.9" height="7.9"/>
<rect x="171" y="202.5" width="7.9" height="7.9"/>
<rect x="178.9" y="202.5" width="7.9" height="7.9"/>
<rect x="186.7" y="202.5" width="7.9" height="7.9"/>
<rect x="194.6" y="202.5" width="7.9" height="7.9"/>
<rect x="202.5" y="202.5" width="7.9" height="7.9"/>
</svg>
