<svg width="53" height="48.9" viewBox="0 0 53 48.9"><g fill="#4AC8EF"><path d="M2.8 46.6h47.3l-.8-3.5H3.6l-.8 3.5zM53 48.9H0l1.8-8h49.5l1.7 8zM29.1 5.9h22.1v2.3H29.1zM1.6 5.9h8.9v2.3H1.6zM42.4 18.2h8.8v2.3h-8.8zM23.7 18.2h11v2.3h-11zM1.6 18.2h8.9v2.3H1.6zM38.5 22.5c-.6 0-1.1-.5-1.1-1.1v-4.1c0-.6.5-1.1 1.1-1.1.6 0 1.1.5 1.1 1.1v4.1c0 .6-.5 1.1-1.1 1.1M42.5 30.5h8.8v2.3h-8.8zM1.6 30.5h22.1v2.3H1.6z"/><path d="M6 42.8c-.6 0-1.1-.5-1.1-1.1V1.1C4.9.5 5.4 0 6 0c.6 0 1.1.5 1.1 1.1v40.5c.1.7-.4 1.2-1.1 1.2M46.9 42.8c-.6 0-1.1-.5-1.1-1.1V1.1c0-.6.5-1.1 1.1-1.1.6 0 1.1.5 1.1 1.1v40.6c.1.6-.4 1.1-1.1 1.1M27.6 34.8c-.6 0-1.1-.5-1.1-1.1v-4.1c0-.6.5-1.1 1.1-1.1.6 0 1.1.5 1.1 1.1v4.1c0 .6-.5 1.1-1.1 1.1M33.1 34.8c-.6 0-1.1-.5-1.1-1.1v-4.1c0-.6.5-1.1 1.1-1.1.6 0 1.1.5 1.1 1.1v4.1c0 .6-.5 1.1-1.1 1.1M38.5 34.8c-.6 0-1.1-.5-1.1-1.1v-4.1c0-.6.5-1.1 1.1-1.1.6 0 1.1.5 1.1 1.1v4.1c0 .6-.5 1.1-1.1 1.1M14.4 22.5c-.6 0-1.1-.5-1.1-1.1v-4.1c0-.6.5-1.1 1.1-1.1.6 0 1.1.5 1.1 1.1v4.1c0 .6-.5 1.1-1.1 1.1M19.8 22.5c-.6 0-1.1-.5-1.1-1.1v-4.1c0-.6.5-1.1 1.1-1.1.6 0 1.1.5 1.1 1.1v4.1c.1.6-.4 1.1-1.1 1.1M14.4 10.2c-.6 0-1.1-.5-1.1-1.1V5c0-.6.5-1.1 1.1-1.1.6 0 1.1.5 1.1 1.1v4.1c0 .6-.5 1.1-1.1 1.1M19.8 10.2c-.6 0-1.1-.5-1.1-1.1V5c0-.6.5-1.1 1.1-1.1.7-.1 1.2.4 1.2 1.1v4.1c0 .6-.5 1.1-1.2 1.1M25.3 10.2c-.6 0-1.1-.5-1.1-1.1V5c0-.6.5-1.1 1.1-1.1.6 0 1.1.5 1.1 1.1v4.1c0 .6-.5 1.1-1.1 1.1"/></g></svg>