<svg width="67" height="25.8" viewBox="0 0 67 25.8"><path fill="#FFF" d="M65.2 22.4c0 .5-.4.7-.9.7-.3 0-.6-.2-.6-.5s.3-.5.6-.5l.8-.2v.5zM64 24.2a2 2 0 001.4-.5c.2.4.8.5 1.6.4v-1c-.3 0-.4 0-.4-.3V21c0-1.1-.8-1.6-2-1.6s-1.9.7-2.1 1.5l1.4.2c.1-.4.3-.6.7-.6.5 0 .6.2.6.6v.1l-1 .2c-1 .1-1.8.5-1.8 1.5 0 .7.7 1.3 1.6 1.3m-6.3-.8c.4.5 1.4.8 2.2.8 1.2 0 2.1-.6 2.1-1.6 0-1.1-.9-1.3-1.8-1.4-.6-.1-.8-.1-.8-.4 0-.2.2-.3.6-.3.5 0 .9.2 1.3.6l.7-.9c-.4-.4-1.1-.7-2-.7-1.2 0-2 .6-2 1.6s.8 1.2 1.6 1.4c.7.1 1.1.2 1.1.5 0 .2-.3.4-.7.4a2 2 0 01-1.5-.7l-.8.7zm-2.4-3c.5 0 .8.4.8.8h-1.7c.1-.5.5-.8.9-.8m0 3.8c.9 0 1.8-.5 2.1-1.4l-1.2-.4c-.1.4-.5.6-.9.6-.5 0-.9-.4-1-1h3.2v-.4c0-1.3-.8-2.4-2.2-2.4-1.3 0-2.3 1-2.3 2.4 0 1.6.9 2.6 2.3 2.6m-3-4.8h-1.4v2.7c0 .5-.4.8-.8.8-.5 0-.7-.3-.7-.8v-2.8H48v3.1c0 1 .6 1.7 1.6 1.7.6 0 1-.3 1.3-.6v.5h1.4v-4.6zm-6.6 2.2v.1c0 .7-.4 1.1-.9 1.1-.6 0-.9-.5-.9-1.1 0-.7.3-1.1.9-1.1.5-.1.9.3.9 1m1.4 1.9v-4.1h-1.4v.5c-.2-.3-.7-.6-1.3-.6-1.3 0-2 1-2 2.3 0 1.3.7 2.3 2 2.3.6 0 1-.2 1.3-.5v.3c0 .7-.4 1-1 1-.5 0-.8-.2-.9-.6l-1.3.3c.2.9 1.1 1.4 2.2 1.4 1.4 0 2.4-.8 2.4-2.3m-5.4-4.1h-1.4v2.7c0 .5-.4.8-.8.8-.5 0-.7-.3-.7-.8v-2.8h-1.4v3.1c0 1 .6 1.7 1.6 1.7.6 0 1-.3 1.3-.6v.5h1.4v-4.6zm-7.2 3.4c0 1 .5 1.3 1.5 1.3l.9-.1v-1.2h-.4c-.4 0-.6-.1-.6-.5v-1.9h.9v-1.2h-.9v-1.3h-1.4v1.3h-.6v1.2h.6v2.4zm-.9-3.4h-.3c-.5 0-1 .3-1.2.6v-.6h-1.4v4.7h1.4v-2.3c0-.7.5-1.1 1.1-1.1h.4v-1.3zm-6.9 2.4c0-.8.4-1.3.9-1.3s.9.5.9 1.3-.4 1.3-.9 1.3-.9-.5-.9-1.3m3.3 0c0-1.5-1-2.4-2.3-2.4-1.4 0-2.3 1-2.3 2.4 0 1.5 1 2.4 2.3 2.4 1.3 0 2.3-1 2.3-2.4m-8.4-1.2V19h1.1c.7 0 1.1.3 1.1.8s-.4.8-1.1.8h-1.1zm0 1.3h1.2c1.5 0 2.4-.7 2.4-2.1 0-1.4-.9-2.1-2.4-2.1h-2.7v6.4h1.5v-2.2zM57.7 13.6c0 .5-.4.7-.9.7-.3 0-.6-.2-.6-.5s.3-.5.6-.5l.8-.1v.4zm-1.2 1.7a2 2 0 001.4-.5c.2.4.8.5 1.6.4v-1c-.3 0-.4 0-.4-.3v-1.8c0-1.1-.8-1.6-2-1.6s-1.9.7-2.1 1.5l1.4.2c.1-.4.3-.6.7-.6.5 0 .6.2.6.6v.1l-1 .2c-1 .1-1.8.5-1.8 1.5 0 .8.7 1.3 1.6 1.3m-2.2-4.7h-1.4v2.7c0 .5-.4.8-.8.8-.5 0-.7-.3-.7-.8v-2.8H50v3.1c0 1 .6 1.7 1.6 1.7.6 0 1-.3 1.3-.6v.5h1.4v-4.6zm-6.6 2.1v.1c0 .7-.4 1.1-.9 1.1-.6 0-.9-.5-.9-1.1 0-.7.3-1.1.9-1.1.5-.1.9.3.9 1m1.4 2v-4.1h-1.4v.4c-.2-.3-.7-.6-1.3-.6-1.3 0-2 1-2 2.3 0 1.3.7 2.3 2 2.3.6 0 1-.2 1.3-.5v.3c0 .7-.4 1-1 1-.5 0-.8-.2-.9-.6l-1.3.3c.2.9 1.1 1.4 2.2 1.4 1.4 0 2.4-.8 2.4-2.2m-9.7.5h1.4v-2.7c0-.5.4-.8.8-.8.5 0 .7.3.7.8v2.7h1.4v-3.1c0-1-.6-1.7-1.6-1.7-.6 0-1 .3-1.3.6v-.5h-1.4v4.7zm-.9-4.6h-1.4v4.7h1.4v-4.7zm-1.3-.4h1.1l1-1.3h-1.7l-.4 1.3zm-5 5h4.3V14h-2.8V8.9h-1.5v6.3zM28 13.6c0 .5-.4.7-.9.7-.3 0-.6-.2-.6-.5s.3-.5.6-.5l.8-.1v.4zm-1.3 1.7a2 2 0 001.4-.5c.2.4.8.5 1.6.4v-1c-.3 0-.4 0-.4-.3v-1.8c0-1.1-.8-1.6-2-1.6s-1.9.7-2.1 1.5l1.4.2c.1-.4.3-.6.7-.6.5 0 .6.2.6.6v.1l-1 .2c-1 .1-1.8.5-1.8 1.5 0 .8.7 1.3 1.6 1.3m-3.6-2.5v.2c0 .7-.4 1.1-.9 1.1-.6 0-.9-.5-.9-1.2s.3-1.2.9-1.2c.5 0 .9.4.9 1.1m-1.3 2.5c.6 0 1-.2 1.3-.6v.5h1.4V8.9h-1.4V11c-.3-.3-.7-.6-1.3-.6-1.3 0-2 1.1-2 2.4 0 1.4.7 2.5 2 2.5M46.6 1.7h-1.4v2.7c0 .5-.4.8-.8.8-.5 0-.7-.3-.7-.8V1.7h-1.4v3.1c0 1 .6 1.7 1.6 1.7.6 0 1-.3 1.3-.6v.5h1.4V1.7zm-7.1 1c.5 0 .8.4.8.8h-1.7c.1-.5.4-.8.9-.8m0 3.8c.9 0 1.8-.5 2.1-1.4l-1.2-.4c-.1.4-.5.6-.9.6-.5 0-.9-.4-1-1h3.2V4c0-1.3-.8-2.4-2.2-2.4-1.3 0-2.3 1-2.3 2.4 0 1.5.9 2.5 2.3 2.5m-7-.8c.4.5 1.4.8 2.2.8 1.2 0 2.1-.6 2.1-1.6 0-1.1-.9-1.3-1.8-1.4-.6-.1-.8-.1-.8-.4 0-.2.2-.3.6-.3.5 0 .9.2 1.3.6l.7-.9c-.4-.4-1.1-.7-2-.7-1.2 0-2 .6-2 1.6s.8 1.2 1.6 1.4c.7.1 1.1.2 1.1.5 0 .2-.3.4-.7.4a2 2 0 01-1.5-.7l-.8.7zm-.5-4h-1.4v2.7c0 .5-.4.8-.8.8-.5 0-.7-.3-.7-.8V1.7h-1.4v3.1c0 1 .6 1.7 1.6 1.7.6 0 1-.3 1.3-.6v.5H32V1.7zm-8 4.7L25.4 2v4.4h1.4V0h-2l-1.3 4.2L22.1 0H20v6.4h1.4V2l1.4 4.4H24z"/><path fill="#FAA71C" d="M0 13h5.4v.4c0 3.1-1.8 4.5-5.4 4.7v6c8.2-.1 13.4-4.4 13.4-12V0H0v13z"/></svg>