<svg xmlns:xlink="http://www.w3.org/1999/xlink" width="53" height="56.7" viewBox="0 0 53 56.7"><defs><path id="a" d="M0 0h53v56.7H0z"/></defs><clipPath id="b"><use xlink:href="#a" overflow="visible"/></clipPath><path clip-path="url(#b)" fill="#FFF" d="M46.6 13.6a4 4 0 00-2.3-1.7c-1.2-.3-2.5.1-3.4.9l-1-.5.3-1c.4-1.8.1-3.6-.8-5.2A6.8 6.8 0 0035.1 3a7 7 0 00-5.3.9 12.3 12.3 0 00-15-1.6A12.6 12.6 0 009.2 10l-.3 1.4h-.1A6.9 6.9 0 007.2 25h.4c.5 5.3 4.3 9.6 9.5 10.8l2.9.4c1 1.1 2.2 1.9 3.7 2.3l1.6.2c2.3 0 4.5-1.2 5.8-3.1l.4.1a12.6 12.6 0 0015.1-9.2 12 12 0 00-.8-8.1c.6-.5 1.1-1.2 1.3-2 .2-1 0-2-.5-2.8"/><g clip-path="url(#b)"><defs><path id="c" d="M9.3.9h24.2v24.2H9.3z"/></defs><clipPath id="d"><use xlink:href="#c" overflow="visible"/></clipPath><g clip-path="url(#d)"><defs><path id="e" d="M9.3.9h24.2v24.2H9.3z"/></defs><clipPath id="f"><use xlink:href="#e" overflow="visible"/></clipPath><path clip-path="url(#f)" fill="#F26724" d="M33.1 15.8a12 12 0 11-23.5-5.7 12 12 0 1123.5 5.7"/></g></g><g clip-path="url(#b)"><defs><path id="g" d="M22.3 11.5h24.2v24.2H22.3z"/></defs><clipPath id="h"><use xlink:href="#g" overflow="visible"/></clipPath><g clip-path="url(#h)"><defs><path id="i" d="M22.3 11.5h24.2v24.2H22.3z"/></defs><clipPath id="j"><use xlink:href="#i" overflow="visible"/></clipPath><path clip-path="url(#j)" fill="#FFDE11" d="M46.2 26.4a12 12 0 11-23.5-5.7 12 12 0 1123.5 5.7"/></g></g><g clip-path="url(#b)"><defs><path id="k" d="M27.2 3.2h12.9v12.9H27.2z"/></defs><clipPath id="l"><use xlink:href="#k" overflow="visible"/></clipPath><g clip-path="url(#l)"><defs><path id="m" d="M27.2 3.2h12.9v12.9H27.2z"/></defs><clipPath id="n"><use xlink:href="#m" overflow="visible"/></clipPath><path clip-path="url(#n)" fill="#01A79D" d="M39.9 11.2a6.5 6.5 0 01-7.8 4.8 6.5 6.5 0 01-4.8-7.8 6.5 6.5 0 1112.6 3"/></g></g><g clip-path="url(#b)"><defs><path id="o" d="M40.2 12.3h6.6v6.6h-6.6z"/></defs><clipPath id="p"><use xlink:href="#o" overflow="visible"/></clipPath><g clip-path="url(#p)"><defs><path id="q" d="M40.2 12.3h6.6v6.6h-6.6z"/></defs><clipPath id="r"><use xlink:href="#q" overflow="visible"/></clipPath><path clip-path="url(#r)" fill="#29AAE1" d="M46.7 16.3c-.4 1.8-2.2 2.8-4 2.4-1.8-.4-2.8-2.2-2.4-4 .4-1.8 2.2-2.8 4-2.4 1.7.5 2.8 2.2 2.4 4"/></g></g><g clip-path="url(#b)"><defs><path id="s" d="M2.4 11.8h12.9v12.9H2.4z"/></defs><clipPath id="t"><use xlink:href="#s" overflow="visible"/></clipPath><g clip-path="url(#t)"><defs><path id="u" d="M2.4 11.8h12.9v12.9H2.4z"/></defs><clipPath id="v"><use xlink:href="#u" overflow="visible"/></clipPath><path clip-path="url(#v)" fill="#D7DF28" d="M15.2 19.8a6.5 6.5 0 01-7.8 4.8 6.5 6.5 0 01-4.8-7.8 6.5 6.5 0 017.8-4.8c3.5.8 5.6 4.3 4.8 7.8"/></g></g><g clip-path="url(#b)"><defs><path id="w" d="M18.8 25.4h12.9v12.9H18.8z"/></defs><clipPath id="x"><use xlink:href="#w" overflow="visible"/></clipPath><g clip-path="url(#x)"><defs><path id="y" d="M18.8 25.4h12.9v12.9H18.8z"/></defs><clipPath id="z"><use xlink:href="#y" overflow="visible"/></clipPath><path clip-path="url(#z)" fill="#1C76BC" d="M31.6 33.4a6.5 6.5 0 01-7.8 4.8 6.5 6.5 0 01-4.8-7.8 6.5 6.5 0 017.8-4.8c3.5.8 5.6 4.3 4.8 7.8"/></g></g><g clip-path="url(#b)"><defs><path id="A" d="M7.9 11.7h24.2v24.2H7.9z"/></defs><clipPath id="B"><use xlink:href="#A" overflow="visible"/></clipPath><g clip-path="url(#B)"><defs><path id="C" d="M7.9 11.7h24.2v24.2H7.9z"/></defs><clipPath id="D"><use xlink:href="#C" overflow="visible"/></clipPath><path clip-path="url(#D)" fill="#EE2E7B" d="M31.8 26.6a12 12 0 11-23.5-5.7 12 12 0 1123.5 5.7"/></g></g><path clip-path="url(#b)" fill="#FFF" d="M35.9 19.6a11.4 11.4 0 11-22.8 0 11.4 11.4 0 0122.8 0"/><g clip-path="url(#b)"><defs><path id="E" d="M1.1 39.7h51.3v7.5H1.1z"/></defs><clipPath id="F"><use xlink:href="#E" overflow="visible"/></clipPath><g clip-path="url(#F)"><defs><path id="G" d="M1.1 39.7h51.3v7.5H1.1z"/></defs><clipPath id="H"><use xlink:href="#G" overflow="visible"/></clipPath><path clip-path="url(#H)" fill="#FFF" d="M1.1 47v-6.7h5.6v1.3H2.6v1.3h2.5v1.3H2.6V47zM7 42.4c.5-.2 1.4-.5 2.3-.5 1.2 0 2.3.4 2.3 1.5V46l.1 1h-1.4l-.1-.6a2 2 0 01-1.7.7c-1.2 0-2-.7-2-1.7 0-.9.8-1.7 2.2-1.7.5 0 1.1.1 1.4.4v-.5c0-.5-.5-.8-1.1-.8-.6 0-1.4.3-1.8.5l-.2-.9zm3.3 3.2v-.5c-.2-.2-.6-.4-1.2-.4-.8 0-1.1.3-1.1.7 0 .4.3.7.9.7.7 0 1.2-.4 1.4-.5m.5-5.8l-1.1 1.5H8.5l.9-1.5h1.4zM13.1 47l.1-1.4v-5.8h1.4v2.7c.4-.4.9-.7 1.4-.7 1.3 0 2.4 1.1 2.4 2.7s-1.1 2.7-2.4 2.7c-.7 0-1.2-.4-1.6-.7l-.1.6h-1.2zm1.5-3.4v1.9c.2.2.6.6 1.2.6s1.2-.6 1.2-1.5-.5-1.6-1.2-1.6c-.4 0-.9.2-1.2.6M21.1 43.8V47h-1.4v-3.6l-.1-1.4h1.3l.1.8c.3-.5.7-.9 1.3-.9l.8.2-.4 1.3-.7-.1c-.4-.1-.6.1-.9.5M24.6 39.7c.5 0 .8.4.8.8s-.4.7-.8.7-.8-.3-.8-.7c0-.4.3-.8.8-.8m-.7 2.3h1.4v5h-1.4v-5zM30.6 43.6a2 2 0 00-1.3-.6c-.7 0-1.3.6-1.3 1.5s.6 1.5 1.4 1.5c.5 0 1-.3 1.3-.7l.8.8a3 3 0 01-2.3 1 2.6 2.6 0 01-2.7-2.7c0-1.6 1.2-2.7 2.7-2.7.8 0 1.6.3 2.2.9l-.8 1zM32.6 42.4c.5-.2 1.4-.5 2.3-.5 1.2 0 2.3.4 2.3 1.5V46l.1 1H36l-.1-.6a2 2 0 01-1.7.7c-1.2 0-2-.7-2-1.7 0-.9.8-1.7 2.2-1.7.5 0 1.1.1 1.4.4v-.5c0-.5-.5-.8-1.1-.8-.6 0-1.4.3-1.8.5l-.3-.9zm3.2 3.2v-.5c-.2-.2-.6-.4-1.2-.4-.8 0-1.1.3-1.1.7 0 .4.3.7.9.7a2 2 0 001.4-.5M44.8 47l-.1-.6a2 2 0 01-1.6.7c-1.3 0-2.4-1.1-2.4-2.7s1.1-2.7 2.4-2.7c.5 0 1 .2 1.4.6v-2.6H46v5.8l.1 1.4h-1.3zm-2.6-2.5c0 .9.5 1.5 1.2 1.5.6 0 1-.4 1.2-.6v-1.9c-.4-.4-.8-.6-1.2-.6-.7.1-1.2.7-1.2 1.6M52.2 46.4c-.6.4-1.5.7-2.4.7-1.7 0-2.6-1.2-2.6-2.6 0-1.5 1.1-2.7 2.7-2.7 1.2 0 2.5.7 2.5 2.6v.4h-3.8c.1.7.6 1.2 1.5 1.2.5 0 1.1-.2 1.5-.5l.6.9zm-3.6-2.5H51c0-.7-.6-1.1-1.1-1.1-.7.1-1.1.6-1.3 1.1"/></g></g><path clip-path="url(#b)" fill="#FFF" d="M7.1 55.3a5 5 0 01-3.4 1.4 3.6 3.6 0 110-7.2c1.2 0 2.4.5 3.3 1.2l-.9 1c-.6-.5-1.5-.9-2.2-.9-1.4 0-2.2 1-2.2 2.3 0 1.3.9 2.3 2.3 2.3.9 0 1.8-.5 2.4-1.1l.7 1zM10 56.7c-1 0-1.8-.8-1.8-1.8v-3.4h1.4v3.3c0 .4.3.7.8.7s.9-.3 1.2-.6v-3.4H13v3.6l.1 1.4h-1.3l-.1-.6c-.5.4-1 .8-1.7.8M14.5 49.3h1.4v7.2h-1.4zM16.9 51.5h.9v-1.4h1.4v1.4h1.2v1h-1.2v2.6c0 .3.2.4.5.4l.6-.1.1 1c-.2.2-.8.2-1.1.2-.7 0-1.6-.4-1.6-1.5v-2.7h-.9v-.9zM23.4 56.7c-1 0-1.8-.8-1.8-1.8v-3.4H23v3.3c0 .4.3.7.8.7s.9-.3 1.2-.6v-3.4h1.4v3.6l.1 1.4h-1.3l-.1-.6c-.4.4-.9.8-1.7.8M29.3 53.3v3.2h-1.4v-3.6l-.1-1.4H29l.1.8c.3-.5.7-.9 1.3-.9l.8.2-.4 1.3-.7-.1c-.3-.2-.6.1-.8.5M31.7 51.8c.5-.2 1.4-.5 2.3-.5 1.2 0 2.3.4 2.3 1.5v2.7l.1 1H35l-.1-.6a2 2 0 01-1.7.7c-1.2 0-2-.7-2-1.7 0-.9.8-1.7 2.2-1.7.5 0 1.1.1 1.4.4v-.5c0-.5-.5-.8-1.1-.8-.6 0-1.4.3-1.8.5l-.2-1zm3.3 3.3v-.5c-.2-.2-.6-.4-1.2-.4-.8 0-1.1.3-1.1.7 0 .4.3.7.9.7a2 2 0 001.4-.5M44 55.1h-1v1.4h-1.2v-1.4h-3.6v-1l3.8-4.3h1v4h1v1.3zm-4.1-1.2h1.9v-2.1h-.1l-1.8 2.1zM45.7 54.7c.5 0 .9.5.9 1s-.4 1-.9 1-.8-.4-.8-1c-.1-.5.3-1 .8-1M50.1 49.7c1.6 0 2.9 1.6 2.9 3.5 0 2-1.3 3.5-2.9 3.5-1.6 0-2.9-1.6-2.9-3.5.1-2 1.4-3.5 2.9-3.5m0 5.7c.9 0 1.6-1 1.6-2.2 0-1.2-.7-2.2-1.6-2.2-.9 0-1.6 1-1.6 2.2 0 1.2.7 2.2 1.6 2.2"/></svg>