<svg width="48" height="48" viewBox="0 0 48 48"><path fill="#4AC8EF" d="M24 0a24 24 0 100 48 24 24 0 100-48m0 2a22 22 0 110 44 22 22 0 010-44"/><path fill="#4AC8EF" d="M7.3 39.7l-.9-1.8c16.3-7.8 23.7-16.1 27-21.7C37 10.2 36.7 6 36.7 6l2-.2c.1.7 1.1 18.3-31.4 33.9"/><path fill="#4AC8EF" d="M38.9 40.6c-1-7.1-3.9-13.3-8.6-18.5l1.5-1.4c4.9 5.5 8 12.1 9.1 19.6l-2 .3zM27.6 19.4l-4-3.3 1.2-1.7c1.5 1.1 2.9 2.2 4.2 3.4l-1.4 1.6zM20.4 14A47.2 47.2 0 007.7 8.8l.4-2c.3.1 6.3 1.4 13.3 5.5l-1 1.7z"/><path fill="#4AC8EF" d="M11.9 22.6c-2.9 0-6.4-.8-10.2-3l1-1.8c13.1 7.6 20.2-2.6 20.5-3.1C27 8.5 24.4 2 24.4 1.9l1.9-.8c.1.3 3 7.5-1.3 14.6-.1.2-4.7 6.9-13.1 6.9M32.4 45.1c-5-9.6.4-16.2.7-16.5A13.2 13.2 0 0147 23.9l-.7 1.9.3-1-.3 1a11 11 0 00-11.7 4c-.2.2-4.8 5.9-.4 14.2l-1.8 1.1z"/></svg>