<svg width="47" height="44.3" viewBox="0 0 47 44.3"><path fill="#4AC8EF" d="M42.4 9.1L41 7.8l2.7-2.5-2.3-2.2-2.8 2.6-1.4-1.3 3.5-3.3a1 1 0 011.4 0l3.7 3.5c.2.2.3.4.3.7s-.1.5-.3.7l-3.4 3.1zM15.6 27.3L14.2 26l10.7-10 1.4 1.3zM5.7 43.4a1 1 0 01-.7-.3l-3.7-3.5a1 1 0 01-.3-.7c0-.2.1-.5.3-.7l3.5-3.3 1.4 1.3-2.8 2.7 2.3 2.2 2.7-2.5 1.4 1.3-3.4 3.2a1 1 0 01-.7.3M19.4 30.8L18 29.5l10.6-10 1.4 1.3z"/><path fill="#4AC8EF" d="M4.5 27.9a2 2 0 00-1.5.6l-.3.3a2 2 0 000 2.9l10.7 10.1c.8.8 2.2.8 3.1 0l.3-.3c.9-.8.9-2.1 0-2.9L6 28.5c-.4-.4-1-.6-1.5-.6m10.4 16.4c-1.1 0-2.1-.4-2.9-1.1L1.2 33a3.8 3.8 0 010-5.5l.3-.3c.8-.8 1.9-1.2 3-1.2s2.2.4 2.9 1.1l10.7 10.1c1.6 1.5 1.6 4 0 5.5l-.3.3c-.8.9-1.8 1.3-2.9 1.3M23.6 2.9a2 2 0 00-1.5.6l-.3.3a2 2 0 000 2.9L40 23.9c.8.8 2.2.8 3.1 0l.3-.3a2 2 0 000-2.9L25.1 3.5c-.4-.4-1-.6-1.5-.6zm17.9 23.4c-1.1 0-2.1-.4-2.9-1.1L20.3 8a3.8 3.8 0 010-5.5l.3-.3c.8-.8 1.9-1.2 3-1.2s2.2.4 2.9 1.1l18.2 17.2c1.6 1.5 1.6 4 0 5.5l-.3.3c-.8.8-1.9 1.2-2.9 1.2"/><path fill="#4AC8EF" d="M32.1 1.9a2 2 0 00-1.5.6l-.3.3a2 2 0 000 2.9L41 15.8c.8.8 2.2.8 3.1 0l.3-.3a2 2 0 000-2.9L33.6 2.5a2 2 0 00-1.5-.6m10.4 16.3c-1.1 0-2.1-.4-2.9-1.1L28.9 7a3.8 3.8 0 010-5.5l.3-.3C29.9.4 31 0 32.1 0c1.1 0 2.2.4 2.9 1.1l10.7 10.1c1.6 1.5 1.6 4 0 5.5l-.3.3c-.7.9-1.8 1.2-2.9 1.2M5.5 19.9a2 2 0 00-1.5.6l-.3.3c-.4.3-.7.8-.7 1.4s.2 1.1.6 1.4l18.2 17.2c.9.8 2.2.8 3.1 0l.3-.3a2 2 0 000-2.9L7.1 20.5c-.5-.4-1-.6-1.6-.6m17.9 23.4c-1.1 0-2.1-.4-2.9-1.1L2.3 25a3.6 3.6 0 01-1.2-2.8c0-1 .4-2 1.2-2.8l.3-.3c.8-.7 1.8-1.1 2.9-1.1 1.1 0 2.2.4 2.9 1.1l18.2 17.2c1.6 1.5 1.6 4 0 5.5l-.3.3c-.7.8-1.8 1.2-2.9 1.2"/></svg>