<svg width="83px" viewBox="0 0 83 61.4">
<g>
	<path fill="#FFFFFF" d="M3.9,51.6c-0.3-0.4-0.7-0.6-1.1-0.6c-0.8,0-1.3,0.6-1.3,1.4c0,0.8,0.5,1.4,1.4,1.4c0.4,0,0.9-0.2,1.1-0.5
		v1.6c-0.4,0.1-0.7,0.2-1.2,0.2c-0.7,0-1.4-0.3-1.9-0.7C0.3,53.9,0,53.2,0,52.5c0-0.7,0.3-1.3,0.7-1.8c0.5-0.5,1.2-0.8,1.9-0.8
		c0.4,0,0.8,0.1,1.2,0.3V51.6z"/>
	<rect x="4.7" y="49.9" fill="#FFFFFF" width="1.3" height="5"/>
	<path fill="#FFFFFF" d="M6.8,49.9h1.8c1.4,0,2.5,1.1,2.5,2.5c0,1.4-1.2,2.5-2.5,2.5H6.8V49.9z M8.1,53.9h0.3c0.8,0,1.4-0.4,1.4-1.4
		c0-0.9-0.6-1.4-1.4-1.4H8.1V53.9z"/>
	<path fill="#FFFFFF" d="M13.1,54.1L12.7,55h-1.4l1.9-5h1.4l1.9,5h-1.4l-0.3-0.9H13.1z M14,51.5L14,51.5l-0.6,1.6h1.1L14,51.5z"/>
	<path fill="#FFFFFF" d="M17,49.9h1.8c1.4,0,2.5,1.1,2.5,2.5c0,1.4-1.2,2.5-2.5,2.5H17V49.9z M18.3,53.9h0.3c0.8,0,1.4-0.4,1.4-1.4
		c0-0.9-0.6-1.4-1.4-1.4h-0.3V53.9z"/>
	<path fill="#FFFFFF" d="M23.3,54.1L22.9,55h-1.4l1.9-5h1.4l1.9,5h-1.4l-0.3-0.9H23.3z M24.2,51.5L24.2,51.5l-0.6,1.6h1.1L24.2,51.5
		z"/>
	<polygon fill="#FFFFFF" points="27.2,49.9 28.5,49.9 30.9,53 30.9,53 30.9,49.9 32.2,49.9 32.2,55 30.9,55 28.5,51.9 28.5,51.9 
		28.5,55 27.2,55 	"/>
	<rect x="33.1" y="49.9" fill="#FFFFFF" width="1.3" height="5"/>
	<path fill="#FFFFFF" d="M36.5,54.1L36.2,55h-1.4l1.9-5h1.4l1.9,5h-1.4l-0.3-0.9H36.5z M37.4,51.5L37.4,51.5l-0.6,1.6H38L37.4,51.5z
		"/>
	<path fill="#FFFFFF" d="M42.7,49.9h2c1.1,0,1.8,0.5,1.8,1.6c0,1.2-0.6,1.7-1.8,1.7H44V55h-1.3V49.9z M44,52.2h0.2
		c0.5,0,0.9,0,0.9-0.6c0-0.6-0.4-0.6-0.9-0.6H44V52.2z"/>
	<path fill="#FFFFFF" d="M51.3,55h-1.6L48.4,53h0V55h-1.3v-5h1.9c1,0,1.7,0.5,1.7,1.5c0,0.7-0.4,1.3-1.1,1.4L51.3,55z M48.4,52.2
		h0.1c0.4,0,0.9-0.1,0.9-0.6c0-0.5-0.5-0.6-0.9-0.6h-0.1V52.2z"/>
	<path fill="#FFFFFF" d="M52.9,54.1L52.6,55h-1.4l1.9-5h1.4l1.9,5H55l-0.3-0.9H52.9z M53.8,51.5L53.8,51.5l-0.6,1.6h1.1L53.8,51.5z"
		/>
	<polygon fill="#FFFFFF" points="61.1,55 59.8,55 59.8,51.1 58.7,51.1 58.7,49.9 62.2,49.9 62.2,51.1 61.1,51.1 	"/>
	<path fill="#FFFFFF" d="M67.9,52.4c0,1.6-1.2,2.8-2.8,2.8c-1.6,0-2.8-1.1-2.8-2.8c0-1.5,1.3-2.6,2.8-2.6
		C66.6,49.8,67.9,50.8,67.9,52.4 M63.8,52.4c0,0.9,0.6,1.5,1.4,1.5c0.8,0,1.4-0.6,1.4-1.5c0-0.7-0.6-1.3-1.4-1.3
		C64.4,51,63.8,51.7,63.8,52.4"/>
	<path fill="#FFFFFF" d="M68.6,49.9h1.8c1.4,0,2.5,1.1,2.5,2.5c0,1.4-1.2,2.5-2.5,2.5h-1.8V49.9z M69.9,53.9h0.3
		c0.8,0,1.4-0.4,1.4-1.4c0-0.9-0.6-1.4-1.4-1.4h-0.3V53.9z"/>
	<path fill="#FFFFFF" d="M78.9,52.4c0,1.6-1.2,2.8-2.8,2.8c-1.6,0-2.8-1.1-2.8-2.8c0-1.5,1.3-2.6,2.8-2.6
		C77.5,49.8,78.9,50.8,78.9,52.4 M74.7,52.4c0,0.9,0.6,1.5,1.4,1.5s1.4-0.6,1.4-1.5c0-0.7-0.6-1.3-1.4-1.3S74.7,51.7,74.7,52.4"/>
	<path fill="#FFFFFF" d="M82.2,51.2c-0.2-0.2-0.5-0.3-0.9-0.3c-0.2,0-0.6,0.1-0.6,0.4c0,0.3,0.4,0.4,0.6,0.5l0.3,0.1
		c0.7,0.2,1.2,0.6,1.2,1.4c0,0.5-0.1,1-0.5,1.3C82,55,81.5,55.1,81,55.1c-0.6,0-1.3-0.2-1.8-0.6l0.6-1.1c0.3,0.3,0.7,0.5,1.2,0.5
		c0.3,0,0.6-0.2,0.6-0.5c0-0.4-0.5-0.5-0.8-0.6c-0.8-0.2-1.4-0.4-1.4-1.4c0-1,0.7-1.7,1.7-1.7c0.5,0,1.1,0.2,1.6,0.4L82.2,51.2z"/>
	<path fill="#FFFFFF" d="M8.4,60.3H8v-3h0.4c0.9,0,1.2,0.3,1.2,0.9c0,0.6-0.5,0.9-1.1,0.9H8.4V60.3z M8.4,58.7h0.1
		c0.4,0,0.8-0.1,0.8-0.6c0-0.5-0.4-0.5-0.8-0.5H8.4V58.7z"/>
	<path fill="#FFFFFF" d="M10.3,58.7L10.3,58.7c0.1-0.2,0.3-0.4,0.5-0.4c0.1,0,0.2,0,0.3,0.1L11,58.8c-0.1-0.1-0.1-0.1-0.2-0.1
		c-0.4,0-0.4,0.4-0.4,0.7v0.9H10v-1.9h0.4V58.7z"/>
	<path fill="#FFFFFF" d="M13.2,59.4c0,0.6-0.4,1-1,1c-0.6,0-1-0.4-1-1c0-0.6,0.4-1,1-1C12.8,58.4,13.2,58.8,13.2,59.4 M11.6,59.4
		c0,0.4,0.3,0.6,0.6,0.6c0.4,0,0.6-0.3,0.6-0.6c0-0.4-0.3-0.6-0.6-0.6C11.8,58.7,11.6,59,11.6,59.4"/>
	<path fill="#FFFFFF" d="M15.3,60.3c0,0.6-0.2,1.1-0.9,1.1c-0.5,0-0.9-0.3-0.9-0.8h0.4c0,0.3,0.2,0.5,0.6,0.5c0.4,0,0.5-0.3,0.5-0.7
		V60h0c-0.1,0.2-0.4,0.4-0.6,0.4c-0.6,0-0.9-0.5-0.9-1c0-0.5,0.3-1,0.9-1c0.3,0,0.5,0.1,0.6,0.4h0v-0.3h0.4V60.3z M14.9,59.4
		c0-0.4-0.2-0.7-0.6-0.7c-0.4,0-0.6,0.3-0.6,0.7c0,0.4,0.2,0.7,0.6,0.7C14.7,60.1,14.9,59.7,14.9,59.4"/>
	<path fill="#FFFFFF" d="M16.1,58.7L16.1,58.7c0.1-0.2,0.3-0.4,0.5-0.4c0.1,0,0.2,0,0.3,0.1l-0.2,0.3c-0.1-0.1-0.1-0.1-0.2-0.1
		c-0.4,0-0.4,0.4-0.4,0.7v0.9h-0.4v-1.9h0.4V58.7z"/>
	<path fill="#FFFFFF" d="M18.9,60.3h-0.4V60h0c-0.1,0.2-0.4,0.4-0.6,0.4c-0.6,0-0.9-0.5-0.9-1c0-0.5,0.3-1,0.9-1
		c0.3,0,0.5,0.1,0.6,0.4h0v-0.3h0.4V60.3z M18.6,59.4c0-0.4-0.2-0.7-0.6-0.7c-0.4,0-0.6,0.3-0.6,0.7c0,0.4,0.2,0.7,0.6,0.7
		C18.3,60.1,18.6,59.7,18.6,59.4"/>
	<path fill="#FFFFFF" d="M19.7,58.7L19.7,58.7c0.1-0.2,0.3-0.3,0.5-0.3c0.2,0,0.4,0.1,0.5,0.3c0.1-0.2,0.3-0.3,0.6-0.3
		c0.5,0,0.6,0.4,0.6,0.8v1.1h-0.4v-1.1c0-0.2,0-0.5-0.3-0.5c-0.4,0-0.4,0.4-0.4,0.7v0.9h-0.4v-1c0-0.2,0-0.6-0.3-0.6
		c-0.4,0-0.4,0.4-0.4,0.7v0.9h-0.4v-1.9h0.4V58.7z"/>
	<path fill="#FFFFFF" d="M24.2,60.3h-0.4V60h0c-0.1,0.2-0.4,0.4-0.6,0.4c-0.6,0-0.9-0.5-0.9-1c0-0.5,0.3-1,0.9-1
		c0.3,0,0.5,0.1,0.6,0.4h0v-0.3h0.4V60.3z M23.8,59.4c0-0.4-0.2-0.7-0.6-0.7c-0.4,0-0.6,0.3-0.6,0.7c0,0.4,0.2,0.7,0.6,0.7
		C23.6,60.1,23.8,59.7,23.8,59.4"/>
	<path fill="#FFFFFF" d="M27.2,60L27.2,60c-0.2,0.2-0.4,0.4-0.6,0.4c-0.6,0-0.9-0.5-0.9-1c0-0.5,0.3-1,0.9-1c0.3,0,0.5,0.1,0.6,0.4
		h0v-1.9h0.4v3.5h-0.4V60z M27.2,59.4c0-0.4-0.2-0.7-0.6-0.7c-0.4,0-0.6,0.3-0.6,0.7c0,0.4,0.2,0.7,0.6,0.7
		C27,60.1,27.2,59.7,27.2,59.4"/>
	<path fill="#FFFFFF" d="M28.2,59.4c0,0.3,0.2,0.6,0.6,0.6c0.3,0,0.4-0.1,0.6-0.4l0.3,0.2c-0.2,0.3-0.5,0.5-0.9,0.5
		c-0.6,0-0.9-0.4-0.9-1c0-0.6,0.3-1,0.9-1c0.6,0,0.9,0.4,0.9,1v0.1H28.2z M29.3,59.2c0-0.3-0.2-0.5-0.5-0.5c-0.3,0-0.5,0.2-0.5,0.5
		H29.3z"/>
	<path fill="#FFFFFF" d="M33,60.3h-0.5L31.7,59h-0.2v1.3h-0.4v-3h0.5c0.3,0,0.6,0,0.8,0.1c0.2,0.1,0.4,0.4,0.4,0.7
		c0,0.4-0.3,0.8-0.7,0.8L33,60.3z M31.5,58.7h0.1c0.4,0,0.8-0.1,0.8-0.6c0-0.5-0.4-0.5-0.8-0.5h-0.1V58.7z"/>
	<path fill="#FFFFFF" d="M33.5,59.4c0,0.3,0.2,0.6,0.6,0.6c0.3,0,0.4-0.1,0.6-0.4l0.3,0.2c-0.2,0.3-0.5,0.5-0.9,0.5
		c-0.6,0-0.9-0.4-0.9-1c0-0.6,0.3-1,0.9-1c0.6,0,0.9,0.4,0.9,1v0.1H33.5z M34.6,59.2c0-0.3-0.2-0.5-0.5-0.5c-0.3,0-0.5,0.2-0.5,0.5
		H34.6z"/>
	<polygon fill="#FFFFFF" points="35.9,59.6 36.4,58.4 36.8,58.4 35.9,60.4 34.9,58.4 35.3,58.4 	"/>
	<path fill="#FFFFFF" d="M37.5,57.6c0,0.1-0.1,0.2-0.2,0.2S37,57.7,37,57.6c0-0.1,0.1-0.3,0.2-0.3S37.5,57.4,37.5,57.6 M37.5,60.3
		h-0.4v-1.9h0.4V60.3z"/>
	<polygon fill="#FFFFFF" points="38.5,60.3 38.1,60.3 38.1,58.8 37.9,58.8 37.9,58.4 38.1,58.4 38.1,57.7 38.5,57.7 38.5,58.4 
		38.8,58.4 38.8,58.8 38.5,58.8 	"/>
	<path fill="#FFFFFF" d="M40.8,60.3h-0.4V60h0c-0.1,0.2-0.4,0.4-0.6,0.4c-0.6,0-0.9-0.5-0.9-1c0-0.5,0.3-1,0.9-1
		c0.3,0,0.5,0.1,0.6,0.4h0v-0.3h0.4V60.3z M40.4,59.4c0-0.4-0.2-0.7-0.6-0.7c-0.4,0-0.6,0.3-0.6,0.7c0,0.4,0.2,0.7,0.6,0.7
		C40.2,60.1,40.4,59.7,40.4,59.4"/>
	<rect x="41.2" y="56.8" fill="#FFFFFF" width="0.4" height="3.5"/>
	<path fill="#FFFFFF" d="M42.6,57.6c0,0.1-0.1,0.2-0.2,0.2s-0.2-0.1-0.2-0.2c0-0.1,0.1-0.3,0.2-0.3S42.6,57.4,42.6,57.6 M42.5,60.3
		h-0.4v-1.9h0.4V60.3z"/>
	<polygon fill="#FFFFFF" points="44.8,60 44.8,60.3 42.9,60.3 44.1,58.8 43.1,58.8 43.1,58.4 44.8,58.4 43.6,60 	"/>
	<path fill="#FFFFFF" d="M46.9,60.3h-0.4V60h0c-0.1,0.2-0.4,0.4-0.6,0.4c-0.6,0-0.9-0.5-0.9-1c0-0.5,0.3-1,0.9-1
		c0.3,0,0.5,0.1,0.6,0.4h0v-0.3h0.4V60.3z M46.5,59.4c0-0.4-0.2-0.7-0.6-0.7c-0.4,0-0.6,0.3-0.6,0.7c0,0.4,0.2,0.7,0.6,0.7
		C46.3,60.1,46.5,59.7,46.5,59.4"/>
	<path fill="#FFFFFF" d="M48.7,59c-0.1-0.2-0.3-0.2-0.5-0.2c-0.4,0-0.6,0.3-0.6,0.7c0,0.4,0.3,0.7,0.6,0.7c0.2,0,0.4-0.1,0.5-0.2
		v0.5c-0.2,0.1-0.3,0.1-0.5,0.1c-0.5,0-1-0.4-1-1c0-0.6,0.4-1,1-1c0.2,0,0.4,0,0.5,0.1V59z M47.9,61l-0.2-0.1l0.3-0.5l0.3,0.1
		L47.9,61z"/>
	<path fill="#FFFFFF" d="M50.8,60.3h-0.4V60h0c-0.1,0.2-0.4,0.4-0.6,0.4c-0.6,0-0.9-0.5-0.9-1c0-0.5,0.3-1,0.9-1
		c0.3,0,0.5,0.1,0.6,0.4h0v-0.3h0.4V60.3z M49.2,57.9L49.2,57.9c0.1-0.2,0.2-0.3,0.4-0.3c0.1,0,0.2,0,0.4,0.1
		c0.1,0.1,0.2,0.1,0.3,0.1c0.1,0,0.2-0.1,0.3-0.2l0.2,0.2c-0.1,0.2-0.3,0.3-0.5,0.3c-0.1,0-0.2-0.1-0.3-0.1c-0.1,0-0.2-0.1-0.3-0.1
		c-0.1,0-0.2,0.1-0.2,0.2L49.2,57.9z M50.5,59.4c0-0.4-0.2-0.7-0.6-0.7c-0.4,0-0.6,0.3-0.6,0.7c0,0.4,0.2,0.7,0.6,0.7
		C50.3,60.1,50.5,59.7,50.5,59.4"/>
	<path fill="#FFFFFF" d="M53.1,59.4c0,0.6-0.4,1-1,1c-0.6,0-1-0.4-1-1c0-0.6,0.4-1,1-1C52.7,58.4,53.1,58.8,53.1,59.4 M51.5,59.4
		c0,0.4,0.3,0.6,0.6,0.6c0.4,0,0.6-0.3,0.6-0.6c0-0.4-0.3-0.6-0.6-0.6C51.8,58.7,51.5,59,51.5,59.4"/>
	<path fill="#FFFFFF" d="M56.8,57.9c-0.2-0.2-0.5-0.3-0.8-0.3c-0.7,0-1.2,0.6-1.2,1.2c0,0.7,0.5,1.2,1.2,1.2c0.3,0,0.6-0.1,0.8-0.3
		v0.4c-0.2,0.1-0.5,0.2-0.8,0.2c-0.9,0-1.6-0.7-1.6-1.6c0-0.9,0.7-1.6,1.6-1.6c0.3,0,0.5,0.1,0.8,0.2V57.9z"/>
	<path fill="#FFFFFF" d="M59.1,59.4c0,0.6-0.4,1-1,1c-0.6,0-1-0.4-1-1c0-0.6,0.4-1,1-1C58.6,58.4,59.1,58.8,59.1,59.4 M57.4,59.4
		c0,0.4,0.3,0.6,0.6,0.6c0.4,0,0.6-0.3,0.6-0.6c0-0.4-0.3-0.6-0.6-0.6C57.7,58.7,57.4,59,57.4,59.4"/>
	<path fill="#FFFFFF" d="M59.8,58.7L59.8,58.7c0.1-0.2,0.3-0.3,0.5-0.3c0.2,0,0.4,0.1,0.5,0.3c0.1-0.2,0.3-0.3,0.6-0.3
		c0.5,0,0.6,0.4,0.6,0.8v1.1h-0.4v-1.1c0-0.2,0-0.5-0.3-0.5c-0.4,0-0.4,0.4-0.4,0.7v0.9h-0.4v-1c0-0.2,0-0.6-0.3-0.6
		c-0.4,0-0.4,0.4-0.4,0.7v0.9h-0.4v-1.9h0.4V58.7z"/>
	<path fill="#FFFFFF" d="M62.8,58.4v1c0,0.3,0.1,0.6,0.4,0.6c0.4,0,0.4-0.3,0.4-0.6v-1H64v1.1c0,0.5-0.2,0.9-0.8,0.9
		c-0.5,0-0.8-0.3-0.8-0.9v-1.1H62.8z"/>
	<path fill="#FFFFFF" d="M64.9,58.7L64.9,58.7c0.1-0.2,0.3-0.3,0.6-0.3c0.5,0,0.7,0.4,0.7,0.8v1.1h-0.4v-1.1c0-0.3,0-0.5-0.4-0.5
		c-0.5,0-0.5,0.4-0.5,0.7v0.9h-0.4v-1.9h0.4V58.7z"/>
	<path fill="#FFFFFF" d="M67.1,57.6c0,0.1-0.1,0.2-0.2,0.2c-0.1,0-0.2-0.1-0.2-0.2c0-0.1,0.1-0.3,0.2-0.3
		C67,57.3,67.1,57.4,67.1,57.6 M67.1,60.3h-0.4v-1.9h0.4V60.3z"/>
	<polygon fill="#FFFFFF" points="68,60.3 67.7,60.3 67.7,58.8 67.5,58.8 67.5,58.4 67.7,58.4 67.7,57.7 68,57.7 68,58.4 68.4,58.4 
		68.4,58.8 68,58.8 	"/>
	<path fill="#FFFFFF" d="M70.3,60.3H70V60h0c-0.1,0.2-0.4,0.4-0.6,0.4c-0.6,0-0.9-0.5-0.9-1c0-0.5,0.3-1,0.9-1
		c0.3,0,0.5,0.1,0.6,0.4h0v-0.3h0.4V60.3z M70,59.4c0-0.4-0.2-0.7-0.6-0.7c-0.4,0-0.6,0.3-0.6,0.7c0,0.4,0.2,0.7,0.6,0.7
		C69.8,60.1,70,59.7,70,59.4 M70,57.6l-0.7,0.6L69.2,58l0.5-0.7L70,57.6z"/>
	<path fill="#FFFFFF" d="M71.2,58.7L71.2,58.7c0.1-0.2,0.3-0.4,0.5-0.4c0.1,0,0.2,0,0.3,0.1l-0.2,0.3c-0.1-0.1-0.1-0.1-0.2-0.1
		c-0.4,0-0.4,0.4-0.4,0.7v0.9h-0.4v-1.9h0.4V58.7z"/>
	<path fill="#FFFFFF" d="M72.7,57.6c0,0.1-0.1,0.2-0.2,0.2c-0.1,0-0.2-0.1-0.2-0.2c0-0.1,0.1-0.3,0.2-0.3
		C72.6,57.3,72.7,57.4,72.7,57.6 M72.7,60.3h-0.4v-1.9h0.4V60.3z"/>
	<path fill="#FFFFFF" d="M75,60.3h-0.4V60h0c-0.1,0.2-0.4,0.4-0.6,0.4c-0.6,0-0.9-0.5-0.9-1c0-0.5,0.3-1,0.9-1
		c0.3,0,0.5,0.1,0.6,0.4h0v-0.3H75V60.3z M74.6,59.4c0-0.4-0.2-0.7-0.6-0.7c-0.4,0-0.6,0.3-0.6,0.7c0,0.4,0.2,0.7,0.6,0.7
		C74.4,60.1,74.6,59.7,74.6,59.4"/>
	<path fill="#F47642" d="M25,0v5.8c3,1.5,6.6,3,9.8,3.6c1.6,0.4,1.7-1.2,1.8-1.7c0.1-0.9-0.7-2-0.8-3c-0.1-0.6-0.1-1.1-0.1-1.1
		c0-1.4,0.9-2.7,2.1-2.7v0l0,0l0,0v0c1.2,0,2.1,1.4,2.1,2.7c0,0,0,0.5-0.1,1.1c-0.2,0.9-0.9,2-0.8,3c0.1,0.4,0.2,2.1,1.8,1.7
		c3.1-0.6,6.6-2.1,9.6-3.5V0H25z M34.1,16.9c0.1-2.5-4.8-6.2-9.1-9.1v37.6C26.3,42.9,35.1,24.8,34.1,16.9 M37.7,27.7
		c-0.7,0-1.1,0.5-1.4,0.9c-3,3.8-7.6,13.3-9.3,16.8h21.3c-1.7-3.5-6.3-13-9.3-16.8C38.8,28.2,38.4,27.7,37.7,27.7 M41.4,16.9
		c-0.9,7.6,7.1,24.4,8.9,28.1v-37C46,10.8,41.3,14.4,41.4,16.9"/>
	<path fill="#04A6CE" d="M0,8.8l2.7,36.6h1.8V30.3l0.3-0.2l4.9-3.4V13.4l1.1,0.8l7.4,5.2l1.9,1.3l1.3,0.9l0.1,23.8H23V8.8H0z
		 M5.9,45.4h2.6v0h1.2V28.4L5.9,31V45.4z M6.8,32.8h1.6v2.1H6.8V32.8z M6.8,36.5h1.6v2.1H6.8V36.5z M11,45.4h0.7v0h3.1V24.7L11,27.4
		V45.4z M11,25.7l4.1-2.9l1.1-0.8v23.4H20v-23l-9-6.3V25.7z M17.5,23.8h1.6v2.1h-1.6V23.8z M17.5,27.5h1.6v2.1h-1.6V27.5z"/>
	<path fill="#B5D334" d="M66,31.8l0,13.6h3.6l0-13.6H66z M52.9,9.9v35.5h2v-0.1h0V29.1l0,0v-1.6l0,0V15l1,0.7l8.7,6.1v-6.3h11.1
		v29.8h2.4L83,9.9H52.9z M56.2,17.6l0,27.9h8.5l0-22L56.2,17.6z M59.4,28.8h-1.6v-2.1h1.6V28.8z M59.4,25.1h-1.6V23h1.6V25.1z
		 M66,30.5h4.9v15h3.6V16.9H66V30.5z M71,18.7h1.6v2.1H71V18.7z M71,22.4h1.6v2.1H71V22.4z"/>
</g>
</svg>
