<svg xmlns:xlink="http://www.w3.org/1999/xlink" width="83" height="24.2" viewBox="0 0 83 24.2"><defs><path id="a" d="M0 0h83v24.2H0z"/></defs><clipPath id="b"><use xlink:href="#a" overflow="visible"/></clipPath><path clip-path="url(#b)" fill="#FFF" d="M47.5 1.4h-.7V5h.7c.3 0 .6-.3.6-.6V2c0-.3-.2-.6-.6-.6M46.2 7H46c-.3 0-.6.3-.6.6v2.5c0 .3.3.6.6.6h.2c.3 0 .6-.3.6-.6V7.6c0-.3-.3-.6-.6-.6m-8.6 0h-.2c-.3 0-.6.3-.6.6v2.5c0 .3.3.6.6.6h.2c.3 0 .6-.3.6-.6V7.6c0-.3-.3-.6-.6-.6m-3.2.1h-.7v3.6h.7c.3 0 .6-.3.6-.6V7.7c0-.4-.3-.6-.6-.6m16.2-5.7L50 3.5h1.2l-.6-2.1zM25.7 12H83V.1H25.7V12zm4.4-5c0 .1 0 .1 0 0l-1.7.1v1.6h1.5l.1.1V9l-.1.1h-1.5v1.6H30l.1.1v.2l-.1.1h-2l-.1-.1V6.7l.1-.1h2l.1.1V7zm.5-1.6l-.3.1-.1-.1V2v-.5h-.1L30 2l-.5 1.5h-.4-.1L28.5 2l-.1-.5h-.1v3.8l-.1.1H28l-.1-.1V1.1L28 1h.7l.6 1.8.1.3.1-.3.6-1.8h.7l.1.1v4.3zm2.1.1c-.6 0-1-.4-1-1V1.1l.1-.1h.3l.1.1v3.4c0 .3.3.6.6.6h.1c.3 0 .6-.3.6-.6V1.1l.1-.1h.3l.1.1v3.4c0 .6-.5 1-1 1h-.3zm2.7 4.6c0 .6-.5 1-1 1h-1.1l-.1-.1V6.7l.1-.1h1.1c.6 0 1 .4 1 1v2.5zm.4-4.6c-.6 0-1-.4-1-1v-.2l.1-.1h.3l.1.1v.1c0 .3.3.6.6.6h.3c.3 0 .6-.3.6-.6v-.1c0-1-1.8-.9-1.8-2.1v-.3a1 1 0 012 0V2l-.1.1h-.3l-.1-.1v-.1c0-.3-.3-.6-.6-.6h-.1c-.3 0-.6.3-.6.6v.2c0 1 1.8.8 1.8 2.1v.2c0 .6-.4 1-1 1h-.2zm2.8 4.7c0 .6-.5 1-1 1h-.2c-.6 0-1-.4-1-1V7.6c0-.6.5-1 1-1h.2c.6 0 1 .5 1 1v2.6zm1.6-8.9c0 .1 0 .1 0 0l-1.7.1V3H40l.1.1v.3l-.1.1h-1.5V5h1.7l.1.1v.3l-.1.1h-2l-.1-.1V1.1l.1-.1h2l.1.1v.2zm1 3.2V1.1l.1-.1h.3l.1.1v3.4c0 .3.3.6.6.6h.1c.3 0 .6-.3.6-.6V1.1l.1-.1h.3l.1.1v3.4c0 .6-.5 1-1 1h-.1c-.8 0-1.2-.5-1.2-1m2.7 5.7c0 .6-.4 1-1 1h-.3c-.6 0-1-.4-1-1V10l.1-.1h.3l.1.1v.1c0 .3.3.6.6.6h.3c.3 0 .6-.3.6-.6V10c0-1-1.8-.9-1.8-2.1v-.3c0-.6.5-1 1-1h.1c.6 0 1 .5 1 1v.1l-.1.1h-.3l-.1-.1v-.1c0-.3-.3-.6-.6-.6h-.1c-.3 0-.6.3-.6.6v.2c0 1 1.8.8 1.8 2.1v.3zm3.3 0c0 .6-.5 1-1 1H46c-.6 0-1-.4-1-1V7.6c0-.6.5-1 1-1h.2c.6 0 1 .5 1 1v2.6zm.3-4.8h-1.1l-.1-.1V1.1l.1-.1h1.1c.6 0 1 .4 1 1v2.4c0 .6-.4 1-1 1m3.4 5.6c0 .1 0 .1 0 0l-.3.1-.1-.1V7.7v-.5h-.1l-.1.5-.5 1.5h-.4-.1l-.5-1.5-.1-.5h-.1V11l-.1.1h-.3l-.1-.1V6.7l.1-.1h.7l.6 1.8.1.3.1-.3.6-1.8h.7l.1.1V11zm.9-5.6s-.1 0 0 0l-.3.1-.1-.1V4H50v1.4l-.1.1h-.3l-.1-.1V3.7l.7-2.7H51.1l.7 2.7v1.7zm5.3 0l-2.2.1-.1-.1v-.3l.1-.1h.9V1.4H55l-.1-.1v-.2L55 1h2l.1.1v.3l-.1.1h-.8V5h.9l.1.1v.3zm3.5 0l-.3.1-.1-.1V2v-.5h-.1L60 2l-.5 1.5h-.4-.1L58.5 2l-.1-.5h-.1v3.8l-.1.1H58l-.1-.1V1.1L58 1h.7l.6 1.8.1.3.1-.3.6-1.8h.7l.1.1v4.3zm3.1 0l-.3.1-.1-.1V4H62v1.4l-.1.1h-.3l-.1-.1V3.7l.7-2.7H63.1l.7 2.7v1.7zM67 2.1l-.3.1-.1-.1v-.2c0-.3-.3-.6-.6-.6h-.2c-.3 0-.6.3-.6.6v2.5c0 .3.3.6.6.6h.2c.3 0 .6-.3.6-.6v-1H66l-.1-.1v-.2L66 3h1v1.5c0 .6-.5 1-1 1h-.2c-.6 0-1-.4-1-1V1.9c0-.6.5-1 1-1h.2c.6 0 1 .4 1 1v.2zm3.3-.8c0 .1 0 .1 0 0l-1.7.1V3h1.5l.1.1v.3l-.1.1h-1.5V5h1.7l.1.1v.3l-.1.1h-2l-.1-.1V1.1l.1-.1h2l.1.1v.2zm3.6 4.1l-.3.1-.1-.1V2v-.5h-.1l-.1.5-.5 1.5h-.4-.1L71.8 2l-.1-.5h-.1v3.8l-.1.1h-.3l-.1-.1V1.1l.1-.1h.7l.6 1.8.1.3.1-.3.6-1.8h.7l.1.1v4.3zm-11.3-4L62 3.6h1.2l-.6-2.1zM18.1 12.1a3 3 0 01-3-3v-.3c0-.4.3-.7.7-.7h.7c.4 0 .7.3.7.7v.3c0 .5.4.9.9.9h.6c.5 0 .9-.4.9-.9v-.5c0-.9-.9-1.4-2.1-2-1.1-.6-2.3-1.4-2.3-3.2V3a3 3 0 013-3h.3a3 3 0 013 3v.3c0 .4-.3.7-.7.7h-.6a.7.7 0 01-.7-.7V3c0-.5-.4-.9-.9-.9h-.3c-.5 0-.9.4-.9.9v.5c0 .8.9 1.3 2.1 1.9 1.1.6 2.3 1.5 2.3 3.3v.5a3 3 0 01-3 3h-.7zM10 11.9a.7.7 0 01-.7-.7v-.6c0-.4.3-.7.7-.7h.8V2.2h-.7a.7.7 0 01-.7-.7V.9c0-.4.3-.7.7-.7h3.4c.4 0 .7.3.7.7v.7c0 .4-.3.7-.7.7h-.7v7.6h.8c.4 0 .7.3.7.7v.6c0 .4-.3.7-.7.7H10zM6.6 11.9a.7.7 0 01-.7-.7V4.5l-.8 2.4c-.2.3-.4.5-.7.5h-.8a.8.8 0 01-.7-.5l-.8-2.4v6.7c0 .4-.3.7-.7.7H.7a.7.7 0 01-.7-.7V.9C0 .5.3.2.7.2h1.4c.3 0 .6.2.7.5L4 4.2 5.2.7c.1-.3.4-.5.7-.5h1.4c.3 0 .7.3.7.7v10.3c0 .4-.3.7-.7.7h-.7zM28.4 22.1c-.8 0-1.5-.3-1.9-.8-.5-.5-.7-1.3-.7-2.1V19c0-.8.2-1.5.7-2.1.5-.6 1.1-.8 1.8-.8.8 0 1.4.2 1.8.7.4.5.6 1.1.6 1.9v.7h-3.8c0 .6.2 1 .4 1.4.3.4.7.5 1.2.5l1-.2.7-.4.4.7-.8.5-1.4.2m-.2-5.2a1 1 0 00-.9.5c-.3.3-.4.7-.5 1.1h2.7v-.1a2 2 0 00-.3-1.1c-.2-.3-.6-.4-1-.4M31.5 21.3l.6-.1 1.8-2.2-1.7-2.1-.6-.1v-.7h2.3v.7l-.6.1 1.1 1.4 1.1-1.4-.5-.1v-.7h2.3v.7l-.6.1L35 19l1.7 2.2.7.1v.7h-2.3v-.7l.5-.1-1.2-1.4-1.1 1.4.5.1v.7h-2.3zM38 23.6l.9-.2V17l-.9-.2v-.7h1.8l.1.7c.2-.3.4-.5.7-.6a3 3 0 011-.2 2 2 0 011.7.9c.4.6.6 1.3.6 2.3v.1c0 .8-.2 1.5-.6 2-.4.5-1 .8-1.7.8l-1-.2-.7-.5v2l.9.2v.7H38v-.7zm4.8-4.4c0-.7-.1-1.2-.4-1.6-.3-.4-.6-.6-1.2-.6l-.8.2a1 1 0 00-.5.6v2.9l.5.6.8.2c.5 0 .9-.2 1.1-.6.3-.4.4-.8.4-1.4v-.3zM47.5 22.1c-.8 0-1.5-.3-1.9-.8-.5-.5-.7-1.3-.7-2.1V19c0-.8.2-1.5.7-2.1.5-.6 1.1-.8 1.8-.8.8 0 1.4.2 1.8.7.4.5.6 1.1.6 1.9v.7H46c0 .6.2 1 .4 1.4.3.4.7.5 1.2.5l1-.2.7-.4.4.7-.8.5-1.4.2m-.2-5.2a1 1 0 00-.9.5c-.2.2-.4.6-.4 1h2.7v-.1a2 2 0 00-.3-1.1c-.3-.2-.6-.3-1.1-.3M50.8 16.8v-.7h1.8l.1.8.6-.7c.2-.2.5-.3.8-.3h.5l-.1 1h-.6l-.7.2c-.2.1-.3.3-.4.6v3.4l.9.2v.7h-2.8v-.7l.9-.2V17l-1-.2zM55.4 21.3l.9-.2V17l-.9-.2v-.7h2v5l.9.2v.7h-2.8v-.7zm1.9-6.7h-1.1v-1.1h1.1v1.1zM61.7 22.1c-.8 0-1.5-.3-1.9-.8-.5-.6-.8-1.3-.8-2.1V19c0-.8.2-1.5.7-2.1.5-.6 1.1-.8 1.8-.8.8 0 1.4.2 1.8.7.4.5.6 1.1.6 1.9v.7h-3.8c0 .6.2 1 .4 1.4.3.4.7.5 1.2.5l1-.2.7-.4.4.7-.8.5a5 5 0 01-1.3.2m-.1-5.2a1 1 0 00-.9.5c-.3.3-.4.7-.5 1.1h2.7v-.1a2 2 0 00-.3-1.1c-.3-.3-.6-.4-1-.4M64.9 21.3l.9-.2V17l-.9-.2v-.7h1.8l.1.9c.2-.3.4-.6.7-.7.3-.2.6-.3 1-.3a2 2 0 011.5.6c.3.4.5.9.5 1.7v2.9l.9.2v.6h-2.8v-.7l.9-.2v-2.8c0-.5-.1-.9-.3-1.1-.2-.2-.5-.3-.9-.3l-.8.2-.6.6v3.4l.9.2v.7H65v-.7zM74.7 21.3c.4 0 .7-.1.9-.3.3-.2.4-.5.4-.8h1c0 .5-.2 1-.7 1.3-.5.4-1 .6-1.6.6-.9 0-1.5-.3-2-.8-.5-.6-.7-1.3-.7-2.1V19c0-.8.2-1.5.7-2.1.5-.6 1.1-.8 2-.8l1.3.2.9.6v1.3H76l-.2-.9-.5-.3-.7-.1c-.6 0-1 .2-1.2.6-.2.4-.4.9-.4 1.5v.2c0 .6.1 1.1.4 1.5.4.4.8.6 1.3.6M80.8 22.1c-.8 0-1.5-.3-1.9-.8-.5-.5-.7-1.3-.7-2.1V19c0-.8.2-1.5.7-2.1.5-.6 1.1-.8 1.8-.8.8 0 1.4.2 1.8.7.4.5.6 1.1.6 1.9v.7h-3.8c0 .6.2 1 .4 1.4.3.4.7.5 1.2.5l1-.2.7-.4.4.7-.8.5-1.4.2m-.2-5.2a1 1 0 00-.9.5c-.3.3-.4.7-.5 1.1h2.7v-.1a2 2 0 00-.3-1.1c-.2-.3-.6-.4-1-.4"/></svg>