<svg width="47" height="47" viewBox="0 0 47 47"><g fill="#4AC8EF"><path d="M24.5 13.9h-2V7.3L15.1 3l1-1.7 8.4 4.9zM14 21.5l-6.6-2.6-1.9-10 2-.4 1.7 8.9 5.5 2.3z"/><path d="M.5 23.7l7.2-6.3L9 18.9l-7.1 6.3zM14.4 37.7l-9.9-1.4.3-1.9 8.7 1.1 3.5-4.7 1.6 1.2z"/><path d="M13 37l1.8-.8 3.8 8.7-1.8.8zM23 5.9l8-4.7 1 1.7-8 4.7zM33 21.5l-.7-1.8 5.5-2.3 1.7-8.9 2 .4-1.9 10z"/><path d="M38 18.8l1.4-1.5 7 6.3-1.2 1.5zM32.6 37.7L28.4 32l1.6-1.2 3.5 4.7 8.7-1.1.3 1.9z"/><path d="M28.3 44.9l3.8-8.7 1.9.8-3.9 8.7zM18.6 30.4h9.9l3.1-9.4-8-5.8-8 5.8 3 9.4zm11.3 2H17.1l-3.9-12.2 10.3-7.5 10.3 7.5-3.9 12.2z"/><path d="M23.5 0a23.5 23.5 0 100 47 23.5 23.5 0 000-47m0 2a21.5 21.5 0 110 43 21.5 21.5 0 010-43"/></g></svg>