<svg width="49" height="39.4" viewBox="0 0 49 39.4"><g fill="#4AC8EF"><path d="M27.7 11.4c-7 0-12.7 5.8-12.7 13s5.7 13 12.7 13c7 0 12.7-5.8 12.7-13s-5.7-13-12.7-13m0 28c-8 0-14.6-6.7-14.6-15 0-8.2 6.5-14.9 14.6-14.9s14.6 6.7 14.6 14.9-6.6 15-14.6 15"/><path d="M27.7 16.7a7.6 7.6 0 00-7.5 7.7c0 4.2 3.3 7.7 7.5 7.7 4.1 0 7.5-3.5 7.5-7.7 0-4.3-3.4-7.7-7.5-7.7m0 17.3a9.5 9.5 0 01-9.4-9.6c0-5.3 4.2-9.6 9.4-9.6s9.4 4.3 9.4 9.6-4.2 9.6-9.4 9.6M9.5 3.7H5.3c-.5 0-.9-.4-.9-1 0-.5.4-1 .9-1h4.2c.5 0 .9.4.9 1 .1.6-.3 1-.9 1"/><path d="M45.8 35.5H42v-1.9h3.8c.7 0 1.3-.6 1.3-1.4V9.5c0-.7-.6-1.4-1.3-1.4h-5.4a1 1 0 01-.7-.3l-5.5-5.9H21.8l-5.7 5.9a1 1 0 01-.7.3H3.2c-.7 0-1.3.6-1.3 1.4v22.7c0 .8.6 1.4 1.3 1.4h10.2v1.9H3.2A3.2 3.2 0 010 32.2V9.5c0-1.8 1.4-3.3 3.2-3.3H15L20.7.3c.2-.2.4-.3.7-.3h13.2c.3 0 .5.1.7.3l5.5 5.9h5c1.8 0 3.2 1.5 3.2 3.3v22.7c0 1.9-1.4 3.3-3.2 3.3"/><path d="M8 13c0 .3-.3.6-.6.6s-.6-.2-.6-.6c0-.3.3-.6.6-.6s.6.3.6.6"/><path d="M7.4 12.7c-.2 0-.4.2-.4.4s.2.4.4.4.4-.2.4-.4c0-.3-.2-.4-.4-.4m0 1.9c-.8 0-1.5-.7-1.5-1.6 0-.9.7-1.6 1.5-1.6.9.1 1.6.8 1.6 1.6 0 .9-.7 1.6-1.6 1.6"/></g></svg>