<svg width="50px" viewBox="0 0 81 23.8" preserveAspectRatio="xMidYMid meet">
<g>
	<g>
		<path fill="#FFFFFF" d="M0.2,16.6h1c0.6,0,0.9,0.3,0.9,0.8v0c0,0.6-0.4,0.9-1,0.9H0.7V19H0.2V16.6z M1.2,17.8
			c0.3,0,0.4-0.2,0.4-0.4v0c0-0.2-0.2-0.4-0.4-0.4H0.7v0.7H1.2z"/>
		<path fill="#FFFFFF" d="M2.5,16.6h1.1c0.3,0,0.6,0.1,0.7,0.2c0.1,0.1,0.2,0.3,0.2,0.6v0c0,0.4-0.2,0.6-0.5,0.8L4.6,19H4l-0.5-0.8
			H3V19H2.5V16.6z M3.6,17.8c0.3,0,0.4-0.1,0.4-0.3v0c0-0.2-0.2-0.3-0.4-0.3H3v0.7H3.6z"/>
		<path fill="#FFFFFF" d="M4.8,17.8L4.8,17.8c0-0.7,0.5-1.3,1.3-1.3c0.8,0,1.3,0.6,1.3,1.3v0c0,0.7-0.5,1.3-1.3,1.3
			C5.4,19.1,4.8,18.5,4.8,17.8 M6.9,17.8L6.9,17.8c0-0.4-0.3-0.8-0.7-0.8c-0.4,0-0.7,0.3-0.7,0.8v0c0,0.4,0.3,0.8,0.7,0.8
			C6.6,18.6,6.9,18.2,6.9,17.8"/>
		<path fill="#FFFFFF" d="M7.7,17.8L7.7,17.8c0-0.7,0.5-1.3,1.3-1.3c0.4,0,0.7,0.1,1,0.3l-0.3,0.4C9.4,17.1,9.3,17,9,17
			c-0.4,0-0.7,0.3-0.7,0.8v0c0,0.4,0.3,0.8,0.7,0.8c0.2,0,0.4,0,0.5-0.1v-0.4H9v-0.5h1.1v1.1c-0.3,0.2-0.6,0.4-1,0.4
			C8.3,19.1,7.7,18.5,7.7,17.8"/>
		<path fill="#FFFFFF" d="M10.5,16.6h1.1c0.3,0,0.6,0.1,0.7,0.2c0.1,0.1,0.2,0.3,0.2,0.6v0c0,0.4-0.2,0.6-0.5,0.8l0.6,0.9H12
			l-0.5-0.8H11V19h-0.5V16.6z M11.6,17.8c0.3,0,0.4-0.1,0.4-0.3v0c0-0.2-0.2-0.3-0.4-0.3H11v0.7H11.6z"/>
		<path fill="#FFFFFF" d="M13.8,16.6h0.5l1,2.5h-0.6l-0.2-0.5h-1L13.3,19h-0.5L13.8,16.6z M14.4,18L14,17.2L13.7,18H14.4z"/>
		<polygon fill="#FFFFFF" points="15.7,16.6 16.2,16.6 16.9,17.6 17.5,16.6 18.1,16.6 18.1,19 17.6,19 17.6,17.4 16.9,18.5 
			16.9,18.5 16.2,17.4 16.2,19 15.7,19 		"/>
		<path fill="#FFFFFF" d="M19.5,16.6H20l1,2.5h-0.6l-0.2-0.5h-1L19,19h-0.5L19.5,16.6z M20,18l-0.3-0.8L19.4,18H20z"/>
		<path fill="#FFFFFF" d="M22.3,16.6h1c0.8,0,1.3,0.5,1.3,1.2v0c0,0.7-0.5,1.2-1.3,1.2h-1V16.6z M22.8,17.1v1.5h0.4
			c0.4,0,0.7-0.3,0.7-0.7v0c0-0.4-0.3-0.7-0.7-0.7H22.8z"/>
		<polygon fill="#FFFFFF" points="25,16.6 26.8,16.6 26.8,17.1 25.5,17.1 25.5,17.5 26.7,17.5 26.7,18 25.5,18 25.5,18.5 26.8,18.5 
			26.8,19 25,19 		"/>
		<path fill="#FFFFFF" d="M1,20.7h0.5l1,2.5H2l-0.2-0.5h-1l-0.2,0.5H0L1,20.7z M1.6,22.2l-0.3-0.8L1,22.2H1.6z"/>
		<path fill="#FFFFFF" d="M3.3,23.6l0.3-0.4c-0.6-0.1-1-0.6-1-1.2v0c0-0.7,0.5-1.3,1.3-1.3c0.5,0,0.7,0.2,1,0.4l-0.3,0.4
			c-0.2-0.2-0.4-0.3-0.6-0.3c-0.4,0-0.7,0.3-0.7,0.8v0c0,0.4,0.3,0.8,0.7,0.8c0.3,0,0.5-0.1,0.6-0.3l0.3,0.3
			c-0.2,0.3-0.5,0.4-0.9,0.4l-0.2,0.6L3.3,23.6z"/>
		<path fill="#FFFFFF" d="M6.1,20.7h0.5l1,2.5H7.1l-0.2-0.5h-1l-0.2,0.5H5L6.1,20.7z M6.3,20.5c-0.1,0-0.1-0.1-0.2-0.1
			c-0.1,0-0.2,0.1-0.2,0.2l-0.3-0.1C5.7,20.2,5.8,20,6.1,20c0.1,0,0.2,0,0.3,0.1c0.1,0,0.2,0.1,0.2,0.1c0.1,0,0.2-0.1,0.2-0.2
			l0.3,0.1c-0.1,0.3-0.2,0.5-0.4,0.5C6.5,20.5,6.4,20.5,6.3,20.5 M6.7,22.2l-0.3-0.8L6,22.2H6.7z"/>
		<path fill="#FFFFFF" d="M7.7,22L7.7,22c0-0.7,0.5-1.3,1.3-1.3c0.8,0,1.3,0.6,1.3,1.3v0c0,0.7-0.5,1.3-1.3,1.3
			C8.2,23.2,7.7,22.7,7.7,22 M9.7,22L9.7,22c0-0.4-0.3-0.8-0.7-0.8c-0.4,0-0.7,0.3-0.7,0.8v0c0,0.4,0.3,0.8,0.7,0.8
			C9.4,22.7,9.7,22.4,9.7,22"/>
		<path fill="#FFFFFF" d="M11.6,22L11.6,22c0-0.7,0.5-1.3,1.3-1.3c0.5,0,0.7,0.2,1,0.4l-0.3,0.4c-0.2-0.2-0.4-0.3-0.6-0.3
			c-0.4,0-0.7,0.3-0.7,0.8v0c0,0.4,0.3,0.8,0.7,0.8c0.3,0,0.5-0.1,0.6-0.3l0.3,0.3c-0.3,0.3-0.5,0.4-1,0.4
			C12.1,23.2,11.6,22.7,11.6,22"/>
		<path fill="#FFFFFF" d="M14.2,22.2v-1.4h0.5v1.4c0,0.4,0.2,0.6,0.5,0.6c0.3,0,0.5-0.2,0.5-0.6v-1.4h0.5v1.4c0,0.7-0.4,1.1-1.1,1.1
			C14.6,23.2,14.2,22.9,14.2,22.2"/>
		<polygon fill="#FFFFFF" points="16.8,20.8 17.3,20.8 17.3,22.7 18.5,22.7 18.5,23.2 16.8,23.2 		"/>
		<polygon fill="#FFFFFF" points="19.1,21.3 18.3,21.3 18.3,20.8 20.4,20.8 20.4,21.3 19.6,21.3 19.6,23.2 19.1,23.2 		"/>
		<path fill="#FFFFFF" d="M20.7,22.2v-1.4h0.5v1.4c0,0.4,0.2,0.6,0.5,0.6c0.3,0,0.5-0.2,0.5-0.6v-1.4h0.5v1.4c0,0.7-0.4,1.1-1.1,1.1
			C21.1,23.2,20.7,22.9,20.7,22.2"/>
		<path fill="#FFFFFF" d="M23.3,20.8h1.1c0.3,0,0.6,0.1,0.7,0.2c0.1,0.1,0.2,0.3,0.2,0.6v0c0,0.4-0.2,0.6-0.5,0.8l0.6,0.9h-0.6
			l-0.5-0.8h-0.4v0.8h-0.5V20.8z M24.4,21.9c0.3,0,0.4-0.1,0.4-0.3v0c0-0.2-0.2-0.3-0.4-0.3h-0.5v0.7H24.4z"/>
		<path fill="#FFFFFF" d="M26.6,20.7h0.5l1,2.5h-0.6l-0.2-0.5h-1l-0.2,0.5h-0.5L26.6,20.7z M27.1,22.2l-0.3-0.8l-0.3,0.8H27.1z"/>
		<polygon fill="#FFFFFF" points="28.4,20.8 29,20.8 29,22.7 30.2,22.7 30.2,23.2 28.4,23.2 		"/>
		<path fill="#FFFFFF" d="M60.6,18.7l0.3-0.4c0.2,0.2,0.5,0.3,0.7,0.3c0.2,0,0.4-0.1,0.4-0.2v0c0-0.1-0.1-0.2-0.5-0.3
			c-0.5-0.1-0.8-0.3-0.8-0.7v0c0-0.4,0.4-0.7,0.9-0.7c0.4,0,0.7,0.1,0.9,0.3l-0.3,0.4C62,17.1,61.8,17,61.6,17
			c-0.2,0-0.3,0.1-0.3,0.2v0c0,0.2,0.1,0.2,0.5,0.3c0.5,0.1,0.8,0.3,0.8,0.7v0c0,0.5-0.4,0.8-0.9,0.8C61.3,19.1,60.9,18.9,60.6,18.7
			"/>
		<path fill="#FFFFFF" d="M63.8,16.6h0.5l1,2.5h-0.6l-0.2-0.5h-1L63.3,19h-0.5L63.8,16.6z M64,16.3c-0.1,0-0.1-0.1-0.2-0.1
			c-0.1,0-0.2,0.1-0.2,0.2l-0.3-0.1c0.1-0.3,0.2-0.5,0.4-0.5c0.1,0,0.2,0,0.3,0.1c0.1,0,0.2,0.1,0.2,0.1c0.1,0,0.2-0.1,0.2-0.2
			l0.3,0.1c-0.1,0.3-0.2,0.5-0.4,0.5C64.2,16.3,64.1,16.3,64,16.3 M64.3,18L64,17.2L63.7,18H64.3z"/>
		<path fill="#FFFFFF" d="M65.3,17.8L65.3,17.8c0-0.7,0.5-1.3,1.3-1.3c0.8,0,1.3,0.6,1.3,1.3v0c0,0.7-0.5,1.3-1.3,1.3
			C65.9,19.1,65.3,18.5,65.3,17.8 M67.4,17.8L67.4,17.8c0-0.4-0.3-0.8-0.7-0.8c-0.4,0-0.7,0.3-0.7,0.8v0c0,0.4,0.3,0.8,0.7,0.8
			C67.1,18.6,67.4,18.2,67.4,17.8"/>
		<path fill="#FFFFFF" d="M69.3,16.6h1c0.6,0,0.9,0.3,0.9,0.8v0c0,0.6-0.4,0.9-1,0.9h-0.4V19h-0.5V16.6z M70.3,17.8
			c0.3,0,0.4-0.2,0.4-0.4v0c0-0.2-0.2-0.4-0.4-0.4h-0.4v0.7H70.3z"/>
		<rect x="16.7" y="0" fill="#F2BD1F" width="0.5" height="15"/>
		<polygon fill="#2EB9E4" points="21.4,10.5 21.4,15 26.3,15 23.3,10.5 		"/>
		<path fill="#F2BD1F" d="M29.4,1.6c0.9,0.9,1.3,2,1.3,3.5v0c0,2.3-1.2,3.9-3.1,4.7l3.6,5.2h0.6V0h-6.2C27.3,0.2,28.5,0.7,29.4,1.6"
			/>
		<path fill="#10A74A" d="M24.2,3.8h-2.8v3.6h2.8c1.4,0,2.3-0.7,2.3-1.8v0C26.5,4.4,25.6,3.8,24.2,3.8"/>
		<path fill="#10A74A" d="M48.1,4.4V0h-4.8C45.5,0.7,47.2,2.3,48.1,4.4"/>
		<path fill="#F2BD1F" d="M40.6,3.4c-2.3,0-3.8,1.9-3.8,4v0c0,2.2,1.6,4.1,3.9,4.1c2.3,0,3.8-1.9,3.8-4v0
			C44.4,5.3,42.9,3.4,40.6,3.4"/>
		<path fill="#F2BD1F" d="M48.1,10.4c-1,2.3-3,4-5.6,4.6h5.6V10.4z"/>
		<path fill="#2EB9E4" d="M38,0h-4.9v4.4C33.9,2.4,35.7,0.7,38,0"/>
		<path fill="#10A74A" d="M33.1,10.5V15h5.5C36,14.5,34,12.7,33.1,10.5"/>
		<polygon fill="#F2BD1F" points="49.5,0 49.5,12.9 54.9,0 		"/>
		<polygon fill="#2EB9E4" points="54,12.4 53,15 60.9,15 59.8,12.4 		"/>
		<polygon fill="#10A74A" points="55.3,9.1 58.6,9.1 57,4.9 		"/>
		<polygon fill="#10A74A" points="64.5,0 59.1,0 64.5,12.9 		"/>
		<path fill="#2EB9E4" d="M9.9,5.3L9.9,5.3c0-1.3-0.9-2-2.4-2h-2v4h2C9,7.3,9.9,6.5,9.9,5.3"/>
		<path fill="#10A74A" d="M14.1,5.3L14.1,5.3c0,3.6-2.8,5.5-6.5,5.5H5.5V15h9.7V0H8.9C12.1,0.3,14.1,2.2,14.1,5.3"/>
		<rect x="0.2" y="0" fill="#10A74A" width="1.1" height="15"/>
		<path fill="#FFFFFF" d="M72.2,16.6h0.5l1,2.5h-0.6L73,18.5h-1L71.7,19h-0.5L72.2,16.6z M72.8,18l-0.3-0.8L72.1,18H72.8z"/>
		<polygon fill="#FFFFFF" points="76.5,16.6 77.1,16.6 77.1,18.5 78.3,18.5 78.3,19 76.5,19 		"/>
		<path fill="#FFFFFF" d="M78.4,17.8L78.4,17.8c0-0.7,0.5-1.3,1.3-1.3c0.8,0,1.3,0.6,1.3,1.3v0c0,0.7-0.5,1.3-1.3,1.3
			C78.9,19.1,78.4,18.5,78.4,17.8 M80.4,17.8L80.4,17.8c0-0.4-0.3-0.8-0.7-0.8c-0.4,0-0.7,0.3-0.7,0.8v0c0,0.4,0.3,0.8,0.7,0.8
			C80.1,18.6,80.4,18.2,80.4,17.8"/>
		<path fill="#F2BD1F" d="M81,0h-3.8c1.5,0.5,2.6,1.5,3.4,2.7l-3.1,2.4c-0.9-1.1-1.8-1.8-3.3-1.8c-2.1,0-3.6,1.8-3.6,4v0
			c0,2.3,1.5,4,3.6,4c1.6,0,2.5-0.7,3.4-1.8l3.1,2.2c-1.2,1.6-2.6,2.8-5,3.3H81V0z"/>
		<path fill="#2EB9E4" d="M66.3,7.4L66.3,7.4c0-3.5,2-6.3,5.1-7.4H66v15h6.5C68.9,14.4,66.3,11.3,66.3,7.4"/>
		<rect x="0" y="0" fill="none" width="81" height="23.8"/>
	</g>
	<path fill="#FFFFFF" d="M73.9,18v-1.4h0.5V18c0,0.4,0.2,0.6,0.5,0.6s0.5-0.2,0.5-0.6v-1.4h0.5V18c0,0.7-0.4,1.1-1.1,1.1
		C74.3,19.1,73.9,18.7,73.9,18"/>
</g>
</svg>
