<svg xmlns:xlink="http://www.w3.org/1999/xlink" width="62" height="51.5" viewBox="0 0 62 51.5"><defs><path id="a" d="M15 15.8a15.8 15.8 0 0031.6 0 15.8 15.8 0 00-31.6 0"/></defs><clipPath id="b"><use xlink:href="#a" overflow="visible"/></clipPath><radialGradient id="c" cx="-266.1" cy="241.7" r="2.5" gradientTransform="scale(12.1712) rotate(90 -253 14)" gradientUnits="userSpaceOnUse"><stop offset="0" stop-color="#d22438"/><stop offset=".4" stop-color="#d22438"/><stop offset=".7" stop-color="#7a102f"/><stop offset="1" stop-color="#7a102f"/></radialGradient><path clip-path="url(#b)" fill="url(#c)" d="M15 0h31.6v31.6H15z"/><defs><path id="d" d="M19.2 10c0 4.7 5.2 8.5 11.6 8.5 6.4 0 11.6-3.8 11.6-8.5s-5.2-8.5-11.6-8.5c-6.4-.1-11.6 3.8-11.6 8.5"/></defs><clipPath id="e"><use xlink:href="#d" overflow="visible"/></clipPath><linearGradient id="f" gradientUnits="userSpaceOnUse" x1="-268.7" y1="242.2" x2="-266.2" y2="242.2" gradientTransform="matrix(0 9.6894 9.6894 0 -2315.5 2604.8)"><stop offset="0" stop-color="#fde9f2"/><stop offset=".3" stop-color="#ed1765"/><stop offset=".8" stop-color="#d22438"/><stop offset="1" stop-color="#d22438"/></linearGradient><path clip-path="url(#e)" fill="url(#f)" d="M19.2 1.4h23.2v17H19.2z"/><path fill="#FFF" d="M40.8 16.2l-16.5 9.5v-19z"/><defs><path id="g" d="M2 36.8h1.6c1 0 1.7.5 1.7 1.4 0 .8-.6 1.4-1.6 1.4H2v-2.8zM0 35v9.3h2v-2.8h1.6c2.1 0 3.8-1.1 3.8-3.3C7.3 36.3 6 35 3.8 35H0z"/></defs><clipPath id="h"><use xlink:href="#g" overflow="visible"/></clipPath><linearGradient id="i" gradientUnits="userSpaceOnUse" x1="-280.5" y1="241.5" x2="-278" y2="241.5" gradientTransform="matrix(0 3.6116 3.6116 0 -868.4 1048.2)"><stop offset="0" stop-color="#d22438"/><stop offset=".4" stop-color="#ef426c"/><stop offset=".5" stop-color="#ef466d"/><stop offset=".5" stop-color="#f05273"/><stop offset=".6" stop-color="#f1647d"/><stop offset=".6" stop-color="#f27286"/><stop offset=".6" stop-color="#ec687a"/><stop offset=".6" stop-color="#e45866"/><stop offset=".6" stop-color="#de4957"/><stop offset=".6" stop-color="#da3d4c"/><stop offset=".6" stop-color="#d63242"/><stop offset=".6" stop-color="#d42a3c"/><stop offset=".6" stop-color="#d32539"/><stop offset=".6" stop-color="#d22438"/><stop offset=".7" stop-color="#cf2338"/><stop offset=".8" stop-color="#c42238"/><stop offset=".9" stop-color="#b31f37"/><stop offset=".9" stop-color="#9c1a35"/><stop offset="1" stop-color="#801331"/><stop offset="1" stop-color="#7a102f"/><stop offset="1" stop-color="#7a102f"/></linearGradient><path clip-path="url(#h)" fill="url(#i)" d="M0 35h7.3v9.3H0z"/><g><defs><path id="j" d="M9.9 36.8h2c1 0 1.6.4 1.6 1.3 0 .8-.6 1.3-1.6 1.3h-2v-2.6zm-2-1.8v9.3h2v-3h1.6l2 3h2.4L13.6 41c1.2-.4 2-1.4 2-2.9 0-.9-.3-1.6-.8-2.1-.6-.6-1.5-.9-2.7-.9H7.9z"/></defs><clipPath id="k"><use xlink:href="#j" overflow="visible"/></clipPath><linearGradient id="l" gradientUnits="userSpaceOnUse" x1="-280.5" y1="242.8" x2="-278" y2="242.8" gradientTransform="matrix(0 3.6116 3.6116 0 -865.2 1048.2)"><stop offset="0" stop-color="#d22438"/><stop offset=".4" stop-color="#ef426c"/><stop offset=".5" stop-color="#ef466d"/><stop offset=".5" stop-color="#f05273"/><stop offset=".6" stop-color="#f1647d"/><stop offset=".6" stop-color="#f27286"/><stop offset=".6" stop-color="#ec687a"/><stop offset=".6" stop-color="#e45866"/><stop offset=".6" stop-color="#de4957"/><stop offset=".6" stop-color="#da3d4c"/><stop offset=".6" stop-color="#d63242"/><stop offset=".6" stop-color="#d42a3c"/><stop offset=".6" stop-color="#d32539"/><stop offset=".6" stop-color="#d22438"/><stop offset=".7" stop-color="#cf2338"/><stop offset=".8" stop-color="#c42238"/><stop offset=".9" stop-color="#b31f37"/><stop offset=".9" stop-color="#9c1a35"/><stop offset="1" stop-color="#801331"/><stop offset="1" stop-color="#7a102f"/><stop offset="1" stop-color="#7a102f"/></linearGradient><path clip-path="url(#k)" fill="url(#l)" d="M7.9 35h8v9.3h-8z"/></g><g><defs><path id="m" d="M18.2 39.6c0-1.6 1.1-2.9 2.8-2.9 1.6 0 2.8 1.3 2.8 2.9 0 1.6-1.1 2.9-2.8 2.9-1.6.1-2.8-1.3-2.8-2.9m-2.1 0c0 2.7 2.1 4.8 4.9 4.8 2.9 0 4.9-2.2 4.9-4.8 0-2.6-2.1-4.8-4.9-4.8a4.8 4.8 0 00-4.9 4.8"/></defs><clipPath id="n"><use xlink:href="#m" overflow="visible"/></clipPath><linearGradient id="o" gradientUnits="userSpaceOnUse" x1="-280.5" y1="244.4" x2="-278" y2="244.4" gradientTransform="matrix(0 3.6116 3.6116 0 -861.6 1048.2)"><stop offset="0" stop-color="#d22438"/><stop offset=".4" stop-color="#ef426c"/><stop offset=".5" stop-color="#ef466d"/><stop offset=".5" stop-color="#f05273"/><stop offset=".6" stop-color="#f1647d"/><stop offset=".6" stop-color="#f27286"/><stop offset=".6" stop-color="#ec687a"/><stop offset=".6" stop-color="#e45866"/><stop offset=".6" stop-color="#de4957"/><stop offset=".6" stop-color="#da3d4c"/><stop offset=".6" stop-color="#d63242"/><stop offset=".6" stop-color="#d42a3c"/><stop offset=".6" stop-color="#d32539"/><stop offset=".6" stop-color="#d22438"/><stop offset=".7" stop-color="#cf2338"/><stop offset=".8" stop-color="#c42238"/><stop offset=".9" stop-color="#b31f37"/><stop offset=".9" stop-color="#9c1a35"/><stop offset="1" stop-color="#801331"/><stop offset="1" stop-color="#7a102f"/><stop offset="1" stop-color="#7a102f"/></linearGradient><path clip-path="url(#n)" fill="url(#o)" d="M16.1 34.8H26v9.6h-9.9z"/></g><g><defs><path id="p" d="M30.3 37.4l1.2 3H29l1.3-3zm-1-2.5l-4 9.3h2.1l.8-2.1h3.9l.9 2.1h2.1l-4-9.3h-1.8z"/></defs><clipPath id="q"><use xlink:href="#p" overflow="visible"/></clipPath><linearGradient id="r" gradientUnits="userSpaceOnUse" x1="-280.5" y1="245.9" x2="-278" y2="245.9" gradientTransform="matrix(0 3.6116 3.6116 0 -857.9 1048.2)"><stop offset="0" stop-color="#d22438"/><stop offset=".4" stop-color="#ef426c"/><stop offset=".5" stop-color="#ef466d"/><stop offset=".5" stop-color="#f05273"/><stop offset=".6" stop-color="#f1647d"/><stop offset=".6" stop-color="#f27286"/><stop offset=".6" stop-color="#ec687a"/><stop offset=".6" stop-color="#e45866"/><stop offset=".6" stop-color="#de4957"/><stop offset=".6" stop-color="#da3d4c"/><stop offset=".6" stop-color="#d63242"/><stop offset=".6" stop-color="#d42a3c"/><stop offset=".6" stop-color="#d32539"/><stop offset=".6" stop-color="#d22438"/><stop offset=".7" stop-color="#cf2338"/><stop offset=".8" stop-color="#c42238"/><stop offset=".9" stop-color="#b31f37"/><stop offset=".9" stop-color="#9c1a35"/><stop offset="1" stop-color="#801331"/><stop offset="1" stop-color="#7a102f"/><stop offset="1" stop-color="#7a102f"/></linearGradient><path clip-path="url(#q)" fill="url(#r)" d="M25.4 34.9h9.8v9.3h-9.8z"/></g><g><defs><path id="s" d="M40.6 35l-2.4 6.5-2.4-6.5h-2.3l3.8 9.3h1.8l3.7-9.3z"/></defs><clipPath id="t"><use xlink:href="#s" overflow="visible"/></clipPath><linearGradient id="u" gradientUnits="userSpaceOnUse" x1="-280.5" y1="247.2" x2="-278" y2="247.2" gradientTransform="matrix(0 3.6116 3.6116 0 -854.8 1048.2)"><stop offset="0" stop-color="#d22438"/><stop offset=".4" stop-color="#ef426c"/><stop offset=".5" stop-color="#ef466d"/><stop offset=".5" stop-color="#f05273"/><stop offset=".6" stop-color="#f1647d"/><stop offset=".6" stop-color="#f27286"/><stop offset=".6" stop-color="#ec687a"/><stop offset=".6" stop-color="#e45866"/><stop offset=".6" stop-color="#de4957"/><stop offset=".6" stop-color="#da3d4c"/><stop offset=".6" stop-color="#d63242"/><stop offset=".6" stop-color="#d42a3c"/><stop offset=".6" stop-color="#d32539"/><stop offset=".6" stop-color="#d22438"/><stop offset=".7" stop-color="#cf2338"/><stop offset=".8" stop-color="#c42238"/><stop offset=".9" stop-color="#b31f37"/><stop offset=".9" stop-color="#9c1a35"/><stop offset="1" stop-color="#801331"/><stop offset="1" stop-color="#7a102f"/><stop offset="1" stop-color="#7a102f"/></linearGradient><path clip-path="url(#t)" fill="url(#u)" d="M33.5 35h9.3v9.3h-9.3z"/></g><g><defs><path id="v" d="M42.3 39.2h4.1v1.9h-4.1z"/></defs><clipPath id="w"><use xlink:href="#v" overflow="visible"/></clipPath><linearGradient id="x" gradientUnits="userSpaceOnUse" x1="-280.5" y1="248.3" x2="-278" y2="248.3" gradientTransform="matrix(0 3.6116 3.6116 0 -852.3 1048.2)"><stop offset="0" stop-color="#d22438"/><stop offset=".4" stop-color="#ef426c"/><stop offset=".5" stop-color="#ef466d"/><stop offset=".5" stop-color="#f05273"/><stop offset=".6" stop-color="#f1647d"/><stop offset=".6" stop-color="#f27286"/><stop offset=".6" stop-color="#ec687a"/><stop offset=".6" stop-color="#e45866"/><stop offset=".6" stop-color="#de4957"/><stop offset=".6" stop-color="#da3d4c"/><stop offset=".6" stop-color="#d63242"/><stop offset=".6" stop-color="#d42a3c"/><stop offset=".6" stop-color="#d32539"/><stop offset=".6" stop-color="#d22438"/><stop offset=".7" stop-color="#cf2338"/><stop offset=".8" stop-color="#c42238"/><stop offset=".9" stop-color="#b31f37"/><stop offset=".9" stop-color="#9c1a35"/><stop offset="1" stop-color="#801331"/><stop offset="1" stop-color="#7a102f"/><stop offset="1" stop-color="#7a102f"/></linearGradient><path clip-path="url(#w)" fill="url(#x)" d="M42.3 39.2h4.1v1.9h-4.1z"/></g><g><defs><path id="y" d="M46.9 37.7c0 1.9 1.2 2.4 3.1 2.9 1.6.4 1.9.7 1.9 1.2s-.5.9-1.3.9c-1.1 0-1.9-.4-2.8-1.1L46.6 43c1.1 1 2.5 1.5 3.9 1.5 2 0 3.4-1 3.4-2.9 0-1.6-1.1-2.3-2.9-2.8-1.6-.4-2-.6-2-1.2 0-.5.4-.8 1.2-.8a4 4 0 012.4.9l1.1-1.5a5 5 0 00-3.4-1.2c-2.1-.1-3.4 1-3.4 2.7"/></defs><clipPath id="z"><use xlink:href="#y" overflow="visible"/></clipPath><linearGradient id="A" gradientUnits="userSpaceOnUse" x1="-280.5" y1="249.2" x2="-278" y2="249.2" gradientTransform="matrix(0 3.6116 3.6116 0 -850 1048.2)"><stop offset="0" stop-color="#d22438"/><stop offset=".4" stop-color="#ef426c"/><stop offset=".5" stop-color="#ef466d"/><stop offset=".5" stop-color="#f05273"/><stop offset=".6" stop-color="#f1647d"/><stop offset=".6" stop-color="#f27286"/><stop offset=".6" stop-color="#ec687a"/><stop offset=".6" stop-color="#e45866"/><stop offset=".6" stop-color="#de4957"/><stop offset=".6" stop-color="#da3d4c"/><stop offset=".6" stop-color="#d63242"/><stop offset=".6" stop-color="#d42a3c"/><stop offset=".6" stop-color="#d32539"/><stop offset=".6" stop-color="#d22438"/><stop offset=".7" stop-color="#cf2338"/><stop offset=".8" stop-color="#c42238"/><stop offset=".9" stop-color="#b31f37"/><stop offset=".9" stop-color="#9c1a35"/><stop offset="1" stop-color="#801331"/><stop offset="1" stop-color="#7a102f"/><stop offset="1" stop-color="#7a102f"/></linearGradient><path clip-path="url(#z)" fill="url(#A)" d="M46.5 34.9h7.3v9.5h-7.3z"/></g><g><defs><path id="B" d="M56.7 36.8h1.6c1 0 1.7.5 1.7 1.4 0 .8-.6 1.4-1.6 1.4h-1.6v-2.8zm-2-1.8v9.3h2v-2.8h1.6c2.1 0 3.8-1.1 3.8-3.3 0-1.9-1.3-3.2-3.6-3.2h-3.8z"/></defs><clipPath id="C"><use xlink:href="#B" overflow="visible"/></clipPath><linearGradient id="D" gradientUnits="userSpaceOnUse" x1="-280.5" y1="250.6" x2="-278" y2="250.6" gradientTransform="matrix(0 3.6116 3.6116 0 -846.8 1048.2)"><stop offset="0" stop-color="#d22438"/><stop offset=".4" stop-color="#ef426c"/><stop offset=".5" stop-color="#ef466d"/><stop offset=".5" stop-color="#f05273"/><stop offset=".6" stop-color="#f1647d"/><stop offset=".6" stop-color="#f27286"/><stop offset=".6" stop-color="#ec687a"/><stop offset=".6" stop-color="#e45866"/><stop offset=".6" stop-color="#de4957"/><stop offset=".6" stop-color="#da3d4c"/><stop offset=".6" stop-color="#d63242"/><stop offset=".6" stop-color="#d42a3c"/><stop offset=".6" stop-color="#d32539"/><stop offset=".6" stop-color="#d22438"/><stop offset=".7" stop-color="#cf2338"/><stop offset=".8" stop-color="#c42238"/><stop offset=".9" stop-color="#b31f37"/><stop offset=".9" stop-color="#9c1a35"/><stop offset="1" stop-color="#801331"/><stop offset="1" stop-color="#7a102f"/><stop offset="1" stop-color="#7a102f"/></linearGradient><path clip-path="url(#C)" fill="url(#D)" d="M54.7 35H62v9.3h-7.3z"/></g><g><defs><path id="E" d="M0 0h62v51.5H0z"/></defs><clipPath id="F"><use xlink:href="#E" overflow="visible"/></clipPath><path clip-path="url(#F)" fill="#FFF" d="M1.8 48.1v-2h.8l.5.2.2.5-.2.5-.6.2h-.3v.6h-.4zm.4-1h.3l.2-.1.1-.2-.1-.2-.3-.1h-.2v.6zM3.6 48.1v-2h.9l.6.2.2.4c0 .3-.1.5-.4.6l.5.7h-.6l-.4-.6H4v.6h-.4zm.4-1h.4l.2-.1.1-.2-.1-.2-.2-.1H4v.6zM7.2 47.8a1 1 0 01-.7.3 1 1 0 01-.7-.3 1 1 0 01-.3-.7c0-.3.1-.5.3-.7.2-.2.4-.3.7-.3.3 0 .5.1.7.3.2.2.3.4.3.7 0 .3-.1.5-.3.7m-1.1-.3l.4.2.4-.2.2-.4-.2-.4-.4-.2-.4.2-.2.4c0 .2 0 .3.2.4M8.8 48.1c-.3 0-.6-.1-.7-.3a1 1 0 01-.3-.7c0-.3.1-.5.3-.7s.4-.3.7-.3l.4.1.3.2-.3.3-.2-.2h-.3l-.4.2-.2.4.2.4.4.2.4-.1v-.3h-.4v-.4h.9v.9c-.2.2-.5.3-.8.3M9.9 48.1v-2h.9l.6.2.2.4c0 .3-.1.5-.4.6l.5.7h-.5l-.4-.6h-.3v.6h-.6zm.5-1h.4l.2-.1.1-.2-.1-.2-.2-.1h-.4v.6zM11.7 48.1l.8-2h.4l.8 2h-.5l-.2-.4h-.8l-.2.4h-.3zm.8-.8h.5l-.3-.6-.2.6zM14 48.1v-2h.5l.5.8.5-.8h.5v2h-.5v-1.3l-.5.8-.6-.8v1.3zM16.2 48.1l.8-2h.4l.8 2h-.5l-.2-.4h-.8l-.2.4h-.3zm.8-.8h.5l-.3-.6-.2.6zM19.2 48.1v-2h.8c.3 0 .6.1.7.3.2.2.3.4.3.7 0 .3-.1.5-.3.7a1 1 0 01-.7.3h-.8zm.8-1.6h-.3v1.2h.3l.4-.2.2-.4-.2-.4-.4-.2M21.4 48.1v-2h1.4v.4h-1v.4h.9v.4h-.9v.4h1v.4zM23.9 46.1h.4v2h-.4zM24.8 48.1v-2h.4l.9 1.2v-1.2h.4v2h-.4l-.9-1.3v1.3zM27.5 48.1l-.8-2h.5l.5 1.4.5-1.4h.5l-.8 2zM28.9 48.1v-2h1.5v.4h-1.1v.4h1v.4h-1v.4h1.1v.4zM31.4 48.1c-.3 0-.6-.1-.8-.3l.3-.3c.2.2.4.2.6.2l.2-.1.1-.1-.1-.1-.3-.1-.3-.1-.2-.1-.1-.2v-.2l.2-.4.5-.2.7.2-.2.3-.5-.2h-.2l-.1.1.1.1.3.1.5.2.2.4-.2.4c-.3.3-.5.4-.7.4"/><path clip-path="url(#F)" fill="#FFF" d="M32.8 48.1v-1.6h-.6v-.4h1.7v.4h-.6v1.6zM34.1 46.1h.4v2h-.4zM35 48.1v-2h.4l.5.8.6-.8h.4v2h-.4v-1.3l-.6.8-.5-.8v1.3zM37.3 48.1v-2h1.5v.4h-1.1v.4h1v.4h-1v.4h1.1v.4zM39.1 48.1v-2h.4l.9 1.2v-1.2h.4v2h-.3l-1-1.3v1.3zM41.7 48.1v-1.6h-.6v-.4h1.6v.4h-.6v1.6zM44.6 47.8a1 1 0 01-.7.3 1 1 0 01-.7-.3 1 1 0 01-.3-.7c0-.3.1-.5.3-.7.2-.2.4-.3.7-.3.3 0 .5.1.7.3.2.2.3.4.3.7 0 .3-.1.5-.3.7m-1.2-.3l.4.2.4-.2.2-.4-.2-.4-.4-.2-.4.2-.2.4.2.4M45.9 48.1v-2h.4l1 1.2v-1.2h.4v2h-.4l-.9-1.3v1.3zM49.8 47.8a1 1 0 01-.7.3 1 1 0 01-.7-.3 1 1 0 01-.3-.7c0-.3.1-.5.3-.7.2-.2.4-.3.7-.3.3 0 .5.1.7.3.2.2.3.4.3.7 0 .3-.1.5-.3.7m-1.2-.3l.4.2.4-.2.2-.4-.2-.4-.4-.2-.4.2-.2.4.2.4M51.8 48.1c-.3 0-.6-.1-.8-.3l.3-.3c.2.2.4.2.6.2l.2-.1.1-.1-.1-.1-.3-.1-.3-.1-.2-.1-.1-.2v-.2l.2-.4.5-.2.7.2-.2.3-.5-.2h-.2l-.1.1.1.1.3.1.5.2.2.4-.2.4c-.3.3-.5.4-.7.4M52.8 48.1v-2h1.5v.4h-1v.4h.9v.4h-.9v.4h1v.4zM55.1 48.1v-1.6h-.6v-.4h1.6v.4h-.6v1.6zM58 47.8a1 1 0 01-.7.3 1 1 0 01-.7-.3 1 1 0 01-.3-.7c0-.3.1-.5.3-.7.2-.2.4-.3.7-.3.3 0 .5.1.7.3.2.2.3.4.3.7 0 .3-.1.5-.3.7m-1.2-.3l.4.2.4-.2.2-.4-.2-.4-.4-.2-.4.2-.2.4.2.4M58.6 48.1v-2h.9l.6.2.2.4c0 .3-.1.5-.4.6l.5.7h-.5l-.4-.6H59v.6h-.4zm.4-1h.4l.2-.1.1-.2-.1-.2-.2-.1H59v.6zM10.4 51.4l.8-2h.4l.8 2H12l-.2-.4H11l-.2.4h-.4zm.7-.8h.5l-.2-.6-.3.6zM13.4 51.5l-.6-.2-.2-.7v-1.1h.4v1.1l.1.4.3.1.3-.1.1-.4v-1.1h.4v1.1l-.2.7-.6.2M14.6 51.4v-2h.8c.3 0 .6.1.7.3.2.2.3.4.3.7 0 .3-.1.5-.3.7a1 1 0 01-.7.3h-.8zm.8-1.5h-.3V51h.3l.4-.2.2-.4-.2-.4-.4-.1M16.8 49.5h.4v2h-.4zM19.3 51.2a1 1 0 01-.7.3 1 1 0 01-.7-.3 1 1 0 01-.3-.7c0-.3.1-.5.3-.7.2-.2.4-.3.7-.3.3 0 .5.1.7.3.2.2.3.4.3.7 0 .2-.1.5-.3.7m-1.2-.3l.4.2.4-.2.2-.4-.2-.4-.4-.2-.4.2-.1.3.1.5M20.4 51.5l-.8-2h.5l.5 1.4.5-1.4h.5l-.8 2zM21.8 49.5h.4v2h-.4zM23.3 51.5c-.3 0-.6-.1-.8-.3l.3-.3c.2.2.4.2.6.2l.2-.1.1-.1-.1-.1-.3-.1-.3-.1-.2-.1-.1-.2v-.2l.2-.4.5-.2.7.2-.3.3-.5-.2h-.2l-.1.1.1.1.3.1.5.2.2.4-.2.4c-.2.3-.3.4-.6.4M25.2 51.5l-.6-.2-.2-.7v-1.1h.4v1.1l.1.4.3.1.3-.1.1-.4v-1.1h.4v1.1l-.2.7a1 1 0 01-.6.2M26.2 51.4l.8-2h.4l.8 2h-.5l-.1-.4h-.8l-.2.4h-.4zm.7-.8h.5l-.2-.6-.3.6zM28.5 51.4v-1.9h.4V51h1v.4zM30.9 51.4v-2h.8c.3 0 .6.1.7.3.2.2.3.4.3.7 0 .3-.1.5-.3.7a1 1 0 01-.7.3h-.8zm.7-1.5h-.3V51h.3l.4-.2.2-.4-.2-.4-.4-.1M33 51.4v-1.9h1.4v.4h-1v.4h.9v.3h-.9v.5h1.1v.3zM36.2 51.5c-.3 0-.6-.1-.8-.3l.3-.3c.2.2.4.2.6.2l.2-.1.1-.1-.1-.1-.3-.1-.3-.1-.2-.1-.1-.2v-.2l.2-.4.5-.2.7.2-.3.3-.5-.2H36l-.1.1.1.1.3.1.5.2.2.4-.2.4c-.2.3-.4.4-.6.4M37 51.4l.8-2h.4l.8 2h-.5V51h-.8l-.2.4H37zm1.3-2.1l-.3-.1h-.2-.1l-.1.1-.2-.1.1-.3.2-.1.3.1H38.3l.1-.1.2.1-.1.3-.2.1m-.5 1.3h.5l-.2-.6-.3.6zM40.9 51.2a1 1 0 01-.7.3 1 1 0 01-.7-.3 1 1 0 01-.3-.7c0-.3.1-.5.3-.7.2-.2.4-.3.7-.3.3 0 .5.1.7.3.2.2.3.4.3.7 0 .2-.1.5-.3.7m-1.2-.3l.4.2.4-.2.2-.4-.2-.4a.8.8 0 00-.4-.2l-.4.2-.2.4.2.4M42.2 51.4v-2h.8l.5.2.2.5-.2.5-.6.2h-.3v.6h-.4zm.5-.9h.3l.2-.1.1-.2-.1-.2-.3-.1h-.3v.6zM43.7 51.4l.8-2h.4l.8 2h-.5l-.1-.4h-.8l-.2.4h-.4zm.7-.8h.6l-.3-.6-.3.6zM46.7 51.5l-.6-.2-.2-.7v-1.1h.4v1.1l.1.4.3.1.3-.1.1-.4v-1.1h.4v1.1l-.2.7-.6.2M47.9 51.4v-1.9h.5V51h.9v.4zM51.2 51.2a1 1 0 01-.7.3 1 1 0 01-.7-.3 1 1 0 01-.3-.7c0-.3.1-.5.3-.7.2-.2.4-.3.7-.3.3 0 .5.1.7.3.2.2.3.4.3.7 0 .2-.1.5-.3.7m-1.2-.3l.4.2.4-.2.2-.4-.2-.4-.4-.2-.4.1-.2.4.2.5"/></g></svg>