<svg width="49px" viewBox="0 0 49 39.6" preserveAspectRatio="xMidYMid meet">
<g>
	<path fill="#4AC8EF" d="M45.7,39.6H3.3c-1.8,0-3.3-1.5-3.3-3.3V10.3C0,8.5,1.5,7,3.3,7h13.8v2H3.3C2.6,9,2,9.6,2,10.3v25.9
		c0,0.8,0.6,1.4,1.4,1.4h42.3c0.8,0,1.4-0.6,1.4-1.4V10.3C47,9.6,46.4,9,45.7,9H31.8V7h13.9c1.8,0,3.3,1.5,3.3,3.3v25.9
		C49,38.1,47.5,39.6,45.7,39.6"/>
	<path fill="#4AC8EF" d="M41.9,18.9H28.2c-0.5,0-1-0.4-1-1c0-0.5,0.4-1,1-1h13.7c0.5,0,1,0.4,1,1C42.8,18.5,42.4,18.9,41.9,18.9"/>
	<path fill="#4AC8EF" d="M41.9,24.8H28.2c-0.5,0-1-0.4-1-1s0.4-1,1-1h13.7c0.5,0,1,0.4,1,1S42.4,24.8,41.9,24.8"/>
	<path fill="#4AC8EF" d="M41.9,30.6H28.2c-0.5,0-1-0.4-1-1s0.4-1,1-1h13.7c0.5,0,1,0.4,1,1S42.4,30.6,41.9,30.6"/>
	<path fill="#4AC8EF" d="M24.1,38.4h-2v-5c0-2.5-1.9-3.7-3.8-3.9l-3,3.5c-0.2,0.2-0.5,0.3-0.7,0.3c-0.3,0-0.6-0.1-0.7-0.3l-3.2-3.5
		C8.4,29.6,7,31.1,7,33.4v5h-2v-5c0-3.5,2.4-5.9,6-5.9c0.3,0,0.5,0.1,0.7,0.3l2.8,3.1l2.5-3c0.2-0.2,0.5-0.3,0.8-0.3
		c3.6,0,6.2,2.5,6.2,5.9V38.4z"/>
	<path fill="#4AC8EF" d="M14.6,16.1c-1.8,0-3.2,1.5-3.2,3.3v1.6c0,1.8,1.4,3.3,3.2,3.3c1.8,0,3.2-1.5,3.2-3.3v-1.6
		C17.8,17.5,16.3,16.1,14.6,16.1 M14.6,26.2c-2.9,0-5.2-2.4-5.2-5.3v-1.6c0-2.9,2.3-5.3,5.2-5.3c2.9,0,5.2,2.4,5.2,5.3v1.6
		C19.8,23.8,17.4,26.2,14.6,26.2"/>
	<polygon fill="#4AC8EF" points="28.7,11.7 26.7,11.7 26.7,2 22.3,2 22.3,11.7 20.3,11.7 20.3,0 28.7,0 	"/>
	<rect x="18.4" y="10.9" fill="#4AC8EF" width="12.2" height="2"/>
</g>
</svg>
