<svg width="48px" viewBox="0 0 48 47.9" preserveAspectRatio="xMidYMid meet">
<g>
	<path fill="#4AC8EF" d="M18.4,38.9H3.1c-0.5,0-1-0.4-1-1c0-0.6,0.4-1,1-1h15.3c0.5,0,1,0.4,1,1C19.4,38.5,19,38.9,18.4,38.9"/>
	<path fill="#4AC8EF" d="M42.7,44.4c-0.1,0-0.1,0-0.1,0c-1.3,0-2.5-0.6-3.4-1.6L24,25.3l1.5-1.3l15.1,17.5c0.5,0.6,1.2,0.9,1.9,1
		c0.7,0,1.5-0.3,2-0.8l0.7-0.7c0.5-0.6,0.8-1.3,0.8-2c0-0.8-0.4-1.5-0.9-2L27.9,21.5l1.3-1.5l17.2,15.4c1,0.9,1.6,2.1,1.6,3.4
		c0,1.3-0.5,2.6-1.4,3.5L46,43C45.1,43.9,43.9,44.4,42.7,44.4"/>
	<path fill="#4AC8EF" d="M12.5,17.7l6.1,6.3l9-9.1l-6.1-6.3L12.5,17.7z M18.6,26.8l-8.9-9.1l11.7-12l8.9,9.1L18.6,26.8z"/>
	<path fill="#4AC8EF" d="M28.9,15.7c-0.5,0-0.9-0.4-1-0.9c-0.1-0.5,0.3-1.1,0.8-1.1l2.8-0.4l2-2l-8.6-8.8l-2,2l-0.4,2.8
		c-0.1,0.5-0.6,0.9-1.1,0.8c-0.5-0.1-0.9-0.6-0.8-1.1L21,3.9c0-0.2,0.1-0.4,0.3-0.6l2.9-2.9c0.4-0.4,1-0.4,1.4,0l10,10.2
		c0.4,0.4,0.4,1,0,1.4l-2.9,2.9c-0.1,0.2-0.3,0.3-0.6,0.3L29,15.7C29,15.7,28.9,15.7,28.9,15.7"/>
	<path fill="#4AC8EF" d="M21.2,47.9h-2v-4.1H2.4v4.1h-2v-5.1c0-0.6,0.4-1,1-1h18.8c0.5,0,1,0.4,1,1V47.9z"/>
	<path fill="#4AC8EF" d="M15.2,32.3c-0.3,0-0.5-0.1-0.7-0.3l-10-10.2c-0.4-0.4-0.4-1,0-1.4l2.9-2.9c0.2-0.2,0.3-0.3,0.6-0.3l3.1-0.4
		c0.5-0.1,1,0.3,1.1,0.8c0.1,0.5-0.3,1.1-0.8,1.1l-2.8,0.4l-2,2l8.6,8.8l2-2l0.4-2.8c0.1-0.5,0.6-0.9,1.1-0.8
		c0.5,0.1,0.9,0.6,0.8,1.1L19,28.5c0,0.2-0.1,0.4-0.3,0.6L15.9,32C15.7,32.2,15.4,32.3,15.2,32.3"/>
	<path fill="#4AC8EF" d="M18,38.8H2.7c-0.5,0-1-0.4-1-1c0-0.6,0.4-1,1-1H18c0.5,0,1,0.4,1,1C19,38.4,18.6,38.8,18,38.8"/>
	<path fill="#4AC8EF" d="M42.3,44.3c-0.1,0-0.1,0-0.1,0c-1.3,0-2.5-0.6-3.4-1.6L23.7,25.2l1.5-1.3l15.1,17.5c0.5,0.6,1.2,0.9,1.9,1
		c0.7,0,1.5-0.3,2-0.8l0.7-0.7c0.5-0.6,0.8-1.3,0.8-2c0-0.8-0.4-1.5-0.9-2L27.6,21.4l1.3-1.5L46,35.3c1,0.9,1.6,2.1,1.6,3.4
		c0,1.3-0.5,2.6-1.4,3.5l-0.7,0.7C44.7,43.8,43.5,44.3,42.3,44.3"/>
	<path fill="#4AC8EF" d="M12.1,17.6l6.1,6.3l9-9.1l-6.1-6.3L12.1,17.6z M18.2,26.7l-8.9-9.1l11.7-12l8.9,9.1L18.2,26.7z"/>
	<path fill="#4AC8EF" d="M28.5,15.6c-0.5,0-0.9-0.4-1-0.9c-0.1-0.5,0.3-1.1,0.8-1.1l2.8-0.4l2-2l-8.6-8.8l-2,2l-0.4,2.8
		C22,7.8,21.5,8.1,21,8.1c-0.5-0.1-0.9-0.6-0.8-1.1l0.4-3.1c0-0.2,0.1-0.4,0.3-0.6l2.9-2.9c0.4-0.4,1-0.4,1.4,0l10,10.2
		c0.4,0.4,0.4,1,0,1.4l-2.9,2.9c-0.1,0.2-0.3,0.3-0.6,0.3l-3.1,0.5C28.6,15.6,28.5,15.6,28.5,15.6"/>
	<path fill="#4AC8EF" d="M20.8,47.8h-2v-4.1H2v4.1H0v-5.1c0-0.6,0.4-1,1-1h18.8c0.5,0,1,0.4,1,1V47.8z"/>
	<path fill="#4AC8EF" d="M14.8,32.2c-0.3,0-0.5-0.1-0.7-0.3l-10-10.2c-0.4-0.4-0.4-1,0-1.4L7,17.4c0.2-0.2,0.3-0.3,0.6-0.3l3.1-0.4
		c0.5-0.1,1,0.3,1.1,0.8c0.1,0.5-0.3,1.1-0.8,1.1L8.1,19l-2,2l8.6,8.8l2-2l0.4-2.8c0.1-0.5,0.6-0.9,1.1-0.8c0.5,0.1,0.9,0.6,0.8,1.1
		l-0.4,3.1c0,0.2-0.1,0.4-0.3,0.6l-2.9,2.9C15.3,32.1,15,32.2,14.8,32.2"/>
</g>
</svg>
