<svg width="35px" viewBox="0 0 35 43.7" preserveAspectRatio="xMidYMid meet">
<g>
	<path fill="#4AC8EF" d="M17.2,31.6c-2.7,0-4.3-0.8-4.4-0.8c-0.4-0.2-0.6-0.7-0.4-1.1c0.2-0.4,0.7-0.6,1.1-0.4c0.1,0,3.1,1.5,8.3,0
		c0.4-0.1,0.9,0.1,1,0.6c0.1,0.4-0.1,0.9-0.5,1C20.2,31.4,18.5,31.6,17.2,31.6"/>
	<polygon fill="#4AC8EF" points="8,43.7 6.4,43.7 6.4,35.9 8.4,35.9 8.4,27.6 10,27.6 10,37.6 8,37.6 	"/>
	<polygon fill="#4AC8EF" points="28.6,43.7 27,43.7 27,37.6 25,37.6 25,27.6 26.6,27.6 26.6,35.9 28.6,35.9 	"/>
	<path fill="#4AC8EF" d="M8.4,13.8c-0.3,0-0.6-0.2-0.7-0.5c-0.2-0.4,0-0.9,0.4-1.1c0.5-0.2,0.7-0.7,0.7-1.5c0-6.7,4.1-8.7,6.5-9.2
		c0.4-0.1,0.9,0.2,1,0.6c0.1,0.4-0.2,0.9-0.6,1c-2.4,0.6-5.2,2.4-5.2,7.6c0,1.4-0.5,2.4-1.6,2.9C8.6,13.8,8.5,13.8,8.4,13.8"/>
	<path fill="#4AC8EF" d="M26.6,13.8c-0.1,0-0.2,0-0.3-0.1c-1.1-0.5-1.6-1.5-1.6-2.9c0-5.3-2.9-7.1-5.2-7.6c-0.4-0.1-0.7-0.5-0.6-1
		c0.1-0.4,0.5-0.7,1-0.6c2.4,0.6,6.5,2.5,6.5,9.2c0,0.8,0.2,1.2,0.7,1.5c0.4,0.2,0.6,0.7,0.4,1.1C27.2,13.6,26.9,13.8,26.6,13.8"/>
	<path fill="#4AC8EF" d="M15.9,10.3l-1.6-0.1l0.5-9.4c0-0.4,0.4-0.8,0.8-0.8h3.8c0.4,0,0.8,0.3,0.8,0.8l0.5,9.4l-1.6,0.1l-0.5-8.6
		h-2.3L15.9,10.3z"/>
	<path fill="#4AC8EF" d="M17.5,25.6c-3.8,0-7-3.5-7.8-8.4c-0.1-0.4,0.2-0.9,0.7-0.9c0.4-0.1,0.9,0.2,0.9,0.7
		c0.6,3.4,2.8,7.1,6.2,7.1c3.8,0,6.4-4.7,6.4-9.1c0-0.3,0-0.7,0-1c0-0.4,0.3-0.9,0.7-0.9c0.4,0,0.8,0.3,0.9,0.7
		c0,0.4,0.1,0.8,0.1,1.2C25.5,21.5,21.3,25.6,17.5,25.6"/>
	<path fill="#4AC8EF" d="M17.5,15.4c-3.9,0-7.5-0.7-10.3-1.9c-0.4-0.2-0.6-0.7-0.4-1.1C6.9,12,7.4,11.8,7.8,12
		c2.7,1.2,6,1.8,9.7,1.8c3.7,0,7-0.6,9.7-1.8c0.4-0.2,0.9,0,1.1,0.4c0.2,0.4,0,0.9-0.4,1.1C25,14.7,21.4,15.4,17.5,15.4"/>
	<path fill="#4AC8EF" d="M35,43.7h-1.6v-8.7c0-5.2-4.9-6.2-5.1-6.2c0,0-2-0.4-2.6-0.5L23,27.8v8.8c0,0.5-0.4,0.8-0.8,0.8h-9.5
		c-0.4,0-0.8-0.4-0.8-0.8v-8.8l-2.7,0.4c-0.6,0.1-2.5,0.5-2.5,0.5c-0.2,0-5.2,1-5.2,6.2v8.7H0v-8.7c0-6.6,6.4-7.8,6.5-7.8
		c0,0,1.9-0.4,2.5-0.5l3.6-0.6c0.2,0,0.5,0,0.6,0.2c0.2,0.2,0.3,0.4,0.3,0.6v9h7.9v-9c0-0.2,0.1-0.5,0.3-0.6
		c0.2-0.2,0.4-0.2,0.6-0.2l3.6,0.6c0.6,0.1,2.6,0.5,2.6,0.5c0,0,6.4,1.2,6.4,7.8V43.7z"/>
</g>
</svg>
