<svg width="37px" viewBox="0 0 37 37.3" preserveAspectRatio="xMidYMid meet">
<g>
	<rect x="0.9" y="13.3" fill="#4AC8EF" width="35.1" height="1.7"/>
	<path fill="#4AC8EF" d="M8.6,9.6c-0.5,0-0.8-0.4-0.8-0.8V0.8C7.8,0.4,8.1,0,8.6,0c0.5,0,0.8,0.4,0.8,0.8v7.9
		C9.5,9.2,9.1,9.6,8.6,9.6"/>
	<path fill="#4AC8EF" d="M26.4,9.6c-0.5,0-0.8-0.4-0.8-0.8V0.8c0-0.5,0.4-0.8,0.8-0.8c0.5,0,0.8,0.4,0.8,0.8v7.9
		C27.2,9.2,26.9,9.6,26.4,9.6"/>
	<path fill="#4AC8EF" d="M17.5,9.6c-0.5,0-0.8-0.4-0.8-0.8V0.8C16.7,0.4,17,0,17.5,0c0.5,0,0.8,0.4,0.8,0.8v7.9
		C18.4,9.2,18,9.6,17.5,9.6"/>
	<path fill="#4AC8EF" d="M32.8,37.3H4.2c-2.3,0-4.2-1.9-4.2-4.2V7.9c0-2.3,1.9-4.2,4.2-4.2h4.3v1.7H4.2c-1.4,0-2.5,1.1-2.5,2.5v25.2
		c0,1.4,1.1,2.5,2.5,2.5h28.5c1.4,0,2.5-1.1,2.5-2.5V7.9c0-1.4-1.1-2.5-2.5-2.5H30V3.7h2.8c2.3,0,4.2,1.9,4.2,4.2v25.2
		C37,35.4,35.1,37.3,32.8,37.3"/>
	<rect x="21.1" y="3.7" fill="#4AC8EF" width="5.2" height="1.7"/>
	<rect x="12.2" y="3.7" fill="#4AC8EF" width="5.3" height="1.7"/>
	<polygon fill="#4AC8EF" points="17.9,19.7 17.8,19.7 15.2,21.1 14.8,19.6 18.1,17.8 19.9,17.8 19.9,33 17.9,33 	"/>
</g>
</svg>
