<svg width="41px" viewBox="0 0 41 40.6" preserveAspectRatio="xMidYMid meet">
<g>
	<path fill="#4AC8EF" d="M23.9,0L23.9,0L23.9,0z M23,0l0,1.7h0.9l0.9,0L24.7,0L23,0z"/>
	<path fill="#4AC8EF" d="M24.6,16.1h14.7C38.8,8.4,32.5,2.1,24.6,1.7V16.1z M41,17.8H22.9V0h0.9C33.3,0,41,7.6,41,16.9V17.8z"/>
	<path fill="#4AC8EF" d="M18.3,40.6c-0.1,0-0.2,0-0.2,0l-0.1,0c-4.2-0.1-8.3-1.6-11.5-4.4l1.1-1.3c2.9,2.5,6.6,3.9,10.5,4l0.3,0
		c8.9,0,16.1-7,16.6-15.7H17.1V4.1h1.7v17.4h17.7v0.8C36.6,32.4,28.4,40.6,18.3,40.6"/>
	<path fill="#4AC8EF" d="M4.5,34.4L4,33.7c-2.6-3.2-4-7.3-4-11.4c0-8.5,6-16,14.4-17.8l0.4,1.7c-7.6,1.6-13,8.4-13,16.1
		c0,3.5,1.1,6.8,3.1,9.6l12.6-10.3l1.1,1.3L4.5,34.4z"/>
	<rect x="4.1" y="11.5" fill="#4AC8EF" width="13.8" height="1.7"/>
	<rect x="1.3" y="17.9" fill="#4AC8EF" width="16.5" height="1.7"/>
	<rect x="1.1" y="24.3" fill="#4AC8EF" width="13.1" height="1.7"/>
</g>
</svg>
