<svg width="50px" viewBox="0 0 50 48.1" preserveAspectRatio="xMidYMid meet">
<g>
	<path fill="#4AC8EF" d="M35.8,25c-3.7,0-6.5-1.6-6.5-3.8c0-2.2,2.8-3.8,6.5-3.8c2.9,0,5.5,1.1,6.3,2.7L40.3,21
		c-0.4-0.8-2.1-1.6-4.5-1.6c-2.7,0-4.5,1.1-4.5,1.8c0,0.7,1.8,1.8,4.5,1.8V25z"/>
	<path fill="#4AC8EF" d="M35.8,30.6c-3.2,0-5.8-1.2-6.4-3l1.9-0.6c0.2,0.7,1.9,1.6,4.5,1.6c2.7,0,4.5-1.1,4.5-1.8
		c0-0.7-1.8-1.8-4.5-1.8v-2c3.7,0,6.5,1.6,6.5,3.8C42.3,28.9,39.5,30.6,35.8,30.6"/>
	<path fill="#4AC8EF" d="M32.4,48.1H4.2C1.9,48.1,0,46.3,0,44V8.3L9.5,0h22.9c2.3,0,4.2,1.9,4.2,4.2v2.9h-2V4.2c0-1.2-1-2.2-2.2-2.2
		H10.3L2,9.2V44c0,1.2,1,2.2,2.2,2.2h28.2c1.2,0,2.2-1,2.2-2.2v-2.8h2V44C36.6,46.3,34.7,48.1,32.4,48.1"/>
	<path fill="#4AC8EF" d="M35.8,11.8c-6.7,0-12.2,5.5-12.2,12.2c0,6.7,5.5,12.2,12.2,12.2S48,30.7,48,24C48,17.3,42.5,11.8,35.8,11.8
		 M35.8,38.2c-7.8,0-14.2-6.4-14.2-14.2c0-7.8,6.4-14.2,14.2-14.2S50,16.2,50,24C50,31.8,43.6,38.2,35.8,38.2"/>
	<polygon fill="#4AC8EF" points="13.8,12.4 6.8,12.4 6.8,10.5 11.8,10.5 11.8,1.6 13.8,1.6 	"/>
	<rect x="6.9" y="23.1" fill="#4AC8EF" width="12.1" height="2"/>
	<rect x="6.9" y="29.5" fill="#4AC8EF" width="13.4" height="2"/>
	<rect x="6.9" y="36" fill="#4AC8EF" width="18.1" height="2"/>
	<rect x="34.9" y="15.3" fill="#4AC8EF" width="2" height="17.4"/>
</g>
</svg>
