<svg width="55px" viewBox="0 0 55 42.6" preserveAspectRatio="xMidYMid meet">
<g>
	<path fill="#4AC8EF" d="M12.6,31.3c-0.2,0-0.4,0-0.6-0.2c-0.5-0.3-0.7-0.9-0.3-1.4l8.2-11.6c0.2-0.3,0.5-0.5,0.9-0.5
		c0.4,0,0.7,0.2,0.9,0.4l5.5,7.1l7.2-6.2c0.4-0.4,1.1-0.4,1.5,0l5.1,4.3l8.8-18.7C50,4.1,50.7,3.8,51.2,4c0.6,0.2,0.8,0.8,0.6,1.3
		l-9.4,20c-0.1,0.3-0.4,0.5-0.8,0.6c-0.4,0.1-0.7,0-1-0.3l-5.5-4.6l-7.4,6.4c-0.2,0.2-0.6,0.3-0.9,0.3c-0.3,0-0.6-0.2-0.8-0.4
		l-5.3-6.8l-7.3,10.3C13.3,31.1,13,31.3,12.6,31.3"/>
	<polygon fill="#4AC8EF" points="55,38.6 4.5,38.6 4.5,0 6.7,0 6.7,36.6 55,36.6 	"/>
	<rect y="8.9" fill="#4AC8EF" width="5.5" height="2"/>
	<rect y="20.1" fill="#4AC8EF" width="5.5" height="2"/>
	<rect y="31.4" fill="#4AC8EF" width="5.5" height="2"/>
	<rect x="10.3" y="37.6" fill="#4AC8EF" width="2.2" height="5"/>
	<rect x="22.2" y="37.6" fill="#4AC8EF" width="2.2" height="5"/>
	<rect x="34.2" y="37.6" fill="#4AC8EF" width="2.2" height="5"/>
	<rect x="46.1" y="37.6" fill="#4AC8EF" width="2.2" height="5"/>
</g>
</svg>
