<svg width="49px" viewBox="0 0 49 33.6" preserveAspectRatio="xMidYMid meet">
<g>
	<polygon fill="#4AC8EF" points="44.3,27.4 44.2,25.9 47.2,25.7 45,1.7 6.7,4.4 7,7 5.3,7.1 4.9,3 46.6,0 49,27.1 	"/>
	<path fill="#4AC8EF" d="M1.7,32.1h38.4V8H1.7V32.1z M41.8,33.6H0V6.4h41.8V33.6z"/>
	<rect x="20.1" y="10.1" fill="#4AC8EF" width="1.7" height="19.8"/>
	<path fill="#4AC8EF" d="M31.9,16.7h3.5v-4.6h-3.5V16.7z M37.2,18.2h-6.9v-7.6h6.9V18.2z"/>
	<path fill="#4AC8EF" d="M16.2,23H5.7c-0.5,0-0.9-0.3-0.9-0.8c0-0.4,0.4-0.8,0.9-0.8h10.5c0.5,0,0.8,0.3,0.8,0.8
		C17,22.7,16.7,23,16.2,23"/>
	<path fill="#4AC8EF" d="M16.2,18.3H5.7c-0.5,0-0.9-0.3-0.9-0.8c0-0.4,0.4-0.8,0.9-0.8h10.5c0.5,0,0.8,0.3,0.8,0.8
		C17,18,16.7,18.3,16.2,18.3"/>
	<path fill="#4AC8EF" d="M16.2,13.6H5.7c-0.5,0-0.9-0.3-0.9-0.8c0-0.4,0.4-0.8,0.9-0.8h10.5c0.5,0,0.8,0.3,0.8,0.8
		C17,13.3,16.7,13.6,16.2,13.6"/>
	<path fill="#4AC8EF" d="M16.2,27.8H5.7c-0.5,0-0.9-0.3-0.9-0.8c0-0.4,0.4-0.8,0.9-0.8h10.5c0.5,0,0.8,0.3,0.8,0.8
		C17,27.4,16.7,27.8,16.2,27.8"/>
	<path fill="#4AC8EF" d="M36.3,23H25.9c-0.5,0-0.9-0.3-0.9-0.8c0-0.4,0.4-0.8,0.9-0.8h10.5c0.5,0,0.8,0.3,0.8,0.8
		C37.2,22.7,36.8,23,36.3,23"/>
	<path fill="#4AC8EF" d="M36.3,27.8H25.9c-0.5,0-0.9-0.3-0.9-0.8c0-0.4,0.4-0.8,0.9-0.8h10.5c0.5,0,0.8,0.3,0.8,0.8
		C37.2,27.4,36.8,27.8,36.3,27.8"/>
</g>
</svg>
