<svg width="54px" viewBox="0 0 54 38.5" preserveAspectRatio="xMidYMid meet">
<g>
	<rect x="14.8" y="12.6" fill="#4AC8EF" width="1.7" height="17.3"/>
	<rect x="22.6" y="12.6" fill="#4AC8EF" width="1.7" height="17.3"/>
	<rect x="30.5" y="12.6" fill="#4AC8EF" width="1.7" height="17.3"/>
	<path fill="#4AC8EF" d="M53.2,38.5H0.8c-0.5,0-0.8-0.4-0.8-0.9c0-0.5,0.4-0.9,0.8-0.9h52.3c0.5,0,0.8,0.4,0.8,0.9
		C54,38.1,53.6,38.5,53.2,38.5"/>
	<path fill="#4AC8EF" d="M50.4,33.9H3.6c-0.5,0-0.8-0.4-0.8-0.9c0-0.5,0.4-0.9,0.8-0.9h46.8c0.5,0,0.8,0.4,0.8,0.9
		C51.2,33.6,50.9,33.9,50.4,33.9"/>
	<path fill="#4AC8EF" d="M12.1,11.4h29.8V9.3L27,1.9L12.1,9.2V11.4z M42.8,13.1H11.3c-0.5,0-0.8-0.4-0.8-0.9V8.7
		c0-0.3,0.2-0.6,0.5-0.8l15.8-7.8c0.2-0.1,0.5-0.1,0.7,0l15.7,7.8c0.3,0.1,0.5,0.5,0.5,0.8v3.6C43.6,12.7,43.2,13.1,42.8,13.1"/>
	<path fill="#4AC8EF" d="M12.4,24H4.8C4.3,24,4,23.6,4,23.1v-4.2C4,18.4,4.3,18,4.8,18h7.5v1.8H5.6v2.4h6.7V24z"/>
	<path fill="#4AC8EF" d="M50,24h-7.5v-1.8h6.7v-2.4h-6.7V18H50c0.5,0,0.8,0.4,0.8,0.9v4.2C50.8,23.6,50.5,24,50,24"/>
	<rect x="46.2" y="23.5" fill="#4AC8EF" width="1.7" height="6.4"/>
	<rect x="6.9" y="23.5" fill="#4AC8EF" width="1.7" height="6.4"/>
	<rect x="38.3" y="12.6" fill="#4AC8EF" width="1.7" height="17.3"/>
</g>
</svg>
