<svg width="37px" viewBox="0 0 37 53.8" preserveAspectRatio="xMidYMid meet">
<g>
	<path fill="#4AC8EF" d="M25,30.6c-2.6,0-5.2,1-7.2,3.1c-1.9,2-3,4.7-3,7.5c0,2.8,1.1,5.5,3,7.5c1.9,2,4.5,3.1,7.2,3.1
		c2.7,0,5.3-1.1,7.2-3.1c1.9-2,3-4.7,3-7.5c0-2.8-1.1-5.5-3-7.5C30.2,31.6,27.6,30.6,25,30.6 M25,53.8c-3.2,0-6.2-1.3-8.5-3.7
		c-2.3-2.4-3.5-5.5-3.5-8.9c0-3.4,1.2-6.5,3.5-8.9c4.7-4.9,12.3-4.9,17,0c2.3,2.4,3.5,5.5,3.5,8.9c0,3.4-1.3,6.5-3.5,8.9
		C31.2,52.5,28.2,53.8,25,53.8"/>
	<rect x="24.2" y="35.8" fill="#4AC8EF" width="1.8" height="10.9"/>
	<rect x="19.8" y="40.3" fill="#4AC8EF" width="10.5" height="1.9"/>
	<path fill="#4AC8EF" d="M9.5,1.9C7.6,1.9,6,3.5,6,5.5c0,2,1.5,3.6,3.5,3.6c1.9,0,3.5-1.6,3.5-3.6C13,3.5,11.4,1.9,9.5,1.9
		 M9.5,11.1c-2.9,0-5.3-2.5-5.3-5.5C4.2,2.5,6.6,0,9.5,0c2.9,0,5.3,2.5,5.3,5.5C14.8,8.6,12.4,11.1,9.5,11.1"/>
	<path fill="#4AC8EF" d="M4.7,53.8c-0.5,0-0.9-0.4-0.9-0.9L3.4,35.6c-1.8-0.8-3.6-2.4-3.4-4.5l1.3-13.6c0.2-2.3,2.1-4.1,4.3-4.1h7.7
		c2.2,0,4.1,1.8,4.3,4.1l0.9,9.4c0,0.5-0.3,1-0.8,1.1c-0.5,0.1-1-0.3-1-0.9l-0.9-9.4c-0.1-1.3-1.3-2.3-2.5-2.3H5.6
		c-1.2,0-2.4,1.1-2.5,2.3L1.8,31.2c-0.1,1.1,1.3,2.2,2.8,2.8c0.4,0.1,0.6,0.5,0.6,0.9l0.4,17.9C5.6,53.3,5.2,53.8,4.7,53.8
		C4.7,53.8,4.7,53.8,4.7,53.8"/>
</g>
</svg>
