<svg width="46px" viewBox="0 0 46 45.7" preserveAspectRatio="xMidYMid meet">
<g>
	<path fill="#4AC8EF" d="M9.1,7c3.9-3.4,8.7-5.2,13.9-5.2C28.6,1.8,34,4,37.9,8c4,4,6.2,9.2,6.2,14.8c0,5.1-1.8,10-5.2,13.8L9.1,7z
		 M36.9,38.6c-3.9,3.4-8.7,5.2-13.9,5.2c-5.6,0-11-2.2-14.9-6.1c-4-4-6.2-9.2-6.2-14.8c0-5.1,1.8-10,5.2-13.8L36.9,38.6z M46,22.8
		c0-6.1-2.4-11.8-6.7-16.2C34.9,2.4,29.1,0,23,0C17.2,0,11.8,2.1,7.5,6C7.1,5.9,6.7,6,6.4,6.3C6.1,6.6,6,7,6,7.3c0,0,0,0.1,0,0.1
		c-3.9,4.2-6,9.6-6,15.4C0,28.9,2.4,34.7,6.7,39c4.3,4.3,10.1,6.7,16.3,6.7c5.8,0,11.2-2.1,15.5-5.9c0,0,0.1,0,0.1,0
		c0.4,0,0.7-0.1,1-0.4c0.3-0.3,0.4-0.7,0.4-1.1C43.9,34,46,28.6,46,22.8"/>
</g>
</svg>
