<svg width="64px" viewBox="0 0 64 33.7" preserveAspectRatio="xMidYMid meet">
<g>
	<path fill="#4AC8EF" d="M47.7,11.6H16.4c-0.4,0-0.8-0.3-0.8-0.8c0-0.4,0.4-0.8,0.8-0.8h31.3c0.4,0,0.8,0.3,0.8,0.8
		C48.5,11.2,48.1,11.6,47.7,11.6"/>
	<path fill="#4AC8EF" d="M32,10.7c-0.4,0-0.8-0.3-0.8-0.8V0.8C31.2,0.3,31.6,0,32,0c0.4,0,0.8,0.3,0.8,0.8V10
		C32.9,10.4,32.5,10.7,32,10.7"/>
	<path fill="#4AC8EF" d="M32.1,11.6c-4.7,0-10.1,5.8-10.1,10.9c0,5.3,4.5,9.6,10,9.6c5.5,0,10-4.3,10-9.6
		C42.1,17.3,36.9,11.6,32.1,11.6 M32,33.7c-6.4,0-11.6-5-11.6-11.2c0-6.1,6-12.5,11.7-12.5c5.7,0,11.6,6.3,11.6,12.5
		C43.7,28.7,38.5,33.7,32,33.7"/>
	<path fill="#4AC8EF" d="M26.5,19.9h11c-0.5-2.5-3.5-3.4-5.6-3.4C30.3,16.5,27.1,17.3,26.5,19.9 M38.4,21.5H25.6
		c-0.4,0-0.8-0.3-0.8-0.8c0-4,4.2-5.8,7.1-5.8c5.3,0,7.3,3.4,7.3,5.8C39.3,21.1,38.9,21.5,38.4,21.5"/>
	<rect x="17.3" y="24.1" fill="#4AC8EF" width="4.2" height="1.6"/>
	<rect x="3.3" y="24.1" fill="#4AC8EF" width="3.6" height="1.6"/>
	<path fill="#4AC8EF" d="M3.9,25.7H0.8c-0.4,0-0.8-0.3-0.8-0.8c0-0.4,0.4-0.8,0.8-0.8h3.1c0.4,0,0.8,0.3,0.8,0.8
		C4.7,25.3,4.4,25.7,3.9,25.7"/>
	<path fill="#4AC8EF" d="M12.1,25.7c-1.3,0-2.4,1-2.4,2.3s1.1,2.3,2.4,2.3c1.3,0,2.4-1,2.4-2.3S13.4,25.7,12.1,25.7 M12.1,31.8
		c-2.2,0-4-1.7-4-3.8c0-2.1,1.8-3.8,4-3.8c2.2,0,4,1.7,4,3.8C16.1,30.1,14.3,31.8,12.1,31.8"/>
	<rect x="42.6" y="24.1" fill="#4AC8EF" width="4.2" height="1.6"/>
	<rect x="57.1" y="24.1" fill="#4AC8EF" width="3.6" height="1.6"/>
	<path fill="#4AC8EF" d="M63.2,25.7h-3.1c-0.4,0-0.8-0.3-0.8-0.8c0-0.4,0.4-0.8,0.8-0.8h3.1c0.4,0,0.8,0.3,0.8,0.8
		C64,25.3,63.6,25.7,63.2,25.7"/>
	<path fill="#4AC8EF" d="M51.9,25.7c-1.3,0-2.4,1-2.4,2.3s1.1,2.3,2.4,2.3c1.3,0,2.4-1,2.4-2.3S53.2,25.7,51.9,25.7 M51.9,31.8
		c-2.2,0-4-1.7-4-3.8c0-2.1,1.8-3.8,4-3.8c2.2,0,4,1.7,4,3.8C55.9,30.1,54.1,31.8,51.9,31.8"/>
</g>
</svg>
