<svg width="60px" viewBox="0 0 60 30.4" preserveAspectRatio="xMidYMid meet">
<g>
	<polygon fill="#3DB54A" points="14.6,0 9.3,6.3 11.7,6.3 11.7,30.4 17.5,30.4 17.5,6.3 19.9,6.3 	"/>
	<polygon fill="#076C9F" points="0,13.6 2.4,13.6 2.4,30.4 8.2,30.4 8.2,13.6 10.6,13.6 5.3,7.2 	"/>
	<g>
		<defs>
			<rect id="SVGID_1_" width="60" height="30.4"/>
		</defs>
		<clipPath id="SVGID_2_">
			<use xlink:href="#SVGID_1_"  overflow="visible"/>
		</clipPath>
		<path clip-path="url(#SVGID_2_)" fill="#FFFFFF" d="M22.2,4.6h2.1c0.6,0,1,0.2,1.3,0.5c0.3,0.3,0.4,0.6,0.4,1v0
			c0,0.7-0.4,1.2-1,1.4l1.1,1.6h-1.2l-1-1.5h0h-0.8v1.5h-1V4.6z M24.2,6.8c0.5,0,0.8-0.3,0.8-0.6v0c0-0.4-0.3-0.7-0.8-0.7h-1v1.3
			H24.2z"/>
		<polygon clip-path="url(#SVGID_2_)" fill="#FFFFFF" points="26.7,4.6 30.2,4.6 30.2,5.5 27.7,5.5 27.7,6.4 29.9,6.4 29.9,7.3 
			27.7,7.3 27.7,8.3 30.2,8.3 30.2,9.2 26.7,9.2 		"/>
		<polygon clip-path="url(#SVGID_2_)" fill="#FFFFFF" points="32,5.5 30.6,5.5 30.6,4.6 34.4,4.6 34.4,5.5 33,5.5 33,9.2 32,9.2 		
			"/>
		<path clip-path="url(#SVGID_2_)" fill="#FFFFFF" d="M34.6,6.9L34.6,6.9c0-1.3,1-2.4,2.4-2.4c1.4,0,2.4,1.1,2.4,2.4v0
			c0,1.3-1,2.4-2.4,2.4C35.6,9.3,34.6,8.2,34.6,6.9 M38.4,6.9L38.4,6.9c0-0.8-0.6-1.5-1.4-1.5c-0.8,0-1.4,0.6-1.4,1.4v0
			c0,0.8,0.6,1.4,1.4,1.4C37.9,8.3,38.4,7.7,38.4,6.9"/>
		<polygon clip-path="url(#SVGID_2_)" fill="#FFFFFF" points="40.2,4.6 41.3,4.6 42.5,6.5 43.7,4.6 44.8,4.6 44.8,9.2 43.8,9.2 
			43.8,6.2 42.5,8.1 42.5,8.1 41.2,6.2 41.2,9.2 40.2,9.2 		"/>
		<path clip-path="url(#SVGID_2_)" fill="#FFFFFF" d="M47.3,4.6h0.9l2,4.6h-1.1l-0.4-1h-1.9l-0.4,1h-1L47.3,4.6z M48.3,7.3l-0.6-1.5
			l-0.6,1.5H48.3z"/>
		<path clip-path="url(#SVGID_2_)" fill="#FFFFFF" d="M50.7,4.6h1.8c1.4,0,2.4,1,2.4,2.3v0c0,1.3-1,2.3-2.4,2.3h-1.8V4.6z M52.5,8.3
			c0.8,0,1.4-0.6,1.4-1.4v0c0-0.8-0.6-1.4-1.4-1.4h-0.8v2.8H52.5z"/>
		<path clip-path="url(#SVGID_2_)" fill="#FFFFFF" d="M56.9,4.6h0.9l2,4.6h-1.1l-0.4-1h-1.9l-0.4,1h-1L56.9,4.6z M58,7.3l-0.6-1.5
			l-0.6,1.5H58z"/>
		<path clip-path="url(#SVGID_2_)" fill="#FFFFFF" d="M21.9,20.3l3.5-2.9c1.3-1.1,1.8-1.7,1.8-2.5c0-0.9-0.6-1.4-1.4-1.4
			c-0.8,0-1.4,0.5-2.2,1.4l-1.6-1.3c1-1.4,2.1-2.2,4-2.2c2.2,0,3.7,1.3,3.7,3.3v0c0,1.8-0.9,2.7-2.8,4.1l-1.7,1.3h4.6v2h-7.9V20.3z"
			/>
		<polygon clip-path="url(#SVGID_2_)" fill="#FFFFFF" points="33,13.8 31.1,14.3 30.6,12.4 33.7,11.5 35.3,11.5 35.3,22.2 33,22.2 
					"/>
		<rect x="37.1" y="16.4" clip-path="url(#SVGID_2_)" fill="#FFFFFF" width="4.7" height="2.2"/>
		<path clip-path="url(#SVGID_2_)" fill="#FFFFFF" d="M42.9,20.3l3.5-2.9c1.3-1.1,1.8-1.7,1.8-2.5c0-0.9-0.6-1.4-1.4-1.4
			c-0.8,0-1.4,0.5-2.2,1.4L43,13.6c1-1.4,2.1-2.2,4-2.2c2.2,0,3.7,1.3,3.7,3.3v0c0,1.8-0.9,2.7-2.8,4.1l-1.7,1.3h4.6v2h-7.9V20.3z"
			/>
		<path clip-path="url(#SVGID_2_)" fill="#FFFFFF" d="M51.9,20.3l3.5-2.9c1.3-1.1,1.8-1.7,1.8-2.5c0-0.9-0.6-1.4-1.4-1.4
			c-0.8,0-1.4,0.5-2.2,1.4l-1.6-1.3c1-1.4,2.1-2.2,4-2.2c2.2,0,3.7,1.3,3.7,3.3v0c0,1.8-0.9,2.7-2.8,4.1l-1.7,1.3h4.6v2h-7.9V20.3z"
			/>
		<path clip-path="url(#SVGID_2_)" fill="#FFFFFF" d="M21.9,29.7l0.6-0.7c0.4,0.3,0.8,0.6,1.4,0.6c0.4,0,0.7-0.2,0.7-0.4v0
			c0-0.3-0.2-0.4-0.9-0.6C22.6,28.2,22,28,22,27.1v0c0-0.8,0.7-1.4,1.6-1.4c0.7,0,1.2,0.2,1.7,0.6L24.8,27c-0.4-0.3-0.8-0.5-1.2-0.5
			c-0.4,0-0.6,0.2-0.6,0.4v0c0,0.3,0.2,0.4,1,0.6c0.9,0.2,1.5,0.6,1.5,1.4v0c0,0.9-0.7,1.4-1.7,1.4C23.1,30.4,22.4,30.1,21.9,29.7"
			/>
		<path clip-path="url(#SVGID_2_)" fill="#FFFFFF" d="M27.8,25.7h0.9l2,4.6h-1.1l-0.4-1h-1.9l-0.4,1h-1L27.8,25.7z M26.9,25.3
			c0.1-0.5,0.4-0.9,0.8-0.9c0.4,0,0.7,0.3,1,0.3c0.2,0,0.3-0.1,0.4-0.3l0.5,0.2c-0.2,0.6-0.4,0.9-0.8,0.9c-0.4,0-0.7-0.3-1-0.3
			c-0.2,0-0.3,0.1-0.4,0.3L26.9,25.3z M28.8,28.4l-0.6-1.5l-0.6,1.5H28.8z"/>
		<path clip-path="url(#SVGID_2_)" fill="#FFFFFF" d="M31,28L31,28c0-1.3,1-2.4,2.4-2.4c1.4,0,2.4,1.1,2.4,2.4v0
			c0,1.3-1,2.4-2.4,2.4C32,30.4,31,29.3,31,28 M34.8,28L34.8,28c0-0.8-0.6-1.5-1.4-1.5c-0.8,0-1.4,0.6-1.4,1.4v0
			c0,0.8,0.6,1.4,1.4,1.4C34.2,29.5,34.8,28.8,34.8,28"/>
		<path clip-path="url(#SVGID_2_)" fill="#FFFFFF" d="M38.4,25.8h1.9c1.1,0,1.8,0.6,1.8,1.6v0c0,1.1-0.8,1.6-1.8,1.6h-0.8v1.4h-1
			V25.8z M40.2,28.1c0.5,0,0.8-0.3,0.8-0.7v0c0-0.5-0.3-0.7-0.8-0.7h-0.8v1.4H40.2z"/>
		<path clip-path="url(#SVGID_2_)" fill="#FFFFFF" d="M43.7,25.7h0.9l2,4.6h-1.1l-0.4-1h-1.9l-0.4,1h-1L43.7,25.7z M44.7,28.4
			l-0.6-1.5l-0.6,1.5H44.7z"/>
		<path clip-path="url(#SVGID_2_)" fill="#FFFFFF" d="M46.9,28.4v-2.6h1v2.6c0,0.7,0.4,1.1,1,1.1c0.6,0,1-0.4,1-1.1v-2.6h1v2.6
			c0,1.4-0.8,2.1-2,2.1C47.6,30.4,46.9,29.7,46.9,28.4"/>
		<polygon clip-path="url(#SVGID_2_)" fill="#FFFFFF" points="51.7,25.8 52.7,25.8 52.7,29.4 55,29.4 55,30.3 51.7,30.3 		"/>
		<path clip-path="url(#SVGID_2_)" fill="#FFFFFF" d="M55.1,28L55.1,28c0-1.3,1-2.4,2.4-2.4c1.4,0,2.4,1.1,2.4,2.4v0
			c0,1.3-1,2.4-2.4,2.4S55.1,29.3,55.1,28 M58.9,28L58.9,28c0-0.8-0.6-1.5-1.4-1.5c-0.8,0-1.4,0.6-1.4,1.4v0c0,0.8,0.6,1.4,1.4,1.4
			C58.4,29.5,58.9,28.8,58.9,28"/>
	</g>
</g>
</svg>
