<svg width="66px" viewBox="0 0 66 27.9" preserveAspectRatio="xMidYMid meet">
<g>
	<g>
		<defs>
			<rect id="SVGID_1_" x="0" width="66" height="27.9"/>
		</defs>
		<clipPath id="SVGID_2_">
			<use xlink:href="#SVGID_1_"  overflow="visible"/>
		</clipPath>
		<path clip-path="url(#SVGID_2_)" fill="#FFFFFF" d="M20.2,2.6h3.3c1,0,2.2,0.3,2.2,2.4c0,2.4-1.3,2.6-2.2,2.5
			c-0.4,0-1.6-0.2-1.6-0.2v2.9h-1.7V2.6z M23.4,6C23.8,6,24,5.8,24,5c0-0.7-0.3-0.9-0.7-0.9h-1.5v2H23.4z"/>
		<path clip-path="url(#SVGID_2_)" fill="#FFFFFF" d="M29.4,2.6c1.8,0,3.1,0.3,3.1,3.9c0,3.3-1.2,3.8-3.1,3.8
			c-1.9,0-3.1-0.3-3.1-3.8C26.3,2.9,27.6,2.6,29.4,2.6 M29.4,8.7c1.1,0,1.4-0.4,1.4-2.2c0-2.1-0.3-2.4-1.4-2.4c-1,0-1.4,0.2-1.4,2.4
			C28,8.3,28.2,8.7,29.4,8.7"/>
		<path clip-path="url(#SVGID_2_)" fill="#FFFFFF" d="M33.3,2.6H35v5.5c0,0.6,0.3,0.5,0.6,0.5h2.4v1.5H35c-0.9,0-1.6-0.4-1.6-1.5
			V2.6z"/>
		<path clip-path="url(#SVGID_2_)" fill="#FFFFFF" d="M41.5,2.6c1.8,0,3.1,0.3,3.1,3.9c0,3.3-1.2,3.8-3.1,3.8
			c-1.9,0-3.1-0.3-3.1-3.8C38.4,2.9,39.8,2.6,41.5,2.6 M41.5,8.7c1.1,0,1.4-0.4,1.4-2.2c0-2.1-0.3-2.4-1.4-2.4c-1,0-1.4,0.2-1.4,2.4
			C40.1,8.3,40.4,8.7,41.5,8.7"/>
		<path clip-path="url(#SVGID_2_)" fill="#FFFFFF" d="M45.4,4.6c0-1.5,0.9-2,2.1-2c1.3,0,2.4,0.1,3.1,0.3v1.3
			c-0.7-0.1-2-0.1-2.5-0.1c-0.6,0-0.9,0-0.9,0.6V5c0,0.5,0.2,0.6,0.7,0.6h1.1c1.5,0,1.9,1.3,1.9,2.1v0.4c0,1.8-1.1,2.2-2.1,2.2
			c-1.6,0-2.2,0-3-0.3V8.6c0.4,0,1.7,0.1,2.7,0.1c0.4,0,0.8-0.1,0.8-0.6V7.9c0-0.4-0.1-0.6-0.6-0.6h-1.1c-1.9,0-2-1.5-2-2.1V4.6z"/>
		<path clip-path="url(#SVGID_2_)" fill="#FFFFFF" d="M54.2,2.6h3.4c2.1,0,2.6,1.8,2.6,3.8c0,2.4-0.8,3.8-2.6,3.8h-3.4V2.6z
			 M57.4,8.7c0.8,0,1.1-0.8,1.1-2.3c0-2-0.4-2.3-1.1-2.3h-1.5v4.6H57.4z"/>
		<path clip-path="url(#SVGID_2_)" fill="#FFFFFF" d="M60.9,4.3c0-1.4,1-1.7,1.8-1.7c0,0,2.5,0,3.4,0.2v1.4h-2.9
			c-0.5,0-0.5,0.3-0.5,0.6v0.9l2.9,0.1v1.4l-2.9,0.1v0.9c0,0.6,0.3,0.5,0.6,0.5H66v1.4c-0.8,0.1-3.3,0.2-3.3,0.2
			c-0.7,0-1.9-0.1-1.9-1.6V4.3z"/>
		<path clip-path="url(#SVGID_2_)" fill="#FFFFFF" d="M20.2,12.9h1.7c1,0,1.3,0.9,1.3,1.9c0,1.2-0.4,1.8-1.3,1.8h-1.7V12.9z
			 M21.8,15.9c0.4,0,0.5-0.4,0.5-1.1c0-1-0.2-1.2-0.5-1.2H21v2.3H21.8z"/>
		<path clip-path="url(#SVGID_2_)" fill="#FFFFFF" d="M23.5,13.7c0-0.7,0.5-0.8,0.9-0.8c0,0,1.2,0,1.7,0.1v0.7h-1.4
			c-0.3,0-0.3,0.1-0.3,0.3v0.4l1.4,0v0.7l-1.4,0v0.4c0,0.3,0.2,0.3,0.3,0.3H26v0.7c-0.4,0-1.6,0.1-1.6,0.1c-0.3,0-0.9-0.1-0.9-0.8
			V13.7z"/>
		<path clip-path="url(#SVGID_2_)" fill="#FFFFFF" d="M26.3,13.8c0-0.7,0.4-1,1-1c0.6,0,1.2,0,1.5,0.2v0.7c-0.3,0-1-0.1-1.2-0.1
			c-0.3,0-0.4,0-0.4,0.3V14c0,0.2,0.1,0.3,0.4,0.3h0.5c0.8,0,0.9,0.6,0.9,1v0.2c0,0.9-0.5,1.1-1,1.1c-0.8,0-1.1,0-1.5-0.2v-0.7
			c0.2,0,0.8,0.1,1.3,0.1c0.2,0,0.4,0,0.4-0.3v-0.1c0-0.2-0.1-0.3-0.3-0.3h-0.5c-0.9,0-1-0.7-1-1V13.8z"/>
		<path clip-path="url(#SVGID_2_)" fill="#FFFFFF" d="M29.4,13.7c0-0.7,0.5-0.8,0.9-0.8c0,0,1.2,0,1.7,0.1v0.7h-1.4
			c-0.3,0-0.3,0.1-0.3,0.3v0.4l1.4,0v0.7l-1.4,0v0.4c0,0.3,0.2,0.3,0.3,0.3h1.4v0.7c-0.4,0-1.6,0.1-1.6,0.1c-0.3,0-0.9-0.1-0.9-0.8
			V13.7z"/>
		<polygon clip-path="url(#SVGID_2_)" fill="#FFFFFF" points="32.3,12.9 33.1,12.9 34.4,15.1 34.4,12.9 35.3,12.9 35.3,16.6 
			34.4,16.6 33.1,14.5 33.1,16.6 32.3,16.6 		"/>
		<polygon clip-path="url(#SVGID_2_)" fill="#FFFFFF" points="36.5,12.9 37.2,15.6 38,12.9 38.9,12.9 37.7,16.6 36.7,16.6 
			35.6,12.9 		"/>
		<path clip-path="url(#SVGID_2_)" fill="#FFFFFF" d="M40.5,12.9c0.9,0,1.5,0.2,1.5,1.9c0,1.6-0.6,1.9-1.5,1.9
			c-0.9,0-1.5-0.2-1.5-1.9C39,13,39.7,12.9,40.5,12.9 M40.5,15.9c0.5,0,0.7-0.2,0.7-1.1c0-1-0.2-1.2-0.7-1.2c-0.5,0-0.7,0.1-0.7,1.2
			C39.8,15.7,39.9,15.9,40.5,15.9"/>
		<path clip-path="url(#SVGID_2_)" fill="#FFFFFF" d="M42.5,12.9h0.8v2.7c0,0.3,0.2,0.3,0.3,0.3h1.2v0.8h-1.5
			c-0.4,0-0.8-0.2-0.8-0.8V12.9z"/>
		<polygon clip-path="url(#SVGID_2_)" fill="#FFFFFF" points="45.4,12.9 46.1,15.6 46.9,12.9 47.8,12.9 46.6,16.6 45.6,16.6 
			44.5,12.9 		"/>
		<rect x="48.1" y="12.9" clip-path="url(#SVGID_2_)" fill="#FFFFFF" width="0.8" height="3.7"/>
		<polygon clip-path="url(#SVGID_2_)" fill="#FFFFFF" points="49.7,12.9 50.9,12.9 51.3,15.2 51.8,12.9 53,12.9 53.4,16.6 
			52.5,16.6 52.3,14.3 51.8,16.6 50.9,16.6 50.4,14.3 50.2,16.6 49.3,16.6 		"/>
		<path clip-path="url(#SVGID_2_)" fill="#FFFFFF" d="M53.7,13.7c0-0.7,0.5-0.8,0.9-0.8c0,0,1.2,0,1.7,0.1v0.7h-1.4
			c-0.3,0-0.3,0.1-0.3,0.3v0.4l1.4,0v0.7l-1.4,0v0.4c0,0.3,0.2,0.3,0.3,0.3h1.4v0.7c-0.4,0-1.6,0.1-1.6,0.1c-0.3,0-0.9-0.1-0.9-0.8
			V13.7z"/>
		<polygon clip-path="url(#SVGID_2_)" fill="#FFFFFF" points="56.6,12.9 57.5,12.9 58.8,15.1 58.8,12.9 59.6,12.9 59.6,16.6 
			58.8,16.6 57.5,14.5 57.5,16.6 56.6,16.6 		"/>
		<polygon clip-path="url(#SVGID_2_)" fill="#FFFFFF" points="59.9,12.9 62.7,12.9 62.7,13.6 61.7,13.6 61.7,16.6 60.9,16.6 
			60.9,13.6 59.9,13.6 		"/>
		<path clip-path="url(#SVGID_2_)" fill="#FFFFFF" d="M64.5,12.9c0.9,0,1.5,0.2,1.5,1.9c0,1.6-0.6,1.9-1.5,1.9
			c-0.9,0-1.5-0.2-1.5-1.9C63,13,63.6,12.9,64.5,12.9 M64.5,15.9c0.5,0,0.7-0.2,0.7-1.1c0-1-0.2-1.2-0.7-1.2c-0.5,0-0.7,0.1-0.7,1.2
			C63.8,15.7,63.9,15.9,64.5,15.9"/>
		<polygon clip-path="url(#SVGID_2_)" fill="#572B7C" points="11.7,23.7 9.8,25.6 12.1,27.9 18.1,21.9 		"/>
		<polygon clip-path="url(#SVGID_2_)" fill="#1C76BC" points="17.1,3.2 18.1,4.1 18.1,0 14,0 14.9,0.9 0,15.8 10.8,9.5 		"/>
		<polygon clip-path="url(#SVGID_2_)" fill="#8C191C" points="18,15.4 9.4,19.5 6.5,22.4 12.9,20.5 		"/>
		<polygon clip-path="url(#SVGID_2_)" fill="#046938" points="18,8.9 7.2,15.2 3.3,19.1 11.8,15 		"/>
		<polygon clip-path="url(#SVGID_2_)" fill="#EB0D8C" points="8.8,24.6 6.5,22.4 15.8,19.6 18.1,21.9 		"/>
		<polygon clip-path="url(#SVGID_2_)" fill="#FED401" points="5.5,21.3 3.3,19.1 15.8,13.1 18,15.4 		"/>
		<polygon clip-path="url(#SVGID_2_)" fill="#BDD631" points="2.2,18.1 0,15.8 15.8,6.6 18,8.9 		"/>
		<path clip-path="url(#SVGID_2_)" fill="#FFFFFF" d="M20.2,21.1c0-1.3,0.8-1.7,1.8-1.7c1.1,0,2.1,0.1,2.7,0.3v1.2
			c-0.6-0.1-1.7-0.1-2.2-0.1c-0.5,0-0.8,0-0.8,0.5v0.2c0,0.4,0.1,0.5,0.6,0.5h1c1.3,0,1.6,1.1,1.6,1.8v0.4c0,1.6-0.9,1.9-1.8,1.9
			c-1.4,0-1.9,0-2.6-0.3v-1.2c0.4,0,1.5,0.1,2.3,0.1c0.4,0,0.7-0.1,0.7-0.5V24c0-0.3-0.1-0.5-0.5-0.5h-0.9c-1.6,0-1.7-1.3-1.7-1.8
			V21.1z"/>
		<path clip-path="url(#SVGID_2_)" fill="#FFFFFF" d="M27.3,19.4H29l2.1,6.6h-1.5l-0.4-1.3h-2L26.7,26h-1.5L27.3,19.4z M27.7,17.6
			c0.4,0,0.6,0.3,1,0.3c0.3,0,0.6-0.2,0.8-0.4l0.2,0.6c-0.2,0.3-0.6,0.6-1,0.6c-0.4,0-0.7-0.3-1-0.3c-0.4,0-0.5,0.1-0.8,0.3
			l-0.2-0.6C26.9,17.9,27.2,17.6,27.7,17.6 M28.8,23.4l-0.6-2.1l-0.7,2.1H28.8z"/>
		<path clip-path="url(#SVGID_2_)" fill="#FFFFFF" d="M34,19.3c1.6,0,2.7,0.3,2.7,3.4c0,2.9-1.1,3.3-2.7,3.3c-1.6,0-2.7-0.3-2.7-3.3
			C31.3,19.6,32.5,19.3,34,19.3 M34,24.7c0.9,0,1.2-0.3,1.2-1.9c0-1.8-0.3-2-1.2-2c-0.9,0-1.2,0.2-1.2,2C32.8,24.3,33,24.7,34,24.7"
			/>
		<path clip-path="url(#SVGID_2_)" fill="#FFFFFF" d="M39.6,19.4h2.9c0.9,0,1.9,0.2,1.9,2.1c0,2-1.1,2.2-1.9,2.2
			c-0.4,0-1.4-0.2-1.4-0.2V26h-1.5V19.4z M42.3,22.3c0.4,0,0.6-0.2,0.6-0.9c0-0.6-0.3-0.8-0.6-0.8h-1.3v1.7H42.3z"/>
		<path clip-path="url(#SVGID_2_)" fill="#FFFFFF" d="M46.3,19.4H48l2.1,6.6h-1.5l-0.4-1.3h-2L45.7,26h-1.5L46.3,19.4z M47.8,23.4
			l-0.6-2.1l-0.7,2.1H47.8z"/>
		<path clip-path="url(#SVGID_2_)" fill="#FFFFFF" d="M50.3,19.4h1.5v3.7c0,1.2,0.2,1.6,1.1,1.6c0.8,0,1-0.4,1-1.6v-3.7h1.5v3.7
			c0,2.9-1.4,2.9-2.5,2.9c-1.2,0-2.6,0.1-2.6-2.9V19.4z"/>
		<path clip-path="url(#SVGID_2_)" fill="#FFFFFF" d="M56.2,19.4h1.5v4.8c0,0.5,0.3,0.5,0.6,0.5h2.1V26h-2.7c-0.8,0-1.4-0.3-1.4-1.3
			V19.4z"/>
		<path clip-path="url(#SVGID_2_)" fill="#FFFFFF" d="M63.3,19.3c1.6,0,2.7,0.3,2.7,3.4c0,2.9-1.1,3.3-2.7,3.3
			c-1.6,0-2.7-0.3-2.7-3.3C60.6,19.6,61.8,19.3,63.3,19.3 M63.3,24.7c0.9,0,1.2-0.3,1.2-1.9c0-1.8-0.3-2-1.2-2c-0.9,0-1.2,0.2-1.2,2
			C62.1,24.3,62.3,24.7,63.3,24.7"/>
	</g>
</g>
</svg>
