<svg width="51px" viewBox="0 0 51 48.4" preserveAspectRatio="xMidYMid meet">
<path fill="#4AC8EF" d="M16.1,17.7c0,0.3-0.3,0.6-0.6,0.6c-0.3,0-0.6-0.3-0.6-0.6c0-0.3,0.3-0.6,0.6-0.6
	C15.9,17.1,16.1,17.4,16.1,17.7"/>
<path fill="#4AC8EF" d="M15.5,17.3c-0.2,0-0.3,0.2-0.3,0.4c0,0.2,0.2,0.4,0.3,0.4c0.2,0,0.3-0.2,0.3-0.4
	C15.9,17.5,15.7,17.3,15.5,17.3 M15.5,19.2c-0.8,0-1.5-0.7-1.5-1.5c0-0.8,0.7-1.5,1.5-1.5c0.8,0,1.5,0.7,1.5,1.5
	C17.1,18.5,16.4,19.2,15.5,19.2"/>
<path fill="#4AC8EF" d="M44.9,20.4c-0.3,0-0.7-0.2-0.8-0.5c-0.2-0.5,0-1,0.4-1.2l5.1-2.5c0.5-0.2,1,0,1.2,0.4c0.2,0.5,0,1-0.4,1.3
	l-5.1,2.5C45.2,20.4,45.1,20.4,44.9,20.4"/>
<path fill="#4AC8EF" d="M34,48.4h-3.3c-1.3,0-2.4-1.1-2.4-2.4v-2.7c-0.3,0-0.6,0-1,0h-2.9c-0.3,0-0.6,0-0.9,0V46
	c0,1.3-1.1,2.4-2.4,2.4h-3.3c-1.3,0-2.4-1.1-2.4-2.4v-4.8c-3.7-1.8-6.7-4.7-8.6-8.2l-3.4,0c-0.4,0-0.8-0.3-0.9-0.7
	c-2.6-8.8-3.3-13.9-2-15.1C1,16.9,1.5,16.8,2,17c2.8,1,5.2,0.1,5.4,0c1.6-2.7,3.8-4.9,6.6-6.5l-0.1-6.1c0-0.3,0.1-0.5,0.3-0.7
	c0.2-0.2,0.4-0.3,0.7-0.3c3.3,0,6,3.2,6.9,4.4c1-0.1,1.9-0.2,2.7-0.2h2v1.9h-2c-0.9,0-1.8,0.1-2.9,0.2c0,0-0.1,0-0.2,0l-0.1,0
	c-0.3,0-0.6-0.2-0.8-0.4c0,0-2.2-3.3-4.8-3.9l0.1,5.6c0,0.2-0.1,0.5-0.2,0.6c-0.1,0.1-0.2,0.2-0.3,0.2c-2.7,1.5-4.9,3.6-6.4,6.2
	c0,0,0,0.1-0.1,0.1c-0.1,0.1-0.2,0.3-0.6,0.5c-0.3,0.2-3.2,1.2-6.5,0.3c-0.2,1.7,1,7.3,2.4,12.2l3.2,0c0.4,0,0.7,0.2,0.8,0.5
	c1.7,3.5,4.7,6.4,8.4,8.1l0.1,0.1c0.3,0.2,0.5,0.5,0.5,0.8V46c0,0.3,0.3,0.6,0.6,0.6h3.3c0.3,0,0.6-0.3,0.6-0.6v-3.7
	c0-0.3,0.1-0.5,0.3-0.7c0.2-0.2,0.4-0.3,0.7-0.2c0.6,0.1,1.2,0.1,1.8,0.1h2.9c0.6,0,1.3,0,1.8-0.1c0.3,0,0.5,0.1,0.7,0.2
	c0.2,0.2,0.3,0.4,0.3,0.7V46c0,0.3,0.3,0.6,0.6,0.6H34c0.3,0,0.6-0.3,0.6-0.6v-5.4c0-0.4,0.2-0.7,0.6-0.9c6-2.7,9.9-8.3,9.9-14.3
	c0-4.9-2.4-9.4-6.7-12.5l1.1-1.5c4.8,3.4,7.5,8.5,7.5,14c0,6.5-4.1,12.7-10.5,15.8V46C36.4,47.4,35.3,48.4,34,48.4"/>
<path fill="#4AC8EF" d="M34.1,1.9c-2.1,0-3.8,1.7-3.8,3.8c0,2.1,1.7,3.8,3.8,3.8c2.1,0,3.8-1.7,3.8-3.8C37.9,3.6,36.2,1.9,34.1,1.9
	 M34.1,11.3c-3.1,0-5.6-2.5-5.6-5.7C28.5,2.5,31,0,34.1,0c3.1,0,5.6,2.5,5.6,5.7C39.8,8.8,37.2,11.3,34.1,11.3"/>
<path fill="#4AC8EF" d="M32.5,15.9c-0.1,0-0.2,0-0.4-0.1c-3.2-1.4-7.3-0.4-7.3-0.4c-0.5,0.1-1-0.2-1.1-0.7c-0.1-0.5,0.2-1,0.7-1.1
	c0.2,0,4.7-1.1,8.5,0.5c0.5,0.2,0.7,0.8,0.5,1.2C33.2,15.6,32.8,15.9,32.5,15.9"/>
</svg>
