<svg width="56px" viewBox="0 0 56 47" preserveAspectRatio="xMidYMid meet">
<g>
	<path fill="#4AC8EF" d="M52.2,47H3.8C1.7,47,0,45.3,0,43.1V13c0-2.1,1.7-3.9,3.8-3.9h15.8v2.3H3.8c-0.9,0-1.6,0.7-1.6,1.6v30.1
		c0,0.9,0.7,1.6,1.6,1.6h48.4c0.9,0,1.6-0.7,1.6-1.6V13c0-0.9-0.7-1.6-1.6-1.6H36.3V9.1h15.9c2.1,0,3.8,1.7,3.8,3.9v30.1
		C56,45.3,54.3,47,52.2,47"/>
	<path fill="#4AC8EF" d="M47.8,23H32.2c-0.6,0-1.1-0.5-1.1-1.1c0-0.6,0.5-1.1,1.1-1.1h15.6c0.6,0,1.1,0.5,1.1,1.1
		C49,22.5,48.5,23,47.8,23"/>
	<path fill="#4AC8EF" d="M47.8,29.8H32.2c-0.6,0-1.1-0.5-1.1-1.1c0-0.6,0.5-1.1,1.1-1.1h15.6c0.6,0,1.1,0.5,1.1,1.1
		C49,29.2,48.5,29.8,47.8,29.8"/>
	<path fill="#4AC8EF" d="M47.8,36.6H32.2c-0.6,0-1.1-0.5-1.1-1.1c0-0.6,0.5-1.1,1.1-1.1h15.6c0.6,0,1.1,0.5,1.1,1.1
		C49,36,48.5,36.6,47.8,36.6"/>
	<path fill="#4AC8EF" d="M27.5,45.6h-2.3v-5.9c0-2.9-2.1-4.3-4.4-4.5l-3.4,4.1c-0.2,0.3-0.5,0.4-0.8,0.4c-0.3,0-0.6-0.1-0.9-0.4
		l-3.7-4.1C9.6,35.4,8,37.1,8,39.8v5.9H5.8v-5.9c0-4.1,2.7-6.8,6.8-6.8c0.3,0,0.6,0.1,0.8,0.4l3.2,3.5l2.9-3.5
		c0.2-0.3,0.5-0.4,0.9-0.4c4.1,0,7.1,2.9,7.1,6.8V45.6z"/>
	<path fill="#4AC8EF" d="M16.6,19.7c-2,0-3.7,1.7-3.7,3.8v1.8c0,2.1,1.7,3.8,3.7,3.8c2,0,3.7-1.7,3.7-3.8v-1.8
		C20.3,21.4,18.7,19.7,16.6,19.7 M16.6,31.4c-3.3,0-5.9-2.7-5.9-6.1v-1.8c0-3.4,2.7-6.1,5.9-6.1c3.3,0,5.9,2.7,5.9,6.1v1.8
		C22.6,28.7,19.9,31.4,16.6,31.4"/>
	<polygon fill="#4AC8EF" points="32.8,13.6 30.5,13.6 30.5,2.3 25.5,2.3 25.5,13.6 23.2,13.6 23.2,0 32.8,0 	"/>
	<rect x="21" y="13" fill="#4AC8EF" width="14" height="2.3"/>
</g>
</svg>
