<svg width="57px" viewBox="0 0 57 53.9" preserveAspectRatio="xMidYMid meet">
<path fill="#4AC8EF" d="M17.7,4h21.6v5.9H17.7V4z M17.2,10.9h22.6c0.3,0,0.5-0.2,0.5-0.5V3.6c0-0.3-0.2-0.5-0.5-0.5H17.2
	c-0.3,0-0.5,0.2-0.5,0.5v6.8C16.7,10.7,17,10.9,17.2,10.9"/>
<path fill="#4AC8EF" d="M12.2,7c0-0.6,0.5-1,1.1-1c0.6,0,1.1,0.5,1.1,1c0,0.6-0.5,1-1.1,1C12.7,8,12.2,7.6,12.2,7 M13.3,9
	c1.1,0,2-0.9,2-2s-0.9-2-2-2c-1.1,0-2,0.9-2,2S12.2,9,13.3,9"/>
<path fill="#4AC8EF" d="M44.8,7c0,0.6-0.5,1-1.1,1c-0.6,0-1.1-0.5-1.1-1c0-0.6,0.5-1,1.1-1C44.3,5.9,44.8,6.4,44.8,7 M43.7,5
	c-1.1,0-2,0.9-2,2s0.9,2,2,2c1.1,0,2-0.9,2-2S44.8,5,43.7,5"/>
<path fill="#4AC8EF" d="M29,14.4h15.7v16.3H29V14.4z M12.3,14.4H28v16.3H12.3V14.4z M45.1,13.5H11.9c-0.3,0-0.5,0.2-0.5,0.5v17.3
	c0,0.3,0.2,0.5,0.5,0.5h33.3c0.3,0,0.5-0.2,0.5-0.5V14C45.6,13.7,45.4,13.5,45.1,13.5"/>
<path fill="#4AC8EF" d="M16.7,37c0,1.2-1,2.1-2.2,2.1c-1.2,0-2.2-1-2.2-2.1c0-1.2,1-2.1,2.2-2.1C15.7,34.9,16.7,35.9,16.7,37
	 M14.5,34c-1.7,0-3.2,1.4-3.2,3.1c0,1.7,1.4,3.1,3.2,3.1c1.7,0,3.2-1.4,3.2-3.1C17.7,35.3,16.3,34,14.5,34"/>
<path fill="#4AC8EF" d="M44.7,37c0,1.2-1,2.1-2.2,2.1c-1.2,0-2.2-1-2.2-2.1c0-1.2,1-2.1,2.2-2.1C43.7,34.9,44.7,35.9,44.7,37
	 M42.5,34c-1.7,0-3.2,1.4-3.2,3.1c0,1.7,1.4,3.1,3.2,3.1c1.7,0,3.2-1.4,3.2-3.1C45.6,35.3,44.2,34,42.5,34"/>
<path fill="#4AC8EF" d="M35,34.2H22c-0.3,0-0.5,0.2-0.5,0.5c0,0.3,0.2,0.5,0.5,0.5h13c0.3,0,0.5-0.2,0.5-0.5
	C35.5,34.4,35.3,34.2,35,34.2"/>
<path fill="#4AC8EF" d="M35,36.6H22c-0.3,0-0.5,0.2-0.5,0.5c0,0.3,0.2,0.5,0.5,0.5h13c0.3,0,0.5-0.2,0.5-0.5
	C35.5,36.8,35.3,36.6,35,36.6"/>
<path fill="#4AC8EF" d="M35,38.9H22c-0.3,0-0.5,0.2-0.5,0.5c0,0.3,0.2,0.5,0.5,0.5h13c0.3,0,0.5-0.2,0.5-0.5
	C35.5,39.1,35.3,38.9,35,38.9"/>
<path fill="#4AC8EF" d="M4.9,20.9H1v-8.3h3.9V20.9z M7.9,41.8V6.9c0-3.3,2.7-5.9,6.1-5.9H43c3.4,0,6.1,2.7,6.1,5.9v34.9H7.9z
	 M5,42.7h47v3.1H5V42.7z M11.9,51.3c0.3,0,0.5-0.2,0.5-0.5v-4.2h2.8v4.2c0,0.3,0.2,0.5,0.5,0.5c0.3,0,0.5-0.2,0.5-0.5v-4.2h1.7V53
	H9.7v-6.3h1.7v4.2C11.4,51.1,11.6,51.3,11.9,51.3 M41.4,51.3c0.3,0,0.5-0.2,0.5-0.5v-4.2h2.8v4.2c0,0.3,0.2,0.5,0.5,0.5
	c0.3,0,0.5-0.2,0.5-0.5v-4.2h1.7V53h-8.1v-6.3h1.7v4.2C40.9,51.1,41.1,51.3,41.4,51.3 M56,20.9h-3.9v-8.3H56V20.9z M56.5,11.6h-4.9
	c-0.3,0-0.5,0.2-0.5,0.5v9.3c0,0.3,0.2,0.5,0.5,0.5h1.9v1.9H50V6.9C50,3.1,46.9,0,43,0H14C10.1,0,7,3.1,7,6.9v16.8H3.4v-1.9h1.9
	c0.3,0,0.5-0.2,0.5-0.5v-9.3c0-0.3-0.2-0.5-0.5-0.5H0.5c-0.3,0-0.5,0.2-0.5,0.5v9.3c0,0.3,0.2,0.5,0.5,0.5h1.9v2.4
	c0,0.3,0.2,0.5,0.5,0.5h4v17.1H4.5C4.3,41.8,4,42,4,42.2v4c0,0.3,0.2,0.5,0.5,0.5h4.2v6.7c0,0.3,0.2,0.5,0.5,0.5h9.1
	c0.3,0,0.5-0.2,0.5-0.5v-6.7h19.5v6.7c0,0.3,0.2,0.5,0.5,0.5h9.1c0.3,0,0.5-0.2,0.5-0.5v-6.7h4.2c0.3,0,0.5-0.2,0.5-0.5v-4
	c0-0.3-0.2-0.5-0.5-0.5H50V24.6h4c0.3,0,0.5-0.2,0.5-0.5v-2.4h1.9c0.3,0,0.5-0.2,0.5-0.5v-9.3C57,11.8,56.8,11.6,56.5,11.6"/>
</svg>
