<svg width="53px" viewBox="0 0 53 41.8" preserveAspectRatio="xMidYMid meet">
<g>
	<path fill="#4AC8EF" d="M6.4,33.8H4.9V12c0-2,1.7-3.7,3.8-3.7h9.1v1.4H8.7c-1.3,0-2.3,1-2.3,2.2V33.8z"/>
	<path fill="#4AC8EF" d="M1.8,37.8c0.4,1,1.3,2.6,2.8,2.6h43.8c1.6,0,2.4-1.6,2.8-2.6H1.8z M48.4,41.8H4.6c-3.5,0-4.5-4.5-4.6-4.6
		c0-0.2,0-0.4,0.2-0.6c0.1-0.2,0.4-0.3,0.6-0.3h51.5c0.2,0,0.4,0.1,0.6,0.3C53,36.8,53,37,53,37.2C52.9,37.4,51.9,41.8,48.4,41.8"/>
	<path fill="#4AC8EF" d="M35.8,7.4c0,0.2-0.2,0.4-0.4,0.4c-0.2,0-0.4-0.2-0.4-0.4c0-0.2,0.2-0.4,0.4-0.4C35.6,7,35.8,7.2,35.8,7.4"
		/>
	<path fill="#4AC8EF" d="M35.3,7.1c-0.2,0-0.3,0.1-0.3,0.3c0,0.2,0.1,0.3,0.3,0.3c0.2,0,0.3-0.1,0.3-0.3C35.6,7.3,35.5,7.1,35.3,7.1
		 M35.3,8.6c-0.7,0-1.2-0.5-1.2-1.2c0-0.6,0.5-1.2,1.2-1.2c0.7,0,1.2,0.5,1.2,1.2C36.5,8.1,36,8.6,35.3,8.6"/>
	<path fill="#4AC8EF" d="M40.5,7.4c0,0.2-0.2,0.4-0.4,0.4c-0.2,0-0.4-0.2-0.4-0.4C39.6,7.2,39.8,7,40,7C40.3,7,40.5,7.2,40.5,7.4"/>
	<path fill="#4AC8EF" d="M40,7.1c-0.2,0-0.3,0.1-0.3,0.3c0,0.2,0.1,0.3,0.3,0.3c0.2,0,0.3-0.1,0.3-0.3C40.3,7.3,40.2,7.1,40,7.1
		 M40,8.6c-0.7,0-1.2-0.5-1.2-1.2c0-0.6,0.5-1.2,1.2-1.2c0.7,0,1.2,0.5,1.2,1.2C41.2,8.1,40.7,8.6,40,8.6"/>
	<path fill="#4AC8EF" d="M45.2,7.4c0,0.2-0.2,0.4-0.4,0.4c-0.2,0-0.4-0.2-0.4-0.4c0-0.2,0.2-0.4,0.4-0.4C45,7,45.2,7.2,45.2,7.4"/>
	<path fill="#4AC8EF" d="M44.8,7.1c-0.2,0-0.3,0.1-0.3,0.3c0,0.2,0.1,0.3,0.3,0.3c0.2,0,0.3-0.1,0.3-0.3C45.1,7.3,44.9,7.1,44.8,7.1
		 M44.8,8.6c-0.7,0-1.2-0.5-1.2-1.2c0-0.6,0.5-1.2,1.2-1.2c0.7,0,1.2,0.5,1.2,1.2C45.9,8.1,45.4,8.6,44.8,8.6"/>
	<path fill="#4AC8EF" d="M26.5,7.9c-1.8,0-3.1,0.4-3.8,1.1c-1,1.1-1,3.1-0.8,5.1c0.4,3.7,2.7,6.3,4.6,6.3c1.9,0,4.2-2.6,4.6-6.3
		c0.2-2,0.2-4-0.8-5.1C29.6,8.3,28.4,7.9,26.5,7.9 M26.5,21.9c-2.9,0-5.7-3.5-6.1-7.7c-0.2-2.3-0.2-4.7,1.2-6.2
		c1-1.1,2.6-1.6,4.9-1.6c2.3,0,3.9,0.5,4.9,1.6c1.4,1.5,1.4,3.9,1.2,6.2C32.2,18.4,29.4,21.9,26.5,21.9"/>
	<path fill="#4AC8EF" d="M31.8,13.9c-0.1,0-0.1,0-0.2,0c-1.6-0.4-2.8-1.1-3.4-1.7c-0.6,0.5-1.6,1.1-3.5,1.4
		c-0.4,0.1-0.8-0.2-0.9-0.6c-0.1-0.4,0.2-0.8,0.6-0.8c2.4-0.4,2.9-1.3,2.9-1.3c0.1-0.2,0.3-0.3,0.6-0.4c0.2,0,0.5,0,0.6,0.2
		c0,0,1.3,1.3,3.4,1.8c0.4,0.1,0.6,0.5,0.5,0.9C32.4,13.7,32.1,13.9,31.8,13.9"/>
	<path fill="#4AC8EF" d="M50.4,14.9H35.1v-1.4h14.5v-12H29.3v2.9h-1.5V0.7c0-0.4,0.3-0.7,0.7-0.7h21.8c0.4,0,0.7,0.3,0.7,0.7v13.4
		C51.1,14.5,50.8,14.9,50.4,14.9"/>
	<path fill="#4AC8EF" d="M37.8,33.8h-1.5v-5.7c0-2.5-3.3-3.4-3.4-3.4l-1.5-0.5l-4.4,5.3c-0.3,0.3-0.9,0.3-1.2,0l-4.4-5.3L20,24.7
		c-0.2,0-3.4,0.9-3.4,3.4v5.7h-1.5v-5.7c0-3.7,4.3-4.7,4.5-4.8l2-0.6c0.3-0.1,0.6,0,0.8,0.2l4.1,4.9l4.1-4.9
		c0.2-0.2,0.5-0.3,0.8-0.2l2,0.6c0.1,0,4.5,1.1,4.5,4.8V33.8z"/>
	<path fill="#4AC8EF" d="M36.7,18.9c-0.2,0-0.3-0.1-0.5-0.2c-0.3-0.3-0.4-0.7-0.1-1l3.5-4c0.3-0.3,0.7-0.3,1.1-0.1
		c0.3,0.3,0.4,0.7,0.1,1l-3.5,4C37.2,18.8,36.9,18.9,36.7,18.9"/>
	<rect x="45.9" y="17.2" fill="#4AC8EF" width="1.5" height="16.6"/>
</g>
</svg>
