<svg width="50px" viewBox="0 0 50 42.5" preserveAspectRatio="xMidYMid meet">
<g>
	<rect x="2.2" y="13.2" fill="#4AC8EF" width="45.6" height="2"/>
	<rect x="2.2" y="29.3" fill="#4AC8EF" width="45.6" height="2"/>
	<rect x="16.4" y="14.2" fill="#4AC8EF" width="2" height="16"/>
	<rect x="24" y="14.2" fill="#4AC8EF" width="2" height="16"/>
	<rect x="31.6" y="14.2" fill="#4AC8EF" width="2" height="16"/>
	<rect x="39.2" y="14.2" fill="#4AC8EF" width="2" height="16"/>
	<rect x="8.8" y="14.2" fill="#4AC8EF" width="2" height="16"/>
	<rect x="2.2" y="35.7" fill="#4AC8EF" width="45.6" height="2"/>
	<rect x="46.9" y="6.4" fill="#4AC8EF" width="2" height="18.4"/>
	<path fill="#4AC8EF" d="M47.8,42.5c-0.5,0-1-0.4-1-1v-32c0-0.5,0.4-1,1-1c0.5,0,1,0.4,1,1v32C48.8,42.1,48.4,42.5,47.8,42.5"/>
	<path fill="#4AC8EF" d="M49,2.2c0,0.6-0.5,1.2-1.2,1.2c-0.6,0-1.2-0.5-1.2-1.2c0-0.6,0.5-1.2,1.2-1.2C48.5,1,49,1.5,49,2.2"/>
	<path fill="#4AC8EF" d="M47.8,2c-0.1,0-0.2,0.1-0.2,0.2c0,0.2,0.3,0.2,0.3,0C48,2.1,47.9,2,47.8,2 M47.8,4.3c-1.2,0-2.2-1-2.2-2.2
		c0-1.2,1-2.2,2.2-2.2C49,0,50,1,50,2.2C50,3.3,49,4.3,47.8,4.3"/>
	<rect x="1.2" y="6.4" fill="#4AC8EF" width="2" height="18.4"/>
	<path fill="#4AC8EF" d="M2.2,42.5c-0.5,0-1-0.4-1-1v-32c0-0.5,0.4-1,1-1c0.5,0,1,0.4,1,1v32C3.1,42.1,2.7,42.5,2.2,42.5"/>
	<path fill="#4AC8EF" d="M3.3,2.2c0,0.6-0.5,1.2-1.2,1.2S1,2.8,1,2.2C1,1.5,1.5,1,2.2,1S3.3,1.5,3.3,2.2"/>
	<path fill="#4AC8EF" d="M2.2,2C2.1,2,2,2.1,2,2.2c0,0.2,0.3,0.2,0.3,0C2.3,2.1,2.2,2,2.2,2 M2.2,4.3C1,4.3,0,3.3,0,2.2
		C0,1,1,0,2.2,0c1.2,0,2.2,1,2.2,2.2C4.3,3.3,3.3,4.3,2.2,4.3"/>
</g>
</svg>
