<svg width="44px" viewBox="0 0 44 81" preserveAspectRatio="xMidYMid meet">
<path fill="#4AC8EF" d="M6.4,54.6c-2,0-3.9-0.9-5.1-2.5c-1.2-1.6-1.6-3.6-1.1-5.6l1.4-4.8c0.3-0.9,0.3-1.8,0-2.7l-1.3-4.8
	c-0.5-1.9-0.1-3.9,1.1-5.5c1.2-1.6,3.1-2.5,5.2-2.5h1.5c0.4,0,0.7,0.3,0.7,0.7c0,0.4-0.3,0.7-0.7,0.7H6.6c-1.6,0-3.1,0.7-4,2
	c-1,1.3-1.3,2.8-0.9,4.3L3,38.8c0.3,1.1,0.3,2.3,0,3.4L1.6,47c-0.4,1.5-0.1,3.1,0.8,4.3c1,1.2,2.4,1.9,4,1.9h0h1.5
	c0.4,0,0.7,0.3,0.7,0.7s-0.3,0.7-0.7,0.7H6.4L6.4,54.6z"/>
<path fill="#4AC8EF" d="M37.6,54.6L37.6,54.6h-1.6c-0.4,0-0.7-0.3-0.7-0.7s0.3-0.7,0.7-0.7h1.6h0c1.6,0,3-0.7,4-1.9
	c1-1.2,1.3-2.8,0.8-4.3L41,42.2c-0.3-1.1-0.3-2.3,0-3.4l1.3-4.7c0.4-1.5,0.1-3.1-0.9-4.3c-1-1.3-2.5-2-4.1-2h-1.3
	c-0.4,0-0.7-0.3-0.7-0.7c0-0.4,0.3-0.7,0.7-0.7h1.3c2,0,3.9,0.9,5.2,2.5c1.2,1.6,1.6,3.6,1.1,5.5l-1.3,4.8c-0.2,0.9-0.2,1.8,0,2.7
	l1.4,4.8c0.6,1.9,0.2,4-1.1,5.6C41.5,53.7,39.6,54.6,37.6,54.6"/>
<path fill="#4AC8EF" d="M36.1,27.8C36,27.8,36,27.8,36.1,27.8c-0.5,0-0.7-0.4-0.7-0.8c0.3-2.9,0.7-5.9,1.2-8.8l0.4-2.4
	c0-3.9-1.5-7.5-4.3-10.2c-2.8-2.7-6.5-4.2-10.4-4.2h-0.1C14,1.4,7.3,8,7.3,16l0.4,2.4c0.5,2.9,0.8,5.8,1.1,8.6
	c0,0.4-0.2,0.7-0.6,0.8c-0.4,0-0.7-0.2-0.8-0.6c-0.3-2.8-0.6-5.7-1.1-8.5l-0.4-2.5c0,0,0-0.1,0-0.1c0-8.8,7.4-16,16.3-16h0.1
	c4.3,0,8.4,1.6,11.4,4.6c3.1,3,4.7,7,4.7,11.3c0,0,0,0.1,0,0.1L38,18.5c-0.5,2.9-0.9,5.8-1.2,8.7C36.7,27.5,36.4,27.8,36.1,27.8"/>
<path fill="#4AC8EF" d="M21.7,81c-4.3,0-8.4-1.6-11.4-4.6c-3.1-3-4.7-7-4.7-11.3c0,0,0-0.1,0-0.1L6,62.6c0.5-2.9,0.9-5.8,1.2-8.7
	c0-0.4,0.4-0.7,0.8-0.6c0.4,0,0.7,0.4,0.6,0.8c-0.3,2.9-0.7,5.9-1.2,8.8L7,65.2c0,3.9,1.5,7.5,4.3,10.2c2.8,2.7,6.5,4.2,10.4,4.2
	h0.1c8.2,0,14.9-6.6,14.9-14.6l-0.4-2.4c-0.5-2.9-0.8-5.8-1.1-8.6c0-0.4,0.2-0.7,0.6-0.8c0.4,0,0.7,0.2,0.8,0.6
	c0.3,2.8,0.6,5.7,1.1,8.5l0.4,2.5c0,0,0,0.1,0,0.1C38.1,73.8,30.8,81,21.7,81L21.7,81z"/>
<path fill="#4AC8EF" d="M24.1,6c0,0-0.1,0-0.1,0c-0.6-0.1-1.2-0.1-1.8-0.1h-0.1c-0.3,0-0.6,0-0.8,0c-0.4,0-0.7-0.3-0.8-0.6
	c0-0.4,0.3-0.7,0.6-0.7c0.3,0,0.6,0,0.9,0h0.1c0.7,0,1.3,0,2,0.1c0.4,0.1,0.7,0.4,0.6,0.8C24.8,5.7,24.5,6,24.1,6 M15.2,8
	c-0.2,0-0.4-0.1-0.6-0.3c-0.2-0.3-0.1-0.7,0.2-1c0.8-0.6,1.7-1,2.6-1.4c0.4-0.1,0.8,0,0.9,0.4c0.1,0.4,0,0.8-0.4,0.9
	c-0.8,0.3-1.6,0.7-2.3,1.2C15.5,8,15.3,8,15.2,8 M30.1,8.6c-0.2,0-0.3-0.1-0.5-0.2c-0.7-0.6-1.4-1-2.2-1.4c-0.3-0.2-0.5-0.6-0.3-0.9
	c0.2-0.3,0.6-0.5,0.9-0.3c0.9,0.4,1.7,1,2.5,1.6c0.3,0.2,0.3,0.7,0.1,1C30.5,8.5,30.3,8.6,30.1,8.6 M11,12.9c-0.1,0-0.2,0-0.3-0.1
	c-0.4-0.2-0.5-0.6-0.3-0.9c0.4-0.9,0.9-1.7,1.6-2.5c0.2-0.3,0.7-0.4,1-0.1c0.3,0.2,0.4,0.7,0.1,1c-0.5,0.7-1,1.4-1.4,2.2
	C11.5,12.7,11.3,12.9,11,12.9 M33.7,13.8c-0.3,0-0.6-0.2-0.7-0.5c-0.3-0.8-0.7-1.6-1.1-2.3c-0.2-0.3-0.1-0.7,0.2-1
	c0.3-0.2,0.8-0.1,1,0.2c0.5,0.8,1,1.7,1.3,2.6c0.1,0.4-0.1,0.8-0.4,0.9C33.9,13.8,33.8,13.8,33.7,13.8 M10.1,19.1
	c-0.3,0-0.6-0.2-0.7-0.6l-0.2-1.4c0,0,0-0.1,0-0.1c0-0.5,0-1,0.1-1.4c0.1-0.4,0.4-0.6,0.8-0.6c0.4,0.1,0.7,0.4,0.6,0.8
	c-0.1,0.4-0.1,0.8-0.1,1.2l0.2,1.3c0.1,0.4-0.2,0.7-0.6,0.8C10.2,19.1,10.1,19.1,10.1,19.1 M34.4,16.9L34.4,16.9L34.4,16.9z
	 M33.9,20.2c0,0-0.1,0-0.1,0c-0.4-0.1-0.6-0.4-0.6-0.8l0.4-2.5v-0.1c0-0.4,0.3-0.7,0.7-0.7h0c0.4,0,0.7,0.3,0.7,0.7l0,0.1
	c0,0,0,0.1,0,0.1l-0.4,2.6C34.6,19.9,34.3,20.2,33.9,20.2 M11,25.5c-0.4,0-0.7-0.3-0.7-0.6c-0.1-0.9-0.2-1.8-0.3-2.7
	c-0.1-0.4,0.2-0.7,0.6-0.8c0.4-0.1,0.7,0.2,0.8,0.6c0.1,0.9,0.2,1.8,0.4,2.8C11.7,25.1,11.4,25.5,11,25.5C11,25.5,11,25.5,11,25.5
	 M33,26.6C33,26.6,33,26.6,33,26.6c-0.5,0-0.7-0.4-0.7-0.8c0.1-0.9,0.2-1.8,0.4-2.8c0.1-0.4,0.4-0.6,0.8-0.6
	c0.4,0.1,0.7,0.4,0.6,0.8c-0.1,0.9-0.2,1.8-0.3,2.7C33.7,26.3,33.4,26.6,33,26.6 M11.6,31.9c-0.4,0-0.7-0.3-0.7-0.6
	c-0.1-0.9-0.1-1.8-0.2-2.7c0-0.4,0.3-0.7,0.6-0.7c0.4,0,0.7,0.3,0.8,0.6c0.1,0.9,0.2,1.8,0.2,2.8C12.3,31.6,12,31.9,11.6,31.9
	C11.6,31.9,11.6,31.9,11.6,31.9 M32.4,33C32.4,33,32.4,33,32.4,33c-0.4,0-0.7-0.4-0.7-0.7c0.1-0.9,0.1-1.8,0.2-2.8
	c0-0.4,0.4-0.7,0.8-0.6c0.4,0,0.7,0.4,0.6,0.7c-0.1,0.9-0.2,1.8-0.2,2.7C33.1,32.7,32.8,33,32.4,33 M11.8,38.4
	c-0.4,0-0.7-0.3-0.7-0.7c0-0.9,0-1.8-0.1-2.7c0-0.4,0.3-0.7,0.7-0.7c0.4,0,0.7,0.3,0.7,0.7c0,0.9,0.1,1.9,0.1,2.8
	C12.5,38.1,12.2,38.4,11.8,38.4L11.8,38.4z M32.2,39.4L32.2,39.4c-0.4,0-0.7-0.3-0.7-0.7c0-0.9,0-1.9,0.1-2.8c0-0.4,0.3-0.7,0.7-0.7
	c0.4,0,0.7,0.3,0.7,0.7c0,0.9-0.1,1.8-0.1,2.7C32.9,39.1,32.6,39.4,32.2,39.4 M11.8,44.8C11.8,44.8,11.8,44.8,11.8,44.8
	c-0.4,0-0.7-0.3-0.7-0.7c0-0.9,0.1-1.8,0.1-2.7c0-0.4,0.3-0.7,0.7-0.7h0c0.4,0,0.7,0.3,0.7,0.7c0,0.9,0,1.9-0.1,2.8
	C12.5,44.5,12.2,44.8,11.8,44.8 M32.2,45.9c-0.4,0-0.7-0.3-0.7-0.7c0-0.9,0-1.9-0.1-2.8c0-0.4,0.3-0.7,0.7-0.7
	c0.4,0,0.7,0.3,0.7,0.7c0,0.9,0,1.8,0.1,2.7C32.9,45.5,32.6,45.9,32.2,45.9C32.2,45.9,32.2,45.9,32.2,45.9 M11.4,51.3
	C11.4,51.3,11.4,51.3,11.4,51.3c-0.4,0-0.7-0.4-0.7-0.7c0.1-0.9,0.1-1.8,0.2-2.7c0-0.4,0.3-0.7,0.7-0.6c0.4,0,0.7,0.4,0.7,0.7
	c-0.1,0.9-0.1,1.8-0.2,2.8C12.1,51,11.8,51.3,11.4,51.3 M32.6,52.3c-0.4,0-0.7-0.3-0.7-0.6c-0.1-0.9-0.1-1.8-0.2-2.8
	c0-0.4,0.3-0.7,0.7-0.7c0.4,0,0.7,0.3,0.7,0.7c0.1,0.9,0.1,1.8,0.2,2.7C33.3,51.9,33,52.3,32.6,52.3C32.6,52.3,32.6,52.3,32.6,52.3
	 M10.7,57.7C10.7,57.7,10.7,57.7,10.7,57.7c-0.5-0.1-0.7-0.4-0.7-0.8c0.1-0.9,0.2-1.8,0.3-2.7c0-0.4,0.4-0.7,0.8-0.6
	c0.4,0,0.7,0.4,0.6,0.8c-0.1,0.9-0.2,1.8-0.3,2.8C11.4,57.4,11.1,57.7,10.7,57.7 M33.2,58.7c-0.3,0-0.7-0.3-0.7-0.6
	c-0.1-0.9-0.2-1.8-0.3-2.8c0-0.4,0.2-0.7,0.6-0.8c0.4,0,0.7,0.2,0.8,0.6c0.1,0.9,0.2,1.8,0.3,2.7C34,58.3,33.7,58.7,33.2,58.7
	C33.3,58.7,33.3,58.7,33.2,58.7 M9.8,64c0,0-0.1,0-0.1,0C9.2,64,9,63.6,9.1,63.2l0.2-1.4c0.1-0.5,0.2-0.9,0.2-1.4
	c0.1-0.4,0.4-0.6,0.8-0.6c0.4,0.1,0.6,0.4,0.6,0.8c-0.1,0.5-0.1,0.9-0.2,1.4l-0.2,1.4C10.4,63.8,10.1,64,9.8,64 M34.1,65.1
	C34.1,65.1,34.1,65.1,34.1,65.1c-0.4,0-0.7-0.3-0.7-0.7c0-0.1,0-0.2,0-0.4l-0.4-2.2C33,61.4,33.3,61,33.7,61
	c0.4-0.1,0.7,0.2,0.8,0.6l0.4,2.3c0,0,0,0.1,0,0.1c0,0.2,0,0.3,0,0.5C34.8,64.8,34.5,65.1,34.1,65.1 M11,70.3
	c-0.3,0-0.5-0.1-0.6-0.4c-0.5-0.9-0.8-1.8-1.1-2.7c-0.1-0.4,0.1-0.7,0.5-0.8c0.4-0.1,0.8,0.1,0.9,0.5c0.2,0.8,0.5,1.7,1,2.4
	c0.2,0.3,0,0.8-0.3,0.9C11.2,70.2,11.1,70.3,11,70.3 M32.1,71.1c-0.1,0-0.3,0-0.4-0.1c-0.3-0.2-0.4-0.6-0.2-1
	c0.5-0.7,0.9-1.5,1.2-2.3c0.1-0.4,0.5-0.5,0.9-0.4c0.4,0.1,0.5,0.5,0.4,0.9c-0.4,0.9-0.8,1.8-1.4,2.6C32.5,71,32.3,71.1,32.1,71.1
	 M15.5,74.9c-0.1,0-0.3,0-0.4-0.1c-0.8-0.5-1.6-1.1-2.3-1.8c-0.3-0.3-0.3-0.7,0-1c0.3-0.3,0.7-0.3,1,0c0.6,0.6,1.3,1.1,2.1,1.6
	c0.3,0.2,0.4,0.6,0.2,0.9C15.9,74.8,15.7,74.9,15.5,74.9 M27.2,75.3c-0.3,0-0.5-0.1-0.6-0.4c-0.2-0.3,0-0.8,0.3-0.9
	c0.8-0.4,1.5-0.9,2.2-1.4c0.3-0.2,0.7-0.2,1,0.1c0.2,0.3,0.2,0.7-0.1,1c-0.8,0.6-1.6,1.1-2.5,1.6C27.4,75.3,27.3,75.3,27.2,75.3
	 M21.7,76.6c-1,0-2-0.1-3-0.3c-0.4-0.1-0.6-0.5-0.5-0.8c0.1-0.4,0.5-0.6,0.8-0.5c0.9,0.2,1.7,0.3,2.6,0.3h0.1c0.6,0,1.1,0,1.7-0.1
	c0.4-0.1,0.7,0.2,0.8,0.6c0.1,0.4-0.2,0.7-0.6,0.8C23.1,76.5,22.4,76.6,21.7,76.6L21.7,76.6z"/>
</svg>
