<svg width="35px" viewBox="0 0 35 48.8" preserveAspectRatio="xMidYMid meet">
<g>
	<path fill="#4AC8EF" d="M32,48.8H3c-1.7,0-3-1.5-3-3.4v-22c0-1.8,1.4-3.4,3-3.4h0.9v2H3c-0.7,0-1.3,0.6-1.3,1.4v22
		c0,0.8,0.6,1.4,1.3,1.4H32c0.7,0,1.3-0.6,1.3-1.4v-22c0-0.8-0.6-1.4-1.3-1.4h-0.8v-2H32c1.7,0,3,1.5,3,3.4v22
		C35,47.3,33.6,48.8,32,48.8"/>
	<path fill="#4AC8EF" d="M2,47.6c-0.2,0-0.4-0.1-0.6-0.2c-0.4-0.3-0.4-1-0.1-1.4L9,36c0.3-0.4,0.9-0.5,1.3-0.1
		c0.4,0.3,0.4,1,0.1,1.4L2.7,47.3C2.5,47.5,2.3,47.6,2,47.6"/>
	<path fill="#4AC8EF" d="M33,47.6c-0.3,0-0.5-0.1-0.7-0.4l-7.6-10.1c-0.3-0.4-0.3-1,0.1-1.4c0.4-0.3,0.9-0.3,1.3,0.1L33.6,46
		c0.3,0.4,0.3,1-0.1,1.4C33.4,47.6,33.2,47.6,33,47.6"/>
	<path fill="#4AC8EF" d="M17.5,36.5c-0.2,0-0.4-0.1-0.5-0.2L1.5,23.2c-0.4-0.3-0.5-1-0.2-1.4c0.3-0.4,0.9-0.5,1.3-0.2l14.9,12.6
		l14.9-12.9c0.4-0.3,1-0.3,1.3,0.2c0.3,0.4,0.2,1-0.2,1.4L18.1,36.3C17.9,36.4,17.7,36.5,17.5,36.5"/>
	<path fill="#4AC8EF" d="M31.5,23.7c-0.5,0-0.9-0.4-0.9-1V3.4c0-0.8-0.6-1.4-1.3-1.4H5.6C4.9,2,4.4,2.6,4.4,3.4v19.4
		c0,0.5-0.4,1-0.9,1c-0.5,0-0.9-0.4-0.9-1V3.4c0-1.8,1.4-3.4,3-3.4h23.8c1.7,0,3,1.5,3,3.4v19.4C32.4,23.3,32,23.7,31.5,23.7"/>
	<rect x="16.6" y="7.3" fill="#4AC8EF" width="1.8" height="18.4"/>
	<path fill="#4AC8EF" d="M17.5,17.5c-3.6,0-6.3-1.7-6.3-4c0-2.3,2.7-4,6.3-4c2.9,0,5.3,1.1,6.1,2.8L22,13.2
		c-0.4-0.9-2.2-1.7-4.5-1.7c-2.8,0-4.6,1.2-4.6,2c0,0.8,1.8,2,4.6,2V17.5z"/>
	<path fill="#4AC8EF" d="M17.5,23.6c-3.1,0-5.6-1.3-6.2-3.2l1.7-0.6c0.3,0.9,2.1,1.8,4.5,1.8c2.8,0,4.6-1.2,4.6-2c0-0.8-1.8-2-4.6-2
		v-2c3.6,0,6.3,1.7,6.3,4C23.8,21.9,21.1,23.6,17.5,23.6"/>
</g>
</svg>
