<svg width="46px" viewBox="0 0 46 48.6" preserveAspectRatio="xMidYMid meet">
<g>
	<path fill="#4AC8EF" d="M8.9,35.7l-1.2,0c-4.2,0-7.7-3.3-7.7-7.5V13.5h1.9v14.8c0,3.1,2.6,5.6,5.8,5.6l1.2,0L8.9,35.7z"/>
	<path fill="#4AC8EF" d="M20.6,48.6l-3.1-12.9l-10.1,0C2.3,35,3,29.8,3.2,27.8l0-0.2c0.1-0.6,0.2-1.4,0.3-2.1
		c0.7-5.7,1.3-10.2,2.3-11.8c1.5-2.3,3.6-2.9,4.7-3.1c1-0.2,2.3-0.1,3,0.4c1.6,1.3,2,3.1,3.1,7.5c0.2,0.9,0.4,1.8,0.7,2.9l10,2.5
		l-0.5,1.8L15.7,23l-0.1-0.5C15.3,21.1,15,20,14.8,19c-1-4-1.4-5.7-2.5-6.5c-0.5-0.3-3.4-0.3-5,2.2c-0.8,1.3-1.6,7.4-2,11
		c-0.1,0.8-0.2,1.5-0.3,2.2l0,0.2c-0.4,3.3-0.1,5.4,2.6,5.8H19l3.5,14.3L20.6,48.6z"/>
	<path fill="#4AC8EF" d="M15.8,1.8c-0.7,0-1.4,0.2-1.9,0.7c-0.6,0.5-1,1.2-1,2c-0.1,0.8,0.2,1.5,0.7,2.1c1.1,1.2,3,1.4,4.2,0.3
		c1.3-1,1.4-2.9,0.4-4.1h0c-0.5-0.6-1.2-1-2-1C16,1.8,15.9,1.8,15.8,1.8 M15.8,9.5c-1.4,0-2.8-0.6-3.7-1.7c-0.8-1-1.2-2.2-1.1-3.5
		c0.1-1.3,0.7-2.4,1.7-3.2c1-0.8,2.2-1.2,3.5-1.1c1.3,0.1,2.5,0.7,3.3,1.7c1.7,2,1.5,5-0.6,6.7C18.1,9.1,16.9,9.5,15.8,9.5"/>
	<path fill="#4AC8EF" d="M24.7,47.9L22,32.6c-0.3-1.3-1.5-1.6-1.5-1.6l-9.4-1.6c-0.5-0.1-0.8-0.5-0.8-1l0.9-5.6l1.8,0.3l-0.7,4.7
		l8.5,1.4c0.1,0,2.4,0.6,3,3l2.7,15.3L24.7,47.9z"/>
	<path fill="#4AC8EF" d="M13.2,27c-0.4,0-0.8-0.2-0.9-0.6L10,19.1c-0.2-0.5,0.1-1,0.6-1.1s1,0.1,1.2,0.6l2.3,7.2
		c0.2,0.5-0.1,1-0.6,1.1C13.4,27,13.3,27,13.2,27"/>
	<path fill="#4AC8EF" d="M40,26l-1.8-0.6l3.9-11H26.4L24.3,20l-1.7-0.6l2.3-6.2c0.1-0.4,0.5-0.6,0.9-0.6h17.7c0.3,0,0.6,0.1,0.8,0.4
		c0.2,0.2,0.2,0.6,0.1,0.8L40,26z"/>
	<rect x="11" y="25.4" fill="#4AC8EF" width="35" height="1.8"/>
	<rect x="40.6" y="26.2" fill="#4AC8EF" width="1.9" height="21.7"/>
	<rect x="8" y="35" fill="#4AC8EF" width="1.9" height="12.9"/>
</g>
</svg>
