<svg width="46px" viewBox="0 0 46 42.3" preserveAspectRatio="xMidYMid meet">
<g>
	<path fill="#4AC8EF" d="M8.3,11.9c-0.2,0-0.4-0.1-0.5-0.2c-0.3-0.3-0.3-0.8,0-1.1l9.5-9.9c0.3-0.3,0.8-0.3,1.1,0
		c0.3,0.3,0.3,0.8,0,1.1l-9.5,9.9C8.7,11.8,8.5,11.9,8.3,11.9"/>
	<polygon fill="#4AC8EF" points="46,42.3 0,42.3 0,0 1.5,0 1.5,40.7 46,40.7 	"/>
	<path fill="#4AC8EF" d="M45.7,36.2h-1.5V3.7c0-1-0.8-1.8-1.8-1.8h-2.7c-1,0-1.8,0.8-1.8,1.8v32.5h-1.5V3.7c0-1.9,1.5-3.4,3.3-3.4
		h2.7c1.8,0,3.3,1.5,3.3,3.4V36.2z"/>
	<path fill="#4AC8EF" d="M17.9,9.3c-0.4,0-0.8-0.4-0.8-0.8V1.9h-6.4c-0.4,0-0.8-0.4-0.8-0.8c0-0.4,0.3-0.8,0.8-0.8h7.1
		c0.4,0,0.8,0.4,0.8,0.8v7.4C18.7,8.9,18.3,9.3,17.9,9.3"/>
	<path fill="#4AC8EF" d="M17,36.2h-1.5V26c0-1-0.8-1.8-1.8-1.8H11c-1,0-1.8,0.8-1.8,1.8v10.2H7.7V26c0-1.9,1.5-3.4,3.3-3.4h2.7
		c1.8,0,3.3,1.5,3.3,3.4V36.2z"/>
	<path fill="#4AC8EF" d="M31.3,36.2h-1.5V17c0-1-0.8-1.8-1.8-1.8h-2.7c-1,0-1.8,0.8-1.8,1.8v19.2H22V17c0-1.9,1.5-3.4,3.3-3.4H28
		c1.8,0,3.3,1.5,3.3,3.4V36.2z"/>
</g>
</svg>
