<svg width="39px" viewBox="0 0 39 55.4" preserveAspectRatio="xMidYMid meet">
<path fill="#4AC8EF" d="M17.3,2c-0.2,0-0.5,0.1-0.6,0.2L2.3,15c-0.2,0.2-0.3,0.5-0.3,0.7v36.7c0,0.5,0.4,1,1,1h33.2c0.5,0,1-0.4,1-1
	V3c0-0.5-0.4-1-1-1H17.3z M36.1,55.4H2.9c-1.6,0-2.9-1.3-2.9-3V15.7c0-0.9,0.4-1.7,1-2.2L15.4,0.7C15.9,0.3,16.6,0,17.3,0h18.8
	C37.7,0,39,1.3,39,3v49.5C39,54.1,37.7,55.4,36.1,55.4"/>
<path fill="#4AC8EF" d="M6.8,31.7c-0.5,0-1,0.4-1,1v15.8c0,0.5,0.4,1,1,1h25.4c0.5,0,1-0.4,1-1V32.7c0-0.5-0.4-1-1-1H6.8z
	 M32.2,51.5H6.8c-1.6,0-2.9-1.3-2.9-3V32.7c0-1.6,1.3-3,2.9-3h25.4c1.6,0,2.9,1.3,2.9,3v15.8C35.1,50.1,33.8,51.5,32.2,51.5"/>
<path fill="#4AC8EF" d="M34.1,15.8c-0.5,0-1-0.4-1-1V4.9c0-0.5,0.4-1,1-1c0.5,0,1,0.4,1,1v9.9C35.1,15.4,34.7,15.8,34.1,15.8"/>
<path fill="#4AC8EF" d="M30.2,15.8c-0.5,0-1-0.4-1-1V4.9c0-0.5,0.4-1,1-1c0.5,0,1,0.4,1,1v9.9C31.2,15.4,30.8,15.8,30.2,15.8"/>
<path fill="#4AC8EF" d="M26.3,15.8c-0.5,0-1-0.4-1-1V4.9c0-0.5,0.4-1,1-1c0.5,0,1,0.4,1,1v9.9C27.3,15.4,26.9,15.8,26.3,15.8"/>
<path fill="#4AC8EF" d="M22.4,15.8c-0.5,0-1-0.4-1-1V4.9c0-0.5,0.4-1,1-1c0.5,0,1,0.4,1,1v9.9C23.4,15.4,23,15.8,22.4,15.8"/>
<path fill="#4AC8EF" d="M18.5,15.8c-0.5,0-1-0.4-1-1V4.9c0-0.5,0.4-1,1-1c0.5,0,1,0.4,1,1v9.9C19.5,15.4,19.1,15.8,18.5,15.8"/>
<path fill="#4AC8EF" d="M14.6,15.8c-0.5,0-1-0.4-1-1V6.9c0-0.5,0.4-1,1-1c0.5,0,1,0.4,1,1v7.9C15.6,15.4,15.2,15.8,14.6,15.8"/>
<path fill="#4AC8EF" d="M10.7,15.8c-0.5,0-1-0.4-1-1v-4c0-0.5,0.4-1,1-1c0.5,0,1,0.4,1,1v4C11.7,15.4,11.3,15.8,10.7,15.8"/>
</svg>
