<svg width="54px" viewBox="0 0 54 30.8" preserveAspectRatio="xMidYMid meet">
<path fill="#4AC8EF" d="M52.9,10.4c0,0.1-0.1,0.2-0.3,0.2h-1.1h-49H1.4c-0.2,0-0.3-0.1-0.3-0.2V7.2c0-0.2,0.2-0.3,0.3-0.3h51.2
	c0.2,0,0.3,0.1,0.3,0.2V10.4z M48.3,26.2c-0.3,2-2.2,3.6-4.5,3.6H10.2c-2.3,0-4.2-1.5-4.5-3.6L3.8,11.7h46.5L48.3,26.2z M52.6,5.9
	H1.4C0.6,5.9,0,6.5,0,7.2v3.3c0,0.7,0.6,1.3,1.4,1.3h1.2l2,14.6c0.3,2.6,2.8,4.5,5.6,4.5h33.6c2.9,0,5.3-1.9,5.6-4.5l2-14.6h1.2
	c0.8,0,1.4-0.6,1.4-1.3V7.2C54,6.5,53.4,5.9,52.6,5.9"/>
<path fill="#4AC8EF" d="M14.2,16.6c0-1,0.9-1.9,2.1-1.9s2.1,0.8,2.1,1.9v8.2c0,1-0.9,1.9-2.1,1.9s-2.1-0.8-2.1-1.9
	C14.2,24.8,14.2,16.6,14.2,16.6z M16.3,27.7c1.8,0,3.2-1.3,3.2-2.9v-8.2c0-1.6-1.5-2.9-3.2-2.9c-1.8,0-3.2,1.3-3.2,2.9v8.2
	C13.1,26.4,14.6,27.7,16.3,27.7"/>
<path fill="#4AC8EF" d="M24.9,16.6c0-1,0.9-1.9,2.1-1.9s2.1,0.8,2.1,1.9v8.2c0,1-0.9,1.9-2.1,1.9s-2.1-0.8-2.1-1.9V16.6z M27,27.7
	c1.8,0,3.2-1.3,3.2-2.9v-8.2c0-1.6-1.5-2.9-3.2-2.9c-1.8,0-3.2,1.3-3.2,2.9v8.2C23.8,26.4,25.2,27.7,27,27.7"/>
<path fill="#4AC8EF" d="M35.6,16.6c0-1,0.9-1.9,2.1-1.9c1.2,0,2.1,0.8,2.1,1.9v8.2c0,1-0.9,1.9-2.1,1.9c-1.2,0-2.1-0.8-2.1-1.9V16.6
	z M37.7,27.7c1.8,0,3.2-1.3,3.2-2.9v-8.2c0-1.6-1.5-2.9-3.2-2.9c-1.8,0-3.2,1.3-3.2,2.9v8.2C34.4,26.4,35.9,27.7,37.7,27.7"/>
</svg>
