<svg width="57" height="41.4" viewBox="0 0 57 41.4"><g fill="#4AC8EF"><path d="M55.7 21.9L33.9 2.6 22.3 12.8V5.6h-2.9v9.8L12 21.9l-1.2-1.5 6.6-5.9V3.7h6.9v4.8L33.9 0 57 20.4z"/><path d="M38.9 39.4h9.6V22.8L33.9 9.5 19.2 22.8v16.7h9.6v-9.3c0-.5.4-1 1-1h8.1c.5 0 1 .4 1 1v9.2zm10.6 2H37.9a1 1 0 01-1-1v-9.3h-6.1v9.3c0 .5-.4 1-1 1H18.3a1 1 0 01-1-1V22.3c0-.3.1-.5.3-.7L33.2 7.4a1 1 0 011.3 0l15.6 14.2c.2.2.3.5.3.7v18.1c.1.6-.4 1-.9 1M11.1 2.1H1c-.5 0-1-.4-1-1s.4-1 1-1h10.1c.5 0 1 .4 1 1s-.5 1-1 1M11.1 41.4H1a1 1 0 010-2h10.1c.5 0 1 .4 1 1-.1.6-.5 1-1 1M6 36.2a1 1 0 01-1-1v-29a1 1 0 012 0v29.1c0 .5-.5.9-1 .9"/><path d="M10.8 12a1 1 0 01-.7-.3L6 7.5l-4.1 4.1a1 1 0 01-1.4 0 1 1 0 010-1.4l4.8-4.8a1 1 0 011.4 0l4.8 4.8c.4.4.4 1 0 1.4-.2.3-.5.4-.7.4M6 36.3a1 1 0 01-.7-.3L.5 31.2a1 1 0 010-1.4 1 1 0 011.4 0L6 33.9l4.1-4.1a1 1 0 011.4 0c.4.4.4 1 0 1.4L6.7 36a1 1 0 01-.7.3"/></g></svg>