<svg width="52" height="35.2" viewBox="0 0 52 35.2"><g fill="#4AC8EF"><path d="M42.2 5.6h-1.9V1.8h-4.2V0h6.1zM42.2 35.2H0V0h29.6v1.8H1.8v31.6h38.5V28h1.9z"/><path d="M1 16.8h17.7v1.8H1z"/><path d="M17.8 12.5h1.8v10.4h-1.8zM17.8 1h1.8v6.2h-1.8zM17.8 28.9h1.8v5.4h-1.8zM38.3 24.7l-4.9-5 1.3-1.3 4.9 5zM32.2 27.6l-1.6-1.7 1.3-1.3 1.6 1.7z"/><path d="M37.3 22.3L36 21l6.5-6.6 1.3 1.3zM47.5 16.4l-5.7-5.8L43 9.3l5.8 5.8z"/><path d="M34 19.4l-2.4 7.1 6.9-2.1L50 12.7l.1-.5c-.1-.3-.2-.7-.5-1l-2.8-2.8c-.6-.6-1.3-.6-1.5-.4L34 19.4zm-3.8 9.4a1 1 0 01-.7-.3 1 1 0 01-.2-.9l3.1-9 .2-.3L44.1 6.6c1-1 2.8-.8 4 .4l2.8 2.9c.6.6.9 1.3 1 2 .1.8-.1 1.6-.6 2.1L39.7 25.8l-.4.2-8.9 2.7-.2.1"/></g></svg>