<svg width="34"  viewBox="0 0 34 53"><g fill="#4AC8EF"><path d="M16.6 20.7c-.4 0-.8-.2-1.1-.5L13 16.9c-.5-.6-.4-1.5.3-2 .6-.5 1.5-.4 2 .3l1.3 1.7 2.1-2.9c.5-.6 1.3-.8 2-.3.6.5.8 1.3.3 2l-3.2 4.5-1.2.5c.1 0 .1 0 0 0M2.3000000000000007 46.4zM9 53h-.1c-.9-.1-1.6-.6-1.9-1.3l-1.2-2.8-3.3.3c-.8.1-1.5-.3-2-.9-.4-.7-.5-1.5-.1-2.2l7.3-12.7c.4-.7 1.3-.9 1.9-.5.7.4.9 1.3.5 1.9L3.7 46.3l2.4-.3a2 2 0 012.1 1.3l.8 1.9 6.7-11.6c.3-.4.7-.7 1.2-.7s1 .3 1.2.7l6.7 11.6.8-1.9a2 2 0 012.1-1.3l2.4.3-6.6-11.4c-.4-.7-.2-1.5.5-1.9.7-.4 1.5-.2 1.9.5l7.3 12.7a2 2 0 01-.1 2.2c-.4.7-1.2 1-2 .9l-3.3-.3-.8 2.7c-.3.7-1 1.2-1.8 1.3-.8.1-1.5-.3-1.9-1L17 41.1l-6.2 10.8c-.4.7-1.1 1.1-1.8 1.1"/><path d="M31.7 19.5zm-19.5 10c1.2 0 2.3.4 3.2 1.1.9.7 2.3.7 3.2 0a4.8 4.8 0 013.8-1.1c1.2.1 2.3-.5 2.8-1.6a4.7 4.7 0 012.6-2.6 2.6 2.6 0 001.6-2.8c-.1-1.4.2-2.7 1.1-3.8.7-.9.7-2.3 0-3.2a4.8 4.8 0 01-1.1-3.8c.1-1.2-.5-2.3-1.6-2.8a4.7 4.7 0 01-2.6-2.6 2.6 2.6 0 00-2.8-1.6c-1.4.1-2.7-.2-3.8-1.1-.9-.7-2.3-.7-3.2 0a4.8 4.8 0 01-3.8 1.1c-1.2-.3-2.3.3-2.8 1.4a5 5 0 01-2.7 2.7 2.8 2.8 0 00-1.6 2.8c.1 1.4-.2 2.7-1.1 3.8-.7.9-.7 2.3 0 3.2a4.8 4.8 0 011.1 3.8c-.1 1.2.5 2.3 1.6 2.8 1.2.5 2.1 1.4 2.6 2.6a2.6 2.6 0 002.8 1.6l.7.1M17 34c-1.2 0-2.3-.4-3.3-1.1-.6-.4-1.1-.6-1.8-.5a5.6 5.6 0 01-5.7-3.3c-.2-.6-.6-.9-1.2-1.2a5.5 5.5 0 01-3.3-5.7c.1-.7-.1-1.2-.5-1.8a5.6 5.6 0 010-6.7c.4-.6.6-1.1.5-1.8A5.4 5.4 0 015 6.2c.6-.3.9-.6 1.2-1.2 1-2.3 3.3-3.6 5.7-3.3.7.1 1.2-.1 1.8-.5 2-1.5 4.7-1.5 6.7 0 .6.4 1.1.6 1.8.5A5.6 5.6 0 0127.9 5c.2.6.6.9 1.2 1.2 2.3 1 3.6 3.3 3.3 5.7-.1.7.1 1.2.5 1.8 1.5 2 1.5 4.7 0 6.7-.4.6-.6 1.1-.5 1.8a5.6 5.6 0 01-3.3 5.7c-.6.2-.9.6-1.2 1.2a5.5 5.5 0 01-5.7 3.3c-.7-.1-1.2.1-1.8.5A6.2 6.2 0 0117 34"/><path d="M17 10.3a6.7 6.7 0 100 13.4 6.7 6.7 0 000-13.4m0 16.2A9.6 9.6 0 017.5 17c0-5.2 4.3-9.5 9.5-9.5s9.5 4.3 9.5 9.5-4.3 9.5-9.5 9.5"/></g></svg>