<svg width="60" height="60" viewBox="0 0 60 60"><path fill="#FFF" d="M49.9 41.5h-18c-.4 0-.7-.4-.7-.8V20.1c0-.4.1-.6.6-.8A11.4 11.4 0 0147.4 29a6.5 6.5 0 112.5 12.5m-19.3-.8c0 .4-.3.7-.7.7a.7.7 0 01-.7-.7l-.3-5.3.3-14.6c0-.4.3-.7.7-.7.4 0 .7.3.7.7l.3 14.6-.3 5.3zm-2.3.1c0 .4-.3.7-.7.7a.7.7 0 01-.7-.7l-.3-5.4L27 22c0-.4.3-.7.7-.7.4 0 .7.3.7.7l.3 13.4-.4 5.4zm-2.2 0c0 .3-.3.6-.6.6a.6.6 0 01-.6-.6l-.3-5.4.3-11.3c0-.4.3-.6.6-.6s.6.3.6.6l.3 11.3-.3 5.4zm-2.3.1c0 .3-.3.6-.6.6a.6.6 0 01-.6-.6l-.3-5.5.3-11.7c0-.3.3-.6.6-.6s.6.3.6.6l.3 11.7-.3 5.5zm-2.2 0c0 .3-.2.5-.5.5s-.5-.2-.5-.5l-.3-5.5.3-12c0-.3.2-.5.5-.5s.5.2.5.5l.4 12-.4 5.5zm-2.3.1c0 .3-.2.5-.5.5s-.5-.2-.5-.5l-.3-5.6.4-11.6c0-.3.2-.5.5-.5s.5.2.5.5l.4 11.6-.5 5.6zm-2.2 0c0 .2-.2.4-.4.4a.4.4 0 01-.4-.4l-.4-5.6.4-10.7c0-.2.2-.4.4-.4s.4.2.4.4l.4 10.7-.4 5.6zm-2.2 0c0 .2-.2.4-.4.4a.4.4 0 01-.4-.4l-.4-5.6.4-8.7c0-.2.2-.4.4-.4s.4.2.4.4l.5 8.7-.5 5.6zm-2.1 0c0 .2-.2.3-.4.3s-.3-.1-.4-.4l-.4-5.6.4-5.4c0-.2.2-.4.4-.4s.3.2.4.4l.5 5.4-.5 5.7zm-2.2 0c0 .2-.1.3-.3.3s-.3-.1-.3-.3l-.5-5.6.5-5.8c0-.2.1-.3.3-.3s.3.1.3.3l.5 5.8-.5 5.6zm-2.1-.2c0 .1-.1.3-.3.3l-.3-.3-.5-5.4.5-5.6c0-.2.1-.3.3-.3.1 0 .3.1.3.3l.5 5.6-.5 5.4zM6.3 40l-.2.2a.2.2 0 01-.2-.2l-.5-4.6.5-4.7.2-.2.2.2.6 4.7-.6 4.6zm-1.9-1.7l-.2.2a.2.2 0 01-.2-.2l-.4-2.9.4-2.9.2-.2.2.2.5 2.9-.5 2.9zM51.8 0H8.2S0 0 0 8.2v43.6S0 60 8.2 60h43.6s8.2 0 8.2-8.2V8.2S60 0 51.8 0"/></svg>