<svg width="60" height="60" viewBox="0 0 60 60"><path fill="#FFF" d="M60 51.8V8.2S60 0 51.8 0H8.2S0 0 0 8.2v43.6S0 60 8.2 60h43.6s8.2 0 8.2-8.2M48.7 26.2s-2.6-.1-4.5-.6c-2.7-.7-4.4-1.8-4.4-1.8l-1.3-.8v15a13.2 13.2 0 01-3.4 8.8s-1.7 2-4.6 3.4c-2.6 1.2-4.9 1.2-5.6 1.2 0 0-4 .2-7.6-2.3-1.2-.8-2.3-1.9-3.2-3-1.1-1.4-1.8-3.2-2-3.7a14.1 14.1 0 01.8-11.1 13.4 13.4 0 017-6.1c.9-.4 1.8-.6 2.7-.8 1.4-.2 2.8-.3 4.2-.1v7.5s-3-1-5.3.7a6.3 6.3 0 00-2.8 4.8c0 1.6.4 4 2.6 5.5l.8.4c1.8 1 3.5 1 5.5.1 1.5-.6 2.7-2 3.2-3.6.3-1 .3-1.9.3-2.9V8.5h7.4s-.1.7.1 1.8a9.9 9.9 0 004.7 6.9l.8.5c1.9.9 3.8 1.2 4.7 1.1v7.4z"/></svg>