<svg width="60" height="60" viewBox="0 0 60 60"><path fill="#FFF" d="M50.1 18.9c-.5 2.5-3.6 11-9.2 18.6a30.5 30.5 0 01-9 8.5c-1.4.8-4 1.8-5.8 1.1-3.5-1.5-4.7-7.5-5.7-11.5-.6-2.4-1.2-4.6-1.9-6.7-.5-1.6-.8-3.1-1.7-4.6-1.4-2.4-3.4-.1-5.5-.4-.9-.1-1.1-1.1-1.7-1.7V22c3.1-2.4 5.7-5.4 9.3-7.5 1.1-.7 3-1.4 4.5-.9 1.4.4 2.6 2.3 3.1 3.9.6 1.8.9 4.1 1.2 5.9.5 3.2.4 8 2.7 10.5 2.6 2.8 4.6-1.1 5.7-3.1a16 16 0 001.9-5.1c.3-3.9-1.5-4.4-5.1-4.2 2-6.2 7.9-8.8 9.6-9.1 2.1-.3 5.3-.3 6.7 1.6 1.2 1.4 1.2 3.2.9 4.9M51.8 0H8.2S0 0 0 8.2v43.6S0 60 8.2 60h43.6s8.2 0 8.2-8.2V8.2S60 0 51.8 0"/></svg>