<svg width="60" height="60" viewBox="0 0 60 60"><path fill="#FFF" d="M36.8 30a6.8 6.8 0 00-13.6 0c0 3.7 3 6.7 6.8 6.7 3.7 0 6.8-3 6.8-6.7m6.4-10.8c0 1.3-1.1 2.4-2.4 2.4a2.4 2.4 0 01-2.4-2.4c0-1.3 1.1-2.4 2.4-2.4 1.4 0 2.4 1 2.4 2.4M40.4 30a10.4 10.4 0 11-20.8 0 10.4 10.4 0 0120.8 0m6.1 8.2l.1-8.2-.1-8.2c-.1-2-.4-3-.7-3.8a7 7 0 00-1.5-2.3 5.7 5.7 0 00-2.3-1.5 11 11 0 00-3.8-.7l-8.2-.1-8.2.1c-2 .1-3 .4-3.8.7a7 7 0 00-2.3 1.5c-.7.7-1.2 1.4-1.5 2.3a11 11 0 00-.7 3.8l-.1 8.2.1 8.2c.1 2 .4 3.1.7 3.8a7 7 0 001.5 2.3c.7.7 1.4 1.2 2.3 1.5.7.3 1.8.6 3.8.7l8.2.1 8.2-.1c2-.1 3-.4 3.8-.7a7 7 0 002.3-1.5 7 7 0 001.5-2.3c.3-.8.6-1.8.7-3.8m3.8-8.2l-.1 8.4c-.1 2.2-.4 3.6-.9 4.9a10 10 0 01-5.9 5.9c-1.3.5-2.8.8-4.9.9l-8.4.1-8.4-.1c-2.2-.1-3.6-.4-4.9-.9a10 10 0 01-5.9-5.9c-.5-1.3-.8-2.8-.9-4.9L9.9 30l.1-8.4c.1-2.2.4-3.6.9-4.9a10 10 0 015.9-5.9c1.3-.5 2.8-.8 4.9-.9l8.4-.1 8.4.1c2.2.1 3.6.4 4.9.9a10 10 0 015.9 5.9c.5 1.3.8 2.8.9 4.9l.1 8.4M60 51.8V8.2S60 0 51.8 0H8.2S0 0 0 8.2v43.6S0 60 8.2 60h43.6s8.2 0 8.2-8.2"/></svg>