<svg width="54px" viewBox="0 0 96 69.6" preserveAspectRatio="xMidYMid meet">
<g>
	<path fill="#4AC8EF" d="M42.1,40.3c-3.8,1.4-7.2,3.3-9.3,4.6c-0.3,0.2-0.6,0.3-0.9,0.3C15.9,46.6,6.4,51.4,6.4,55.3
		c0,4.9,14.6,10.5,34.2,10.5c13.1,0,25.4-2.5,31.2-6.5c0.5-0.3,1-0.4,1.5-0.3l10,2.4l-5.9-6.2c-0.7-0.7-0.7-1.9,0-2.7l5.9-6.2
		l-13.5,3.3c-0.4,0.1-0.9,0.1-1.2-0.1c-6.3-2.8-15.9-4.6-26.4-4.7c-0.8,0-1.4-0.5-1.7-1.2c-0.3-0.7-0.2-1.5,0.3-2.1
		C41.2,41.1,41.6,40.7,42.1,40.3 M40.6,69.6c-18.4,0-38.1-5-38.1-14.3c0-2.5,1.5-6.2,8.9-9.4c5-2.2,12-3.7,19.6-4.5
		c3.9-2.4,11.1-6.2,18.3-6.6c0.9,0,1.6,0.5,1.9,1.3c0.3,0.8,0,1.7-0.7,2.2c-1.3,0.9-2.6,1.9-3.7,2.8c8.9,0.5,17,2.2,22.8,4.6
		l19.2-4.7c0.8-0.2,1.7,0.2,2.1,0.9c0.4,0.7,0.3,1.7-0.3,2.3l-9.1,9.6l9.1,9.6c0.6,0.6,0.7,1.6,0.3,2.3c-0.4,0.7-1.3,1.1-2.1,0.9
		l-15.6-3.8C66.5,67.1,54.1,69.6,40.6,69.6"/>
	<path fill="#4AC8EF" d="M28.8,62.3c-0.1,0-0.3,0-0.4-0.1c-1-0.2-1.7-1.3-1.4-2.3c0.5-2.2,0-5.9-2-8.7c-1.6-2.2-3.8-3.5-6.5-3.8
		c-1.1-0.1-1.8-1.1-1.7-2.1s1.1-1.8,2.1-1.7c3.8,0.4,7,2.3,9.2,5.4c2.8,3.9,3.3,8.8,2.6,11.8C30.5,61.7,29.7,62.3,28.8,62.3"/>
	<path fill="#4AC8EF" d="M94.1,3.9h-4.5c-1.1,0-1.9-0.9-1.9-1.9c0-1.1,0.9-1.9,1.9-1.9h4.5C95.1,0,96,0.9,96,1.9
		C96,3,95.1,3.9,94.1,3.9"/>
	<path fill="#4AC8EF" d="M77.4,14.4h-4.5c-1.1,0-1.9-0.9-1.9-1.9c0-1.1,0.9-1.9,1.9-1.9h4.5c1.1,0,1.9,0.9,1.9,1.9
		C79.3,13.5,78.4,14.4,77.4,14.4"/>
	<path fill="#4AC8EF" d="M62.4,24.9h-4.5c-1.1,0-1.9-0.9-1.9-1.9c0-1.1,0.9-1.9,1.9-1.9h4.5c1.1,0,1.9,0.9,1.9,1.9
		C64.3,24,63.4,24.9,62.4,24.9"/>
	<path fill="#4AC8EF" d="M83.1,3.9H1.9C0.9,3.9,0,3,0,1.9C0,0.9,0.9,0,1.9,0h81.2c1.1,0,1.9,0.9,1.9,1.9C85.1,3,84.2,3.9,83.1,3.9"
		/>
	<path fill="#4AC8EF" d="M66.4,14.4H18.6c-1.1,0-1.9-0.9-1.9-1.9c0-1.1,0.9-1.9,1.9-1.9h47.8c1.1,0,1.9,0.9,1.9,1.9
		C68.4,13.5,67.5,14.4,66.4,14.4"/>
	<path fill="#4AC8EF" d="M51.4,24.9H33.6c-1.1,0-1.9-0.9-1.9-1.9c0-1.1,0.9-1.9,1.9-1.9h17.8c1.1,0,1.9,0.9,1.9,1.9
		C53.4,24,52.5,24.9,51.4,24.9"/>
	<path fill="#4AC8EF" d="M19.9,56.6c0,1.4-1.1,2.5-2.5,2.5c-1.4,0-2.5-1.1-2.5-2.5c0-1.4,1.1-2.5,2.5-2.5
		C18.8,54.1,19.9,55.2,19.9,56.6"/>
</g>
</svg>
