<svg width="32px" viewBox="0 0 32 48.3" preserveAspectRatio="xMidYMid meet">
<path fill="#4AC8EF" d="M16,2.6C13.2,7.3,2.6,25.5,2,32.4c-0.3,3.3,0.9,6.6,3.3,9.2C8,44.6,12,46.3,16,46.3c4,0,7.9-1.7,10.6-4.6
	c2.4-2.6,3.6-5.9,3.4-9.3C29.5,25.5,18.8,7.3,16,2.6 M16,48.3c-4.6,0-9-1.9-12.2-5.3C1.1,40-0.3,36.1,0,32.2
	C0.7,24.5,12.5,4.5,14.9,0.6C15.1,0.2,15.5,0,16,0c0.5,0,0.9,0.2,1.1,0.6C19.5,4.5,31.4,24.5,32,32.3c0.3,3.9-1.1,7.8-3.9,10.8
	C25,46.4,20.6,48.3,16,48.3"/>
<path fill="#4AC8EF" d="M21.8,20.3c-0.4,0-0.7-0.2-0.9-0.6c-1.3-2.9-2.9-6-5.2-10c-0.3-0.5-0.1-1.1,0.4-1.3c0.5-0.3,1.1-0.1,1.3,0.4
	c2.3,4,4,7.1,5.3,10.2c0.2,0.5,0,1.1-0.5,1.3C22.1,20.2,21.9,20.3,21.8,20.3"/>
<path fill="#4AC8EF" d="M12.3,41.1c-0.1,0-0.3,0-0.4-0.1c-3.9-1.9-5-4.4-5.3-6.2c-0.4-3.3,1.7-6.4,3.8-8.3l1.7-1.5
	c0.2-0.2,0.4-0.3,0.7-0.3c0.5,0,1,0.4,1,1v0.4L11.7,28c-1.7,1.5-3.5,4-3.2,6.6c0.3,1.9,1.7,3.4,4.2,4.7c0.5,0.2,0.7,0.8,0.5,1.3
	C13,40.9,12.7,41.1,12.3,41.1"/>
<path fill="#4AC8EF" d="M7.5,27c-0.5,0-0.9-0.4-1-0.9c0-0.5,0.4-1,0.9-1l5.3-0.3c0.5,0,1,0.4,1,0.9c0,0.5-0.4,1-0.9,1L7.5,27
	C7.6,27,7.6,27,7.5,27"/>
<path fill="#4AC8EF" d="M12.5,32C12.5,32,12.5,32,12.5,32c-0.6,0-1-0.5-1-1l0.3-5.3c0-0.5,0.5-1,1-0.9c0.5,0,1,0.5,0.9,1L13.5,31
	C13.5,31.6,13,32,12.5,32"/>
<path fill="#4AC8EF" d="M19.2,41.1c-0.5,0-1-0.4-1-1v-0.4l2.1-1.8c1.7-1.5,3.5-4,3.2-6.6c-0.3-1.9-1.7-3.4-4.2-4.7
	c-0.5-0.2-0.7-0.8-0.5-1.3c0.2-0.5,0.8-0.7,1.3-0.5c3.9,1.9,5,4.4,5.3,6.2c0.4,3.3-1.7,6.4-3.8,8.3l-1.7,1.5
	C19.7,41,19.5,41.1,19.2,41.1"/>
<path fill="#4AC8EF" d="M19.2,41.1c-0.5,0-0.9-0.4-1-0.9c0-0.5,0.4-1,0.9-1l5.3-0.3c0.5,0,1,0.4,1,0.9c0,0.5-0.4,1-0.9,1L19.2,41.1
	C19.2,41.1,19.2,41.1,19.2,41.1"/>
<path fill="#4AC8EF" d="M19.2,41.1C19.2,41.1,19.2,41.1,19.2,41.1c-0.6,0-1-0.5-1-1l0.3-5.3c0-0.5,0.5-1,1-0.9c0.5,0,1,0.5,0.9,1
	l-0.3,5.3C20.1,40.7,19.7,41.1,19.2,41.1"/>
</svg>
