<svg width="67px" viewBox="0 0 118 84.6" preserveAspectRatio="xMidYMid meet">
<g>
	<path fill="#BBD9F2" d="M0.4,69.8h6.3c3.7,0,6,1.9,6,5.1v0c0,3.4-2.6,5.3-6.2,5.3h-2v4.2h-4V69.8z M6.3,77c1.4,0,2.3-0.8,2.3-1.9v0
		c0-1.2-0.9-1.9-2.3-1.9H4.4V77H6.3z"/>
	<rect x="14.5" y="69.8" fill="#BBD9F2" width="4" height="14.5"/>
	<polygon fill="#BBD9F2" points="21.2,69.8 24.9,69.8 30.9,77.4 30.9,69.8 34.9,69.8 34.9,84.3 31.4,84.3 25.1,76.3 25.1,84.3 
		21.2,84.3 	"/>
	<polygon fill="#BBD9F2" points="37.5,69.8 41.5,69.8 41.5,75.2 46.7,75.2 46.7,69.8 50.7,69.8 50.7,84.3 46.7,84.3 46.7,78.8 
		41.5,78.8 41.5,84.3 37.5,84.3 	"/>
	<polygon fill="#BBD9F2" points="53.3,69.8 65,69.8 65,73.2 57.3,73.2 57.3,75.4 64.2,75.4 64.2,78.6 57.3,78.6 57.3,80.9 
		65.1,80.9 65.1,84.3 53.3,84.3 	"/>
	<rect x="67.2" y="69.8" fill="#BBD9F2" width="4" height="14.5"/>
	<path fill="#BBD9F2" d="M73.9,69.8h6.9c2.2,0,3.8,0.6,4.7,1.6c0.9,0.9,1.3,2,1.3,3.4v0c0,2.2-1.2,3.7-3,4.5l3.5,5.1h-4.6l-2.9-4.4
		H78v4.4h-4V69.8z M80.6,76.7c1.3,0,2.2-0.7,2.2-1.7v0c0-1.2-0.9-1.7-2.2-1.7H78v3.5H80.6z"/>
	<path fill="#BBD9F2" d="M88.4,77.1L88.4,77.1c0-4.2,3.4-7.6,7.9-7.6c4.5,0,7.8,3.3,7.8,7.5v0c0,4.2-3.4,7.6-7.9,7.6
		C91.7,84.6,88.4,81.2,88.4,77.1 M99.9,77.1L99.9,77.1c0-2.2-1.5-4-3.7-4c-2.2,0-3.7,1.8-3.7,3.9v0c0,2.1,1.5,3.9,3.7,3.9
		C98.4,81,99.9,79.2,99.9,77.1"/>
	<path fill="#BBD9F2" d="M104.9,82.1l2.2-2.7c1.5,1.1,3,1.7,4.7,1.7c1.1,0,1.7-0.4,1.7-1v0c0-0.6-0.5-0.9-2.5-1.4
		c-3.1-0.7-5.5-1.6-5.5-4.6v0c0-2.7,2.1-4.7,5.6-4.7c2.5,0,4.4,0.7,6,1.9l-2,2.8c-1.3-1-2.8-1.4-4.1-1.4c-1,0-1.5,0.4-1.5,0.9v0
		c0,0.7,0.5,1,2.5,1.4c3.3,0.7,5.4,1.8,5.4,4.5v0c0,3-2.3,4.7-5.9,4.7C109.2,84.6,106.7,83.7,104.9,82.1"/>
	<polygon fill="#BBD9F2" points="0,64.2 0,47.2 2.8,47.2 11.8,58.9 11.8,47.2 14.8,47.2 14.8,64.2 12.3,64.2 2.9,52.1 2.9,64.2 	"/>
	<path fill="#BBD9F2" d="M33.6,61.9c-1.7,1.7-3.8,2.6-6.4,2.6c-2.6,0-4.7-0.8-6.3-2.5c-1.7-1.7-2.5-3.8-2.5-6.2v0
		c0-2.4,0.8-4.5,2.5-6.2c1.7-1.7,3.8-2.6,6.4-2.6s4.7,0.8,6.3,2.5c1.7,1.7,2.5,3.8,2.5,6.2v0C36.1,58.1,35.3,60.2,33.6,61.9
		 M23.1,60c1.1,1.2,2.5,1.7,4.1,1.7c1.7,0,3-0.6,4.1-1.7c1.1-1.1,1.6-2.6,1.6-4.2v0c0-1.7-0.5-3.1-1.6-4.3c-1.1-1.2-2.5-1.7-4.1-1.7
		c-1.7,0-3,0.6-4.1,1.7c-1.1,1.1-1.6,2.6-1.6,4.2v0C21.5,57.4,22,58.8,23.1,60"/>
	<polygon fill="#BBD9F2" points="44.2,64.3 37.2,47.2 40.5,47.2 45.6,60.2 50.7,47.2 53.9,47.2 46.9,64.3 	"/>
	<path fill="#BBD9F2" d="M70.2,61.9c-1.7,1.7-3.8,2.6-6.4,2.6c-2.6,0-4.7-0.8-6.3-2.5c-1.7-1.7-2.5-3.8-2.5-6.2v0
		c0-2.4,0.8-4.5,2.5-6.2c1.7-1.7,3.8-2.6,6.4-2.6c2.6,0,4.7,0.8,6.3,2.5c1.7,1.7,2.5,3.8,2.5,6.2v0C72.7,58.1,71.9,60.2,70.2,61.9
		 M59.7,60c1.1,1.2,2.5,1.7,4.1,1.7c1.7,0,3-0.6,4.1-1.7c1.1-1.1,1.6-2.6,1.6-4.2v0c0-1.7-0.5-3.1-1.6-4.3c-1.1-1.2-2.5-1.7-4.1-1.7
		c-1.7,0-3,0.6-4.1,1.7c-1.1,1.1-1.6,2.6-1.6,4.2v0C58.1,57.4,58.7,58.8,59.7,60"/>
	<path fill="#FFFFFF" d="M76.3,47.7H84c2.5,0,4.3,0.7,5.4,1.8c1,1,1.5,2.2,1.5,3.8v0c0,2.5-1.3,4.2-3.4,5.1l3.9,5.7h-5.2l-3.3-5h-2
		v5h-4.6V47.7z M83.9,55.6c1.5,0,2.4-0.8,2.4-2v0c0-1.3-1-2-2.5-2h-3v4H83.9z"/>
	<rect x="93.3" y="47.7" fill="#FFFFFF" width="4.6" height="16.4"/>
	<path fill="#FFFFFF" d="M100.3,56L100.3,56c0-4.8,3.8-8.6,8.9-8.6c5.1,0,8.8,3.8,8.8,8.5v0c0,4.7-3.8,8.5-8.9,8.5
		C104,64.5,100.3,60.7,100.3,56 M113.3,56L113.3,56c0-2.4-1.7-4.5-4.2-4.5c-2.5,0-4.2,2-4.2,4.4v0c0,2.4,1.7,4.4,4.2,4.4
		C111.7,60.4,113.3,58.3,113.3,56"/>
	<path fill="#FFFFFF" d="M80.3,22.1C80.2,9.9,70.7,0,58.9,0C47.2,0,37.6,9.9,37.6,22.2c0,0.2,0,0.3,0,0.5c0,1.1,0.1,2.1,0.3,3.2
		c0.2,1.1,0.5,2.2,0.8,3.3c0.2,0.6,0.4,1.1,0.6,1.7c0.3,0.7,0.6,1.4,1,2.1c3.6,6.8,10.6,11.4,18.6,11.4c8,0,15-4.6,18.6-11.4
		c0.1-0.2,0.2-0.5,0.3-0.7c0.6-1.1,1-2.3,1.4-3.6c0.6-1.9,0.9-3.9,0.9-6v0C80.2,22.4,80.3,22.3,80.3,22.1
		C80.3,22.1,80.3,22.1,80.3,22.1 M38,25.8L38,25.8L38,25.8"/>
	<path fill="#72C6EF" d="M49.8,23.3c-4.6,1.7-8.1,2.5-11.1,2.5c0,0.3,0.1,0.5,0.1,0.8c0,0.1,0.1,0.3,0.1,0.4c0,0.1,0,0.2,0.1,0.3
		c0,0.2,0.1,0.4,0.2,0.6c0,0,0,0.1,0,0.1c0.1,0.2,0.1,0.4,0.2,0.7c0,0.1,0.1,0.3,0.1,0.4c0,0,0,0,0,0c0,0,0,0,0,0
		c2.2-0.2,3.4-1,4.9-1.6c1.1-0.4,2.3-0.8,4.1-0.8c1.7,0,3,0.3,4.1,0.8c1.3,0.5,2.3,1.2,3.7,1.7c0,0,0,0,0,0c1,0.3,2.1,0.6,3.5,0.6
		c4.3,0,4.6-1.9,9.8-2.1c4.3-0.1,5,1.2,8.8,1c0.6-1.9,0.9-3.9,1-6.1c-4.8,0.2-8.4,2.7-13.7,3.1C59.3,26.2,57.2,20.7,49.8,23.3"/>
	<path fill="#E2F4FD" d="M38.5,22.7c4.8,0.1,5.3-2.4,10.1-2.4c5.2,0,6,3,11.3,3c4.3,0,4.6-1.9,9.7-2.1c4.5-0.1,5.1,1.3,9.4,1
		c0.1,0,0.3,0,0.4,0c0-11.8-9.2-21.4-20.5-21.4c-11.3,0-20.5,9.6-20.5,21.4C38.4,22.4,38.5,22.6,38.5,22.7L38.5,22.7
		C38.5,22.8,38.5,22.7,38.5,22.7C38.5,22.7,38.5,22.7,38.5,22.7"/>
	<path fill="#E2F4FD" d="M79.4,22.2C79.4,22.2,79.4,22.2,79.4,22.2C79.4,22.2,79.4,22.2,79.4,22.2C79.4,22.2,79.4,22.2,79.4,22.2
		C79.4,22.2,79.4,22.2,79.4,22.2"/>
	<path fill="#BBD9F2" d="M79.4,22.2L79.4,22.2C79.4,22.2,79.4,22.2,79.4,22.2C79.4,22.2,79.4,22.2,79.4,22.2"/>
	<path fill="#BBD9F2" d="M79.4,22.2c-0.1,0-0.3,0-0.4,0c-4.3,0.3-4.9-1.1-9.4-1c-5.2,0.2-5.4,2.1-9.7,2.1c-5.3,0-6.1-3-11.3-3
		c-4.8,0-5.3,2.5-10.1,2.4c0,0,0,0,0,0c0,0,0,0,0,0.1c0,1,0.1,2.1,0.3,3c2.6,0,5.6-0.6,9.4-1.9c0.5-0.2,1.1-0.4,1.7-0.6
		c3.9-1.4,6.4-0.5,8.8,0.6c2.1,0.9,4.2,2,7.2,1.8c2.8-0.2,5.1-1,7.4-1.8c2-0.6,4-1.2,6.3-1.3C79.4,22.5,79.4,22.4,79.4,22.2
		C79.4,22.2,79.4,22.2,79.4,22.2C79.4,22.2,79.4,22.2,79.4,22.2"/>
	<path fill="#29AAE1" d="M69.6,27.7c-4.6,0.1-5.3,1.7-8.4,2c2.3,0.3,4.7,0.8,6.9,1.4c3.7,1,6.5,1.3,8.9,1.2c0.6-1.1,1.1-2.3,1.5-3.6
		C74.6,28.8,73.9,27.5,69.6,27.7"/>
	<path fill="#29AAE1" d="M52.6,27.5c-1.1-0.4-2.3-0.8-4.1-0.8c-1.8,0-3,0.3-4.1,0.8c-1.5,0.6-2.7,1.4-4.9,1.6c0,0.1,0.1,0.2,0.1,0.2
		c0.2,0.5,0.3,1,0.5,1.4c2.5-0.1,4.8-0.5,7-1c2.3-0.6,5.6-0.8,9.2-0.6h0C55,28.7,53.9,28.1,52.6,27.5"/>
	<path fill="#0F8DCE" d="M68.1,31.1c-2.2-0.6-4.6-1.1-6.9-1.4c-1.7-0.2-3.3-0.4-4.9-0.5c-3.6-0.2-6.9,0-9.2,0.6
		c-2.2,0.5-4.5,0.9-7,1c0.3,0.7,0.6,1.4,1,2.1c3.6,6.4,10.2,10.6,17.7,10.6c7.6,0,14.2-4.3,17.7-10.6c0.1-0.2,0.2-0.4,0.3-0.6
		C74.6,32.4,71.8,32.1,68.1,31.1"/>
</g>
</svg>
