<svg width="48px" viewBox="0 0 85 87.6" preserveAspectRatio="xMidYMid meet">
<path fill="#4AC8EF" d="M64.3,64.6H48.8v-3.3h15.5c9.6,0,17.3-7.8,17.3-17.3c0-9.1-6.7-16.5-15.6-17.3c-0.9-0.1-1.5-0.8-1.5-1.7
	c0-12-9.7-21.7-21.7-21.7c-12,0-21.7,9.7-21.7,21.7c0,0.9-0.7,1.6-1.6,1.7C10.5,27.1,3.3,34.7,3.3,44c0,9.6,7.8,17.3,17.3,17.3h15.6
	v3.3H20.7C9.3,64.6,0,55.4,0,44c0-10.5,7.7-19.2,17.9-20.5C18.7,10.4,29.6,0,42.9,0c13.3,0,24.2,10.4,25,23.5
	C77.7,25.1,85,33.7,85,44C85,55.4,75.7,64.6,64.3,64.6"/>
<path fill="#4AC8EF" d="M43.3,43.1c-0.5,0-1-0.2-1.3-0.7c-0.5-0.7-0.4-1.8,0.4-2.3l8.3-6.1c0.7-0.5,1.8-0.4,2.3,0.4
	c0.5,0.7,0.4,1.8-0.4,2.3l-8.3,6.1C44,43,43.6,43.1,43.3,43.1"/>
<path fill="#4AC8EF" d="M41.9,54.3c-0.3,0-0.7-0.1-1-0.3L27.1,43.7c-0.7-0.5-0.9-1.6-0.3-2.3c0.5-0.7,1.6-0.9,2.3-0.3l13.8,10.3
	c0.7,0.5,0.9,1.6,0.3,2.3C42.9,54.1,42.4,54.3,41.9,54.3"/>
<path fill="#4AC8EF" d="M42.5,87.6c-0.9,0-1.7-0.7-1.7-1.7V26.4c0-0.9,0.7-1.7,1.7-1.7c0.9,0,1.7,0.7,1.7,1.7v59.5
	C44.2,86.9,43.4,87.6,42.5,87.6"/>
</svg>
