<svg width="53px" viewBox="0 0 53 52.9" preserveAspectRatio="xMidYMid meet">
<g>
	<path fill="#4AC8EF" d="M1.9,28.5c-0.2,0-0.3,0-0.5-0.1c-0.4-0.3-0.6-0.8-0.3-1.2L17.5,0.4C17.6,0.2,17.9,0,18.2,0
		c0.3,0,0.6,0.1,0.8,0.3l11.8,15c0.3,0.4,0.2,1-0.2,1.3c-0.4,0.3-1,0.2-1.3-0.1l-11-13.9L2.7,28.1C2.5,28.4,2.2,28.5,1.9,28.5"/>
	<path fill="#4AC8EF" d="M4.8,29.9c-0.2,0-0.4-0.1-0.5-0.2c-0.4-0.3-0.5-0.8-0.2-1.3L18.1,8c0.2-0.3,0.5-0.4,0.8-0.4
		c0.3,0,0.6,0.2,0.7,0.5L25.3,20c0.2,0.4,0,1-0.4,1.2c-0.4,0.2-1,0-1.2-0.4l-5-10.4L5.6,29.5C5.4,29.7,5.1,29.9,4.8,29.9"/>
	<path fill="#4AC8EF" d="M24,44.9c-1.8,0-3.2,1.4-3.2,3.1c0,1.7,1.4,3.1,3.2,3.1h24c1.8,0,3.2-1.4,3.2-3.1c0-1.7-1.4-3.1-3.2-3.1H24
		z M48,52.9H24c-2.8,0-5-2.2-5-4.9c0-2.7,2.2-4.9,5-4.9h24c2.8,0,5,2.2,5,4.9C53,50.7,50.8,52.9,48,52.9"/>
	<path fill="#4AC8EF" d="M25.4,38.7h22.9v-7.6c0-0.2-0.2-0.9-1.4-0.9h-5.4V33c0,0.4-0.3,0.8-0.7,0.9l-15.4,3.3V38.7z M49.3,40.5
		H24.5c-0.5,0-0.9-0.4-0.9-0.9v-3.1c0-0.4,0.3-0.8,0.7-0.9l15.4-3.3v-3.1c0-0.5,0.4-0.9,0.9-0.9H47c2.2,0,3.1,1.6,3.2,2.7l0,8.6
		C50.2,40.1,49.8,40.5,49.3,40.5"/>
	<path fill="#4AC8EF" d="M24.5,37.4c-0.5,0-0.9-0.4-0.9-0.9c0-7.8,1.6-13.2,4.8-16.2c2.5-2.4,5.1-2.2,5.2-2.2l5.4,0
		c1.9,0,3.3,0.5,4.2,1.5c0.9,1,0.8,2.1,0.8,2.5v6.6c0,0.5-0.4,0.9-0.9,0.9c-0.5,0-0.9-0.4-0.9-0.9l0-6.8c0,0,0.1-0.6-0.4-1.1
		c-0.5-0.6-1.5-0.8-2.8-0.8h-5.5c-0.1,0-2-0.1-3.9,1.8c-1.9,1.8-4.2,5.9-4.2,14.9C25.4,37,25,37.4,24.5,37.4"/>
	<rect x="35" y="19.8" fill="#4AC8EF" width="1.8" height="13.5"/>
	<path fill="#4AC8EF" d="M2.6,28.9c-0.2,0.9-0.5,2.2-0.7,3.9c-0.3,1.8,1.3,3.6,2.9,4.1c1.9,0.6,3.5,0.1,3.8,0L9,36.7
		c1.7-0.9,1.7-0.9,3.2-2l0.2-0.1c0.9-0.6,1.7-1.2,2.3-1.8c-0.6,0-1.3,0.1-2.1,0.1c-1.2,0-3.5-1-4-1.2C6.3,30.6,3.9,29.5,2.6,28.9
		 M6.7,39.1c-0.7,0-1.6-0.1-2.5-0.4c-2.3-0.8-4.5-3.3-4.1-6.1c0.5-3,1-5,1-5.1c0.1-0.3,0.2-0.5,0.5-0.6c0.2-0.1,0.5-0.1,0.8,0
		c0,0,3.6,1.7,7.1,3.2c1.2,0.5,2.7,1,3.3,1c2.9,0,4.7-0.3,4.7-0.3c0.4-0.1,0.8,0.1,1,0.5c0.2,0.4,0.1,0.8-0.2,1.1
		c-0.1,0.1-1.9,1.8-4.7,3.8l-0.2,0.1c-1.6,1.2-1.6,1.2-3.4,2.2l-0.5,0.3c0,0-0.1,0-0.1,0C9.2,38.7,8.1,39.1,6.7,39.1"/>
	<path fill="#4AC8EF" d="M25.3,48c0,0.3-0.3,0.6-0.6,0.6c-0.3,0-0.6-0.3-0.6-0.6c0-0.3,0.3-0.6,0.6-0.6C25,47.4,25.3,47.7,25.3,48"
		/>
	<path fill="#4AC8EF" d="M24.7,47.6c-0.2,0-0.3,0.2-0.3,0.3c0,0.2,0.2,0.3,0.3,0.3c0.2,0,0.3-0.2,0.3-0.3
		C25.1,47.8,24.9,47.6,24.7,47.6 M24.7,49.4c-0.8,0-1.5-0.7-1.5-1.5c0-0.8,0.7-1.5,1.5-1.5c0.8,0,1.5,0.7,1.5,1.5
		C26.2,48.8,25.5,49.4,24.7,49.4"/>
	<path fill="#4AC8EF" d="M30.9,48c0,0.3-0.3,0.6-0.6,0.6c-0.3,0-0.6-0.3-0.6-0.6c0-0.3,0.3-0.6,0.6-0.6C30.7,47.4,30.9,47.7,30.9,48
		"/>
	<path fill="#4AC8EF" d="M30.4,47.6c-0.2,0-0.3,0.2-0.3,0.3c0,0.2,0.2,0.3,0.3,0.3c0.2,0,0.3-0.2,0.3-0.3
		C30.7,47.8,30.5,47.6,30.4,47.6 M30.4,49.4c-0.8,0-1.5-0.7-1.5-1.5c0-0.8,0.7-1.5,1.5-1.5c0.8,0,1.5,0.7,1.5,1.5
		C31.8,48.8,31.2,49.4,30.4,49.4"/>
	<path fill="#4AC8EF" d="M36.5,48c0,0.3-0.3,0.6-0.6,0.6c-0.3,0-0.6-0.3-0.6-0.6c0-0.3,0.3-0.6,0.6-0.6C36.3,47.4,36.5,47.7,36.5,48
		"/>
	<path fill="#4AC8EF" d="M36,47.6c-0.2,0-0.3,0.2-0.3,0.3c0,0.2,0.2,0.3,0.3,0.3c0.2,0,0.3-0.2,0.3-0.3C36.3,47.8,36.2,47.6,36,47.6
		 M36,49.4c-0.8,0-1.5-0.7-1.5-1.5c0-0.8,0.7-1.5,1.5-1.5c0.8,0,1.5,0.7,1.5,1.5C37.4,48.8,36.8,49.4,36,49.4"/>
	<path fill="#4AC8EF" d="M42.2,48c0,0.3-0.3,0.6-0.6,0.6c-0.3,0-0.6-0.3-0.6-0.6c0-0.3,0.3-0.6,0.6-0.6C41.9,47.4,42.2,47.7,42.2,48
		"/>
	<path fill="#4AC8EF" d="M41.6,47.6c-0.2,0-0.3,0.2-0.3,0.3c0,0.2,0.2,0.3,0.3,0.3c0.2,0,0.3-0.2,0.3-0.3
		C41.9,47.8,41.8,47.6,41.6,47.6 M41.6,49.4c-0.8,0-1.5-0.7-1.5-1.5c0-0.8,0.7-1.5,1.5-1.5c0.8,0,1.5,0.7,1.5,1.5
		C43.1,48.8,42.4,49.4,41.6,49.4"/>
	<path fill="#4AC8EF" d="M47.8,48c0,0.3-0.3,0.6-0.6,0.6c-0.3,0-0.6-0.3-0.6-0.6c0-0.3,0.3-0.6,0.6-0.6C47.5,47.4,47.8,47.7,47.8,48
		"/>
	<path fill="#4AC8EF" d="M47.2,47.6c-0.2,0-0.3,0.2-0.3,0.3c0,0.2,0.2,0.3,0.3,0.3c0.2,0,0.3-0.2,0.3-0.3
		C47.6,47.8,47.4,47.6,47.2,47.6 M47.2,49.4c-0.8,0-1.5-0.7-1.5-1.5c0-0.8,0.7-1.5,1.5-1.5c0.8,0,1.5,0.7,1.5,1.5
		C48.7,48.8,48,49.4,47.2,49.4"/>
</g>
</svg>
