<svg width="64px" viewBox="0 0 70 106.7" preserveAspectRatio="xMidYMid meet">
<g>
	<path fill="#4AC8EF" d="M52.7,50.9c-1,0-1.9-0.8-1.9-1.9v-21c0-1.2-0.9-2.1-2.1-2.1h-7.5v-8c0-0.2-0.1-0.3-0.3-0.3h-5.7L46.9,5.9
		h6.7c0.6,0,1.1-0.5,1.1-1.1c0-0.6-0.5-1.1-1.1-1.1H16.4c-0.6,0-1.1,0.5-1.1,1.1c0,0.6,0.5,1.1,1.1,1.1h6.7l11.7,11.6h-5.7
		c-0.2,0-0.3,0.1-0.3,0.3v8h-7.5c-1.2,0-2.1,0.9-2.1,2.1v21c0,1-0.8,1.9-1.9,1.9c-1,0-1.9-0.8-1.9-1.9v-21c0-3.2,2.6-5.8,5.8-5.8
		h3.8v-4.3c0-1.3,0.6-2.4,1.5-3.1l-5-5h-5.1c-2.7,0-4.8-2.2-4.8-4.8S13.8,0,16.4,0h37.2c2.7,0,4.8,2.2,4.8,4.8s-2.2,4.8-4.8,4.8
		h-5.1l-5,5c0.9,0.7,1.5,1.9,1.5,3.1v4.3h3.8c3.2,0,5.8,2.6,5.8,5.8v21C54.5,50,53.7,50.9,52.7,50.9"/>
	<path fill="#4AC8EF" d="M36.7,25.8h-3.4c-1,0-1.9-0.8-1.9-1.9c0-1,0.8-1.9,1.9-1.9h3.4c1,0,1.9,0.8,1.9,1.9
		C38.6,25,37.7,25.8,36.7,25.8"/>
	<path fill="#4AC8EF" d="M20.3,60.1c-0.6,0-1.2-0.3-1.6-0.8c-2.2-3.2-3.3-7-3.3-10.9c0-10.8,8.8-19.5,19.5-19.5s19.5,8.8,19.5,19.5
		c0,3.7-1,7.3-3,10.4c-0.6,0.9-1.7,1.1-2.6,0.6c-0.9-0.6-1.1-1.7-0.6-2.6c1.6-2.5,2.4-5.4,2.4-8.4c0-8.7-7.1-15.8-15.8-15.8
		s-15.8,7.1-15.8,15.8c0,3.1,0.9,6.2,2.7,8.8c0.6,0.9,0.3,2-0.5,2.6C21,60,20.7,60.1,20.3,60.1"/>
	<path fill="#4AC8EF" d="M68.1,88.8H1.9c-1,0-1.9-0.8-1.9-1.9c0-1,0.8-1.9,1.9-1.9h66.2c1,0,1.9,0.8,1.9,1.9
		C70,87.9,69.2,88.8,68.1,88.8"/>
	<path fill="#4AC8EF" d="M58.1,98H11.9c-1,0-1.9-0.8-1.9-1.9c0-1,0.8-1.9,1.9-1.9h46.1c1,0,1.9,0.8,1.9,1.9
		C59.9,97.1,59.1,98,58.1,98"/>
	<path fill="#4AC8EF" d="M49.9,106.7H20.1c-1,0-1.9-0.8-1.9-1.9c0-1,0.8-1.9,1.9-1.9h29.7c1,0,1.9,0.8,1.9,1.9
		C51.7,105.9,50.9,106.7,49.9,106.7"/>
	<path fill="#4AC8EF" d="M39.6,9.7H22.3c-1,0-1.9-0.8-1.9-1.9s0.8-1.9,1.9-1.9h17.3c1,0,1.9,0.8,1.9,1.9S40.6,9.7,39.6,9.7"/>
	<path fill="#4AC8EF" d="M52.2,79.7c-0.6,0-1.2-0.3-1.6-0.9c-2.2-3.5-4.2-7.4-6-11.7c-3.5-8.3-4.7-15.5-4.3-23.8c0.1-1,1-1.8,2-1.8
		c1,0.1,1.8,0.9,1.8,2c-0.4,7.8,0.7,14.4,4,22.2c1.7,4,3.6,7.8,5.7,11.1c0.6,0.9,0.3,2-0.6,2.6C52.9,79.6,52.5,79.7,52.2,79.7"/>
	<path fill="#4AC8EF" d="M39.3,79.7c-0.8,0-1.5-0.5-1.8-1.2c-1.1-3.2-2.2-6.9-3.1-10.9c-2-9.1-2-16.4,0.1-24.6
		c0.3-1,1.3-1.6,2.3-1.4c1,0.3,1.6,1.3,1.4,2.3c-1.9,7.6-1.9,14.4,0,22.8c0.9,3.9,1.9,7.4,3,10.5c0.3,1-0.2,2-1.1,2.4
		C39.8,79.7,39.6,79.7,39.3,79.7"/>
	<path fill="#4AC8EF" d="M27.4,79.7c-0.9,0-1.7-0.6-1.8-1.6c-0.5-3.3-0.9-6.7-1.1-10.2c-0.4-9.7,1-17.3,4.7-25.3
		c0.4-0.9,1.5-1.4,2.5-0.9c0.9,0.4,1.4,1.5,0.9,2.5c-3.4,7.4-4.7,14.5-4.3,23.6c0.1,3.3,0.5,6.6,1,9.8c0.2,1-0.5,2-1.5,2.2
		C27.6,79.7,27.5,79.7,27.4,79.7"/>
</g>
</svg>
