<svg width="41px" viewBox="0 0 41 30.1" preserveAspectRatio="xMidYMid meet">
<g>
	<path fill="#4AC8EF" d="M18.4,11.6h4.8v-1.1c0-0.2-0.2-0.4-0.4-0.4h-1V4.5h4.8l0.3,0.4c0.4,0.5,0.9,0.8,1.6,0.8
		c0.5,0,1-0.2,1.4-0.6c0.4-0.4,0.5-0.9,0.5-1.4c0-1-0.8-1.8-1.8-1.8c-0.7,0-1.3,0.3-1.7,0.8l-0.3,0.4H15l-0.3-0.4
		c-0.4-0.5-1-0.9-1.7-0.8c-1,0.1-1.7,0.8-1.8,1.8c0,0.5,0.2,1,0.5,1.4c0.4,0.4,0.8,0.6,1.4,0.6c0.6,0,1.2-0.3,1.6-0.8L15,4.5h4.8
		v5.6h-1c-0.2,0-0.4,0.2-0.4,0.4V11.6z M25.1,13.5h-8.6v-3c0-1,0.6-1.8,1.4-2.2v-2H16c-0.7,0.8-1.7,1.2-2.8,1.2c-1,0-2-0.4-2.8-1.2
		C9.7,5.7,9.3,4.7,9.3,3.7C9.4,1.7,11,0.1,13,0c1.2-0.1,2.3,0.4,3,1.2h9.6c0.8-0.8,1.9-1.3,3-1.2c2,0.1,3.5,1.7,3.6,3.7
		c0,1.1-0.3,2-1.1,2.8c-0.7,0.8-1.7,1.2-2.8,1.2c-1.1,0-2.1-0.5-2.8-1.2h-1.9v2c0.8,0.4,1.4,1.2,1.4,2.2V13.5z"/>
	<path fill="#4AC8EF" d="M1.9,28.2h4.5v-3.4c0-1.9,1.5-3.4,3.4-3.4h3.8v1.5c0,1,0.8,1.8,1.8,1.8h10.8c1,0,1.8-0.8,1.8-1.8v-1.5h7.1
		v4.2c0,1.2,1,2.2,2.2,2.2h1.7V10.5h-1.7c-1.2,0-2.2,1-2.2,2.2v4.2H28v-1.5c0-1-0.8-1.8-1.8-1.8H15.4c-1,0-1.8,0.8-1.8,1.8v1.5H9.9
		c-4.4,0-8,3.6-8,8V28.2z M8.4,30.1H0v-5.3c0-5.5,4.4-9.9,9.9-9.9h1.9c0.2-1.8,1.8-3.3,3.7-3.3h10.8c1.9,0,3.5,1.4,3.7,3.3h3.3v-2.2
		c0-2.3,1.9-4.1,4.1-4.1H41v21.1h-3.6c-2.3,0-4.1-1.8-4.1-4.1v-2.2h-3.3c-0.2,1.8-1.8,3.3-3.7,3.3H15.4c-1.9,0-3.5-1.4-3.7-3.3H9.9
		c-0.8,0-1.5,0.7-1.5,1.5V30.1z"/>
	<path fill="#4AC8EF" d="M34.2,23.3c-0.5,0-1-0.4-1-1v-2.7c0-0.5,0.4-1,1-1c0.5,0,1,0.4,1,1v2.7C35.2,22.9,34.7,23.3,34.2,23.3"/>
</g>
</svg>
