<svg width="50" viewBox="0 0 50 47.9"><g fill="#4AC8EF"><path d="M36.5 5.2h8.3v2.1h-8.3zM40 35l-4.9-3.7h-3.9v-2.1h4.6l5.5 4.2zM50 46.9h-2.1v-5.7L42.6 37l1.3-1.7 5.7 4.4c.3.2.4.5.4.8v6.4z"/><path d="M50 47.9H37.5c-.6 0-1-.5-1-1v-5.8l-6.3-5.3 1.3-1.6 6.6 5.6c.2.2.4.5.4.8v5.2H50v2.1zM23.345 39.707l1.832-1.028 4.599 8.198-1.831 1.027zM.16 46.844l4.602-8.197 1.831 1.028-4.601 8.197z"/><path d="M2.1 43.8h25v2.1h-25zM10.4 9.4h9.4v2.1h-9.4zM22.614 28.04l1.378-21.557 2.096.134-1.378 21.557zM21.2 35.4h-.4v-2.1h.4c.5 0 .9-.4 1-.9l.1-.8 2.1.2-.1.8c-.2 1.6-1.5 2.8-3.1 2.8"/><path d="M23.8 29.2H6.1l-5.1-1 .4-2 5 .9h17.2l5.3-1 .4 2zM27.6 17.5l-3.3-1.9H5.7l-3.3 1.9-1.1-1.8 3.8-2.2h19.7l3.8 2.2z"/><path d="M3.82 6.69l2.095-.133 1.37 21.557-2.095.133zM9.4 35.4h-.7c-1.6 0-2.9-1.2-3-2.8l-.1-.8 2.1-.2.1.8c.1.5.5.9 1 .9h.7v2.1z"/><path d="M6.7 7.3c-2.2 0-3.9 1.7-4 3.9l-.6 21.1c-.1 1.7.5 3.2 1.7 4.4 1.1 1.2 2.7 1.8 4.3 1.8h13.7c1.6 0 3.2-.6 4.3-1.8 1.1-1.2 1.7-2.7 1.7-4.4l-.6-21.2c-.1-2.2-1.8-3.9-4-3.9H6.7zm15.1 33.3H8.1c-2.2 0-4.3-.9-5.8-2.5S-.1 34.4 0 32.2L.6 11c.1-3.3 2.8-5.9 6.1-5.9h16.5c3.3 0 6 2.6 6.1 5.9l.6 21.2c.1 2.2-.7 4.3-2.3 5.9-1.5 1.7-3.6 2.5-5.8 2.5M34.4 2.1v8.3h12.5V2.1H34.4zm12.5 10.4H34.4c-1.1 0-2.1-.9-2.1-2.1V2.1c0-1.1.9-2.1 2.1-2.1h12.5C48 0 49 .9 49 2.1v8.3c0 1.2-1 2.1-2.1 2.1"/><path d="M39.6 11.5h2.1v28.1h-2.1z"/></g></svg>