<svg width="101"  viewBox="0 0 101 43.3"><g fill="#4AC8EF"><path d="M59.8 30.7H.3v-3.6h59.6c.6 0 .9-.4 1-.6.1-.2.2-.6-.2-1L48.3 15c-.4-.3-.9-.5-1.5-.5H.3v-3.6h46.5c1.7 0 3.3.6 4.5 1.6L63.5 23c1.5 1.3 2 3.2 1.1 4.9-.8 1.7-2.7 2.8-4.8 2.8"/><path d="M12.8 12.6H17v16.2h-4.2zM94.7 27.1H79.6c-1.7 0-3.3-.6-4.5-1.6L62.9 14.9c-1.5-1.3-1.9-3.2-1.1-4.9.8-1.7 2.7-2.8 4.8-2.8h9.2v3.6h-9.2c-.6 0-.9.4-1 .6-.1.2-.2.6.2 1L78.1 23c.4.3.9.5 1.5.5h15.1v3.6z"/><path d="M75.8 43.3H.3v-3.6h75.6c7.8 0 21-1.9 21-9 0-2.3-2.5-4.4-15.9-15.3-2.2-1.8-4.8-3.9-7.6-6.2-4.3-3.5-10-5.5-16-5.5H.4V0h57C64.3 0 71 2.3 76.1 6.5c2.9 2.3 5.4 4.4 7.6 6.2 14.7 11.9 17.3 14.1 17.3 18 0 9.3-13.6 12.6-25.2 12.6"/><path d="M33.8 12.6H38v16.2h-4.2z"/><path d="M59.6 30.7H0v-3.6h59.6c.6 0 .9-.4 1-.6.1-.2.2-.6-.2-1L48 15c-.4-.3-.9-.5-1.5-.5H0v-3.6h46.5c1.7 0 3.3.6 4.5 1.6L63.3 23c1.5 1.3 2 3.2 1.1 4.9-.8 1.7-2.7 2.8-4.8 2.8"/><path d="M12.6 12.7h4.2v16.2h-4.2zM33.6 12.7h4.2v16.2h-4.2zM94.4 27.1h-15c-1.7 0-3.3-.6-4.5-1.6L62.7 15c-1.5-1.3-1.9-3.2-1.1-4.9.8-1.7 2.7-2.8 4.8-2.8h9.2v3.6h-9.2c-.6 0-.9.4-1 .6-.1.2-.2.6.2 1L77.9 23c.4.3.9.5 1.5.5h15.1v3.6z"/><path d="M75.6 43.3H0v-3.6h75.6c7.8 0 21-1.9 21-9 0-2.3-2.5-4.4-15.9-15.3-2.2-1.8-4.8-3.9-7.6-6.2-4.3-3.5-10-5.5-16-5.5H0V0h57c7.1 0 13.7 2.3 18.9 6.5 2.9 2.3 5.4 4.4 7.6 6.2 14.6 11.9 17.2 14.1 17.2 17.9 0 9.4-13.5 12.7-25.1 12.7"/></g></svg>