<svg width="36" viewBox="0 0 36 52.1"><g fill="#4AC8EF"><path d="M33.2 52.1l-5.4-9.7 2.1-1.2 5.4 9.7zM2.8 52.1L.7 50.9l5.4-9.7 2.1 1.2zM11.9 5h12.2v2.5H11.9zM29.7 28.6l-2.4-.2 1.6-26.8 2.5.1zM25.5 37.2h-1.4v-2.5h1.4c.6 0 1.1-.5 1.2-1.1l.1-.9 2.4.2-.1.9c-.1 2-1.7 3.4-3.6 3.4"/><path d="M28.6 29.8H7.3L.7 28.5l.5-2.4 6.4 1.2h20.8l6.4-1.2.5 2.4zM33.2 14.7l-3.4-2.3H6.2l-3.3 2.3-1.4-2.1 3.9-2.7h25.2l3.9 2.7z"/><path d="M6.3 28.6L4.6 1.7l2.5-.1 1.6 26.8zM11.9 37.2h-1.4c-1.9 0-3.4-1.4-3.6-3.4l-.1-.9 2.4-.2.1.9c.1.6.6 1.1 1.2 1.1h1.4v2.5zM3.4 47.2h29.2v2.5H3.4z"/><path d="M8.1 2.5c-2.6 0-4.8 2.1-4.9 4.8l-.8 26c-.1 2 .7 4 2.1 5.4C5.9 40.2 7.7 41 9.7 41h16.5c2 0 3.9-.8 5.2-2.3 1.4-1.5 2.1-3.4 2.1-5.4l-.8-26c-.1-2.7-2.2-4.8-4.9-4.8H8.1zm18.2 40.9H9.7c-2.7 0-5.1-1.1-7-3C.8 38.5-.1 35.9 0 33.2l.8-26C.9 3.2 4.1 0 8.1 0h19.8c4 0 7.2 3.2 7.3 7.2l.8 26c.1 2.7-.9 5.3-2.7 7.2-1.9 2-4.4 3-7 3"/></g></svg>