<?xml version="1.0" encoding="utf-8"?>
<!-- Generator: Adobe Illustrator 23.1.0, SVG Export Plug-In . SVG Version: 6.00 Build 0)  -->
<svg version="1.1" id="Layer_1" xmlns="http://www.w3.org/2000/svg" xmlns:xlink="http://www.w3.org/1999/xlink" x="0px" y="0px"
	 width="101px" height="43.3px" viewBox="0 0 101 43.3" enable-background="new 0 0 101 43.3" xml:space="preserve">
<g>
	<path fill="#4AC8EF" d="M59.8,30.7H0.3v-3.6h59.6c0.6,0,0.9-0.4,1-0.6c0.1-0.2,0.2-0.6-0.2-1L48.3,15c-0.4-0.3-0.9-0.5-1.5-0.5H0.3
		v-3.6h46.5c1.7,0,3.3,0.6,4.5,1.6L63.5,23c1.5,1.3,2,3.2,1.1,4.9C63.8,29.6,61.9,30.7,59.8,30.7"/>
	<rect x="12.8" y="12.6" fill="#4AC8EF" width="4.2" height="16.2"/>
	<path fill="#4AC8EF" d="M94.7,27.1H79.6c-1.7,0-3.3-0.6-4.5-1.6L62.9,14.9c-1.5-1.3-1.9-3.2-1.1-4.9c0.8-1.7,2.7-2.8,4.8-2.8h9.2
		v3.6h-9.2c-0.6,0-0.9,0.4-1,0.6c-0.1,0.2-0.2,0.6,0.2,1l12.3,10.6c0.4,0.3,0.9,0.5,1.5,0.5h15.1V27.1z"/>
	<path fill="#4AC8EF" d="M75.8,43.3H0.3v-3.6h75.6c7.8,0,21-1.9,21-9c0-2.3-2.5-4.4-15.9-15.3c-2.2-1.8-4.8-3.9-7.6-6.2
		c-4.3-3.5-10-5.5-16-5.5h-57V0h57C64.3,0,71,2.3,76.1,6.5c2.9,2.3,5.4,4.4,7.6,6.2C98.4,24.6,101,26.8,101,30.7
		C101,40,87.4,43.3,75.8,43.3"/>
	<rect x="33.8" y="12.6" fill="#4AC8EF" width="4.2" height="16.2"/>
	<path fill="#4AC8EF" d="M59.6,30.7H0v-3.6h59.6c0.6,0,0.9-0.4,1-0.6c0.1-0.2,0.2-0.6-0.2-1L48,15c-0.4-0.3-0.9-0.5-1.5-0.5H0v-3.6
		h46.5c1.7,0,3.3,0.6,4.5,1.6L63.3,23c1.5,1.3,2,3.2,1.1,4.9C63.6,29.6,61.7,30.7,59.6,30.7"/>
	<rect x="12.6" y="12.7" fill="#4AC8EF" width="4.2" height="16.2"/>
	<rect x="33.6" y="12.7" fill="#4AC8EF" width="4.2" height="16.2"/>
	<path fill="#4AC8EF" d="M94.4,27.1H79.4c-1.7,0-3.3-0.6-4.5-1.6L62.7,15c-1.5-1.3-1.9-3.2-1.1-4.9c0.8-1.7,2.7-2.8,4.8-2.8h9.2v3.6
		h-9.2c-0.6,0-0.9,0.4-1,0.6c-0.1,0.2-0.2,0.6,0.2,1L77.9,23c0.4,0.3,0.9,0.5,1.5,0.5h15.1V27.1z"/>
	<path fill="#4AC8EF" d="M75.6,43.3H0v-3.6h75.6c7.8,0,21-1.9,21-9c0-2.3-2.5-4.4-15.9-15.3c-2.2-1.8-4.8-3.9-7.6-6.2
		c-4.3-3.5-10-5.5-16-5.5H0V0h57c7.1,0,13.7,2.3,18.9,6.5c2.9,2.3,5.4,4.4,7.6,6.2c14.6,11.9,17.2,14.1,17.2,17.9
		C100.7,40,87.2,43.3,75.6,43.3"/>
</g>
</svg>
