<svg width="51"  viewBox="0 0 51 51.2"><g fill="#4AC8EF"><path d="M13 18.8l6.6 6.7 9.6-9.8L22.5 9 13 18.8zm6.5 9.8L10 18.8 22.5 6l9.6 9.7-12.6 12.9zM19.3 41.6H2.9c-.6 0-1.1-.5-1.1-1.1 0-.6.5-1.1 1.1-1.1h16.4c.6 0 1.1.5 1.1 1.1 0 .6-.5 1.1-1.1 1.1M45.3 47.5h-.2c-1.4 0-2.7-.7-3.6-1.7L25.3 27l1.6-1.4 16.2 18.7c.5.6 1.3 1 2.1 1s1.6-.3 2.1-.9l.7-.7c.6-.6.9-1.4.9-2.2 0-.8-.4-1.6-1-2.1L29.5 22.9l1.4-1.6 18.4 16.5c1.1 1 1.7 2.3 1.7 3.7 0 1.4-.5 2.7-1.5 3.8l-.7.7c-.9.9-2.2 1.5-3.5 1.5"/><path d="M30.5 16.7c-.5 0-1-.4-1-.9-.1-.6.3-1.1.9-1.2l3-.4 2.1-2.1-9.2-9.4-2.1 2.1-.4 3c-.1.6-.6 1-1.2.9-.6-.1-1-.6-.9-1.2l.5-3.4c0-.2.1-.4.3-.6L25.6.4c.4-.4 1.1-.4 1.5 0l10.7 10.9c.4.4.4 1.1 0 1.5l-3.1 3.1c-.2.2-.4.3-.6.3l-3.3.5h-.3M22.2 51.2h-2.1v-4.4h-18v4.4H0v-5.5c0-.6.5-1.1 1.1-1.1h20.1c.6 0 1.1.5 1.1 1.1v5.5zM15.9 34.5c-.3 0-.5-.1-.7-.3L4.4 23.3c-.4-.4-.4-1.1 0-1.5l3.1-3.1c.2-.2.4-.3.6-.3l3.3-.5c.6-.1 1.1.3 1.2.9.1.6-.3 1.1-.9 1.2l-3 .4-2.1 2.1 9.2 9.4 2.1-2.1.4-3c.1-.6.6-1 1.2-.9.6.1 1 .6.9 1.2l-.4 3.4c0 .2-.1.4-.3.6l-3.1 3.1c-.2.2-.5.3-.7.3"/></g></svg>