<svg width="46"  viewBox="0 0 46 44.4"><path fill="#4AC8EF" d="M23 37.7c-8.7 0-15.9-6.7-15.9-15s7.1-15 15.9-15c2.3 0 4.6.5 6.6 1.4.5.2.7.8.5 1.2-.2.5-.8.7-1.3.4C27 9.9 25 9.5 23 9.5c-7.7 0-13.9 5.9-13.9 13.1S15.3 35.8 23 35.8c3.1 0 6.1-1 8.5-2.8.4-.3 1-.2 1.4.2.3.4.3 1-.2 1.3-2.8 2.1-6.1 3.2-9.7 3.2"/><path fill="#4AC8EF" d="M23 44.4c-12.7 0-23-9.7-23-21.7S10.3 1 23 1c3.4 0 6.7.7 9.7 2L34 .8c.3-.6 1-.9 1.7-.8.8.1 1.5.6 1.7 1.3l2.2 8.7c.3 1-.4 2.1-1.5 2.4l-8.9 2.7c-.5.2-1.1-.1-1.2-.6-.2-.5.1-1 .6-1.2l9-2.7c.1 0 .2-.1.1-.2l-2.2-8.6-2.1 3.5-.7-.3c-3-1.5-6.3-2.2-9.7-2.2-11.6 0-21 8.9-21 19.9s9.4 19.9 21 19.9 21.1-8.9 21.1-19.9c0-.5.4-.9 1-.9.5 0 1 .4 1 .9-.1 12-10.4 21.7-23.1 21.7"/></svg>