<svg width="52" viewBox="0 0 52 39.9"><g fill="#4AC8EF"><path d="M45.2 39.9c-10.6-2.6-27.8-2.6-38.4 0L6.2 38c10.9-2.7 28.7-2.7 39.6 0l-.6 1.9z"/><path d="M45.8 39.9l-.6-1.9c1.9-.5 4.1-.9 6.4-1.2l.3 2c-2.2.2-4.3.6-6.1 1.1M6.2 39.9c-1.8-.5-3.9-.8-6.2-1.1l.3-2c2.3.3 4.5.7 6.4 1.2l-.5 1.9zM27.5 33.9H0v-2h27.5c.9 0 1.7-.3 2.3-.9l7.7-7.1H0v-2h40.1c.4 0 .8.2 1 .6.2.4.1.8-.2 1.1l-9.6 8.8c-1 1-2.4 1.5-3.8 1.5M48.8 15H41c-.9 0-1.7-.3-2.3-.9l-6.3-5.8c-.8-.7-1-1.8-.6-2.7.4-1 1.4-1.6 2.5-1.6H39v2h-4.7c-.3 0-.5.2-.5.3 0 .1-.1.3.1.5l6.3 5.8c.2.2.5.3.8.3h7.8V15z"/><path d="M39 23.9H0v-2h39c4 0 10.8-1.1 10.8-5 0-1.2-1.3-2.4-8.2-8.5A94 94 0 0137.7 5c-2.2-2-5.2-3-8.2-3H0V0h29.4c3.6 0 7.1 1.3 9.7 3.6 1.5 1.3 2.8 2.4 4 3.4 7.5 6.6 8.9 7.8 8.9 9.9 0 5.2-7 7-13 7"/></g></svg>