<svg width="50px" viewBox="0 0 50 36.3" preserveAspectRatio="xMidYMid meet">
<g>
	<path fill="#4AC8EF" d="M34.6,21.1c-0.2,0-0.3-0.1-0.5-0.1l-7.2-3.8c-1.7-0.9-3.8,0-3.9,0L15.9,21c-0.5,0.2-1,0.1-1.2-0.3
		c-0.2-0.4-0.1-0.9,0.3-1.1l7.2-3.7c0.2-0.1,3-1.4,5.6,0l7.2,3.7c0.5,0.2,0.6,0.7,0.3,1.1C35.2,21,34.9,21.1,34.6,21.1"/>
	<path fill="#4AC8EF" d="M36.7,17.3c-0.2,0-0.3-0.1-0.5-0.1l-5-2.6c-4.3-1.9-4.8-4.1-4.8-5.6c0-1.1,0.3-7.8,0.3-8.1
		C26.7,0.3,27.2,0,27.6,0c0.5,0,0.9,0.4,0.9,0.9c0,0.1-0.3,7-0.3,8c0,0.7,0,2.4,3.9,4.1l5.1,2.7c0.5,0.2,0.6,0.7,0.3,1.1
		C37.4,17.1,37,17.3,36.7,17.3"/>
	<path fill="#4AC8EF" d="M13.3,17.3c-0.3,0-0.6-0.2-0.8-0.5c-0.2-0.4-0.1-0.9,0.3-1.1l5-2.6c3.9-1.8,3.9-3.4,3.9-4.1
		c0-1-0.3-8-0.3-8c0-0.5,0.3-0.9,0.9-0.9c0.6,0,1,0.3,1,0.8c0,0.3,0.3,7,0.3,8.1c0,1.5-0.5,3.6-4.9,5.6l-4.9,2.6
		C13.7,17.2,13.5,17.3,13.3,17.3"/>
	<path fill="#4AC8EF" d="M4.1,36.3c-1.1,0-2-0.3-2.7-0.9c-1.1-1-1.2-2.3-1.2-2.4C-1.8,14,10.9,5.5,11.4,5.1c3.4-2.2,6-1.2,7.7-0.1
		c0.4,0.3,0.5,0.8,0.2,1.2C19,6.6,18.4,6.7,18,6.4c-1.7-1.2-3.5-1.2-5.5,0.1C12.4,6.6,0.2,14.8,2.1,32.9c0,0.1,0.1,0.8,0.6,1.3
		c0.4,0.3,1,0.5,1.7,0.4L18,31.2c0.1-0.1,3.2-1,3.5-4.9v-9.7c0-0.5,0.4-0.9,0.9-0.9c0.5,0,0.9,0.4,0.9,0.9v9.7
		c-0.3,5.2-4.6,6.4-4.8,6.5L4.6,36.3C4.5,36.3,4.3,36.3,4.1,36.3"/>
	<path fill="#4AC8EF" d="M45.9,36.3c-0.2,0-0.3,0-0.5,0h-0.2l-13.7-3.4c-0.2-0.1-4.4-1.2-4.8-6.4v-9.8c0-0.5,0.4-0.9,0.9-0.9
		s0.9,0.4,0.9,0.9v9.7c0.3,3.9,3.4,4.8,3.5,4.8l13.6,3.4c0.7,0.1,1.3-0.1,1.7-0.5c0.6-0.5,0.6-1.2,0.6-1.2
		C49.9,14.8,37.7,6.5,37.6,6.5c-2-1.3-3.8-1.4-5.5-0.1c-0.4,0.3-1,0.2-1.2-0.2S30.6,5.3,31,5c1.6-1.1,4.3-2.1,7.6,0.1
		c0.6,0.3,13.2,8.9,11.2,28c0,0.1-0.1,1.4-1.2,2.4C47.9,36.1,47,36.3,45.9,36.3"/>
</g>
</svg>
