<svg width="45px" viewBox="0 0 45 33.3" preserveAspectRatio="xMidYMid meet">
<g>
	<path fill="#4AC8EF" d="M26.3,25.1c-0.4,0-0.7-0.2-0.8-0.6l-3-7.8l-1.7,2.9c-0.2,0.3-0.4,0.4-0.8,0.4h-3.2c-0.5,0-0.9-0.4-0.9-0.9
		c0-0.5,0.4-0.9,0.9-0.9h2.7l2.4-4c0.2-0.3,0.5-0.5,0.8-0.4c0.3,0,0.6,0.2,0.7,0.5l2.7,6.9L29.1,9c0.1-0.4,0.4-0.7,0.8-0.7
		c0.4,0,0.8,0.3,0.9,0.6l2.6,9.5H37c0.5,0,0.9,0.4,0.9,0.9c0,0.5-0.4,0.9-0.9,0.9h-4.3c-0.4,0-0.7-0.3-0.8-0.6L30,12.7l-2.8,11.7
		C27.1,24.8,26.8,25.1,26.3,25.1C26.4,25.1,26.4,25.1,26.3,25.1"/>
	<path fill="#4AC8EF" d="M3,1.7C2.3,1.7,1.7,2.3,1.7,3v27.4c0,0.7,0.5,1.2,1.2,1.2H42c0.7,0,1.2-0.5,1.2-1.2V3
		c0-0.7-0.5-1.2-1.2-1.2H3z M42,33.3H3c-1.6,0-3-1.3-3-3V3c0-1.6,1.3-3,3-3H42c1.6,0,3,1.3,3,3v27.4C45,32,43.7,33.3,42,33.3"/>
	<rect x="9.6" y="1.1" fill="#4AC8EF" width="1.7" height="31.2"/>
	<path fill="#4AC8EF" d="M5.7,19.1c-0.5,0-0.9-0.4-0.9-0.9v-3.1c0-0.5,0.4-0.9,0.9-0.9c0.5,0,0.9,0.4,0.9,0.9v3.1
		C6.5,18.7,6.1,19.1,5.7,19.1"/>
</g>
</svg>
