<svg width="49px" viewBox="0 0 49 29.7" preserveAspectRatio="xMidYMid meet">
<path fill="#4AC8EF" d="M24.5,24c-6.6,0-12-5.7-12-12.8c0-3.7,1.5-7.3,4.2-9.7l1.1,1.4C15.5,5,14.2,8,14.2,11.2
	c0,6.1,4.6,11,10.3,11c5.7,0,10.3-4.9,10.3-11c0-3.1-1.2-6.1-3.4-8.2l1.1-1.3c2.5,2.4,3.9,5.9,3.9,9.5C36.5,18.3,31.1,24,24.5,24"/>
<path fill="#4AC8EF" d="M24.5,17.1c-3,0-5.4-2.6-5.4-5.8c0-3.2,2.4-5.8,5.4-5.8c0.5,0,0.8,0.4,0.8,0.9c0,0.5-0.4,0.9-0.8,0.9
	c-2.1,0-3.8,1.8-3.8,4c0,2.2,1.7,4,3.8,4c2.1,0,3.8-1.8,3.8-4c0-0.5,0.4-0.9,0.8-0.9s0.8,0.4,0.8,0.9C29.9,14.5,27.5,17.1,24.5,17.1
	"/>
<path fill="#4AC8EF" d="M2,14.5c2.1,2.6,11.5,13.4,22.5,13.4c11,0,20.4-10.5,22.5-13.1C44.9,12.3,35.5,1.8,24.5,1.8
	C13.5,1.8,4.1,12,2,14.5 M24.5,29.7c-13.3,0-23.9-14.1-24.3-14.7c-0.2-0.3-0.2-0.8,0-1.1C0.3,13.8,3,10.4,7.3,7c4-3.2,10.3-7,17.2-7
	c13.3,0,23.9,13.7,24.3,14.3c0.3,0.3,0.3,0.8,0,1.1C48.4,16,37.8,29.7,24.5,29.7"/>
</svg>
