<svg width="51px" viewBox="0 0 51 49.3" preserveAspectRatio="xMidYMid meet">
<g>
	<path fill="#4AC8EF" d="M18.7,47.7h-1.8V14.3c0-1.8,1.4-3.3,3-3.3h18.5c1.7,0,3,1.5,3,3.3v9.2h-1.8v-9.2c0-0.7-0.6-1.3-1.3-1.3H20
		c-0.7,0-1.3,0.6-1.3,1.3V47.7z"/>
	<path fill="#4AC8EF" d="M4.1,47.7H2.4V26.2c0-1.8,1.4-3.3,3-3.3h9.2v1.9H5.4c-0.7,0-1.3,0.6-1.3,1.4V47.7z"/>
	<path fill="#4AC8EF" d="M26.1,9.4c-0.5,0-0.9-0.4-0.9-1V1c0-0.5,0.4-1,0.9-1C26.6,0,27,0.4,27,1v7.5C27,9,26.6,9.4,26.1,9.4"/>
	<path fill="#4AC8EF" d="M32.4,9.4c-0.5,0-0.9-0.4-0.9-1V1c0-0.5,0.4-1,0.9-1c0.5,0,0.9,0.4,0.9,1v7.5C33.3,9,32.9,9.4,32.4,9.4"/>
	<path fill="#4AC8EF" d="M32.1,5.7h-5.7c-0.5,0-0.9-0.4-0.9-1c0-0.5,0.4-1,0.9-1h5.7c0.5,0,0.9,0.4,0.9,1C33,5.2,32.6,5.7,32.1,5.7"
		/>
	<path fill="#4AC8EF" d="M44.5,26.8c-2.1,0-4.1,5.6-4.7,9.5c-0.3,1.7,0.1,3.3,0.9,4.4c0.9,1.1,2.3,1.8,3.8,1.9
		c1.5,0,2.9-0.6,3.8-1.6c0.9-1.1,1.2-2.7,0.9-4.7C48.3,31.6,46.4,26.8,44.5,26.8 M44.6,44.4c-0.1,0-0.1,0-0.2,0c-2,0-3.9-1-5.1-2.5
		c-0.8-1.1-1.8-3-1.3-5.9c0.5-3.1,2.5-11.1,6.4-11.1c4.5,0,6.2,9.9,6.4,11c0.5,3.2-0.4,5.2-1.3,6.2C48.4,43.6,46.6,44.4,44.6,44.4"
		/>
	<path fill="#4AC8EF" d="M44.4,39.9c-0.2,0-0.4-0.1-0.5-0.2l-2.4-1.9c-0.4-0.3-0.5-0.9-0.2-1.3c0.3-0.4,0.9-0.5,1.2-0.2l2.4,1.9
		c0.4,0.3,0.5,0.9,0.2,1.3C44.9,39.7,44.7,39.9,44.4,39.9"/>
	<path fill="#4AC8EF" d="M44.5,39.9c-0.3,0-0.5-0.1-0.7-0.4c-0.3-0.4-0.2-1,0.2-1.3l2.4-1.9c0.4-0.3,1-0.2,1.2,0.2
		c0.3,0.4,0.2,1-0.2,1.3L45,39.7C44.9,39.8,44.7,39.9,44.5,39.9"/>
	<path fill="#4AC8EF" d="M44.5,49.1c-0.5,0-0.9-0.4-0.9-1V32c0-0.5,0.4-1,0.9-1c0.5,0,0.9,0.4,0.9,1v16.2
		C45.3,48.7,44.9,49.1,44.5,49.1"/>
	<path fill="#4AC8EF" d="M47,49.3H0.9c-0.5,0-0.9-0.4-0.9-1c0-0.5,0.4-1,0.9-1H47c0.5,0,0.9,0.4,0.9,1C47.9,48.8,47.5,49.3,47,49.3"
		/>
	<rect x="7.5" y="29.4" fill="#4AC8EF" width="7.4" height="1.9"/>
	<rect x="7.5" y="35.4" fill="#4AC8EF" width="7.4" height="1.9"/>
	<rect x="7.5" y="41.4" fill="#4AC8EF" width="7.4" height="1.9"/>
	<rect x="31.3" y="41.9" fill="#4AC8EF" width="1.8" height="5.8"/>
	<rect x="26" y="41.9" fill="#4AC8EF" width="1.8" height="5.8"/>
	<rect x="22.6" y="17" fill="#4AC8EF" width="13.8" height="1.9"/>
	<rect x="22.6" y="23" fill="#4AC8EF" width="13.8" height="1.9"/>
	<rect x="22.6" y="29" fill="#4AC8EF" width="13.8" height="1.9"/>
	<rect x="22.6" y="34.9" fill="#4AC8EF" width="13.8" height="1.9"/>
	<line fill="#4AC8EF" x1="36.4" y1="40.9" x2="22.6" y2="40.9"/>
</g>
</svg>
