<svg width="46px" viewBox="0 0 46 47.7" preserveAspectRatio="xMidYMid meet">
<path fill="#4AC8EF" d="M1.6,18.8h2.5c0.4,0,0.9,0.3,0.9,0.9v25.6c0,0.5,0.3,0.9,0.9,0.9h34.6c0.4,0,0.9-0.3,0.9-0.9V19.6
	c0-0.5,0.3-0.9,0.9-0.9h2.5v-2.1L23.1,1.9L1.6,16.6V18.8z M40.3,47.7H5.8c-1.4,0-2.5-1.1-2.5-2.6V20.4H0.9c-0.5,0-0.9-0.3-0.9-0.8
	v-3.4c0-0.2,0.2-0.5,0.3-0.7L22.5,0.1c0.2-0.2,0.6-0.2,0.9,0l22.2,15.4c0.2,0.2,0.3,0.4,0.3,0.7v3.4c0,0.5-0.3,0.9-0.9,0.9h-2.5
	v24.7C42.8,46.6,41.6,47.7,40.3,47.7"/>
<path fill="#4AC8EF" d="M17.7,18.8c-2.5,0-4.5,2.1-4.5,4.7c0,0.4,0.3,2.1,5.2,9c1.9,2.6,3.7,5.1,4.7,6.3c0.9-1.2,2.8-3.7,4.7-6.3
	c4.8-6.8,5.2-8.5,5.2-9c0-2.6-2.1-4.7-4.5-4.7c-2.6,0-4.5,1.8-4.5,4.3c0,0.5-0.3,0.9-0.9,0.9c-0.4,0-0.9-0.3-0.9-0.9
	C22.2,20.5,20.3,18.8,17.7,18.8 M23.1,40.8c-0.2,0-0.5-0.1-0.6-0.3c0,0-2.7-3.4-5.4-7.2c-4.9-7-5.6-9-5.6-9.9c0-3.5,2.7-6.4,6.2-6.4
	c2.3,0,4.3,1.1,5.4,2.9c1-1.8,3-2.9,5.4-2.9c3.4,0,6.2,2.9,6.2,6.4c0,0.9-0.6,3-5.5,10c-2.6,3.7-5.4,7.2-5.4,7.2
	C23.6,40.8,23.3,40.8,23.1,40.8"/>
</svg>
