<svg width="60px" viewBox="0 0 60 51.8" preserveAspectRatio="xMidYMid meet">
<g>
	<path fill="#4AC8EF" d="M48.3,14.8c-0.2,0-0.4-0.1-0.5-0.2l-3.9-3.9c-0.3-0.3-0.3-0.7,0-1c0.3-0.3,0.7-0.3,1,0l3.9,3.9
		c0.3,0.3,0.3,0.7,0,1C48.7,14.7,48.5,14.8,48.3,14.8"/>
	<path fill="#4AC8EF" d="M43.1,16.1c-0.2,0-0.4-0.1-0.5-0.2c-0.3-0.3-0.3-0.7,0-1l3.2-3.2c0.3-0.3,0.7-0.3,1,0c0.3,0.3,0.3,0.7,0,1
		l-3.2,3.2C43.5,16,43.3,16.1,43.1,16.1"/>
	<path fill="#4AC8EF" d="M40.9,14.1l-8.3,8.3c-0.2,0.2-0.2,0.4-0.2,0.6c0,0.2,0.1,0.4,0.2,0.6l2.4,2.4c0.2,0.2,0.4,0.2,0.6,0.2
		c0.2,0,0.4-0.1,0.6-0.2l8.3-8.3L40.9,14.1z M35.5,27.6c-0.6,0-1.2-0.2-1.6-0.7l-2.4-2.4c-0.9-0.9-0.9-2.3,0-3.2l8.8-8.8
		c0.3-0.3,0.7-0.3,1,0l4.5,4.5c0.3,0.3,0.3,0.7,0,1l-8.8,8.8C36.7,27.3,36.1,27.6,35.5,27.6"/>
	<path fill="#4AC8EF" d="M32.3,28c-0.2,0-0.4-0.1-0.5-0.2l-1.1-1.1c-0.2-0.2-0.3-0.5-0.2-0.8l0.9-2.1c0.2-0.4,0.6-0.5,0.9-0.4
		c0.4,0.2,0.5,0.6,0.4,0.9L32.1,26l0.4,0.4l1.7-0.7c0.4-0.2,0.8,0,0.9,0.4c0.2,0.4,0,0.8-0.4,0.9l-2.1,0.9C32.5,28,32.4,28,32.3,28"
		/>
	<path fill="#4AC8EF" d="M42.1,15.1c-0.2,0-0.4-0.1-0.5-0.2l-2.4-2.4c-0.3-0.3-0.3-0.7,0-1c0.3-0.3,0.7-0.3,1,0l2.4,2.4
		c0.3,0.3,0.3,0.7,0,1C42.5,15,42.3,15.1,42.1,15.1"/>
	<path fill="#4AC8EF" d="M46.4,19.4c-0.2,0-0.4-0.1-0.5-0.2l-2.1-2.1c-0.3-0.3-0.3-0.7,0-1c0.3-0.3,0.7-0.3,1,0l2.1,2.1
		c0.3,0.3,0.3,0.7,0,1C46.8,19.3,46.6,19.4,46.4,19.4"/>
	<path fill="#4AC8EF" d="M28.6,30.6c-0.2,0-0.4-0.1-0.5-0.2c-0.3-0.3-0.3-0.7,0-1l3.2-3.2c0.3-0.3,0.7-0.3,1,0c0.3,0.3,0.3,0.7,0,1
		l-3.2,3.2C29,30.6,28.8,30.6,28.6,30.6"/>
	<path fill="#4AC8EF" d="M43.1,20.6c-0.2,0-0.4-0.1-0.5-0.2l-1.9-1.9c-0.3-0.3-0.3-0.7,0-1c0.3-0.3,0.7-0.3,1,0l1.9,1.9
		c0.3,0.3,0.3,0.7,0,1C43.5,20.6,43.3,20.6,43.1,20.6"/>
	<path fill="#4AC8EF" d="M40.5,23.3c-0.2,0-0.4-0.1-0.5-0.2l-1.9-1.9c-0.3-0.3-0.3-0.7,0-1c0.3-0.3,0.7-0.3,1,0l1.9,1.9
		c0.3,0.3,0.3,0.7,0,1C40.8,23.2,40.6,23.3,40.5,23.3"/>
	<path fill="#4AC8EF" d="M37.8,25.9c-0.2,0-0.4-0.1-0.5-0.2l-1.9-1.9c-0.3-0.3-0.3-0.7,0-1c0.3-0.3,0.7-0.3,1,0l1.9,1.9
		c0.3,0.3,0.3,0.7,0,1C38.2,25.9,38,25.9,37.8,25.9"/>
	<path fill="#4AC8EF" d="M25.4,1.4c-0.3,0-0.6,0.3-0.6,0.6v1.4C24.8,3.7,25,4,25.4,4h8.5c0.3,0,0.6-0.3,0.6-0.6V2
		c0-0.3-0.3-0.6-0.6-0.6H25.4z M33.8,5.4h-8.5c-1.1,0-2-0.9-2-2V2c0-1.1,0.9-2,2-2h8.5c1.1,0,2,0.9,2,2v1.4
		C35.9,4.5,34.9,5.4,33.8,5.4"/>
	<path fill="#4AC8EF" d="M24.7,7.7c-0.1,0-0.2,0-0.3-0.1c-0.4-0.2-0.5-0.6-0.3-1l1.2-2.3c0.2-0.4,0.6-0.5,1-0.3
		c0.4,0.2,0.5,0.6,0.3,1l-1.2,2.3C25.2,7.5,25,7.7,24.7,7.7"/>
	<path fill="#4AC8EF" d="M34.5,7.7c-0.3,0-0.5-0.1-0.6-0.4L32.7,5c-0.2-0.4,0-0.8,0.3-1c0.4-0.2,0.8,0,1,0.3l1.2,2.3
		c0.2,0.4,0,0.8-0.3,1C34.7,7.6,34.6,7.7,34.5,7.7"/>
	<path fill="#4AC8EF" d="M30.3,22.1H25c-1.5,0-2.6-1.2-2.6-2.6V9c0-1.5,1.2-2.6,2.6-2.6h9.3c1.5,0,2.6,1.2,2.6,2.6v6.4
		c0,0.4-0.3,0.7-0.7,0.7s-0.7-0.3-0.7-0.7V9c0-0.7-0.5-1.2-1.2-1.2H25c-0.7,0-1.2,0.5-1.2,1.2v10.5c0,0.7,0.5,1.2,1.2,1.2h5.4
		c0.4,0,0.7,0.3,0.7,0.7C31,21.7,30.7,22.1,30.3,22.1"/>
	<path fill="#4AC8EF" d="M29.6,17.4c-0.4,0-0.7-0.3-0.7-0.7v-5c0-0.4,0.3-0.7,0.7-0.7c0.4,0,0.7,0.3,0.7,0.7v5
		C30.3,17.1,30,17.4,29.6,17.4"/>
	<path fill="#4AC8EF" d="M32.1,14.9h-5c-0.4,0-0.7-0.3-0.7-0.7c0-0.4,0.3-0.7,0.7-0.7h5c0.4,0,0.7,0.3,0.7,0.7
		C32.8,14.6,32.5,14.9,32.1,14.9"/>
	<path fill="#4AC8EF" d="M37.5,45.4c-3,0-7.3-0.9-13.3-3.9c-1.1-0.6-2.3-0.9-3.6-1c-0.8,0-1.5,0-2.2,0.2c-0.4,0.1-0.9-0.2-1-0.6
		c-0.1-0.4,0.2-0.9,0.6-1c0.8-0.2,1.7-0.3,2.7-0.2c1.5,0.1,2.9,0.5,4.2,1.1c8.1,4.1,12.8,4.1,15.3,3.4c0.9-0.3,1.3-1,1.4-1.6
		c0.1-0.6-0.2-1.4-1-1.9c-1.4-0.7-3.1-1.4-4.9-2.1c-2.6-1.1-5.6-2.3-8.4-3.8c-5.3-2.8-11.8-2.2-16.5,1.4c-0.4,0.3-0.7,0.6-0.7,0.6
		c-0.3,0.3-0.9,0.3-1.2,0c-0.3-0.3-0.3-0.9,0-1.2c0,0,0.3-0.3,0.8-0.7c5.2-4.1,12.4-4.7,18.3-1.6c2.8,1.5,5.7,2.6,8.3,3.7
		c1.9,0.8,3.6,1.5,5,2.2c1.3,0.7,2.1,2,2,3.5c-0.1,1.5-1.1,2.7-2.6,3.1C39.9,45.2,38.8,45.4,37.5,45.4"/>
	<path fill="#4AC8EF" d="M30.1,51.2c-2.8,0-5.6-0.5-8.4-1.4c-5.6-1.9-11.9,0-12,0c-0.4,0.1-0.9-0.1-1-0.6c-0.1-0.4,0.1-0.9,0.6-1
		c0.3-0.1,6.9-2,13,0c5.1,1.7,10.5,1.7,15.5,0.1c8.2-2.7,18.2-8.3,20.5-14c0.2-0.5,0.1-1.1-0.3-1.5c-0.4-0.4-0.9-0.6-1.4-0.4
		c-4,1.3-10.2,6.1-10.2,6.2c-0.4,0.3-0.9,0.2-1.2-0.1c-0.3-0.4-0.2-0.9,0.1-1.2c0.3-0.2,6.5-5.1,10.8-6.4c1.1-0.4,2.4,0,3.2,0.8
		c0.8,0.9,1,2.1,0.6,3.2c-2.5,6.2-12.6,12-21.5,15C35.6,50.8,32.9,51.2,30.1,51.2"/>
	<path fill="#4AC8EF" d="M2.4,33.8c-0.4,0-0.7,0.3-0.7,0.7v14.9c0,0.4,0.3,0.7,0.7,0.7h3.4c0.4,0,0.7-0.3,0.7-0.7V34.5
		c0-0.4-0.3-0.7-0.7-0.7H2.4z M5.8,51.8H2.4c-1.3,0-2.4-1.1-2.4-2.4V34.5c0-1.3,1.1-2.4,2.4-2.4h3.4c1.3,0,2.4,1.1,2.4,2.4v14.9
		C8.2,50.7,7.1,51.8,5.8,51.8"/>
</g>
</svg>
