<svg width="47px" viewBox="0 0 47 43" preserveAspectRatio="xMidYMid meet">
<g>
	<path fill="#4AC8EF" d="M26.9,35.6c-0.5,0-0.9-0.4-0.9-0.9c0-0.5,0.4-0.9,0.9-1c9.8-0.4,10.6-8.3,10.7-8.6c0-0.4-0.1-1.7-0.6-2.3
		c-0.3-0.4-0.3-1,0.1-1.3c0.4-0.3,1-0.3,1.3,0.1c1.1,1.3,1.1,3.4,1.1,3.7C39.4,25.3,38.4,35.1,26.9,35.6
		C27,35.6,26.9,35.6,26.9,35.6"/>
	<path fill="#4AC8EF" d="M23.5,43h-0.3c-4.9,0-9-3-11.6-8.6c-1.9-4.1-2.5-8.2-2.5-8.4c-0.1-0.5,0.3-1,0.8-1c0.5-0.1,1,0.3,1,0.8
		c0,0,0.5,4,2.3,7.9c2.3,5,5.7,7.5,9.9,7.5h0.3c10.3,0,12.8-15.3,12.9-15.4c0.6-3.8-0.1-7.5-0.4-8.8c-1-0.3-6.1-2-9.4-5.4
		c-0.2-0.2-0.3-0.3-0.5-0.5c0,0.1-0.1,0.2-0.1,0.3c-4.3,11.1-15.4,8.8-15.5,8.8C10,20,9.7,19.6,9.8,19.1c0.1-0.5,0.6-0.8,1.1-0.7
		c0.4,0.1,9.7,1.9,13.4-7.7c0.4-0.9,0.6-1.6,1.4-1.8c0.8-0.2,1.4,0.5,2.3,1.3c3.2,3.3,8.5,4.9,8.7,5c0,0,0,0,0.1,0l0.4,0.1
		c0.3,0.1,0.5,0.3,0.6,0.6c0.1,0.2,1.3,5,0.5,10c0,0.2-0.7,4.2-2.8,8.4C32.5,40.1,28.4,43,23.5,43"/>
	<path fill="#4AC8EF" d="M18.4,23.8c0,0.3-0.3,0.6-0.6,0.6c-0.3,0-0.6-0.3-0.6-0.6c0-0.3,0.3-0.6,0.6-0.6
		C18.1,23.2,18.4,23.4,18.4,23.8"/>
	<path fill="#4AC8EF" d="M17.8,23.4c-0.2,0-0.3,0.2-0.3,0.3c0,0.2,0.2,0.3,0.3,0.3c0.2,0,0.3-0.2,0.3-0.3
		C18.2,23.6,18,23.4,17.8,23.4 M17.8,25.3c-0.8,0-1.5-0.7-1.5-1.5c0-0.8,0.7-1.5,1.5-1.5c0.8,0,1.5,0.7,1.5,1.5
		C19.3,24.6,18.7,25.3,17.8,25.3"/>
	<path fill="#4AC8EF" d="M30.3,23.8c0,0.3-0.3,0.6-0.6,0.6c-0.3,0-0.6-0.3-0.6-0.6c0-0.3,0.3-0.6,0.6-0.6
		C30,23.2,30.3,23.4,30.3,23.8"/>
	<path fill="#4AC8EF" d="M29.7,23.4c-0.2,0-0.3,0.2-0.3,0.3c0,0.2,0.2,0.3,0.3,0.3c0.2,0,0.3-0.2,0.3-0.3
		C30,23.6,29.9,23.4,29.7,23.4 M29.7,25.3c-0.8,0-1.5-0.7-1.5-1.5c0-0.8,0.7-1.5,1.5-1.5c0.8,0,1.5,0.7,1.5,1.5
		C31.2,24.6,30.5,25.3,29.7,25.3"/>
	<path fill="#4AC8EF" d="M22.2,33.6c-0.3,0-0.6,0.3-0.6,0.6v0.7c0,0.3,0.3,0.6,0.6,0.6h3.1c0.3,0,0.6-0.3,0.6-0.6v-0.7
		c0-0.3-0.3-0.6-0.6-0.6H22.2z M25.3,37.4h-3.1c-1.4,0-2.5-1.1-2.5-2.5v-0.7c0-1.4,1.1-2.5,2.5-2.5h3.1c1.4,0,2.5,1.1,2.5,2.5v0.7
		C27.8,36.3,26.7,37.4,25.3,37.4"/>
	<path fill="#4AC8EF" d="M42.3,38.8c-1.2,0-2.5-0.3-4.1-1.2c-0.4-0.3-0.6-0.8-0.4-1.3c0.2-0.4,0.8-0.6,1.3-0.4
		c3,1.7,4.8,0.8,5.7,0.1c-2.8-2.8-2.9-4.8-3-6.8c0-0.2,0-0.5,0-0.7c-0.1-2.2,0.1-3.1,0.6-5.4c0.1-0.4,0.2-0.9,0.3-1.5
		c0.7-5.6-0.5-10.1-3.4-13.5c-5.5-6.3-15.3-6.4-15.8-6.4c-3.8,0-11.4,1.3-15.8,6.3c-3,3.4-4.1,7.9-3.4,13.5c0.1,0.6,0.2,1.1,0.3,1.5
		c0.5,2.3,0.7,3.1,0.6,5.4c0,0.2,0,0.5,0,0.7c-0.1,2-0.1,4-3,6.8c0.8,0.7,2.6,1.6,5.7-0.1c0.4-0.3,1-0.1,1.3,0.4
		c0.2,0.4,0.1,1-0.4,1.3c-5.8,3.3-8.6-1-8.6-1c-0.2-0.4-0.2-0.9,0.2-1.2c2.9-2.6,3-4.1,3-6.1c0-0.2,0-0.5,0-0.8c0.1-2,0-2.6-0.5-4.9
		c-0.1-0.4-0.2-1-0.3-1.5c0,0,0,0,0-0.1C1.7,15.8,3,10.7,6.4,6.9C12.3,0.2,22.4,0,23.5,0c4.1,0,12.3,1.5,17.1,7
		c3.3,3.8,4.6,8.8,3.9,15c0,0,0,0,0,0.1c-0.1,0.6-0.2,1.1-0.3,1.5c-0.5,2.3-0.6,2.9-0.5,4.9c0,0.3,0,0.5,0,0.8c0.1,2,0.1,3.5,3,6.1
		c0.3,0.3,0.4,0.8,0.2,1.2C46.8,36.5,45.4,38.8,42.3,38.8"/>
</g>
</svg>
