<svg width="42px" viewBox="0 0 42 47.1" preserveAspectRatio="xMidYMid meet">
<g>
	<path fill="#4AC8EF" d="M28.3,21.1c-6.4,0-11.7,5.4-11.7,12c0,6.6,5.2,12,11.7,12c6.4,0,11.7-5.4,11.7-12
		C40,26.4,34.8,21.1,28.3,21.1 M28.3,47.1c-7.5,0-13.7-6.3-13.7-14.1S20.8,19,28.3,19C35.9,19,42,25.3,42,33.1S35.9,47.1,28.3,47.1"
		/>
	<path fill="#4AC8EF" d="M11.3,47.1h-0.7C4.8,47.1,0,42.3,0,36.2V10.9C0,4.9,4.8,0,10.6,0h0.7c5.8,0,10.6,4.9,10.6,10.9v6.4h-2v-6.4
		c0-4.9-3.9-8.9-8.6-8.9h-0.7C5.9,2.1,2,6,2,10.9v25.3c0,4.9,3.9,8.9,8.6,8.9h0.7c1.3,0,2.5-0.3,3.7-0.9l0.9,1.9
		C14.5,46.8,12.9,47.1,11.3,47.1"/>
	<rect x="1" y="20.6" fill="#4AC8EF" width="12.5" height="2.1"/>
	<polygon fill="#4AC8EF" points="21.5,43.9 20,42.6 35.1,22.3 36.7,23.5 	"/>
</g>
</svg>
