<svg width="29px" viewBox="0 0 29 71" preserveAspectRatio="xMidYMid meet">
<g>
	<path fill="#4AC8EF" d="M19.8,45.6H9.3c-0.6,0-1-0.5-1-1.1v-3.9h2v2.8h8.4v-6.5h2v7.6C20.8,45.1,20.4,45.6,19.8,45.6"/>
	<path fill="#4AC8EF" d="M7.9,35.6h13.2l5.8-6.5V14H2v15.2L7.9,35.6z M21.5,37.9h-14c-0.3,0-0.5-0.1-0.7-0.3l-6.5-7.1
		C0.1,30.2,0,29.9,0,29.6V12.8c0-0.6,0.5-1.1,1-1.1H28c0.6,0,1,0.5,1,1.1v16.8c0,0.3-0.1,0.6-0.3,0.8l-6.4,7.1
		C22.1,37.7,21.8,37.9,21.5,37.9"/>
	<rect x="4.8" fill="#4AC8EF" width="2" height="12.9"/>
	<rect x="20.8" fill="#4AC8EF" width="2" height="12.9"/>
	<polygon fill="#4AC8EF" points="1.7,26.4 0.2,24.8 12.1,11.7 13.5,13.3 	"/>
	<polygon fill="#4AC8EF" points="6,33.9 4.5,32.3 23.1,11.7 24.5,13.3 	"/>
	<polygon fill="#4AC8EF" points="14.1,37.7 12.7,36.1 27.6,19.6 29,21.2 	"/>
	<path fill="#4AC8EF" d="M13.5,71c-1.7,0-7.7-0.6-10.3-8.2c-0.1-0.3-2-6.7,2.8-11.2c0.2-0.1,3.2-2.7,4.3-3.5c0.1,0,0.5-0.4,0.5-1.1
		v-2.5h2v2.5c0,1.7-0.9,2.7-1.4,3.1c-1,0.7-4,3.3-4,3.3c-3.7,3.4-2.3,8.5-2.2,8.7c2.5,7.2,8.6,6.6,8.7,6.6c6.1-0.6,7.8-8.4,8.3-11.6
		c-1.7,2.6-4.9,4.7-5.1,4.8c-1.4,0.9-2.8,1.2-3.9,0.8C11.7,62.2,11,61,11,60.8c-1.8-4.1,1.3-7.2,3.2-8.3c1.9-1.4,1.8-2.7,1.8-2.8
		l0-0.1v-5.2h2v5.1c0,0.5,0,2.9-2.8,4.9l-0.1,0.1c-0.1,0.1-3.7,2.2-2.3,5.3c0.1,0.2,1,1.5,3.2,0.1c1-0.7,4-2.8,4.9-4.9
		c0.4-0.9,1.2-1.7,2.3-1.4l0.1,0l0.1,0.1c0.4,0.3,1,1.1,0.9,2.2C24,60.8,21.5,70.2,14,71C14,71,13.8,71,13.5,71"/>
</g>
</svg>
