<svg width="68px" viewBox="0 0 68 66.3" preserveAspectRatio="xMidYMid meet">
<g>
	<path fill="#4AC8EF" d="M67.1,64.7c0,0.3-0.3,0.6-0.6,0.6H1.5c-0.3,0-0.6-0.3-0.6-0.6v-3.6c0-0.3,0.3-0.6,0.6-0.6h3.2h11.1h10.3
		h11.1h9.2h7.9h9.2h2.9c0.3,0,0.6,0.3,0.6,0.6V64.7z M25.7,59.6h-9.4V45.1h9.4V59.6z M5.3,13.8h31.5v10v35.7H26.6V44.7
		c0-0.3-0.2-0.5-0.5-0.5H15.8c-0.3,0-0.5,0.2-0.5,0.5v14.9H5.3V13.8z M14.8,6.9c0-3.3,2.7-6,6.1-6c3.3,0,6.1,2.7,6.1,6
		c0,3.3-2.7,6-6.1,6C17.5,12.9,14.8,10.2,14.8,6.9 M53.8,59.6h-6.9v-11h6.9V59.6z M63.1,24.3v35.2h-8.3V48.1c0-0.3-0.2-0.5-0.5-0.5
		h-7.9c-0.3,0-0.5,0.2-0.5,0.5v11.5h-8.3V24.3H63.1z M66.5,59.6H64V23.9c0-0.3-0.2-0.5-0.5-0.5H37.7v-10c0-0.3-0.2-0.5-0.5-0.5H24.3
		c2.1-1.2,3.5-3.4,3.5-6c0-3.8-3.1-6.9-7-6.9s-7,3.1-7,6.9c0,2.6,1.4,4.8,3.5,6H4.8c-0.3,0-0.5,0.2-0.5,0.5v46.2H1.5
		c-0.8,0-1.5,0.7-1.5,1.5v3.6c0,0.8,0.7,1.5,1.5,1.5h64.9c0.8,0,1.5-0.7,1.5-1.5v-3.6C68,60.3,67.3,59.6,66.5,59.6"/>
	<path fill="#4AC8EF" d="M24.3,7.8h-2.1c-0.3,0-0.5,0.2-0.5,0.5v2.1H20V8.2c0-0.3-0.2-0.5-0.5-0.5h-2.1V6.1h2.1
		c0.3,0,0.5-0.2,0.5-0.5V3.6h1.7v2.1c0,0.3,0.2,0.5,0.5,0.5h2.1V7.8z M25.2,5.6c0-0.3-0.2-0.5-0.5-0.5h-2.1V3.1
		c0-0.3-0.2-0.5-0.5-0.5h-2.6c-0.3,0-0.5,0.2-0.5,0.5v2.1H17c-0.3,0-0.5,0.2-0.5,0.5v2.6c0,0.3,0.2,0.5,0.5,0.5h2.1v2.1
		c0,0.3,0.2,0.5,0.5,0.5h2.6c0.3,0,0.5-0.2,0.5-0.5V8.7h2.1c0.3,0,0.5-0.2,0.5-0.5V5.6z"/>
	<path fill="#4AC8EF" d="M18.4,18.6h4.8v4.7h-4.8V18.6z M18,24.3h5.7c0.3,0,0.5-0.2,0.5-0.5v-5.7c0-0.3-0.2-0.5-0.5-0.5H18
		c-0.3,0-0.5,0.2-0.5,0.5v5.7C17.5,24.1,17.7,24.3,18,24.3"/>
	<path fill="#4AC8EF" d="M27.8,18.6h4.8v4.7h-4.8V18.6z M27.4,24.3h5.7c0.3,0,0.5-0.2,0.5-0.5v-5.7c0-0.3-0.2-0.5-0.5-0.5h-5.7
		c-0.3,0-0.5,0.2-0.5,0.5v5.7C26.9,24.1,27.1,24.3,27.4,24.3"/>
	<path fill="#4AC8EF" d="M13.8,23.4H9v-4.7h4.8V23.4z M14.3,17.7H8.6c-0.3,0-0.5,0.2-0.5,0.5v5.7c0,0.3,0.2,0.5,0.5,0.5h5.7
		c0.3,0,0.5-0.2,0.5-0.5v-5.7C14.8,17.9,14.6,17.7,14.3,17.7"/>
	<path fill="#4AC8EF" d="M18.4,27.2h4.8V32h-4.8V27.2z M18,32.9h5.7c0.3,0,0.5-0.2,0.5-0.5v-5.7c0-0.3-0.2-0.5-0.5-0.5H18
		c-0.3,0-0.5,0.2-0.5,0.5v5.7C17.5,32.7,17.7,32.9,18,32.9"/>
	<path fill="#4AC8EF" d="M27.8,27.2h4.8V32h-4.8V27.2z M27.4,32.9h5.7c0.3,0,0.5-0.2,0.5-0.5v-5.7c0-0.3-0.2-0.5-0.5-0.5h-5.7
		c-0.3,0-0.5,0.2-0.5,0.5v5.7C26.9,32.7,27.1,32.9,27.4,32.9"/>
	<path fill="#4AC8EF" d="M13.8,32H9v-4.7h4.8V32z M14.3,26.3H8.6c-0.3,0-0.5,0.2-0.5,0.5v5.7c0,0.3,0.2,0.5,0.5,0.5h5.7
		c0.3,0,0.5-0.2,0.5-0.5v-5.7C14.8,26.5,14.6,26.3,14.3,26.3"/>
	<path fill="#4AC8EF" d="M18.4,35.8h4.8v4.7h-4.8V35.8z M18,41.5h5.7c0.3,0,0.5-0.2,0.5-0.5v-5.7c0-0.3-0.2-0.5-0.5-0.5H18
		c-0.3,0-0.5,0.2-0.5,0.5V41C17.5,41.3,17.7,41.5,18,41.5"/>
	<path fill="#4AC8EF" d="M27.8,35.8h4.8v4.7h-4.8V35.8z M27.4,41.5h5.7c0.3,0,0.5-0.2,0.5-0.5v-5.7c0-0.3-0.2-0.5-0.5-0.5h-5.7
		c-0.3,0-0.5,0.2-0.5,0.5V41C26.9,41.3,27.1,41.5,27.4,41.5"/>
	<path fill="#4AC8EF" d="M13.8,40.6H9v-4.7h4.8V40.6z M14.3,34.9H8.6c-0.3,0-0.5,0.2-0.5,0.5V41c0,0.3,0.2,0.5,0.5,0.5h5.7
		c0.3,0,0.5-0.2,0.5-0.5v-5.7C14.8,35.1,14.6,34.9,14.3,34.9"/>
	<path fill="#4AC8EF" d="M41.7,28.6h17.4v3.9H41.7V28.6z M41.2,33.4h18.3c0.3,0,0.5-0.2,0.5-0.5v-4.8c0-0.3-0.2-0.5-0.5-0.5H41.2
		c-0.3,0-0.5,0.2-0.5,0.5v4.8C40.7,33.2,40.9,33.4,41.2,33.4"/>
	<path fill="#4AC8EF" d="M41.7,37.2h17.4V41H41.7V37.2z M41.2,42h18.3c0.3,0,0.5-0.2,0.5-0.5v-4.8c0-0.3-0.2-0.5-0.5-0.5H41.2
		c-0.3,0-0.5,0.2-0.5,0.5v4.8C40.7,41.8,40.9,42,41.2,42"/>
</g>
</svg>
