<svg width="51px" viewBox="0 0 51 42.2" preserveAspectRatio="xMidYMid meet">
<g>
	<path fill="#4AC8EF" d="M43.2,35.2h-1.7v-2.5c0-0.3-0.2-0.6-0.5-0.6H10c-0.3,0-0.5,0.3-0.5,0.6v2.5H7.8v-2.5c0-1.4,1-2.6,2.2-2.6
		h31c1.2,0,2.2,1.1,2.2,2.6V35.2z"/>
	<path fill="#4AC8EF" d="M8.6,36.4c-0.9,0-1.7,0.9-1.7,1.9s0.7,1.9,1.7,1.9s1.7-0.9,1.7-1.9S9.6,36.4,8.6,36.4 M8.6,42.2
		c-1.8,0-3.3-1.7-3.3-3.9c0-2.1,1.5-3.9,3.3-3.9s3.3,1.7,3.3,3.9C12,40.4,10.5,42.2,8.6,42.2"/>
	<path fill="#4AC8EF" d="M42.3,36.4c-0.9,0-1.7,0.9-1.7,1.9s0.7,1.9,1.7,1.9c0.9,0,1.7-0.9,1.7-1.9S43.2,36.4,42.3,36.4 M42.3,42.2
		c-1.8,0-3.3-1.7-3.3-3.9c0-2.1,1.5-3.9,3.3-3.9s3.3,1.7,3.3,3.9C45.6,40.4,44.1,42.2,42.3,42.2"/>
	<path fill="#4AC8EF" d="M15.1,32c-0.3,0-0.5-0.2-0.7-0.5c-0.2-0.5-0.2-1.1,0.2-1.4l7.2-5.5c0.4-0.3,0.9-0.2,1.1,0.3
		c0.2,0.5,0.2,1.1-0.2,1.4l-7.2,5.6C15.3,31.9,15.2,32,15.1,32"/>
	<path fill="#4AC8EF" d="M25.8,23.7c-0.3,0-0.5-0.2-0.7-0.5c-0.2-0.5-0.2-1.1,0.2-1.4L35.5,14c0.4-0.3,0.9-0.2,1.1,0.3
		c0.3,0.5,0.2,1.1-0.2,1.4l-10.2,7.9C26,23.6,25.9,23.7,25.8,23.7"/>
	<path fill="#4AC8EF" d="M50.1,15.6H0.9c-0.5,0-0.9-0.5-0.9-1c0-0.5,0.4-1,0.9-1h49.3c0.5,0,0.9,0.5,0.9,1
		C50.9,15.2,50.5,15.6,50.1,15.6"/>
	<path fill="#4AC8EF" d="M35.8,32.1L1.9,5.8C1.5,5.6,1.4,5.1,1.4,4.6C1.3,4.2,1.4,3.7,1.7,3.3l1.7-2.7c0.3-0.4,0.6-0.6,1-0.6
		c0.4,0,0.8,0.1,1.1,0.4l10.7,8.2h30.5c1.1,0,1.9,1.2,1.9,2.3V14h-1.7v-3.1c0-0.1-0.1-0.3-0.3-0.3H15.7L4.6,2.1L3.1,4.5l33.7,26
		L35.8,32.1z"/>
</g>
</svg>
