<svg width="27px" viewBox="0 0 27 44.7" preserveAspectRatio="xMidYMid meet">
<g>
	<path fill="#4AC8EF" d="M5.5,2.7v2.2c0,1.3,1.1,2.3,2.4,2.3h11.2c1.3,0,2.4-1,2.4-2.3V2.7H5.5z M19.1,9.9H7.9c-2.9,0-5.2-2.2-5.2-5
		V0h21.6v4.9C24.3,7.7,22,9.9,19.1,9.9"/>
	<path fill="#4AC8EF" d="M5,15.3c-0.6,0-1.1,0.2-1.5,0.6c-0.4,0.4-0.6,0.9-0.6,1.4v22.5c0,1.1,1,2,2.1,2H22c1.2,0,2.1-0.9,2.1-2
		V17.3c0-0.5-0.2-1.1-0.6-1.4c-0.4-0.4-0.9-0.6-1.5-0.6h-4.9v-5.2H9.9v5.2H5z M22,44.7H5c-2.7,0-5-2.1-5-4.8V17.3
		c0-1.3,0.5-2.5,1.5-3.4c0.9-0.9,2.2-1.4,3.5-1.4h2.1V7.4h12.9v5.2H22c1.3,0,2.6,0.5,3.5,1.4c0.9,0.9,1.5,2.1,1.5,3.4v22.5
		C27,42.5,24.8,44.7,22,44.7"/>
	<polygon fill="#4AC8EF" points="25.4,37 9.5,37 9.5,20.4 25.4,20.4 25.4,23.2 12.3,23.2 12.3,34.3 25.4,34.3 	"/>
</g>
</svg>
