<svg width="49px" viewBox="0 0 49 49" preserveAspectRatio="xMidYMid meet">
<g>
	<path fill="#4AC8EF" d="M24.5,0C11,0,0,11,0,24.5C0,38,11,49,24.5,49C38,49,49,38,49,24.5C49,11,38,0,24.5,0 M24.5,2.4
		c12.2,0,22.1,9.9,22.1,22.1s-9.9,22.1-22.1,22.1S2.4,36.7,2.4,24.5S12.3,2.4,24.5,2.4"/>
	<path fill="#4AC8EF" d="M24.5,24.1c-0.7,0-1.2-0.6-1.2-1.4V10.4c0-0.8,0.5-1.4,1.2-1.4s1.2,0.6,1.2,1.4v12.4
		C25.7,23.5,25.2,24.1,24.5,24.1"/>
	<path fill="#4AC8EF" d="M29.8,28.9c-0.4,0.5-1.2,0.5-1.8,0l-3.5-3c-0.6-0.5-0.7-1.3-0.3-1.8c0.4-0.5,1.2-0.5,1.8,0l3.5,3
		C30.1,27.6,30.2,28.4,29.8,28.9"/>
	<path fill="#4AC8EF" d="M24.5,48.3c-0.7,0-1.2-0.5-1.2-1.2v-4.8c0-0.7,0.5-1.2,1.2-1.2s1.2,0.5,1.2,1.2v4.8
		C25.7,47.7,25.2,48.3,24.5,48.3"/>
	<path fill="#4AC8EF" d="M47.2,25.7h-4.8c-0.7,0-1.2-0.5-1.2-1.2c0-0.7,0.5-1.2,1.2-1.2h4.8c0.7,0,1.2,0.5,1.2,1.2
		C48.3,25.1,47.8,25.7,47.2,25.7"/>
	<path fill="#4AC8EF" d="M6.8,25.7H2c-0.7,0-1.2-0.5-1.2-1.2c0-0.7,0.5-1.2,1.2-1.2h4.8c0.7,0,1.2,0.5,1.2,1.2
		C7.9,25.1,7.4,25.7,6.8,25.7"/>
	<path fill="#4AC8EF" d="M40.9,42.1c-0.3,0-0.6-0.1-0.8-0.3L36.3,38c-0.5-0.5-0.5-1.2,0-1.7c0.5-0.5,1.2-0.5,1.7,0l3.8,3.8
		c0.5,0.5,0.5,1.2,0,1.7C41.5,42,41.2,42.1,40.9,42.1"/>
	<path fill="#4AC8EF" d="M12,13c-0.3,0-0.6-0.1-0.8-0.3L7.3,8.8c-0.5-0.5-0.5-1.2,0-1.7c0.5-0.5,1.2-0.5,1.7,0l3.9,3.9
		c0.5,0.5,0.5,1.2,0,1.7C12.6,12.9,12.3,13,12,13"/>
	<path fill="#4AC8EF" d="M24.3,22.1c-1.1,0-1.9,0.9-1.9,1.9c0,1.1,0.9,1.9,1.9,1.9c1.1,0,1.9-0.9,1.9-1.9
		C26.2,22.9,25.4,22.1,24.3,22.1"/>
	<path fill="#4AC8EF" d="M8,42c-0.3,0-0.6-0.1-0.8-0.3c-0.5-0.5-0.5-1.2,0-1.7l3.8-3.8c0.5-0.5,1.2-0.5,1.7,0c0.5,0.5,0.5,1.2,0,1.7
		l-3.8,3.8C8.6,41.9,8.3,42,8,42"/>
	<path fill="#4AC8EF" d="M37.2,13.1c-0.3,0-0.6-0.1-0.8-0.3c-0.5-0.5-0.5-1.2,0-1.7l3.9-3.9c0.5-0.5,1.2-0.5,1.7,0
		c0.5,0.5,0.5,1.2,0,1.7L38,12.8C37.8,13,37.5,13.1,37.2,13.1"/>
	<path fill="#4AC8EF" d="M24.5,7.7c-0.7,0-1.2-0.5-1.2-1.2V1.7c0-0.7,0.5-1.2,1.2-1.2s1.2,0.5,1.2,1.2v4.8
		C25.7,7.2,25.2,7.7,24.5,7.7"/>
</g>
</svg>
