<svg width="54px" viewBox="0 0 54 54" preserveAspectRatio="xMidYMid meet">
<g>
	<path fill="#4AC8EF" d="M27,1.7C13,1.7,1.7,13,1.7,27C1.7,41,13,52.3,27,52.3S52.3,41,52.3,27C52.3,13,41,1.7,27,1.7 M27,54
		C12.1,54,0,41.9,0,27C0,12.1,12.1,0,27,0s27,12.1,27,27C54,41.9,41.9,54,27,54"/>
	<path fill="#4AC8EF" d="M27,1.7C18.6,1.7,11.8,13,11.8,27c0,14,6.8,25.3,15.2,25.3c8.4,0,15.2-11.4,15.2-25.3
		C42.2,13,35.4,1.7,27,1.7 M27,54c-4.6,0-8.9-2.9-12.1-8.1c-3.1-5.1-4.8-11.8-4.8-18.9c0-7.1,1.7-13.9,4.8-18.9
		C18.1,2.9,22.4,0,27,0c4.6,0,8.9,2.9,12.1,8.1c3.1,5.1,4.8,11.8,4.8,18.9c0,7.1-1.7,13.9-4.8,18.9C35.9,51.1,31.6,54,27,54"/>
	<path fill="#4AC8EF" d="M53.2,27.8H41.3c-0.5,0-0.8-0.4-0.8-0.8s0.4-0.8,0.8-0.8h11.8c0.5,0,0.8,0.4,0.8,0.8S53.6,27.8,53.2,27.8"
		/>
	<path fill="#4AC8EF" d="M12.7,27.8H0.8C0.4,27.8,0,27.5,0,27s0.4-0.8,0.8-0.8h11.8c0.5,0,0.8,0.4,0.8,0.8S13.1,27.8,12.7,27.8"/>
	<path fill="#4AC8EF" d="M16,15.2c-0.1,0-0.2,0-0.3,0c-3.9-1.3-6.9-3.3-8.5-5.6C7,9.2,7.1,8.6,7.5,8.4c0.4-0.3,0.9-0.2,1.2,0.2
		c1.4,2,4.1,3.8,7.7,5c0.4,0.1,0.7,0.6,0.5,1.1C16.7,15,16.4,15.2,16,15.2"/>
	<path fill="#4AC8EF" d="M38,15.2c-0.4,0-0.7-0.2-0.8-0.6c-0.1-0.4,0.1-0.9,0.5-1.1c3.5-1.2,6.2-2.9,7.6-5c0.3-0.4,0.8-0.5,1.2-0.2
		c0.4,0.3,0.5,0.8,0.2,1.2c-1.6,2.3-4.6,4.3-8.5,5.6C38.2,15.2,38.1,15.2,38,15.2"/>
	<path fill="#4AC8EF" d="M8,45.8c-0.2,0-0.3,0-0.5-0.2c-0.4-0.3-0.5-0.8-0.2-1.2c2.3-3.3,7.4-5.9,13.7-6.9c0.5-0.1,0.9,0.2,1,0.7
		c0.1,0.5-0.2,0.9-0.7,1c-5.8,0.9-10.5,3.2-12.6,6.2C8.5,45.6,8.2,45.8,8,45.8"/>
	<path fill="#4AC8EF" d="M46,45.8c-0.3,0-0.5-0.1-0.7-0.4c-2-2.9-6.7-5.2-12.6-6.1c-0.5-0.1-0.8-0.5-0.7-1c0.1-0.5,0.5-0.8,1-0.7
		c6.3,1,11.4,3.6,13.7,6.9c0.3,0.4,0.2,0.9-0.2,1.2C46.4,45.7,46.2,45.8,46,45.8"/>
	<path fill="#4AC8EF" d="M27,15.2c-0.5,0-0.8-0.4-0.8-0.8V0.8C26.2,0.4,26.5,0,27,0c0.5,0,0.8,0.4,0.8,0.8v13.5
		C27.8,14.8,27.5,15.2,27,15.2"/>
	<path fill="#4AC8EF" d="M27,54c-0.5,0-0.8-0.4-0.8-0.8v-8.4c0-0.5,0.4-0.8,0.8-0.8c0.5,0,0.8,0.4,0.8,0.8v8.4
		C27.8,53.6,27.5,54,27,54"/>
	<path fill="#4AC8EF" d="M23.6,35.4h6.7v-4.2c0-0.5,0.4-0.8,0.8-0.8h4.2v-6.7h-4.2c-0.5,0-0.8-0.4-0.8-0.8v-4.2h-6.7v4.2
		c0,0.5-0.4,0.8-0.8,0.8h-4.2v6.7h4.2c0.5,0,0.8,0.4,0.8,0.8V35.4z M31.2,37.1h-8.4c-0.5,0-0.8-0.4-0.8-0.8v-4.2h-4.2
		c-0.5,0-0.8-0.4-0.8-0.8v-8.4c0-0.5,0.4-0.8,0.8-0.8h4.2v-4.2c0-0.5,0.4-0.8,0.8-0.8h8.4c0.5,0,0.8,0.4,0.8,0.8v4.2h4.2
		c0.5,0,0.8,0.4,0.8,0.8v8.4c0,0.5-0.4,0.8-0.8,0.8h-4.2v4.2C32.1,36.7,31.7,37.1,31.2,37.1"/>
</g>
</svg>
