<svg width="49px" viewBox="0 0 49 67.2" preserveAspectRatio="xMidYMid meet">
<g>
	<path fill="#4AC8EF" d="M43.6,47.6h-2.5V19.8c0-0.3-0.3-0.6-0.6-0.6H8.5c-0.3,0-0.6,0.3-0.6,0.6v27.9H5.4V19.8
		c0-1.7,1.4-3.2,3.1-3.2h31.9c1.7,0,3.1,1.4,3.1,3.2V47.6z"/>
	<path fill="#4AC8EF" d="M6.5,57h36v-3.3h-36V57z M43.7,59.5H5.3c-0.7,0-1.3-0.6-1.3-1.3v-5.9c0-0.7,0.6-1.3,1.3-1.3h38.5
		c0.7,0,1.3,0.6,1.3,1.3v5.9C45,58.9,44.4,59.5,43.7,59.5"/>
	<path fill="#4AC8EF" d="M41.9,24.9H7.1c-0.7,0-1.3-0.6-1.3-1.3c0-0.7,0.6-1.3,1.3-1.3h34.7c0.7,0,1.3,0.6,1.3,1.3
		C43.1,24.4,42.6,24.9,41.9,24.9"/>
	<path fill="#4AC8EF" d="M41.9,38.2H7.1c-0.7,0-1.3-0.6-1.3-1.3s0.6-1.3,1.3-1.3h34.7c0.7,0,1.3,0.6,1.3,1.3S42.6,38.2,41.9,38.2"/>
	<path fill="#4AC8EF" d="M47.7,38.3h-5.2v-2.5h4v-6.5h-4v-2.5h5.2c0.7,0,1.3,0.6,1.3,1.3V37C49,37.7,48.4,38.3,47.7,38.3"/>
	<path fill="#4AC8EF" d="M6.5,38.3H1.3C0.6,38.3,0,37.7,0,37v-9.1c0-0.7,0.6-1.3,1.3-1.3h5.2v2.5h-4v6.5h4V38.3z"/>
	<path fill="#4AC8EF" d="M32.8,47.3H16.2c-0.7,0-1.3-0.6-1.3-1.3s0.6-1.3,1.3-1.3h16.5c0.7,0,1.3,0.6,1.3,1.3S33.4,47.3,32.8,47.3"
		/>
	<path fill="#4AC8EF" d="M14.3,67.2h-2.8c-1.8,0-3.3-1.5-3.3-3.3v-5.6c0-0.7,0.6-1.3,1.2-1.3c0.7,0,1.3,0.6,1.3,1.3v5.6
		c0,0.4,0.3,0.8,0.8,0.8h2.8c0.4,0,0.8-0.3,0.8-0.8v-5.6c0-0.7,0.6-1.3,1.3-1.3c0.7,0,1.3,0.6,1.3,1.3v5.6
		C17.5,65.8,16.1,67.2,14.3,67.2"/>
	<path fill="#4AC8EF" d="M37.6,67.2h-2.8c-1.8,0-3.3-1.5-3.3-3.3v-5.6c0-0.7,0.6-1.3,1.2-1.3c0.7,0,1.3,0.6,1.3,1.3v5.6
		c0,0.4,0.3,0.8,0.8,0.8h2.8c0.4,0,0.8-0.3,0.8-0.8v-5.6c0-0.7,0.6-1.3,1.3-1.3c0.7,0,1.3,0.6,1.3,1.3v5.6
		C40.8,65.8,39.4,67.2,37.6,67.2"/>
	<polygon fill="#4AC8EF" points="43.5,12.3 41,12.3 41,2.5 8,2.5 8,12.3 5.5,12.3 5.5,0 43.5,0 	"/>
</g>
</svg>
