<svg width="56px" viewBox="0 0 56 40.7" preserveAspectRatio="xMidYMid meet">
<g>
	<path fill="#4AC8EF" d="M21.4,9C14.9,9,9.5,14.2,9.5,20.6s5.4,11.6,11.9,11.6c6.6,0,11.9-5.2,11.9-11.6S28,9,21.4,9 M21.4,34.1
		c-7.7,0-13.9-6.1-13.9-13.5S13.8,7.1,21.4,7.1s13.9,6.1,13.9,13.5S29.1,34.1,21.4,34.1"/>
	<path fill="#4AC8EF" d="M16.7,1.9C8.6,1.9,2,8.3,2,16.2v8.4c0,7.9,6.6,14.2,14.7,14.2h20.4c1.6,0,2.9-1.3,2.9-2.8V16.2
		c0-7.9-6.6-14.2-14.7-14.2H16.7z M37.1,40.7H16.7C7.5,40.7,0,33.5,0,24.6v-8.4C0,7.3,7.5,0,16.7,0h8.6C34.5,0,42,7.3,42,16.2V36
		C42,38.6,39.8,40.7,37.1,40.7"/>
	<rect x="19.8" y="13.3" fill="#4AC8EF" width="2.5" height="14.1"/>
	<rect x="13.7" y="19.2" fill="#4AC8EF" width="14.5" height="2.4"/>
	<path fill="#4AC8EF" d="M46.3,14.3c-0.5,0-0.9-0.4-1-0.8c-0.8-5.5-3.1-8.2-3.1-8.2c-0.4-0.4-0.3-1,0.1-1.4c0.4-0.3,1-0.3,1.4,0.1
		c0.1,0.1,2.7,3.1,3.6,9.2c0.1,0.5-0.3,1-0.9,1.1C46.4,14.3,46.4,14.3,46.3,14.3"/>
	<polygon fill="#4AC8EF" points="56,38.8 54,38.8 54,35.4 45.5,35.4 45.5,33.4 56,33.4 	"/>
</g>
</svg>
