<svg width="61px" viewBox="0 0 61 51.5" preserveAspectRatio="xMidYMid meet">
<path fill="#4AC8EF" d="M23.2,51.5c-0.2,0-0.4-0.1-0.6-0.2c-0.3-0.2-0.5-0.6-0.5-1V21.9c0-0.5,0.3-0.9,0.7-1.1l22.4-10.2
	c0.3-0.2,0.7-0.1,1,0.1c0.3,0.2,0.5,0.6,0.5,1v6.6h-2.1v-4.9l-20.2,9.2v25.9l7.9-3.5l0.8,2.2l-9.4,4.1
	C23.5,51.4,23.4,51.5,23.2,51.5"/>
<path fill="#4AC8EF" d="M11.4,25.5c-0.6,0-1.1-0.5-1.1-1.2v-7.8c0-0.5,0.3-0.9,0.7-1.1L32.7,5.4c0.5-0.3,1.2,0,1.4,0.6
	c0.2,0.6,0,1.3-0.6,1.5l-21.1,9.8v7.1C12.4,25,12,25.5,11.4,25.5"/>
<path fill="#4AC8EF" d="M23.2,51.5c-0.1,0-0.3,0-0.4-0.1L0.6,41C0.3,40.8,0,40.4,0,39.9V11.7c0-0.4,0.2-0.8,0.5-1
	c0.3-0.2,0.7-0.3,1-0.1l22.2,10.2c0.5,0.2,0.8,0.9,0.6,1.5c-0.2,0.6-0.9,0.9-1.4,0.6L2.1,13.5v25.7l21.5,10.1
	c0.5,0.3,0.8,0.9,0.6,1.5C24,51.2,23.6,51.5,23.2,51.5"/>
<path fill="#4AC8EF" d="M45.6,12.9c-0.1,0-0.3,0-0.4-0.1L22.7,2.4L1.5,12.8c-0.5,0.3-1.2,0-1.4-0.6c-0.2-0.6,0-1.3,0.5-1.5L22.3,0.1
	c0.3-0.1,0.6-0.1,0.9,0L46,10.6c0.5,0.3,0.8,0.9,0.6,1.5C46.4,12.6,46,12.9,45.6,12.9"/>
<path fill="#4AC8EF" d="M43.7,47.1h8.6v-5.9c0-0.7,0.5-1.2,1.1-1.2h5.4v-9.4h-5.4c-0.6,0-1.1-0.5-1.1-1.2v-5.9h-8.6v5.9
	c0,0.7-0.5,1.2-1.1,1.2h-5.4v9.4h5.4c0.6,0,1.1,0.5,1.1,1.2V47.1z M53.4,49.5H42.6c-0.6,0-1.1-0.5-1.1-1.2v-5.9h-5.4
	c-0.6,0-1.1-0.5-1.1-1.2V29.4c0-0.7,0.5-1.2,1.1-1.2h5.4v-5.9c0-0.7,0.5-1.2,1.1-1.2h10.8c0.6,0,1.1,0.5,1.1,1.2v5.9h5.4
	c0.6,0,1.1,0.5,1.1,1.2v11.8c0,0.7-0.5,1.2-1.1,1.2h-5.4v5.9C54.5,49,54,49.5,53.4,49.5"/>
</svg>
