<svg width="46px" viewBox="0 0 46 49.8" preserveAspectRatio="xMidYMid meet">
<g>
	<path fill="#4AC8EF" d="M1.7,12.2c-0.3,0-0.5-0.2-0.6-0.5c-0.1-0.4,0.1-0.7,0.5-0.8l6.1-1.8C8,9,8.3,9.2,8.3,9.5
		c0.1,0.4-0.1,0.7-0.5,0.8l-6.1,1.7C1.8,12.2,1.7,12.2,1.7,12.2"/>
	<path fill="#4AC8EF" d="M6.1,16.8c-0.3,0-0.5-0.2-0.6-0.5l-1.4-5.5C4,10.4,4.1,10,4.5,9.9c0.3-0.1,0.7,0.2,0.7,0.5l1.4,5.5
		c0.1,0.4-0.1,0.7-0.5,0.8C6.2,16.8,6.1,16.8,6.1,16.8"/>
	<path fill="#4AC8EF" d="M3.3,17.6l3.6,14.3c0.1,0.3,0.2,0.6,0.5,0.7c0.2,0.2,0.5,0.2,0.8,0.2l3.7-1.1c0.3-0.1,0.5-0.3,0.7-0.5
		c0.2-0.3,0.2-0.6,0.1-0.9L9.1,15.9L3.3,17.6z M7.9,34.1c-0.4,0-0.8-0.2-1.2-0.4c-0.5-0.4-0.9-0.9-1.1-1.6L1.9,17.3
		c-0.1-0.2,0-0.4,0.1-0.5c0.1-0.2,0.2-0.3,0.4-0.3l7.2-2c0.2-0.1,0.3,0,0.5,0.1c0.2,0.1,0.2,0.2,0.3,0.5L14,29.8
		c0.2,0.7,0.1,1.4-0.2,2s-0.8,1.1-1.5,1.2l-3.7,1.1C8.3,34.1,8.1,34.1,7.9,34.1"/>
	<path fill="#4AC8EF" d="M10,36.3c-0.2,0-0.4-0.1-0.5-0.3l-1.6-2.2c-0.2-0.3-0.2-0.7,0.2-1C8.4,32.6,8.8,32.6,9,33l1.4,1.9l0.9-0.2
		l0.3-2.4c0.1-0.4,0.4-0.6,0.7-0.6c0.4,0.1,0.6,0.4,0.5,0.7l-0.4,2.8c0,0.3-0.2,0.5-0.5,0.6l-1.7,0.5C10.1,36.3,10,36.3,10,36.3"/>
	<path fill="#4AC8EF" d="M0.6,18.3c-0.3,0-0.5-0.2-0.6-0.5C0,17.4,0.1,17,0.5,16.9l3.8-1.1C4.5,15.8,4.9,16,5,16.3
		c0.1,0.4-0.1,0.7-0.5,0.8l-3.8,1.1C0.8,18.3,0.7,18.3,0.6,18.3"/>
	<path fill="#4AC8EF" d="M8,16.2c-0.3,0-0.5-0.2-0.6-0.5c-0.1-0.4,0.1-0.7,0.5-0.8l3.3-1c0.4-0.1,0.7,0.2,0.7,0.5
		c0.1,0.4-0.1,0.7-0.5,0.8l-3.3,1C8.1,16.2,8.1,16.2,8,16.2"/>
	<path fill="#4AC8EF" d="M12.2,41.5c-0.3,0-0.5-0.2-0.6-0.5l-1.4-5.4c-0.1-0.4,0.1-0.7,0.5-0.8c0.4-0.1,0.7,0.2,0.7,0.5l1.4,5.4
		c0.1,0.4-0.1,0.7-0.5,0.8C12.4,41.4,12.4,41.5,12.2,41.5"/>
	<path fill="#4AC8EF" d="M7.7,20.5c-0.3,0-0.5-0.2-0.6-0.5c-0.1-0.4,0.1-0.7,0.5-0.8l3-0.8c0.3-0.1,0.7,0.2,0.7,0.5
		c0.1,0.4-0.1,0.7-0.5,0.8l-2.9,0.8C7.8,20.4,7.7,20.5,7.7,20.5"/>
	<path fill="#4AC8EF" d="M8.7,25c-0.3,0-0.5-0.2-0.6-0.5c-0.1-0.4,0.1-0.7,0.5-0.8l3-0.8c0.4-0.1,0.7,0.2,0.7,0.5
		c0.1,0.4-0.1,0.7-0.5,0.8l-2.9,0.8C8.9,24.9,8.8,25,8.7,25"/>
	<path fill="#4AC8EF" d="M9.9,29.4c-0.3,0-0.5-0.2-0.6-0.5c-0.1-0.4,0.1-0.7,0.5-0.8l3-0.8c0.3-0.1,0.7,0.2,0.7,0.5
		c0.1,0.4-0.1,0.7-0.5,0.8l-3,0.8C10,29.4,10,29.4,9.9,29.4"/>
	<path fill="#4AC8EF" d="M42.1,49.8H15.7c-2,0-3.7-1.7-3.8-3.9c0-0.4,0.2-0.7,0.6-0.7c0.4,0,0.7,0.3,0.7,0.7
		c0.1,1.5,1.1,2.6,2.5,2.6h26.4c1.4,0,2.5-1.2,2.5-2.8v-38c0-1.1-0.7-1.9-1.8-1.9h-3.6c-0.4,0-0.6-0.3-0.6-0.7s0.3-0.7,0.6-0.7h3.6
		c1.7,0,3.1,1.5,3.1,3.3v38C45.9,48,44.2,49.8,42.1,49.8"/>
	<path fill="#4AC8EF" d="M12.5,11c-0.4,0-0.6-0.3-0.6-0.7V7.7c0-1.8,1.4-3.3,3.1-3.3h3.6c0.4,0,0.6,0.3,0.6,0.7s-0.3,0.7-0.6,0.7
		h-3.6c-1,0-1.8,0.8-1.8,1.9v2.6C13.2,10.7,12.9,11,12.5,11"/>
	<path fill="#4AC8EF" d="M31.9,12.4H17.2c-0.4,0-0.6-0.3-0.6-0.7s0.3-0.7,0.6-0.7h14.7c0.4,0,0.6,0.3,0.6,0.7
		C32.6,12.1,32.3,12.4,31.9,12.4"/>
	<path fill="#4AC8EF" d="M31.9,22.3H17.2c-0.4,0-0.6-0.3-0.6-0.7s0.3-0.7,0.6-0.7h14.7c0.4,0,0.6,0.3,0.6,0.7
		C32.6,22,32.3,22.3,31.9,22.3"/>
	<path fill="#4AC8EF" d="M31.9,32.2H17.2c-0.4,0-0.6-0.3-0.6-0.7c0-0.4,0.3-0.7,0.6-0.7h14.7c0.4,0,0.6,0.3,0.6,0.7
		C32.6,31.9,32.3,32.2,31.9,32.2"/>
	<path fill="#4AC8EF" d="M31.9,42.1H17.2c-0.4,0-0.6-0.3-0.6-0.7s0.3-0.7,0.6-0.7h14.7c0.4,0,0.6,0.3,0.6,0.7
		C32.6,41.8,32.3,42.1,31.9,42.1"/>
	<path fill="#4AC8EF" d="M38.4,23.9c-0.2,0-0.4-0.1-0.5-0.3l-1.7-2.3c-0.2-0.3-0.2-0.7,0.2-1c0.3-0.2,0.7-0.2,0.9,0.2l1.1,1.6
		l1.7-2.5c0.2-0.3,0.6-0.4,0.9-0.2c0.3,0.2,0.4,0.7,0.2,1L39,23.7C38.9,23.8,38.6,23.9,38.4,23.9L38.4,23.9"/>
	<path fill="#4AC8EF" d="M38.4,14c-0.2,0-0.4-0.1-0.5-0.3l-1.7-2.3c-0.2-0.3-0.2-0.7,0.2-1c0.3-0.2,0.7-0.2,0.9,0.2l1.1,1.6l1.7-2.5
		c0.2-0.3,0.6-0.4,0.9-0.2c0.3,0.2,0.4,0.7,0.2,1L39,13.8C38.9,13.9,38.6,14,38.4,14L38.4,14"/>
	<path fill="#4AC8EF" d="M38.4,33.9c-0.2,0-0.4-0.1-0.5-0.3l-1.7-2.3c-0.2-0.3-0.2-0.7,0.2-1c0.3-0.2,0.7-0.2,0.9,0.2l1.1,1.6
		l1.7-2.5c0.2-0.3,0.6-0.4,0.9-0.2c0.3,0.2,0.4,0.7,0.2,1L39,33.6C38.9,33.7,38.6,33.9,38.4,33.9L38.4,33.9"/>
	<path fill="#4AC8EF" d="M38.4,43.7c-0.2,0-0.4-0.1-0.5-0.3l-1.7-2.3c-0.2-0.3-0.2-0.7,0.2-1c0.3-0.2,0.7-0.2,0.9,0.2l1.1,1.6
		l1.7-2.5c0.2-0.3,0.6-0.4,0.9-0.2c0.3,0.2,0.4,0.7,0.2,1L39,43.5C38.9,43.7,38.6,43.7,38.4,43.7L38.4,43.7"/>
	<path fill="#4AC8EF" d="M20.5,3.7c-0.7,0-1.3,0.6-1.3,1.4s0.6,1.4,1.3,1.4h16.8c0.7,0,1.3-0.6,1.3-1.4S38,3.7,37.3,3.7H20.5z
		 M37.3,7.9H20.5c-1.5,0-2.6-1.2-2.6-2.8s1.1-2.8,2.6-2.8h16.8c1.5,0,2.6,1.2,2.6,2.8C39.8,6.6,38.7,7.9,37.3,7.9"/>
	<path fill="#4AC8EF" d="M24.2,2.4h9.4c-0.2-0.5-0.7-1-1.2-1h-7C24.9,1.4,24.4,1.8,24.2,2.4 M34.3,3.7H23.4c-0.4,0-0.6-0.3-0.6-0.7
		C22.8,1.5,24,0,25.5,0h7c1.4,0,2.7,1.5,2.7,3.1C35,3.5,34.7,3.7,34.3,3.7"/>
</g>
</svg>
