<svg width="51px" viewBox="0 0 51 51" preserveAspectRatio="xMidYMid meet">
<g>
	<path fill="#4AC8EF" d="M34,1.9c-0.7,0-1.4,0.3-2,0.8L2.7,32.1c-0.5,0.5-0.8,1.2-0.8,2c0,0.8,0.3,1.5,0.8,2L15,48.3
		c1.1,1.1,2.9,1.1,4,0l29.4-29.4c1.1-1.1,1.1-2.9,0-4L36,2.7C35.5,2.1,34.8,1.9,34,1.9 M17,51c-1.2,0-2.4-0.5-3.3-1.4L1.4,37.3
		C0.5,36.5,0,35.3,0,34c0-1.2,0.5-2.4,1.4-3.3L30.7,1.4c1.8-1.8,4.8-1.8,6.6,0l12.3,12.3c1.8,1.8,1.8,4.8,0,6.6L20.3,49.6
		C19.3,50.5,18.2,51,17,51"/>
	
		<rect x="22.3" y="20.6" transform="matrix(0.7071 -0.7071 0.7071 0.7071 -9.1977 23.0609)" fill="#4AC8EF" width="1.9" height="4"/>
	<rect x="17.4" y="15.9" transform="matrix(0.7071 -0.7071 0.7071 0.7071 -7.284 18.2279)" fill="#4AC8EF" width="1.9" height="4"/>
	
		<rect x="32.2" y="30.6" transform="matrix(0.7074 -0.7068 0.7068 0.7074 -13.3874 32.9417)" fill="#4AC8EF" width="1.9" height="4"/>
	
		<rect x="27.3" y="25.7" transform="matrix(0.7071 -0.7071 0.7071 0.7071 -11.3528 28.0511)" fill="#4AC8EF" width="1.9" height="4"/>
	<path fill="#4AC8EF" d="M17.3,27.5c-1.7,0-3.3,0.7-4.5,1.9c-1.2,1.2-1.9,2.8-1.9,4.5c0,1.7,0.7,3.3,1.9,4.5c2.5,2.5,6.5,2.5,9,0
		c1.2-1.2,1.9-2.8,1.9-4.5c0-1.7-0.7-3.3-1.9-4.5C20.6,28.2,19,27.5,17.3,27.5 M17.3,42.2c-2.2,0-4.3-0.9-5.8-2.4
		c-1.6-1.6-2.4-3.6-2.4-5.8c0-2.2,0.9-4.3,2.4-5.8c1.6-1.6,3.6-2.4,5.8-2.4c2.2,0,4.3,0.9,5.8,2.4c1.6,1.6,2.4,3.6,2.4,5.8
		c0,2.2-0.9,4.3-2.4,5.8C21.6,41.3,19.5,42.2,17.3,42.2"/>
	<path fill="#4AC8EF" d="M15.7,37.2c-0.2,0-0.4-0.1-0.5-0.2c-0.2-0.1-0.3-0.3-0.5-0.4c-0.9-0.9-1.3-2.3-1-3.6
		c0.1-0.4,0.3-0.8,0.6-1.2c0.3-0.4,0.9-0.5,1.3-0.2c0.4,0.3,0.5,0.9,0.2,1.3c-0.1,0.2-0.2,0.4-0.3,0.6c-0.2,0.7,0,1.4,0.5,1.9
		c0.1,0.1,0.2,0.1,0.3,0.2c0.4,0.3,0.5,0.9,0.2,1.3C16.3,37.1,16,37.2,15.7,37.2"/>
	<path fill="#4AC8EF" d="M34.9,10c-1.6,0-3.3,0.6-4.5,1.9c-2.5,2.5-2.5,6.5,0,9c2.5,2.5,6.5,2.5,9,0c1.2-1.2,1.9-2.8,1.9-4.5
		c0-1.7-0.7-3.3-1.9-4.5C38.1,10.6,36.5,10,34.9,10 M34.9,24.6c-2.1,0-4.2-0.8-5.8-2.4c-3.2-3.2-3.2-8.4,0-11.7
		c3.2-3.2,8.5-3.2,11.7,0c1.6,1.6,2.4,3.6,2.4,5.8c0,2.2-0.9,4.3-2.4,5.8C39.1,23.8,37,24.6,34.9,24.6"/>
	<path fill="#4AC8EF" d="M33.2,19.7c-0.2,0-0.4-0.1-0.5-0.2c-0.2-0.1-0.3-0.3-0.5-0.4c-0.9-0.9-1.3-2.3-1-3.6
		c0.1-0.4,0.3-0.8,0.6-1.2c0.3-0.4,0.9-0.5,1.3-0.2c0.4,0.3,0.5,0.9,0.2,1.3c-0.1,0.2-0.2,0.4-0.3,0.6c-0.2,0.7,0,1.4,0.5,1.9
		c0.1,0.1,0.2,0.2,0.3,0.2c0.4,0.3,0.5,0.9,0.2,1.3C33.8,19.5,33.5,19.7,33.2,19.7"/>
</g>
</svg>
