<svg width="64px" viewBox="0 0 64 42.6" preserveAspectRatio="xMidYMid meet">
<g>
	<path fill="#4AC8EF" d="M58.2,32.4H56V4.8c0-1.5-1.2-2.7-2.6-2.7H10.6C9.1,2.2,8,3.4,8,4.8v27.6H5.8V4.8C5.8,2.2,8,0,10.6,0h42.9
		c2.6,0,4.7,2.2,4.7,4.8V32.4z"/>
	<path fill="#4AC8EF" d="M2.5,37.6C3,38.8,4,40.4,5.7,40.4h52.7c1.7,0,2.6-1.6,3.1-2.8H2.5z M58.3,42.6H5.7c-4.3,0-5.6-5.6-5.6-5.8
		c-0.1-0.3,0-0.7,0.2-0.9c0.2-0.3,0.5-0.4,0.8-0.4h61.9c0.3,0,0.6,0.1,0.8,0.4c0.2,0.3,0.3,0.6,0.2,0.9C63.9,37,62.7,42.6,58.3,42.6
		"/>
	<path fill="#4AC8EF" d="M45.2,16.1C45.1,16,45,15.9,45,15.7v-8c0-0.3,0.2-0.5,0.5-0.5c0.3,0,0.5,0.2,0.5,0.5v8
		c0,0.3-0.2,0.5-0.5,0.5C45.4,16.3,45.3,16.2,45.2,16.1"/>
	<path fill="#4AC8EF" d="M23.3,15.5L23.3,15.5L20,12.1c-0.1-0.1-0.2-0.2-0.2-0.4c0-0.1,0.1-0.3,0.2-0.4l3.3-3.4
		c0.1-0.1,0.2-0.2,0.4-0.2h14.1v1.1H23.9l-2.8,2.9l2.8,2.9h13.9v1.1l-14.1,0C23.5,15.7,23.4,15.6,23.3,15.5"/>
	<path fill="#4AC8EF" d="M33.6,10.7c-0.1-0.1-0.2-0.2-0.2-0.4l0-1.9c0-0.3,0.2-0.5,0.5-0.5c0.3,0,0.5,0.2,0.5,0.5l0,1.9
		c0,0.3-0.2,0.5-0.5,0.5C33.8,10.9,33.7,10.8,33.6,10.7"/>
	<path fill="#4AC8EF" d="M30.1,10.7C30,10.6,30,10.5,30,10.4V8.5c0-0.3,0.2-0.5,0.5-0.5c0.3,0,0.5,0.2,0.5,0.5v1.9
		c0,0.3-0.2,0.5-0.5,0.5C30.3,10.9,30.2,10.8,30.1,10.7"/>
	<path fill="#4AC8EF" d="M26.7,10.7c-0.1-0.1-0.2-0.2-0.2-0.4V8.5c0-0.3,0.2-0.5,0.5-0.5s0.5,0.2,0.5,0.5v1.9c0,0.3-0.2,0.5-0.5,0.5
		C26.9,10.9,26.8,10.8,26.7,10.7"/>
	<path fill="#4AC8EF" d="M37.4,18c-0.1-0.1-0.2-0.2-0.2-0.4V5.8c0-0.3,0.2-0.5,0.5-0.5c0.3,0,0.5,0.2,0.5,0.5v11.8
		c0,0.3-0.2,0.5-0.5,0.5C37.6,18.2,37.5,18.1,37.4,18"/>
	<path fill="#4AC8EF" d="M14.4,12c-0.1-0.1-0.2-0.2-0.2-0.4c0-0.3,0.2-0.5,0.5-0.5h5.7c0.3,0,0.5,0.2,0.5,0.5c0,0.3-0.2,0.5-0.5,0.5
		h-5.7C14.7,12.2,14.5,12.1,14.4,12"/>
	<path fill="#4AC8EF" d="M15.6,29.1c0.2-0.5,0.7-1,1.4-1.6c0.7-0.5,1.1-0.8,1.3-1c0.3-0.3,0.4-0.7,0.4-1.1c0-0.3-0.1-0.6-0.3-0.8
		c-0.2-0.2-0.4-0.3-0.7-0.3c-0.4,0-0.7,0.2-0.9,0.5c-0.1,0.2-0.1,0.5-0.2,0.9h-1.4c0-0.6,0.1-1.1,0.3-1.5c0.4-0.7,1.1-1.1,2-1.1
		c0.8,0,1.4,0.2,1.8,0.7c0.5,0.4,0.7,1,0.7,1.7c0,0.5-0.2,1-0.5,1.5c-0.2,0.3-0.6,0.6-1,0.9l-0.6,0.4c-0.4,0.3-0.6,0.4-0.7,0.6
		c-0.1,0.1-0.2,0.3-0.3,0.4h3.2v1.3h-5C15.3,30,15.4,29.5,15.6,29.1"/>
	<path fill="#4AC8EF" d="M22.7,28.8c0.1,0.5,0.4,0.7,0.8,0.7c0.4,0,0.7-0.2,0.8-0.7c0.1-0.5,0.2-1.1,0.2-2c0-0.9-0.1-1.6-0.2-2
		c-0.1-0.4-0.4-0.6-0.8-0.6c-0.4,0-0.7,0.2-0.8,0.6c-0.1,0.4-0.2,1.1-0.2,2C22.5,27.7,22.6,28.4,22.7,28.8 M25.5,24
		c0.4,0.7,0.6,1.6,0.6,2.8c0,1.2-0.2,2.2-0.6,2.8c-0.4,0.7-1,1-2,1c-0.9,0-1.6-0.3-2-1c-0.4-0.7-0.6-1.6-0.6-2.8
		c0-1.2,0.2-2.2,0.6-2.8c0.4-0.7,1-1,2-1C24.5,23,25.1,23.4,25.5,24"/>
	<path fill="#4AC8EF" d="M29.8,26.7c0.3-0.2,0.5-0.6,0.5-1.1c0-0.4-0.1-0.8-0.3-1c-0.2-0.2-0.5-0.4-0.8-0.4c-0.2,0-0.5,0.1-0.6,0.2
		c-0.3,0.2-0.4,0.6-0.4,1.1c0,0.4,0.1,0.8,0.3,1c0.2,0.2,0.4,0.3,0.8,0.3C29.5,26.9,29.6,26.8,29.8,26.7 M27.4,23.8
		c0.5-0.5,1-0.7,1.8-0.7c1.1,0,1.9,0.5,2.3,1.5c0.2,0.6,0.4,1.3,0.4,2.2c0,0.9-0.1,1.6-0.3,2.3c-0.4,1.1-1.2,1.7-2.4,1.7
		c-0.5,0-1-0.2-1.5-0.5c-0.4-0.3-0.7-0.8-0.7-1.4h1.4c0,0.2,0.1,0.4,0.3,0.5c0.1,0.1,0.3,0.2,0.6,0.2c0.5,0,0.8-0.3,1-0.8
		c0.1-0.3,0.2-0.7,0.2-1.3c-0.1,0.2-0.3,0.3-0.4,0.4c-0.3,0.2-0.6,0.2-1,0.2c-0.6,0-1.1-0.2-1.5-0.6c-0.4-0.4-0.7-1-0.7-1.8
		C26.7,24.9,27,24.3,27.4,23.8"/>
	<path fill="#4AC8EF" d="M37.6,24.3c-0.2,0.2-0.5,0.6-0.9,1.1c-0.4,0.6-0.7,1.1-1,1.7c-0.2,0.5-0.4,1-0.6,1.7
		c-0.2,0.7-0.2,1.2-0.2,1.6h-1.5c0-1.3,0.5-2.7,1.3-4.2c0.5-0.9,1-1.5,1.3-1.9h-3.6l0-1.3h5.1V24.3z"/>
	<path fill="#4AC8EF" d="M39.9,29.2c0.2,0.3,0.5,0.4,0.8,0.4c0.3,0,0.6-0.1,0.8-0.4c0.2-0.2,0.3-0.6,0.3-1c0-0.4-0.1-0.8-0.3-1
		c-0.2-0.2-0.5-0.3-0.8-0.3c-0.2,0-0.5,0.1-0.6,0.2c-0.3,0.2-0.4,0.6-0.4,1.1C39.6,28.6,39.7,28.9,39.9,29.2 M41.6,25
		c0-0.1,0-0.3-0.1-0.4c-0.2-0.2-0.4-0.3-0.7-0.3c-0.5,0-0.8,0.3-1,0.8c-0.1,0.3-0.2,0.7-0.2,1.3c0.2-0.2,0.4-0.4,0.6-0.5
		c0.2-0.1,0.5-0.1,0.8-0.1c0.6,0,1.2,0.2,1.6,0.7c0.4,0.4,0.6,1,0.6,1.7c0,0.7-0.2,1.3-0.6,1.8c-0.4,0.5-1,0.8-1.9,0.8
		c-0.9,0-1.6-0.4-2-1.2c-0.3-0.6-0.5-1.4-0.5-2.4c0-0.6,0-1,0.1-1.4c0.1-0.6,0.2-1.2,0.5-1.6c0.2-0.4,0.5-0.6,0.8-0.9
		c0.3-0.2,0.7-0.3,1.2-0.3c0.7,0,1.2,0.2,1.6,0.5s0.6,0.8,0.7,1.4H41.6z"/>
	<path fill="#4AC8EF" d="M45.7,25.8c0.2,0.2,0.4,0.3,0.7,0.3c0.3,0,0.5-0.1,0.7-0.3c0.2-0.2,0.2-0.4,0.2-0.7c0-0.3-0.1-0.5-0.2-0.7
		c-0.2-0.2-0.4-0.2-0.7-0.2c-0.3,0-0.5,0.1-0.7,0.2c-0.2,0.2-0.2,0.4-0.2,0.7C45.5,25.5,45.6,25.7,45.7,25.8 M45.6,29.2
		c0.2,0.2,0.4,0.3,0.8,0.3c0.3,0,0.6-0.1,0.8-0.3c0.2-0.2,0.3-0.5,0.3-0.9c0-0.4-0.1-0.7-0.3-0.9c-0.2-0.2-0.4-0.3-0.8-0.3
		c-0.3,0-0.6,0.1-0.8,0.3c-0.2,0.2-0.3,0.5-0.3,0.9C45.4,28.7,45.4,29,45.6,29.2 M44.1,27.3c0.2-0.3,0.5-0.6,0.8-0.8
		c-0.4-0.2-0.6-0.5-0.7-0.8c-0.1-0.3-0.2-0.5-0.2-0.8c0-0.5,0.2-1,0.6-1.4c0.4-0.4,1-0.6,1.7-0.6s1.3,0.2,1.7,0.6
		c0.4,0.4,0.6,0.8,0.6,1.4c0,0.2-0.1,0.5-0.2,0.8c-0.1,0.3-0.3,0.5-0.7,0.7c0.4,0.2,0.6,0.5,0.8,0.8c0.2,0.3,0.3,0.7,0.3,1.1
		c0,0.6-0.2,1.2-0.7,1.6c-0.5,0.4-1.1,0.7-1.9,0.7c-0.8,0-1.4-0.2-1.9-0.7c-0.4-0.4-0.6-1-0.6-1.6C43.9,28.1,44,27.7,44.1,27.3"/>
	<rect x="39.6" y="9.3" fill="#4AC8EF" width="5.9" height="1.1"/>
	<rect x="39.6" y="12.9" fill="#4AC8EF" width="5.9" height="1.1"/>
</g>
</svg>
