<svg width="59px" viewBox="0 0 59 54.2" preserveAspectRatio="xMidYMid meet">
<g>
	<path fill="#4AC8EF" d="M54.3,48.6h-3.5c-0.6,0-1.1-0.5-1.1-1.1c0-0.6,0.5-1.1,1.1-1.1h3.5c1.3,0,2.4-1.1,2.4-2.4v-7.1
		C46.6,17.7,36.3,18,36.2,18L4.7,18c-1.3,0-2.4,1.1-2.4,2.4V44c0,1.3,1.1,2.4,2.4,2.4h3c0.6,0,1.1,0.5,1.1,1.1
		c0,0.6-0.5,1.1-1.1,1.1h-3C2.1,48.6,0,46.5,0,44V20.4c0-2.5,2.1-4.6,4.7-4.6h31.5c0.4,0,11.8-0.6,22.8,20.3
		c0.1,0.2,0.1,0.3,0.1,0.5V44C59,46.5,56.9,48.6,54.3,48.6"/>
	<path fill="#4AC8EF" d="M45.4,43.6c-2.3,0-4.2,1.9-4.2,4.2c0,2.3,1.9,4.2,4.2,4.2c2.3,0,4.2-1.9,4.2-4.2
		C49.6,45.5,47.7,43.6,45.4,43.6 M45.4,54.2c-3.5,0-6.4-2.9-6.4-6.4c0-3.5,2.9-6.4,6.4-6.4c3.6,0,6.4,2.9,6.4,6.4
		C51.8,51.3,48.9,54.2,45.4,54.2"/>
	<path fill="#4AC8EF" d="M13.1,43.6c-2.3,0-4.2,1.9-4.2,4.2c0,2.3,1.9,4.2,4.2,4.2c2.3,0,4.2-1.9,4.2-4.2
		C17.3,45.5,15.4,43.6,13.1,43.6 M13.1,54.2c-3.5,0-6.4-2.9-6.4-6.4c0-3.5,2.9-6.4,6.4-6.4c3.5,0,6.4,2.9,6.4,6.4
		C19.6,51.3,16.7,54.2,13.1,54.2"/>
	<path fill="#4AC8EF" d="M50,34.1h-9c-4.2,0-5.3-3.6-5.3-5.5v-7c0-0.6,0.5-1.1,1.1-1.1c0.6,0,1.1,0.5,1.1,1.1v7
		c0,0.5,0.2,3.3,3.1,3.3h9c0.6,0,1.1,0.5,1.1,1.1C51.2,33.7,50.7,34.1,50,34.1"/>
	<path fill="#4AC8EF" d="M36.3,13.6H34v-2.4c0-0.8-0.7-1.5-1.6-1.5h-1c-0.9,0-1.6,0.7-1.6,1.5v2.4h-2.2v-2.4c0-2.1,1.7-3.7,3.8-3.7
		h1c2.1,0,3.8,1.7,3.8,3.7V13.6z"/>
	<path fill="#4AC8EF" d="M32,5.4c-0.6,0-1.1-0.5-1.1-1.1V1.1C30.9,0.5,31.4,0,32,0c0.6,0,1.1,0.5,1.1,1.1v3.2
		C33.1,4.9,32.6,5.4,32,5.4"/>
	<path fill="#4AC8EF" d="M36.1,6.4c-0.3,0-0.6-0.1-0.8-0.3c-0.4-0.4-0.4-1.1,0-1.6l2.3-2.2c0.4-0.4,1.1-0.4,1.6,0
		c0.4,0.4,0.4,1.1,0,1.6l-2.3,2.2C36.7,6.3,36.4,6.4,36.1,6.4"/>
	<path fill="#4AC8EF" d="M27.9,6.4c-0.3,0-0.6-0.1-0.8-0.3l-2.3-2.2c-0.4-0.4-0.4-1.1,0-1.6c0.4-0.4,1.1-0.4,1.6,0l2.3,2.2
		c0.4,0.4,0.4,1.1,0,1.6C28.5,6.3,28.2,6.4,27.9,6.4"/>
	<rect x="10.8" y="29.5" fill="#4AC8EF" width="13.1" height="2.2"/>
	<rect x="16.2" y="24.1" fill="#4AC8EF" width="2.2" height="13.1"/>
	<rect x="22.2" y="46.7" fill="#4AC8EF" width="14.5" height="2.2"/>
</g>
</svg>
