<svg width="40px" viewBox="0 0 40 46.8" preserveAspectRatio="xMidYMid meet">
<g>
	<path fill="#4AC8EF" d="M16.8,16c-3.7-2.8-3.9-8.1-3.9-8.3c0-0.2,0.1-0.3,0.2-0.4c0.1-0.1,0.3-0.2,0.5-0.2c2.3,0,5.1-1.2,6.1-1.8
		c0.1-0.1,0.2-0.1,0.4-0.1c0.1,0,0.3,0,0.4,0.1c0.9,0.6,3.8,1.8,6.1,1.8c0.2,0,0.3,0.1,0.5,0.2c0.1,0.1,0.2,0.3,0.2,0.4
		c0,0.2-0.1,5.5-3.9,8.3l10.2-0.7l0.2-0.8c0,0,0.2-1.9,1.7-3.1c0.5-0.4,0.8-1,0.8-1.6c0-1.1-0.8-2-2.1-2.3c-2.3-0.5-5.3-1.4-6.7-3.1
		c-2.4-2.9-6.1-3.1-7.2-3.1c-0.1,0-0.2,0-0.2,0l-0.3,0c-1.1,0-4.8,0.2-7.2,3.1c-1.4,1.7-4.4,2.7-6.7,3.1C4.6,7.8,3.8,8.7,3.8,9.8
		c0,0.7,0.3,1.3,0.8,1.6c1.6,1.2,1.8,3.1,1.8,3.2l0.2,0.6L16.8,16z M14.3,8.3c0.2,1.7,1,6.7,5.8,7.9c4.7-1.2,5.5-6.3,5.7-7.9
		c-2.3-0.2-4.6-1.2-5.7-1.7C18.9,7.1,16.5,8.1,14.3,8.3 M6.9,16.5c0.7,1.6,3.4,5.1,13.1,5.1s12.3-3.5,13.1-5.1l-13,0.9H20L6.9,16.5z
		 M8.9,20.5c0,0.3-0.1,0.5-0.1,0.8c0,0.5,0,1,0.1,1.6c0.8,5.5,5.5,9.7,10.9,9.7C26,32.7,31,27.6,31,21.3c0-0.3,0-0.5,0-0.8
		c-2.6,1.6-6.3,2.4-11,2.4C15.3,22.9,11.5,22.1,8.9,20.5L8.9,20.5z M6.6,18.9c-1,5.8,0.2,10.8,3.5,14.4c1-0.4,1.7-0.7,2.3-1.1
		c0.2-0.1,0.4-0.3,0.7-0.5c-2.9-2-4.9-5.1-5.4-8.6c-0.1-0.7-0.1-1.2-0.1-1.8c0-0.6,0-1.1,0.1-1.8c-0.4-0.3-0.7-0.6-1-1
		C6.6,18.5,6.6,18.8,6.6,18.9 M26.9,31.7c0.3,0.2,0.5,0.4,0.7,0.6c0.6,0.4,1.3,0.8,2.3,1.1c3.2-3.6,4.4-8.7,3.5-14.4
		c0-0.1-0.1-0.4-0.1-0.4c-0.3,0.4-0.7,0.8-1.2,1.2l0,0c0,0.1,0,0.1,0,0.2c0.1,0.5,0.1,1,0.1,1.5C32.3,25.5,30.3,29.3,26.9,31.7
		 M23.4,46.7c-0.3,0-0.6-0.2-0.7-0.5l-1.5-6.7c-0.1-0.2,0-0.5,0.2-0.6c0.6-0.5,1-1.1,1-1.9c0-1.3-1.1-2.4-2.6-2.4
		c-1.4,0-2.6,1.1-2.6,2.4c0,0.7,0.4,1.4,1,1.9c0.2,0.1,0.3,0.4,0.2,0.6l-1.5,6.7c-0.1,0.3-0.3,0.5-0.6,0.5c0,0-0.1,0-0.1,0
		c-0.2,0-0.3-0.1-0.4-0.3c-0.1-0.1-0.1-0.3-0.1-0.5l1.4-6.4C16.5,38.9,16,38,16,37c0-1.4,0.9-2.6,2.2-3.2c-1.4-0.2-2.8-0.7-4.1-1.4
		c-0.4,0.4-0.7,0.6-1,0.8c-1.4,0.9-2.9,1.4-4.4,1.9c-0.5,0.1-1,0.3-1.4,0.5c-4.9,1.7-5.8,3.7-5.8,6.2v4.3c0,0.3-0.3,0.6-0.7,0.6
		c-0.4,0-0.7-0.3-0.7-0.6v-4.3c0-3.6,1.9-5.7,6.7-7.4c0.5-0.2,1-0.3,1.5-0.5l0.4-0.1c-3.3-3.9-4.5-9.1-3.5-15.1
		c0.1-0.7,0.2-1.3,0.4-2C5.5,16.3,5.4,16,5.4,16L5,14.9c-0.2-1.1-0.6-2-1.3-2.5c-0.8-0.6-1.3-1.5-1.3-2.6c0-1.7,1.3-3.1,3.1-3.5
		c2.9-0.6,5-1.5,6-2.7c2.7-3.3,7-3.6,8.2-3.6c0.1,0,0.3,0,0.3,0c0.1,0,0.1,0,0.3,0c1.2,0,5.4,0.3,8.2,3.6c0.9,1.1,3,2.1,6,2.7
		c1.8,0.4,3.1,1.8,3.1,3.5c0,1-0.5,2-1.3,2.6c-1.1,0.8-1.3,2.3-1.3,2.3L34.6,16c0,0-0.1,0.3-0.2,0.8c0.1,0.6,0.3,1.2,0.4,1.9
		c1,6-0.2,11.2-3.4,15.1l0.4,0.1c0.5,0.2,1,0.3,1.5,0.5c4.8,1.6,6.7,3.8,6.7,7.4v4.3c0,0.3-0.3,0.6-0.7,0.6c-0.4,0-0.7-0.3-0.7-0.6
		v-4.3c0-2.5-1-4.5-5.8-6.2c-0.4-0.2-0.9-0.3-1.4-0.4c-1.6-0.5-3.1-1-4.5-1.9c-0.3-0.2-0.7-0.5-1.1-0.9c-1.3,0.7-2.7,1.2-4.2,1.4
		c1.3,0.6,2.2,1.8,2.2,3.2c0,1-0.4,1.9-1.3,2.6L24,46c0,0.2,0,0.3-0.1,0.5c-0.1,0.1-0.2,0.2-0.4,0.3C23.4,46.7,23.4,46.7,23.4,46.7"
		/>
	<path fill="#4AC8EF" d="M19.9,32.6c-5.4,0-10.1-4.2-10.8-9.7C9,22.3,9,21.8,9,21.3c0-0.2,0-0.5,0-0.7c2.6,1.6,6.3,2.4,11,2.4
		c4.6,0,8.3-0.8,10.9-2.3c0,0.2,0,0.4,0,0.7C30.9,27.5,26,32.6,19.9,32.6 M10.1,33.2c-3.2-3.6-4.4-8.6-3.4-14.3c0-0.1,0-0.2,0-0.2
		C7,19,7.3,19.3,7.6,19.6c-0.1,0.7-0.1,1.2-0.1,1.7c0,0.6,0,1.1,0.1,1.8c0.5,3.5,2.4,6.6,5.3,8.6c-0.2,0.2-0.4,0.3-0.6,0.4
		C11.7,32.6,11,32.9,10.1,33.2 M32.3,19.7c0.4-0.3,0.7-0.6,1-1c0,0.1,0,0.2,0,0.2c0.9,5.7-0.3,10.7-3.4,14.3
		c-0.9-0.3-1.6-0.7-2.2-1.1c-0.2-0.1-0.4-0.3-0.6-0.5c3.4-2.4,5.3-6.2,5.3-10.4c0-0.5,0-0.9-0.1-1.5C32.3,19.8,32.3,19.7,32.3,19.7
		L32.3,19.7z M20,21.6c-9.3,0-12.1-3.3-12.9-4.9l12.9,0.9l0,0h0h0l0,0l12.9-0.9C32.1,18.3,29.3,21.6,20,21.6 M14.4,8.4
		c2.2-0.2,4.5-1.1,5.6-1.7c1.1,0.6,3.4,1.5,5.6,1.7c-0.2,1.7-1.1,6.5-5.6,7.7C15.5,14.9,14.6,10.1,14.4,8.4 M20,1.4L20,1.4L20,1.4
		c0,0,0.1,0,0.2,0c1.1,0,4.7,0.2,7.1,3.1c1.5,1.8,4.5,2.7,6.8,3.1c1.2,0.2,2,1.1,2,2.2c0,0.6-0.3,1.2-0.7,1.6
		c-1.4,1-1.7,2.6-1.8,3.1l0,0l-0.2,0.7l-9.9,0.7c3.6-2.9,3.7-7.9,3.7-8.2c0-0.2-0.1-0.4-0.2-0.5C26.8,7.1,26.6,7,26.4,7
		c-2.3,0-5.1-1.2-6-1.8c-0.1-0.1-0.3-0.1-0.4-0.1c-0.1,0-0.3,0-0.4,0.1c-0.9,0.6-3.7,1.8-6,1.8c-0.2,0-0.4,0.1-0.5,0.2
		c-0.1,0.1-0.2,0.3-0.2,0.5c0,0.2,0.1,5.3,3.7,8.2l-9.9-0.7l-0.2-0.6c0,0-0.2-2-1.8-3.2C4.1,11,3.9,10.4,3.9,9.8c0-1,0.8-1.9,2-2.2
		c2.3-0.5,5.3-1.4,6.8-3.1c2.4-2.8,6.1-3.1,7.2-3.1C19.9,1.4,20,1.4,20,1.4L20,1.4L20,1.4z M20.3,0c-0.1,0-0.2,0-0.3,0v0
		c0,0-0.1,0-0.3,0c-1.2,0-5.5,0.3-8.3,3.6c-0.9,1.1-3,2-5.9,2.6C3.7,6.6,2.4,8.1,2.4,9.8c0,1.1,0.5,2,1.3,2.7
		c0.7,0.5,1.1,1.3,1.3,2.3l0,0.1L5.3,16c0,0.1,0.1,0.3,0.2,0.8c-0.2,0.7-0.3,1.3-0.4,1.9c-1,6,0.2,11.2,3.4,15l-0.3,0.1
		c-0.5,0.2-1,0.3-1.5,0.5C2,36,0,38.2,0,41.8v4.3c0,0.4,0.3,0.7,0.8,0.7c0.4,0,0.8-0.3,0.8-0.7v-4.3c0-2.5,1-4.5,5.8-6.1
		c0.5-0.2,0.9-0.3,1.4-0.5c1.5-0.5,3.1-1,4.4-1.9c0.3-0.2,0.6-0.5,1-0.8c1.2,0.6,2.5,1.1,3.8,1.3c-1.2,0.7-2,1.9-2,3.2
		c0,1,0.4,1.9,1.2,2.6l-1.4,6.3c0,0.2,0,0.4,0.1,0.5c0.1,0.2,0.3,0.3,0.5,0.3c0.1,0,0.1,0,0.2,0c0.4,0,0.7-0.2,0.7-0.6l1.5-6.7
		c0.1-0.3-0.1-0.5-0.3-0.7c-0.6-0.4-1-1.1-1-1.8c0-1.3,1.1-2.3,2.5-2.3s2.5,1,2.5,2.3c0,0.7-0.4,1.4-1,1.8c-0.2,0.2-0.3,0.4-0.3,0.7
		l1.5,6.7c0.1,0.3,0.4,0.6,0.7,0.6c0,0,0.1,0,0.2,0c0.2,0,0.4-0.1,0.5-0.3c0.1-0.2,0.2-0.3,0.1-0.5l-1.4-6.3
		c0.8-0.7,1.2-1.6,1.2-2.6c0-1.3-0.8-2.5-2-3.2c1.4-0.2,2.7-0.7,3.9-1.3c0.4,0.4,0.7,0.6,1,0.8c1.4,0.9,2.9,1.4,4.4,1.9l0.1,0
		c0.5,0.1,0.9,0.3,1.4,0.4c4.8,1.7,5.8,3.7,5.8,6.1v4.3c0,0.4,0.3,0.7,0.8,0.7c0.4,0,0.8-0.3,0.8-0.7v-4.3c0-3.6-2-5.8-6.8-7.5
		c-0.5-0.2-1-0.3-1.5-0.5l-0.3-0.1c3.2-3.9,4.4-9.1,3.4-15.1c-0.1-0.6-0.2-1.2-0.4-1.9c0.2-0.4,0.2-0.7,0.2-0.8l0.4-1.2
		c0-0.1,0.1-1.5,1.2-2.3c0.8-0.6,1.3-1.6,1.3-2.7c0-1.7-1.3-3.2-3.2-3.6c-2.9-0.6-5-1.5-5.9-2.6C25.8,0.3,21.6,0,20.3,0 M19.9,32.8
		c6.2,0,11.2-5.1,11.2-11.4c0-0.3,0-0.6-0.1-1c-2.1,1.3-5.5,2.4-11,2.4c-5.6,0-9-1.2-11.2-2.5c0,0.3-0.1,0.7-0.1,1
		c0,0.5,0,1,0.1,1.6C9.7,28.5,14.4,32.8,19.9,32.8 M30,33.5c3.2-3.6,4.5-8.6,3.5-14.6c0-0.2-0.1-0.4-0.1-0.6
		c-0.3,0.4-0.8,0.9-1.3,1.3c0,0.1,0,0.2,0,0.3c0.1,0.5,0.1,1,0.1,1.5c0,4.3-2.2,8.1-5.5,10.4c0.3,0.2,0.5,0.5,0.8,0.6
		C28.3,32.8,29.2,33.2,30,33.5 M10,33.5c0.8-0.3,1.6-0.6,2.4-1.1c0.3-0.2,0.5-0.4,0.8-0.6c-2.9-1.9-4.9-5-5.4-8.6
		c-0.1-0.7-0.1-1.2-0.1-1.8c0-0.6,0.1-1.2,0.1-1.8c-0.5-0.4-0.9-0.8-1.2-1.2c0,0.2-0.1,0.4-0.1,0.6C5.5,24.8,6.8,29.9,10,33.5
		 M20,21.7c10,0,12.6-3.8,13.2-5.3L20,17.4c0,0,0,0,0,0c0,0,0,0,0,0h0c0,0,0,0,0,0c0,0,0,0,0,0h0c0,0,0,0,0,0c0,0,0,0,0,0L6.8,16.4
		C7.4,18,10,21.7,20,21.7 M20,16.3c4.9-1.3,5.7-6.4,5.8-8.1c-2.2-0.2-4.7-1.1-5.8-1.8c-1.2,0.6-3.6,1.6-5.8,1.8
		C14.3,9.9,15.1,15,20,16.3 M20,1.2c0,0-0.1,0-0.3,0c-1,0-4.9,0.2-7.3,3.1C11.1,6.1,8.1,7,5.8,7.4C4.6,7.7,3.7,8.7,3.7,9.8
		c0,0.7,0.3,1.3,0.8,1.7c1.6,1.2,1.7,3.1,1.7,3.1l0.2,0.7l10.6,0.8c-4-2.8-4.1-8.3-4.1-8.4c0-0.1,0.1-0.3,0.2-0.4
		c0.1-0.1,0.3-0.2,0.4-0.2c2.4,0,5.2-1.2,6.1-1.8c0.1-0.1,0.2-0.1,0.3-0.1s0.2,0,0.3,0.1c0.9,0.6,3.8,1.8,6.1,1.8
		c0.2,0,0.3,0.1,0.4,0.2C27,7.4,27,7.6,27,7.7c0,0.1-0.1,5.6-4.1,8.4l10.6-0.8l0.3-0.8c0,0,0.2-1.9,1.7-3c0.5-0.4,0.8-1,0.8-1.7
		c0-1.1-0.9-2.1-2.1-2.4c-2.3-0.5-5.2-1.4-6.7-3.1c-2.4-2.9-6.3-3.1-7.2-3.1C20.1,1.2,20,1.2,20,1.2 M20.3,0.2
		c1.1,0,5.4,0.2,8.1,3.5c0.9,1.1,3.1,2.1,6,2.7c1.8,0.4,3,1.8,3,3.4c0,1-0.4,1.9-1.2,2.5c-1.2,0.9-1.3,2.4-1.3,2.4L34.5,16
		c0,0.1-0.1,0.4-0.2,0.8c0.1,0.6,0.3,1.3,0.4,2c1,6.1-0.3,11.3-3.5,15.1c0.2,0.1,0.4,0.1,0.5,0.2c0.5,0.2,1,0.3,1.5,0.5
		c4.7,1.6,6.6,3.7,6.6,7.3v4.3c0,0.3-0.3,0.5-0.6,0.5c-0.3,0-0.6-0.2-0.6-0.5v-4.3c0-2.6-1-4.6-5.9-6.3c-0.5-0.2-0.9-0.3-1.4-0.5
		c-1.5-0.5-3-0.9-4.4-1.8c-0.4-0.3-0.8-0.6-1.1-0.9c-1.4,0.8-2.9,1.3-4.5,1.5c1.4,0.5,2.4,1.8,2.4,3.3c0,1-0.4,1.9-1.2,2.6l1.4,6.4
		c0.1,0.3-0.1,0.6-0.4,0.6c0,0-0.1,0-0.1,0c-0.3,0-0.5-0.2-0.6-0.4l-1.5-6.7c0-0.2,0-0.4,0.2-0.5c0.7-0.5,1.1-1.2,1.1-1.9
		c0-1.4-1.2-2.5-2.7-2.5c-1.5,0-2.6,1.1-2.6,2.4c0,0.8,0.4,1.5,1.1,1.9c0.2,0.1,0.3,0.3,0.2,0.5l-1.5,6.7c-0.1,0.2-0.3,0.4-0.6,0.4
		c0,0-0.1,0-0.1,0c-0.3-0.1-0.5-0.3-0.4-0.6l1.4-6.4c-0.8-0.7-1.2-1.6-1.2-2.6c0-1.5,1-2.8,2.4-3.3c-1.6-0.2-3.1-0.7-4.5-1.4
		c-0.3,0.3-0.7,0.6-1.1,0.9c-1.4,0.9-2.9,1.4-4.4,1.8c-0.5,0.1-1,0.3-1.4,0.5c-4.9,1.7-5.9,3.7-5.9,6.3v4.3c0,0.3-0.3,0.5-0.6,0.5
		c-0.3,0-0.6-0.2-0.6-0.5v-4.3c0-3.6,1.9-5.7,6.7-7.3c0.5-0.2,1-0.3,1.5-0.5c0.2-0.1,0.4-0.1,0.6-0.2C5.6,30,4.3,24.8,5.3,18.7
		c0.1-0.7,0.2-1.3,0.4-2c-0.2-0.4-0.2-0.7-0.2-0.8l-0.4-1.1c0-0.1-0.2-1.6-1.3-2.5C3,11.7,2.5,10.8,2.5,9.8c0-1.6,1.2-3,3-3.4
		c2.9-0.6,5.1-1.6,6-2.7c2.7-3.3,7-3.5,8.2-3.5c0.2,0,0.3,0,0.3,0C20,0.2,20.1,0.2,20.3,0.2"/>
</g>
</svg>
