<svg width="52px" viewBox="0 0 52 32.8" preserveAspectRatio="xMidYMid meet">
<path fill="#4AC8EF" d="M15.2,32.8H1.6c-0.2,0-0.4-0.1-0.5-0.2c-0.2-0.2-2.1-2-0.3-6.9c0.8-2.2,1.6-3.7,2.4-5.1
	c0.8-1.5,1.5-2.6,1.7-4.1c0.2-1.2-1.7-2.1-2.8-2.5c-0.4-0.2-0.6-0.6-0.5-1c0.2-0.4,0.6-0.6,1-0.5c3.6,1.3,4,3.1,3.8,4.3
	c-0.3,1.8-1.1,3.1-1.9,4.6c-0.7,1.3-1.6,2.8-2.3,4.8c-1.1,3-0.5,4.5-0.3,5h11.8c-0.3-0.8-0.5-1.8-0.2-2.9c0.6-1.9,3.7-12.8,3.7-12.8
	c0,0,0,0,0-0.1c0.1-0.2,0.7-1.6,1.7-2.2c0.8-0.4,2.7-0.5,3-0.5h24.6V9.9c0-0.4,0.4-0.8,0.8-0.8c0.4,0,0.8,0.4,0.8,0.8v3.6
	c0,0.4-0.4,0.8-0.8,0.8H22.2c-0.8,0-2,0.1-2.3,0.3c-0.4,0.2-0.9,1-1,1.4c-0.2,0.7-3.2,10.9-3.7,12.8c-0.4,1.5,0.6,2.7,0.7,2.8
	c0.2,0.2,0.3,0.6,0.1,0.8C15.8,32.6,15.5,32.8,15.2,32.8"/>
<path fill="#4AC8EF" d="M3.7,8.8h46.1l0.5-5.2h-16v0.6c0,1.2-1.2,2.1-2.6,2.1h-4.5c-1.4,0-2.6-1-2.6-2.1V3.6H6.5
	C6.2,3.8,4.8,4.9,3.7,8.8 M50.6,10.4H2.7c-0.2,0-0.5-0.1-0.6-0.3C1.9,9.9,1.8,9.7,1.9,9.4C3.4,3.2,5.8,2.2,6,2.1c0.1,0,0.2,0,0.3,0
	h19c0.2,0,0.4,0.1,0.6,0.2c0.2,0.1,0.2,0.3,0.2,0.6v1.3c0,0.2,0.4,0.6,1,0.6h4.5c0.6,0,1-0.3,1-0.6V2.8c0-0.2,0.1-0.4,0.2-0.6
	C33.1,2.1,33.3,2,33.5,2h16.9V0.8c0-0.4,0.4-0.8,0.8-0.8C51.6,0,52,0.4,52,0.8v2c0,0,0,0,0,0.1l-0.7,6.8
	C51.3,10.1,51,10.4,50.6,10.4"/>
<path fill="#4AC8EF" d="M14.5,6.6c-0.1,0-0.2,0-0.3-0.1c-0.4-0.2-0.6-0.6-0.4-1l1.2-2.9c0.2-0.4,0.6-0.6,1-0.4
	c0.4,0.2,0.6,0.6,0.4,1l-1.2,2.9C15.1,6.4,14.8,6.6,14.5,6.6"/>
<path fill="#4AC8EF" d="M19,6.6c-0.1,0-0.2,0-0.3-0.1c-0.4-0.2-0.6-0.6-0.4-1l1.2-2.9c0.2-0.4,0.6-0.6,1-0.4c0.4,0.2,0.6,0.6,0.4,1
	l-1.2,2.9C19.6,6.4,19.3,6.6,19,6.6"/>
<path fill="#4AC8EF" d="M25.5,21.3h-5.2c-0.4,0-0.8-0.4-0.8-0.8c0-0.4,0.4-0.8,0.8-0.8h5.2c1.8,0,2.4-1.6,2.6-2.6l0.7-3.6
	c0.1-0.4,0.5-0.7,0.9-0.6c0.4,0.1,0.7,0.5,0.6,0.9l-0.7,3.6C29.2,19.8,27.7,21.3,25.5,21.3"/>
<path fill="#4AC8EF" d="M22.9,17.9c-0.1,0-0.3,0-0.4-0.1c-2.4-1.3-3.2-3.4-3.2-3.5c-0.2-0.4,0.1-0.9,0.5-1c0.4-0.2,0.9,0.1,1,0.5
	c0,0,0.6,1.6,2.5,2.6c0.4,0.2,0.5,0.7,0.3,1.1C23.4,17.7,23.2,17.9,22.9,17.9"/>
<path fill="#4AC8EF" d="M10.1,6.6c-0.1,0-0.2,0-0.3-0.1c-0.4-0.2-0.6-0.6-0.4-1l1.2-2.9c0.2-0.4,0.6-0.6,1-0.4
	c0.4,0.2,0.6,0.6,0.4,1l-1.2,2.9C10.7,6.4,10.4,6.6,10.1,6.6"/>
<path fill="#4AC8EF" d="M12.3,17.8H5.7c-0.4,0-0.8-0.4-0.8-0.8c0-0.4,0.4-0.8,0.8-0.8h6.6c0.4,0,0.8,0.4,0.8,0.8
	C13.1,17.4,12.7,17.8,12.3,17.8"/>
<path fill="#4AC8EF" d="M10.8,22.2h-7c-0.4,0-0.8-0.4-0.8-0.8c0-0.4,0.4-0.8,0.8-0.8h7c0.4,0,0.8,0.4,0.8,0.8
	C11.6,21.9,11.3,22.2,10.8,22.2"/>
<path fill="#4AC8EF" d="M9.4,26.7H1.6c-0.4,0-0.8-0.4-0.8-0.8c0-0.4,0.4-0.8,0.8-0.8h7.7c0.4,0,0.8,0.4,0.8,0.8
	C10.2,26.4,9.8,26.7,9.4,26.7"/>
</svg>
