<svg width="47px" viewBox="0 0 47 38.2" preserveAspectRatio="xMidYMid meet">
<g>
	<path fill="#4AC8EF" d="M3,1.8c-0.6,0-1.2,0.5-1.2,1.1v26c0,0.6,0.5,1.1,1.2,1.1h41c0.6,0,1.2-0.5,1.2-1.1v-26
		c0-0.6-0.5-1.1-1.2-1.1H3z M44,31.9H3c-1.7,0-3-1.3-3-2.9v-26C0,1.3,1.4,0,3,0h41c1.7,0,3,1.3,3,2.9v26C47,30.6,45.6,31.9,44,31.9"
		/>
	<path fill="#4AC8EF" d="M40.3,14H28.9c-0.5,0-0.9-0.4-0.9-0.9c0-0.5,0.4-0.9,0.9-0.9h11.4c0.5,0,0.9,0.4,0.9,0.9
		C41.3,13.6,40.9,14,40.3,14"/>
	<path fill="#4AC8EF" d="M40.3,9.3H28.9c-0.5,0-0.9-0.4-0.9-0.9c0-0.5,0.4-0.9,0.9-0.9h11.4c0.5,0,0.9,0.4,0.9,0.9
		C41.3,8.9,40.9,9.3,40.3,9.3"/>
	<path fill="#4AC8EF" d="M40.3,23.3H28.9c-0.5,0-0.9-0.4-0.9-0.9c0-0.5,0.4-0.9,0.9-0.9h11.4c0.5,0,0.9,0.4,0.9,0.9
		C41.3,22.9,40.9,23.3,40.3,23.3"/>
	<path fill="#4AC8EF" d="M40.3,18.6H28.9c-0.5,0-0.9-0.4-0.9-0.9c0-0.5,0.4-0.9,0.9-0.9h11.4c0.5,0,0.9,0.4,0.9,0.9
		C41.3,18.2,40.9,18.6,40.3,18.6"/>
	<path fill="#4AC8EF" d="M23.2,20.4c0,0-0.1,0-0.1,0c-0.5-0.1-0.8-0.5-0.8-1c0.4-2.5,0.3-4.4,0.3-4.6c-0.2-4.3-3.5-7.6-7.5-7.6
		c-0.1,0-0.2,0-0.4,0c-3.8,0.2-6.8,3.5-7.1,7.6c0,0.5-0.5,0.9-1,0.8c-0.5,0-0.9-0.5-0.9-0.9c0.3-5,4.1-9,8.8-9.3c0.2,0,0.4,0,0.5,0
		c4.9,0,9.1,4.1,9.3,9.3c0,0.2,0.1,2.2-0.3,4.9C24,20.1,23.6,20.4,23.2,20.4"/>
	<path fill="#4AC8EF" d="M18,23.5c-0.1,0-0.2,0-0.3-0.1c-0.5-0.2-0.7-0.7-0.5-1.2c1.4-3.7,1.2-7,1.2-7.2c-0.1-1.9-1.6-3.4-3.3-3.4
		c-0.1,0-0.1,0-0.2,0c-1.8,0.1-3.2,1.8-3.1,3.8c0,0,0.1,2.6-1.1,4.9c-0.2,0.4-0.8,0.6-1.2,0.4C9,20.5,8.9,20,9.1,19.6
		c0.9-1.8,0.9-4,0.9-4c-0.1-2.9,2-5.5,4.8-5.6c0.1,0,0.2,0,0.3,0c2.7,0,5,2.2,5.1,5.1c0,0.2,0.2,3.9-1.3,7.9
		C18.8,23.2,18.4,23.5,18,23.5"/>
	<path fill="#4AC8EF" d="M12.7,24.5c-0.2,0-0.4-0.1-0.5-0.2c-0.4-0.3-0.5-0.9-0.2-1.3c2.5-3.3,2.2-7.7,2.2-7.8
		c0-0.5,0.4-0.9,0.9-0.9c0.5,0,0.9,0.4,1,0.8c0,0.2,0.3,5.1-2.6,8.9C13.2,24.4,13,24.5,12.7,24.5"/>
	<path fill="#4AC8EF" d="M32.7,38.2H14.6c-0.5,0-0.9-0.4-0.9-0.9c0-0.5,0.4-0.9,0.9-0.9h18.1c0.5,0,0.9,0.4,0.9,0.9
		C33.6,37.8,33.2,38.2,32.7,38.2"/>
	<rect x="27.5" y="30.8" fill="#4AC8EF" width="1.8" height="6.4"/>
	<rect x="17.6" y="30.8" fill="#4AC8EF" width="1.8" height="6.4"/>
</g>
</svg>
