<svg width="44px" viewBox="0 0 44 44.8" preserveAspectRatio="xMidYMid meet">
<path fill="#4AC8EF" d="M25.3,19.8l-0.1-1.7c1.4-0.1,2.6-0.7,3.6-1.6c2.1-2.2,2.1-5.7,0-7.9c-2.1-2.2-5.6-2.2-7.8,0
	c-0.9,0.9-1.5,2.1-1.6,3.4l-1.7-0.2c0.2-1.7,0.9-3.3,2.1-4.5c2.8-2.9,7.4-2.9,10.2,0c2.8,2.9,2.8,7.5,0,10.4
	C28.7,19,27,19.7,25.3,19.8"/>
<path fill="#4AC8EF" d="M32.4,29.4c-1,0-1.9-0.4-2.6-1.1l-1.5-1.6c-0.4-0.4-1-0.8-1.6-1.1l0.8-1.5c0.8,0.4,1.5,0.9,2,1.5l1.5,1.6
	c0.8,0.8,2.1,0.8,2.9,0l5.4-5.5c0.8-0.8,0.8-2.1,0-2.9l-1.5-1.6c-1.3-1.3-2.4-3.7-2.5-5.6c0,0-0.3-4.2-2.8-6.6c-2-2-4.7-3.2-7.5-3.2
	c-2.8,0-5.5,1.1-7.5,3.2c-1.6,1.6-2.6,3.6-3,5.8l-1.7-0.3c0.4-2.6,1.6-4.9,3.4-6.8C18.5,1.3,21.6,0,24.9,0c3.3,0,6.4,1.3,8.7,3.7
	c2.9,2.9,3.2,7.5,3.2,7.7c0.1,1.4,1,3.4,2,4.4l1.5,1.6c1.5,1.5,1.5,3.9,0,5.4L35,28.3C34.3,29,33.4,29.4,32.4,29.4"/>
<path fill="#4AC8EF" d="M12.3,14.6c-2.7,0-5.4,1.1-7.5,3.2c-4.1,4.2-4.1,11,0,15.3c2.4,2.5,6.5,2.8,6.5,2.8c1.8,0.1,4.2,1.2,5.5,2.5
	l1.5,1.6c0.8,0.8,2.1,0.8,2.9,0l5.4-5.5c0.4-0.4,0.6-0.9,0.6-1.5c0-0.6-0.2-1.1-0.6-1.5L25,29.9c-1.3-1.3-2.4-3.7-2.5-5.6
	c0,0-0.3-4.2-2.8-6.6C17.7,15.6,15,14.6,12.3,14.6 M19.7,42.2c-1,0-1.9-0.4-2.6-1.1l-1.5-1.6c-1-1-3-1.9-4.4-2
	c-0.2,0-4.7-0.4-7.6-3.3c-4.8-4.9-4.8-12.8,0-17.7c4.8-4.9,12.6-4.9,17.4,0c2.9,3,3.2,7.5,3.2,7.7c0.1,1.4,1,3.4,2,4.4l1.5,1.6
	c0.7,0.7,1.1,1.7,1.1,2.7c0,1-0.4,2-1.1,2.7l-5.4,5.5C21.6,41.8,20.7,42.2,19.7,42.2"/>
<path fill="#4AC8EF" d="M12.3,19.8c-1.5,0-2.9,0.6-3.9,1.6c-2.1,2.2-2.1,5.7,0,7.9c1,1.1,2.4,1.6,3.9,1.6c1.5,0,2.9-0.6,3.9-1.6
	c1-1.1,1.6-2.5,1.6-4c0-1.5-0.6-2.9-1.6-4C15.1,20.3,13.8,19.8,12.3,19.8 M12.3,32.7c-1.9,0-3.7-0.8-5.1-2.1
	c-2.8-2.9-2.8-7.5,0-10.4c1.4-1.4,3.2-2.1,5.1-2.1c1.9,0,3.7,0.8,5.1,2.1c1.4,1.4,2.1,3.2,2.1,5.2c0,2-0.7,3.8-2.1,5.2
	C16,31.9,14.2,32.7,12.3,32.7"/>
<path fill="#4AC8EF" d="M39.9,28.8c-0.2,0-0.4-0.1-0.6-0.3l-2.7-2.7c-0.3-0.3-0.3-0.9,0-1.2c0.3-0.3,0.9-0.3,1.2,0l2.7,2.7
	c0.3,0.3,0.3,0.9,0,1.2C40.3,28.7,40.1,28.8,39.9,28.8"/>
<path fill="#4AC8EF" d="M39.1,30.3l0,2.6c0,0.8,0.7,1.5,1.5,1.5h0.3c0.8,0,1.5-0.7,1.5-1.5v-2.6c0-0.4-0.2-0.8-0.4-1
	c-0.3-0.3-0.6-0.4-1-0.4h0h-0.3C39.8,28.8,39.1,29.5,39.1,30.3 M40.8,36.1h-0.3c-1.7,0-3.2-1.4-3.2-3.2v-2.6c0-1.8,1.4-3.2,3.2-3.2
	h0.3h0c0.8,0,1.6,0.3,2.2,0.9c0.6,0.6,0.9,1.4,0.9,2.3v2.6C44,34.7,42.6,36.1,40.8,36.1"/>
<path fill="#4AC8EF" d="M29.8,39.8c-0.8,0-1.5,0.7-1.5,1.5v0.3c0,0.4,0.2,0.8,0.4,1c0.3,0.3,0.6,0.4,1,0.4h2.5
	c0.8,0,1.5-0.7,1.5-1.5v-0.3c0-0.8-0.7-1.5-1.5-1.5H29.8z M32.3,44.8h-2.5c-0.8,0-1.6-0.3-2.2-0.9c-0.6-0.6-0.9-1.4-0.9-2.3v-0.3
	c0-1.8,1.4-3.2,3.2-3.2h2.5c1.7,0,3.2,1.4,3.2,3.2v0.3C35.4,43.4,34,44.8,32.3,44.8"/>
<path fill="#4AC8EF" d="M36.9,42.8c-0.8,0-1.6-0.3-2.2-0.9l-0.7-0.7l1.2-1.2l0.7,0.7c0.6,0.6,1.5,0.6,2.1,0l1.8-1.8
	c0.3-0.3,0.4-0.7,0.4-1c0-0.4-0.1-0.8-0.4-1l-0.2-0.2C39,36,38,36,37.5,36.5l-1.2,1.2l-1.2-1.2l1.2-1.2c0.6-0.6,1.4-0.9,2.2-0.9
	c0.8,0,1.6,0.3,2.2,0.9l0.2,0.2c1.2,1.3,1.2,3.3,0,4.5l-1.8,1.8C38.5,42.5,37.7,42.8,36.9,42.8"/>
<path fill="#4AC8EF" d="M35.8,19.4c0,0.3-0.2,0.5-0.5,0.5c-0.3,0-0.5-0.2-0.5-0.5c0-0.3,0.2-0.5,0.5-0.5
	C35.5,18.8,35.8,19.1,35.8,19.4"/>
<path fill="#4AC8EF" d="M35.2,19c-0.2,0-0.3,0.1-0.3,0.3c0,0.2,0.1,0.3,0.3,0.3c0.2,0,0.3-0.1,0.3-0.3C35.6,19.2,35.4,19,35.2,19
	 M35.2,20.8c-0.8,0-1.4-0.6-1.4-1.4c0-0.8,0.6-1.4,1.4-1.4c0.8,0,1.4,0.6,1.4,1.4C36.6,20.1,36,20.8,35.2,20.8"/>
<path fill="#4AC8EF" d="M23.1,32.2c0,0.3-0.2,0.5-0.5,0.5c-0.3,0-0.5-0.2-0.5-0.5c0-0.3,0.2-0.5,0.5-0.5
	C22.9,31.7,23.1,31.9,23.1,32.2"/>
<path fill="#4AC8EF" d="M22.6,31.9c-0.2,0-0.3,0.1-0.3,0.3c0,0.2,0.1,0.3,0.3,0.3c0.2,0,0.3-0.1,0.3-0.3
	C22.9,32,22.8,31.9,22.6,31.9 M22.6,33.6c-0.8,0-1.4-0.6-1.4-1.4c0-0.8,0.6-1.4,1.4-1.4c0.8,0,1.4,0.6,1.4,1.4
	C24,33,23.4,33.6,22.6,33.6"/>
<path fill="#4AC8EF" d="M27.4,41.6c-0.2,0-0.4-0.1-0.6-0.3L24,38.5c-0.3-0.3-0.3-0.9,0-1.2c0.3-0.3,0.9-0.3,1.2,0l2.7,2.8
	c0.3,0.3,0.3,0.9,0,1.2C27.8,41.5,27.6,41.6,27.4,41.6"/>
</svg>
