
<svg width="46px" viewBox="0 0 46 38.8" preserveAspectRatio="xMidYMid meet">
<g>
	<path fill="#4AC8EF" d="M3,1.8c-0.6,0-1.1,0.5-1.1,1.1v25.9C1.8,29.5,2.3,30,3,30H43c0.6,0,1.1-0.5,1.1-1.1V2.9
		c0-0.6-0.5-1.1-1.1-1.1H3z M43,31.8H3c-1.6,0-3-1.3-3-2.9V2.9C0,1.3,1.3,0,3,0H43c1.6,0,3,1.3,3,2.9v25.9
		C46,30.4,44.7,31.8,43,31.8"/>
	<path fill="#4AC8EF" d="M38.5,14.5H26c-0.5,0-0.9-0.4-0.9-0.9c0-0.5,0.4-0.9,0.9-0.9h12.5c0.5,0,0.9,0.4,0.9,0.9
		C39.4,14.1,39,14.5,38.5,14.5"/>
	<path fill="#4AC8EF" d="M38.5,9.9H26c-0.5,0-0.9-0.4-0.9-0.9c0-0.5,0.4-0.9,0.9-0.9h12.5c0.5,0,0.9,0.4,0.9,0.9
		C39.4,9.5,39,9.9,38.5,9.9"/>
	<path fill="#4AC8EF" d="M38.5,23.8H26c-0.5,0-0.9-0.4-0.9-0.9c0-0.5,0.4-0.9,0.9-0.9h12.5c0.5,0,0.9,0.4,0.9,0.9
		C39.4,23.4,39,23.8,38.5,23.8"/>
	<path fill="#4AC8EF" d="M38.5,19.2H26c-0.5,0-0.9-0.4-0.9-0.9c0-0.5,0.4-0.9,0.9-0.9h12.5c0.5,0,0.9,0.4,0.9,0.9
		C39.4,18.8,39,19.2,38.5,19.2"/>
	<path fill="#4AC8EF" d="M28.5,38.8H10.8c-0.5,0-0.9-0.4-0.9-0.9s0.4-0.9,0.9-0.9h17.7c0.5,0,0.9,0.4,0.9,0.9S29,38.8,28.5,38.8"/>
	<rect x="9" y="10.4" fill="#4AC8EF" width="9.2" height="1.8"/>
	<rect x="9" y="6.5" fill="#4AC8EF" width="9.2" height="1.8"/>
	<rect x="9" y="19.6" fill="#4AC8EF" width="9.2" height="1.8"/>
	<rect x="8.9" y="23.7" fill="#4AC8EF" width="9.3" height="1.8"/>
	<rect x="24.2" y="31.1" fill="#4AC8EF" width="1.8" height="6.4"/>
	<rect x="14.5" y="31.1" fill="#4AC8EF" width="1.8" height="6.4"/>
	<path fill="#4AC8EF" d="M13.7,17.1c-0.4,0-0.7-0.2-0.8-0.6c-0.2-0.5,0.1-1,0.5-1.2c6.1-2.3,4.3-8.9,4.2-9.2c-0.1-0.5,0.1-1,0.6-1.1
		c0.5-0.1,1,0.1,1.1,0.6c0.8,2.9,0.8,9.1-5.3,11.4C13.9,17,13.8,17.1,13.7,17.1"/>
	<path fill="#4AC8EF" d="M8.7,27.5c-0.4,0-0.8-0.3-0.9-0.7C7,23.9,7,17.7,13.1,15.4c0.5-0.2,1,0.1,1.2,0.5c0.2,0.5-0.1,1-0.5,1.2
		c-6.1,2.3-4.3,8.9-4.2,9.2c0.1,0.5-0.1,1-0.6,1.1C8.8,27.4,8.8,27.5,8.7,27.5"/>
	<path fill="#4AC8EF" d="M13.4,17.1c-0.1,0-0.2,0-0.3-0.1C7,14.7,7,8.6,7.8,5.6C7.9,5.2,8.4,4.9,8.9,5c0.5,0.1,0.8,0.6,0.6,1.1
		c-0.1,0.3-1.9,6.9,4.2,9.2c0.5,0.2,0.7,0.7,0.5,1.2C14.2,16.8,13.8,17.1,13.4,17.1"/>
	<path fill="#4AC8EF" d="M18.4,27.5c-0.1,0-0.2,0-0.2,0c-0.5-0.1-0.8-0.6-0.6-1.1c0.1-0.3,1.9-6.9-4.2-9.2c-0.5-0.2-0.7-0.7-0.5-1.2
		c0.2-0.5,0.7-0.7,1.2-0.5c6.1,2.3,6.2,8.4,5.3,11.4C19.2,27.2,18.8,27.5,18.4,27.5"/>
</g>
</svg>
