<svg width="43px" viewBox="0 0 43 52.4" preserveAspectRatio="xMidYMid meet">
<path fill="#4AC8EF" d="M20.9,39.8c-4.8,0-9.5-1-13.3-2.9c-0.5-0.2-0.6-0.8-0.4-1.2C7.4,35.2,8,35,8.4,35.2
	c3.5,1.7,7.9,2.7,12.4,2.7c5.2,0,10-1.2,13.7-3.4c0.4-0.3,1-0.1,1.3,0.3c0.3,0.4,0.1,1-0.3,1.3C31.6,38.5,26.4,39.8,20.9,39.8"/>
<path fill="#4AC8EF" d="M12,13.7c-0.3,0-0.5-0.1-0.7-0.4c-0.3-0.4-0.2-1,0.2-1.3c2.9-2.3,6.4-3.5,10.1-3.5s7.1,1.2,10.1,3.5
	c0.4,0.3,0.5,0.9,0.2,1.3c-0.3,0.4-0.9,0.5-1.3,0.2c-2.6-2-5.7-3.1-8.9-3.1c-3.3,0-6.3,1.1-8.9,3.1C12.4,13.6,12.2,13.7,12,13.7"/>
<path fill="#4AC8EF" d="M16,33.1c-0.2,0-0.4-0.1-0.5-0.2c-0.3-0.2-0.4-0.6-0.4-0.9l1.1-5.7l-4.2-4c-0.3-0.2-0.4-0.6-0.2-1
	c0.1-0.3,0.4-0.6,0.8-0.6l6.1-0.8c0.5-0.1,1,0.3,1,0.8c0.1,0.5-0.3,1-0.8,1l-4.2,0.6l3.2,3c0.2,0.2,0.3,0.5,0.3,0.9l-0.8,4.3
	l3.8-2.1c0.3-0.2,0.6-0.2,0.9,0l3.8,2.1l-0.8-4.3c-0.1-0.3,0-0.6,0.3-0.9l3.2-3l-4.3-0.5c-0.3,0-0.6-0.2-0.7-0.5l-2.7-5.8
	c-0.2-0.5,0-1,0.4-1.2c0.5-0.2,1,0,1.2,0.4l2.5,5.3l5.8,0.7c0.4,0,0.7,0.3,0.8,0.6c0.1,0.3,0,0.7-0.2,1l-4.2,4l1.1,5.7
	c0.1,0.4-0.1,0.7-0.4,0.9c-0.3,0.2-0.7,0.2-1,0.1l-5.1-2.8L16.4,33C16.3,33.1,16.1,33.1,16,33.1"/>
<path fill="#4AC8EF" d="M3.6,8.8c1.3,1.9,4.6,7.3,1.9,12.2c0,0.1-0.1,0.2-0.2,0.3c-4.4,7.8-3.9,13-2.7,15.9c1.5,3.7,5.2,6.4,10.9,8
	c3.7,1,6.1,1.8,7.9,4.4c1.8-2.6,4.2-3.4,7.9-4.4c5.7-1.6,9.4-4.3,10.9-8c1.2-2.9,1.7-8-2.7-15.9c-0.1-0.1-0.1-0.3-0.2-0.3
	c-2.6-5,0.6-10.4,1.9-12.2L33,2.3c-5,4.2-9.8,1.2-11.5-0.2C19.8,3.5,15,6.5,10,2.3L3.6,8.8z M21.5,52.4L21.5,52.4
	c-0.3,0-0.7-0.2-0.8-0.5c-1.5-2.9-3.2-3.6-7.6-4.8C6.8,45.3,2.7,42.2,1,38c-1.4-3.3-2-9,2.8-17.5c0.1-0.1,0.1-0.2,0.2-0.3
	C6.5,15.3,1.8,9.4,1.7,9.3C1.4,9,1.4,8.4,1.8,8.1l7.5-7.7c0.4-0.4,0.9-0.4,1.3,0c5.2,5,10.1,0.1,10.3-0.1C21,0.1,21.3,0,21.5,0h0
	c0.2,0,0.5,0.1,0.7,0.3c0.2,0.2,5.1,5.1,10.3,0.1c0.4-0.4,0.9-0.3,1.3,0l7.5,7.7c0.3,0.3,0.4,0.9,0.1,1.2c0,0.1-4.8,6-2.2,10.9
	c0,0.1,0.1,0.2,0.2,0.3C44,29,43.4,34.7,42,38c-1.8,4.3-5.9,7.3-12.2,9.1c-4.4,1.2-6.1,1.9-7.6,4.8C22.2,52.2,21.8,52.4,21.5,52.4"
	/>
</svg>
