<svg width="46px" viewBox="0 0 46 39" preserveAspectRatio="xMidYMid meet">
<g>
	<path fill="#4AC8EF" d="M14.1,31.2h17.8V20.4c0-3.4-2.6-6.2-5.9-6.2h-6c-3.2,0-5.9,2.8-5.9,6.2V31.2z M32.7,32.8H13.3
		c-0.4,0-0.8-0.4-0.8-0.8V20.4c0-4.3,3.3-7.8,7.4-7.8h6c4.1,0,7.4,3.5,7.4,7.8V32C33.4,32.4,33.1,32.8,32.7,32.8"/>
	<path fill="#4AC8EF" d="M29.4,22.5c-0.2,0-0.4-0.2-0.4-0.4c0-2.7-2.1-4.8-4.6-4.8c-0.2,0-0.4-0.2-0.4-0.4c0-0.2,0.2-0.4,0.4-0.4
		c3,0,5.4,2.5,5.4,5.6C29.8,22.3,29.6,22.5,29.4,22.5"/>
	<path fill="#4AC8EF" d="M11.1,37.4h23.9v-4.6H11.1V37.4z M35.7,39H10.3c-0.4,0-0.8-0.4-0.8-0.8V32c0-0.4,0.3-0.8,0.8-0.8h25.4
		c0.4,0,0.8,0.4,0.8,0.8v6.2C36.4,38.6,36.1,39,35.7,39"/>
	<path fill="#4AC8EF" d="M23,22.7c-1.3,0-2.4,1.1-2.4,2.5c0,1.4,1.1,2.5,2.4,2.5c1.3,0,2.4-1.1,2.4-2.5C25.4,23.8,24.3,22.7,23,22.7
		 M23,28.5c-1.7,0-3.1-1.5-3.1-3.3s1.4-3.3,3.1-3.3c1.7,0,3.1,1.5,3.1,3.3S24.7,28.5,23,28.5"/>
	<rect y="23.4" fill="#4AC8EF" width="8.8" height="1.6"/>
	<polygon fill="#4AC8EF" points="12.4,14.2 6.2,7.7 7.3,6.5 13.5,13.1 	"/>
	<rect x="22.3" fill="#4AC8EF" width="1.5" height="9.3"/>
	<polygon fill="#4AC8EF" points="33.6,14.3 32.5,13.1 38.7,6.6 39.8,7.7 	"/>
	<rect x="37.2" y="21.8" fill="#4AC8EF" width="8.8" height="1.6"/>
</g>
</svg>
