<svg width="58px" viewBox="0 0 58 52.1" preserveAspectRatio="xMidYMid meet">
<g>
	<path fill="#4AC8EF" d="M51.1,52.1h-7.8c-1,0-1.9-0.8-1.9-1.9v-1.9h2v1.8h7.6v-4.7h2v4.7C53,51.3,52.2,52.1,51.1,52.1"/>
	<path fill="#4AC8EF" d="M54.1,36.7H43.6c-0.3,0-0.5-0.1-0.7-0.3c-0.2-0.2-0.3-0.5-0.3-0.8c0.2-2,1.3-5.5,4.2-5.5H49
		c0.5,0,1,0.4,1,1c0,0.5-0.4,1-1,1h-2.1c-1.2,0-1.8,1.5-2.1,2.6h9.4c0.5,0,1,0.4,1,1C55.1,36.3,54.7,36.7,54.1,36.7"/>
	<path fill="#4AC8EF" d="M50,25.9c-0.5,0-0.9-0.4-1-0.9c0-0.5,0.4-1,0.9-1.1l5.9-0.5c-0.2-0.8-0.7-1.8-1.6-1.8h-2.5
		c-0.5,0-1-0.4-1-1c0-0.5,0.4-1,1-1h2.5c2.7,0,3.6,2.9,3.7,4.6c0,0.5-0.4,1-0.9,1.1L50,25.9C50.1,25.9,50.1,25.9,50,25.9"/>
	<path fill="#4AC8EF" d="M15.3,14.6c-1.9,0-2.7,1.5-2.8,1.6c-0.3,0.5-1.9,5.2-2.9,8c-0.2,0.8-3.3,5.7-4.6,7.8
		c-0.4,0.8-0.7,2.2-0.7,3.8v7.1c0,0.8,0.7,1.6,1.8,1.6h45.7c1.1,0,1.8-0.8,1.8-1.6v-7.1c0-1.6-0.3-3-0.7-3.8c-1.3-2-4.3-6.9-4.6-7.8
		c-1-2.7-2.6-7.4-2.9-7.9c0-0.1-0.9-1.6-2.8-1.6H15.3z M51.7,46.4H6.1c-2.1,0-3.7-1.6-3.7-3.6v-7.1c0-1.1,0.1-3.2,1-4.8
		c2-3.2,4.2-6.8,4.4-7.4c0.4-1.3,2.6-7.5,3-8.2c0.1-0.1,1.4-2.7,4.5-2.7h27.2c3.1,0,4.5,2.6,4.5,2.7c0.4,0.8,2.6,7,3,8.2
		c0.2,0.6,2.4,4.2,4.4,7.4c0.9,1.6,1,3.7,1,4.8v7.1C55.5,44.8,53.8,46.4,51.7,46.4"/>
	<path fill="#4AC8EF" d="M28.7,5.4c-0.5,0-1-0.4-1-1V1c0-0.5,0.4-1,1-1c0.5,0,1,0.4,1,1v3.4C29.7,5,29.3,5.4,28.7,5.4"/>
	<path fill="#4AC8EF" d="M42.7,6.5c-0.3,0-0.5-0.1-0.7-0.3c-0.4-0.4-0.4-1,0-1.4l2.4-2.4c0.4-0.4,1-0.4,1.4,0c0.4,0.4,0.4,1,0,1.4
		l-2.4,2.4C43.2,6.4,43,6.5,42.7,6.5"/>
	<path fill="#4AC8EF" d="M14.7,6.5c-0.3,0-0.5-0.1-0.7-0.3l-2.4-2.4c-0.4-0.4-0.4-1,0-1.4C12,2,12.6,2,13,2.4l2.4,2.4
		c0.4,0.4,0.4,1,0,1.4C15.2,6.4,14.9,6.5,14.7,6.5"/>
	<path fill="#4AC8EF" d="M39.4,45.5h-2v-4.1H20v4.1h-2v-5.1c0-0.5,0.4-1,1-1h19.4c0.5,0,1,0.4,1,1V45.5z"/>
	<path fill="#4AC8EF" d="M43.4,26.9L43.4,26.9l-29.3,0c-1,0.1-2.6-0.5-3-0.7l0.8-1.8C13,25,14,25,14,25c0,0,0,0,0,0h29.3
		c0.1,0,2.5,0,4.5-2.3l1.5,1.3C46.8,26.9,43.7,26.9,43.4,26.9"/>
	<path fill="#4AC8EF" d="M41.3,13.7l-0.7-3.3c0-0.1,0-0.1,0-0.2c0-0.3-0.3-0.6-0.6-0.6H17.4c-0.3,0-0.6,0.3-0.6,0.6
		c0,0.1,0,0.1,0,0.2l-0.7,3.3l-1.9-0.4l0.7-3.2c0.1-1.4,1.2-2.5,2.6-2.5H40c1.4,0,2.5,1.1,2.6,2.5l0.7,3.2L41.3,13.7z"/>
	<path fill="#4AC8EF" d="M14.7,51.8H6.9c-1,0-1.9-0.8-1.9-1.9v-4.7h2v4.7h7.6V48h2v1.9C16.5,50.9,15.7,51.8,14.7,51.8"/>
	<path fill="#4AC8EF" d="M14.4,36.4H3.9c-0.5,0-1-0.4-1-1c0-0.5,0.4-1,1-1h9.4c-0.3-1.1-0.9-2.6-2.1-2.6H9c-0.5,0-1-0.4-1-1
		c0-0.5,0.4-1,1-1h2.1c2.9,0,4.1,3.4,4.2,5.5c0,0.3-0.1,0.6-0.3,0.8C15,36.3,14.7,36.4,14.4,36.4"/>
	<path fill="#4AC8EF" d="M8,25.6C7.9,25.6,7.9,25.6,8,25.6L0.9,25c-0.5,0-0.9-0.5-0.9-1.1c0.1-1.7,1.1-4.6,3.7-4.6h2.5
		c0.5,0,1,0.4,1,1c0,0.5-0.4,1-1,1H3.7c-0.9,0-1.4,1-1.6,1.8l5.9,0.5c0.5,0,0.9,0.5,0.9,1.1C8.9,25.2,8.5,25.6,8,25.6"/>
</g>
</svg>
