<svg width="56px" viewBox="0 0 56 55.8" preserveAspectRatio="xMidYMid meet">
<path fill="#4AC8EF" d="M55,54.8H1v-2.1h2.4h49.1H55V54.8z M3.9,49.7h2.4h4.9h12.2h9.2h12.2h4.9H52v2.1H3.9V49.7z M6.8,14.8h3.9
	v33.9H6.8V14.8z M28.5,39.3h3.5v9.4h-3.5V39.3z M23.9,39.3h3.5v9.4h-3.5V39.3z M11.7,8.6h10c-0.4,1.7,0.1,2.7,0.2,2.7
	c0,0.1,0.8,1.9,3.2,3.1c2.2,1.2,2.6,1.3,2.7,1.4c0.1,0,0.1,0,0.2,0c0.1,0,0.1,0,0.2,0c0.1,0,0.5-0.2,2.7-1.4
	c2.4-1.3,3.1-3.1,3.2-3.1c0-0.1,0.5-1.1,0.2-2.7h10v40.1h-4.6v-5.8c0-0.3-0.2-0.5-0.5-0.5c-0.3,0-0.5,0.2-0.5,0.5v5.8h-5.5v-9.9
	c0-0.3-0.2-0.5-0.5-0.5h-9.2c-0.3,0-0.5,0.2-0.5,0.5v9.9h-5.5v-5.8c0-0.3-0.2-0.5-0.5-0.5c-0.3,0-0.5,0.2-0.5,0.5v5.8h-4.6V8.6z
	 M23.6,6.9c1.3-2.1,0.5-4.1-0.3-5.1l0.5-0.5c2,0.7,3.6,0.1,4.3-0.3c0.7,0.4,2.2,1,4.3,0.3l0.5,0.5c-0.8,1-1.6,3-0.3,5.1
	c1.4,2.4,0.7,3.9,0.7,4c0,0-0.7,1.5-2.7,2.6c-1.5,0.8-2.1,1.1-2.4,1.2c-0.3-0.1-0.9-0.5-2.4-1.2c-2-1.1-2.7-2.6-2.7-2.7
	C22.8,10.8,22.1,9.3,23.6,6.9 M49.2,48.7h-3.9V14.8h3.9V48.7z M55.5,51.8h-2.4v-2.6c0-0.3-0.2-0.5-0.5-0.5h-2.4V14.3
	c0-0.3-0.2-0.5-0.5-0.5h-4.4V8.1c0-0.3-0.2-0.5-0.5-0.5H33.9c-0.1-0.4-0.3-0.8-0.6-1.2c-1.4-2.3,0.4-4.2,0.5-4.2
	C34,2,34,1.6,33.8,1.5l-1-1.1c-0.2-0.2-0.4-0.2-0.6-0.1c-2.2,1-3.8-0.1-3.9-0.2c-0.2-0.1-0.4-0.1-0.6,0c0,0-1.6,1.2-3.9,0.2
	c-0.2-0.1-0.4,0-0.6,0.1l-1,1.1C22,1.6,22,2,22.2,2.1c0,0,1.9,1.9,0.5,4.2c-0.2,0.4-0.4,0.8-0.6,1.2H11.2c-0.3,0-0.5,0.2-0.5,0.5
	v5.7H6.3c-0.3,0-0.5,0.2-0.5,0.5v34.4H3.4c-0.3,0-0.5,0.2-0.5,0.5v2.6H0.5C0.2,51.8,0,52,0,52.3v3.1c0,0.3,0.2,0.5,0.5,0.5h55
	c0.3,0,0.5-0.2,0.5-0.5v-3.1C56,52,55.8,51.8,55.5,51.8"/>
<path fill="#4AC8EF" d="M22.2,34.8h-5.1v-5.5h5.1V34.8z M22.8,28.3h-6.2c-0.3,0-0.5,0.2-0.5,0.5v6.5c0,0.3,0.2,0.5,0.5,0.5h6.2
	c0.3,0,0.5-0.2,0.5-0.5v-6.5C23.3,28.6,23,28.3,22.8,28.3"/>
<path fill="#4AC8EF" d="M38.9,34.8h-5.1v-5.5h5.1V34.8z M39.4,28.3h-6.2c-0.3,0-0.5,0.2-0.5,0.5v6.5c0,0.3,0.2,0.5,0.5,0.5h6.2
	c0.3,0,0.5-0.2,0.5-0.5v-6.5C39.9,28.6,39.7,28.3,39.4,28.3"/>
<path fill="#4AC8EF" d="M17.1,18.9h5.1v5.5h-5.1V18.9z M16.5,25.3h6.2c0.3,0,0.5-0.2,0.5-0.5v-6.5c0-0.3-0.2-0.5-0.5-0.5h-6.2
	c-0.3,0-0.5,0.2-0.5,0.5v6.5C16,25.1,16.3,25.3,16.5,25.3"/>
<path fill="#4AC8EF" d="M33.7,18.9h5.1v5.5h-5.1V18.9z M33.2,25.3h6.2c0.3,0,0.5-0.2,0.5-0.5v-6.5c0-0.3-0.2-0.5-0.5-0.5h-6.2
	c-0.3,0-0.5,0.2-0.5,0.5v6.5C32.7,25.1,32.9,25.3,33.2,25.3"/>
<path fill="#4AC8EF" d="M28,10.1c0.1,0,0.3,0,0.4,0.1l1.2,0.6l-0.2-1.3c-0.1-0.3,0.1-0.6,0.3-0.8l1-0.9l-1.3-0.2
	c-0.3,0-0.6-0.2-0.7-0.5L28,6l-0.6,1.1c-0.1,0.3-0.4,0.5-0.7,0.5l-1.3,0.2l1,0.9c0.2,0.2,0.3,0.5,0.3,0.8l-0.2,1.3l1.2-0.6
	C27.7,10.2,27.8,10.1,28,10.1 M29.7,11.9c-0.2,0-0.3,0-0.4-0.1L28,11.1l-1.3,0.7c-0.3,0.2-0.7,0.1-1-0.1c-0.3-0.2-0.4-0.5-0.4-0.9
	l0.3-1.4l-1.1-1c-0.3-0.2-0.3-0.6-0.2-0.9C24.4,7.2,24.7,7,25,6.9l1.5-0.2l0.6-1.3c0.3-0.6,1.4-0.6,1.7,0l0.7,1.3L31,6.9
	c0.4,0.1,0.6,0.3,0.8,0.6c0.1,0.3,0,0.7-0.2,0.9l-1.1,1l0.3,1.4c0.1,0.3-0.1,0.7-0.4,0.9C30.1,11.8,29.9,11.9,29.7,11.9"/>
</svg>
