<svg width="53px" viewBox="0 0 53 44.5" preserveAspectRatio="xMidYMid meet">
<g>
	<path fill="#4AC8EF" d="M3.4,2C2.7,2,2.1,2.6,2.1,3.3V33c0,0.7,0.6,1.3,1.3,1.3h46.2c0.7,0,1.3-0.6,1.3-1.3V3.3
		c0-0.7-0.6-1.3-1.3-1.3H3.4z M49.6,36.3H3.4C1.5,36.3,0,34.8,0,33V3.3C0,1.5,1.5,0,3.4,0h46.2C51.5,0,53,1.5,53,3.3V33
		C53,34.8,51.5,36.3,49.6,36.3"/>
	<path fill="#4AC8EF" d="M26.3,29.6h-2.1v-4.2c0-2.4-2-3.5-4-3.7l-3.1,3.4c-0.2,0.2-0.5,0.3-0.8,0.3c-0.3,0-0.6-0.1-0.8-0.3
		l-3.4-3.4c-1.9,0.1-3.8,1.1-3.8,3.7v4.2H6.3v-4.2c0-3.4,2.5-5.7,6.3-5.7c0.3,0,0.5,0.1,0.7,0.3l2.9,3L19,20
		c0.2-0.2,0.5-0.3,0.8-0.3c3.9,0,6.6,2.4,6.6,5.7V29.6z"/>
	<path fill="#4AC8EF" d="M16.3,8.3c-1.7,0-3.1,1.4-3.1,3.1V13c0,1.7,1.4,3.1,3.1,3.1c1.7,0,3.1-1.4,3.1-3.1v-1.5
		C19.4,9.7,18,8.3,16.3,8.3 M16.3,18.1c-2.8,0-5.2-2.3-5.2-5.1v-1.5c0-2.8,2.3-5.1,5.2-5.1c2.8,0,5.2,2.3,5.2,5.1V13
		C21.5,15.8,19.2,18.1,16.3,18.1"/>
	<path fill="#4AC8EF" d="M46.5,16.8H32.2c-0.6,0-1-0.5-1-1c0-0.6,0.5-1,1-1h14.3c0.6,0,1,0.5,1,1C47.5,16.3,47,16.8,46.5,16.8"/>
	<path fill="#4AC8EF" d="M46.5,11.5H32.2c-0.6,0-1-0.5-1-1c0-0.6,0.5-1,1-1h14.3c0.6,0,1,0.5,1,1C47.5,11,47,11.5,46.5,11.5"/>
	<path fill="#4AC8EF" d="M46.5,27.4H32.2c-0.6,0-1-0.5-1-1c0-0.6,0.5-1,1-1h14.3c0.6,0,1,0.5,1,1C47.5,26.9,47,27.4,46.5,27.4"/>
	<path fill="#4AC8EF" d="M46.5,22.1H32.2c-0.6,0-1-0.5-1-1c0-0.6,0.5-1,1-1h14.3c0.6,0,1,0.5,1,1C47.5,21.6,47,22.1,46.5,22.1"/>
	<path fill="#4AC8EF" d="M36.7,44.5H16.3c-0.6,0-1-0.5-1-1c0-0.6,0.5-1,1-1h20.4c0.6,0,1,0.5,1,1C37.7,44.1,37.3,44.5,36.7,44.5"/>
	<rect x="30.9" y="36.2" fill="#4AC8EF" width="2.1" height="7.3"/>
	<rect x="19.7" y="36.2" fill="#4AC8EF" width="2.1" height="7.3"/>
</g>
</svg>
