<svg width="40px" viewBox="0 0 40 40.3" preserveAspectRatio="xMidYMid meet">
<path fill="#4AC8EF" d="M11.9,18.7c-3.4,0-6.2-2.8-6.2-6.2c0-3.4,2.8-6.2,6.2-6.2c3.4,0,6.2,2.8,6.2,6.2
	C18.1,15.9,15.4,18.7,11.9,18.7 M11.9,4.5c-4.3,0-7.9,3.6-7.9,7.9s3.5,7.9,7.9,7.9c4.3,0,7.9-3.6,7.9-7.9S16.3,4.5,11.9,4.5"/>
<path fill="#4AC8EF" d="M11.9,14.6c-1.1,0-2.1-0.9-2.1-2.1c0-1.2,0.9-2.1,2.1-2.1c1.1,0,2.1,0.9,2.1,2.1
	C14,13.6,13.1,14.6,11.9,14.6 M11.9,8.7c-2.1,0-3.7,1.7-3.7,3.8s1.7,3.8,3.7,3.8c2.1,0,3.7-1.7,3.7-3.8S14,8.7,11.9,8.7"/>
<path fill="#4AC8EF" d="M38.3,29.6H27.2V10.8h11.1V29.6z M25.5,23.8h-1.7v-7.2h1.7V23.8z M22.2,37c0,0.9-0.7,1.7-1.7,1.7H3.3
	c-0.9,0-1.7-0.8-1.7-1.7V3.4c0-0.9,0.7-1.7,1.7-1.7h17.2c0.9,0,1.7,0.8,1.7,1.7V37z M39.2,9.1H26.4c-0.5,0-0.8,0.4-0.8,0.8v4.9h-1.7
	V3.4c0-1.9-1.5-3.4-3.3-3.4H3.3C1.5,0,0,1.5,0,3.4V37c0,1.9,1.5,3.4,3.3,3.4h17.2c1.8,0,3.3-1.5,3.3-3.4V25.5h1.7v4.9
	c0,0.5,0.4,0.8,0.8,0.8h12.8c0.5,0,0.8-0.4,0.8-0.8V10C40,9.5,39.6,9.1,39.2,9.1"/>
<path fill="#4AC8EF" d="M11.2,34.5H4.8c-0.5,0-0.8,0.4-0.8,0.8c0,0.5,0.4,0.8,0.8,0.8h6.4c0.5,0,0.8-0.4,0.8-0.8
	C12.1,34.8,11.7,34.5,11.2,34.5"/>
<path fill="#4AC8EF" d="M5.9,25h1.5c0.5,0,0.8-0.4,0.8-0.8c0-0.5-0.4-0.8-0.8-0.8H5.9c-0.5,0-0.8,0.4-0.8,0.8
	C5.1,24.6,5.5,25,5.9,25"/>
<path fill="#4AC8EF" d="M12.7,23.3h-1.5c-0.5,0-0.8,0.4-0.8,0.8c0,0.5,0.4,0.8,0.8,0.8h1.5c0.5,0,0.8-0.4,0.8-0.8
	C13.5,23.7,13.1,23.3,12.7,23.3"/>
<path fill="#4AC8EF" d="M18,23.3h-1.5c-0.5,0-0.8,0.4-0.8,0.8c0,0.5,0.4,0.8,0.8,0.8H18c0.5,0,0.8-0.4,0.8-0.8
	C18.8,23.7,18.4,23.3,18,23.3"/>
<path fill="#4AC8EF" d="M5.9,28.6h1.5c0.5,0,0.8-0.4,0.8-0.8c0-0.5-0.4-0.8-0.8-0.8H5.9c-0.5,0-0.8,0.4-0.8,0.8
	C5.1,28.2,5.5,28.6,5.9,28.6"/>
<path fill="#4AC8EF" d="M12.7,26.9h-1.5c-0.5,0-0.8,0.4-0.8,0.8c0,0.5,0.4,0.8,0.8,0.8h1.5c0.5,0,0.8-0.4,0.8-0.8
	C13.5,27.3,13.1,26.9,12.7,26.9"/>
<path fill="#4AC8EF" d="M18,26.9h-1.5c-0.5,0-0.8,0.4-0.8,0.8c0,0.5,0.4,0.8,0.8,0.8H18c0.5,0,0.8-0.4,0.8-0.8
	C18.8,27.3,18.4,26.9,18,26.9"/>
<path fill="#4AC8EF" d="M5.9,32.2h1.5c0.5,0,0.8-0.4,0.8-0.8c0-0.5-0.4-0.8-0.8-0.8H5.9c-0.5,0-0.8,0.4-0.8,0.8
	C5.1,31.8,5.5,32.2,5.9,32.2"/>
<path fill="#4AC8EF" d="M12.7,30.5h-1.5c-0.5,0-0.8,0.4-0.8,0.8c0,0.5,0.4,0.8,0.8,0.8h1.5c0.5,0,0.8-0.4,0.8-0.8
	C13.5,30.9,13.1,30.5,12.7,30.5"/>
<path fill="#4AC8EF" d="M18,30.5h-1.5c-0.5,0-0.8,0.4-0.8,0.8c0,0.5,0.4,0.8,0.8,0.8H18c0.5,0,0.8-0.4,0.8-0.8
	C18.8,30.9,18.4,30.5,18,30.5"/>
</svg>
