<svg width="18" height="18" viewBox="0 0 18 18" preserveAspectRatio="xMidYMid meet">
<path fill="#47C7EF" d="M10.3,8l0-0.7c0.6,0,1.1-0.3,1.5-0.7c0.9-0.9,0.9-2.3,0-3.2c-0.9-0.9-2.3-0.9-3.2,0C8.2,3.8,8,4.3,7.9,4.8
	L7.3,4.7c0.1-0.7,0.4-1.3,0.8-1.8c1.1-1.1,3-1.1,4.2,0c1.1,1.1,1.1,3,0,4.2C11.8,7.6,11.1,7.9,10.3,8"/>
<path fill="#47C7EF" d="M13.2,11.8c-0.4,0-0.8-0.2-1.1-0.4l-0.6-0.6c-0.2-0.2-0.4-0.3-0.7-0.5l0.3-0.6c0.3,0.2,0.6,0.4,0.8,0.6
	l0.6,0.6c0.3,0.3,0.9,0.3,1.2,0L16,8.7c0.3-0.3,0.3-0.9,0-1.2l-0.6-0.6c-0.5-0.5-1-1.5-1-2.2c0,0-0.1-1.7-1.1-2.7
	c-0.8-0.8-1.9-1.3-3.1-1.3C9,0.7,7.9,1.1,7.1,2C6.5,2.6,6.1,3.4,5.9,4.3L5.2,4.2c0.2-1,0.7-2,1.4-2.7C7.6,0.5,8.8,0,10.2,0
	c1.3,0,2.6,0.5,3.6,1.5c1.2,1.2,1.3,3,1.3,3.1c0,0.6,0.4,1.4,0.8,1.8L16.5,7c0.6,0.6,0.6,1.6,0,2.2l-2.2,2.2
	C14,11.6,13.6,11.8,13.2,11.8"/>
<path fill="#47C7EF" d="M5,5.9C3.9,5.9,2.8,6.3,2,7.1c-1.7,1.7-1.7,4.4,0,6.1c1,1,2.7,1.1,2.7,1.1c0.7,0,1.7,0.5,2.2,1L7.5,16
	c0.3,0.3,0.9,0.3,1.2,0l2.2-2.2c0.2-0.2,0.2-0.4,0.2-0.6c0-0.2-0.1-0.4-0.2-0.6L10.2,12c-0.5-0.5-1-1.5-1-2.2c0,0-0.1-1.7-1.1-2.7
	C7.2,6.3,6.1,5.9,5,5.9 M8.1,17c-0.4,0-0.8-0.1-1.1-0.4l-0.6-0.6c-0.4-0.4-1.2-0.8-1.8-0.8c-0.1,0-1.9-0.1-3.1-1.3c-2-2-2-5.1,0-7.1
	c2-2,5.1-2,7.1,0c1.2,1.2,1.3,3,1.3,3.1c0,0.6,0.4,1.4,0.8,1.8l0.6,0.6c0.3,0.3,0.4,0.7,0.4,1.1c0,0.4-0.2,0.8-0.4,1.1l-2.2,2.2
	C8.9,16.8,8.5,17,8.1,17"/>
<path fill="#47C7EF" d="M5,7.9c-0.6,0-1.2,0.2-1.6,0.7c-0.9,0.9-0.9,2.3,0,3.2c0.4,0.4,1,0.7,1.6,0.7c0.6,0,1.2-0.2,1.6-0.7
	c0.4-0.4,0.7-1,0.7-1.6C7.3,9.6,7,9,6.6,8.6C6.2,8.2,5.6,7.9,5,7.9 M5,13.1c-0.8,0-1.5-0.3-2.1-0.9c-1.1-1.1-1.1-3,0-4.2
	C3.5,7.5,4.2,7.2,5,7.2c0.8,0,1.5,0.3,2.1,0.9C7.7,8.7,8,9.4,8,10.2c0,0.8-0.3,1.5-0.9,2.1S5.8,13.1,5,13.1"/>
<path fill="#47C7EF" d="M16.3,11.6c-0.1,0-0.2,0-0.2-0.1L15,10.4c-0.1-0.1-0.1-0.4,0-0.5c0.1-0.1,0.4-0.1,0.5,0l1.1,1.1
	c0.1,0.1,0.1,0.4,0,0.5C16.5,11.5,16.4,11.6,16.3,11.6"/>
<path fill="#47C7EF" d="M16,12.2l0,1c0,0.3,0.3,0.6,0.6,0.6h0.1c0.3,0,0.6-0.3,0.6-0.6v-1c0-0.2-0.1-0.3-0.2-0.4
	c-0.1-0.1-0.3-0.2-0.4-0.2h0h-0.1C16.3,11.6,16,11.9,16,12.2 M16.7,14.5h-0.1c-0.7,0-1.3-0.6-1.3-1.3v-1c0-0.7,0.6-1.3,1.3-1.3h0.1
	h0c0.3,0,0.7,0.1,0.9,0.4c0.2,0.2,0.4,0.6,0.4,0.9v1C18,13.9,17.4,14.5,16.7,14.5"/>
<path fill="#47C7EF" d="M12.2,16c-0.3,0-0.6,0.3-0.6,0.6v0.1c0,0.2,0.1,0.3,0.2,0.4c0.1,0.1,0.3,0.2,0.4,0.2h1
	c0.3,0,0.6-0.3,0.6-0.6v-0.1c0-0.3-0.3-0.6-0.6-0.6H12.2z M13.2,18h-1c-0.3,0-0.7-0.1-0.9-0.4c-0.2-0.2-0.4-0.6-0.4-0.9v-0.1
	c0-0.7,0.6-1.3,1.3-1.3h1c0.7,0,1.3,0.6,1.3,1.3v0.1C14.5,17.4,13.9,18,13.2,18"/>
<path fill="#47C7EF" d="M15.1,17.2c-0.3,0-0.7-0.1-0.9-0.4l-0.3-0.3l0.5-0.5l0.3,0.3c0.2,0.2,0.6,0.2,0.8,0l0.7-0.7
	c0.1-0.1,0.2-0.3,0.2-0.4c0-0.2-0.1-0.3-0.2-0.4l-0.1-0.1c-0.2-0.2-0.6-0.2-0.8,0l-0.5,0.5l-0.5-0.5l0.5-0.5
	c0.2-0.2,0.6-0.4,0.9-0.4c0.3,0,0.7,0.1,0.9,0.4l0.1,0.1c0.5,0.5,0.5,1.3,0,1.8L16,16.8C15.8,17.1,15.4,17.2,15.1,17.2"/>
<path fill="#47C7EF" d="M14.6,7.8c0,0.1-0.1,0.2-0.2,0.2c-0.1,0-0.2-0.1-0.2-0.2c0-0.1,0.1-0.2,0.2-0.2C14.5,7.6,14.6,7.7,14.6,7.8"
	/>
<path fill="#47C7EF" d="M14.4,7.6c-0.1,0-0.1,0.1-0.1,0.1c0,0.1,0.1,0.1,0.1,0.1c0.1,0,0.1-0.1,0.1-0.1C14.5,7.7,14.5,7.6,14.4,7.6
	 M14.4,8.3c-0.3,0-0.6-0.3-0.6-0.6c0-0.3,0.3-0.6,0.6-0.6c0.3,0,0.6,0.3,0.6,0.6C15,8.1,14.7,8.3,14.4,8.3"/>
<path fill="#47C7EF" d="M9.5,12.9c0,0.1-0.1,0.2-0.2,0.2c-0.1,0-0.2-0.1-0.2-0.2c0-0.1,0.1-0.2,0.2-0.2C9.4,12.7,9.5,12.8,9.5,12.9"
	/>
<path fill="#47C7EF" d="M9.3,12.8c-0.1,0-0.1,0.1-0.1,0.1c0,0.1,0.1,0.1,0.1,0.1c0.1,0,0.1-0.1,0.1-0.1C9.4,12.9,9.3,12.8,9.3,12.8
	 M9.3,13.5c-0.3,0-0.6-0.3-0.6-0.6c0-0.3,0.3-0.6,0.6-0.6c0.3,0,0.6,0.3,0.6,0.6C9.8,13.2,9.6,13.5,9.3,13.5"/>
<path fill="#47C7EF" d="M11.2,16.7c-0.1,0-0.2,0-0.2-0.1l-1.1-1.1c-0.1-0.1-0.1-0.4,0-0.5c0.1-0.1,0.4-0.1,0.5,0l1.1,1.1
	c0.1,0.1,0.1,0.4,0,0.5C11.4,16.7,11.3,16.7,11.2,16.7"/>
</svg>
