<svg width="50px" viewBox="0 0 50 38.2" preserveAspectRatio="xMidYMid meet">
<g>
	<path fill="#4AC8EF" d="M9.4,17.6h29.2v-6.8l9.4-6.2V2.1H9.4V17.6z M40.6,19.6H7.3V0H50v5.7l-9.4,6.2V19.6z"/>
	<path fill="#4AC8EF" d="M2.1,36.2h2.1V25.8H2.1V36.2z M6.3,38.2H0V23.8h6.3V38.2z"/>
	<path fill="#4AC8EF" d="M11.5,32H5.2c-0.6,0-1-0.5-1-1c0-0.6,0.5-1,1-1h6.3c0.6,0,1,0.5,1,1C12.5,31.5,12,32,11.5,32"/>
	<path fill="#4AC8EF" d="M14.6,28.9c-1.1,0-2.1,0.9-2.1,2.1c0,1.1,0.9,2.1,2.1,2.1c1.1,0,2.1-0.9,2.1-2.1
		C16.7,29.8,15.7,28.9,14.6,28.9 M14.6,35.1c-2.3,0-4.2-1.9-4.2-4.1s1.9-4.1,4.2-4.1c2.3,0,4.2,1.9,4.2,4.1S16.9,35.1,14.6,35.1"/>
	<path fill="#4AC8EF" d="M16.1,29.2c-0.2,0-0.4-0.1-0.6-0.2c-0.5-0.3-0.6-1-0.3-1.4l6.3-9.6c0.3-0.5,1-0.6,1.4-0.3
		c0.5,0.3,0.6,1,0.3,1.4L17,28.7C16.8,29,16.5,29.2,16.1,29.2"/>
	<path fill="#4AC8EF" d="M47.9,16.5h-8.3c-0.6,0-1-0.5-1-1c0-0.6,0.5-1,1-1h6.3V6.7c0-0.6,0.5-1,1-1c0.6,0,1,0.5,1,1V16.5z"/>
	<path fill="#4AC8EF" d="M14.6,10.3c0,0.6-0.5,1-1,1c-0.6,0-1-0.5-1-1c0-0.6,0.5-1,1-1C14.1,9.3,14.6,9.7,14.6,10.3"/>
	<path fill="#4AC8EF" d="M18.8,10.3c0,0.6-0.5,1-1,1c-0.6,0-1-0.5-1-1c0-0.6,0.5-1,1-1C18.3,9.3,18.8,9.7,18.8,10.3"/>
	<path fill="#4AC8EF" d="M22.9,10.3c0,0.6-0.5,1-1,1s-1-0.5-1-1c0-0.6,0.5-1,1-1S22.9,9.7,22.9,10.3"/>
</g>
</svg>
