<svg width="42px" viewBox="0 0 42 43.3" preserveAspectRatio="xMidYMid meet">
<g>
	<path fill="#4AC8EF" d="M5.6,18.6c-0.3,0-0.6-0.1-0.8-0.4c-0.2-0.4-0.1-0.9,0.3-1.1c3.9-2,9.8-3.2,15.8-3.2s11.9,1.2,15.8,3.2
		c0.4,0.2,0.6,0.7,0.3,1.1c-0.2,0.4-0.8,0.5-1.2,0.3c-3.7-1.9-9.3-3-14.9-3c-5.7,0-11.3,1.1-14.9,3C5.9,18.6,5.8,18.6,5.6,18.6"/>
	<path fill="#4AC8EF" d="M21,43.3C10.3,43.3,7.4,32.6,7,30.7c-2.8-1.9-2.9-4.1-2.5-5.7c0.1-0.4,0.6-0.7,1-0.6c0.5,0.1,0.7,0.5,0.6,1
		c-0.4,1.7,0.2,3.1,2,4.2c0.2,0.1,0.3,0.3,0.4,0.5c0,0.1,0.6,3.1,2.4,6c2.4,3.8,5.8,5.7,10,5.7c4.3,0,7.6-1.9,10-5.7
		c1.7-2.8,2.3-5.6,2.4-5.9c0-0.2,0.2-0.5,0.4-0.6c1.3-0.8,2-1.7,2.1-2.8c0.3-2-1.5-4-1.5-4c-0.3-0.3-0.3-0.8,0.1-1.1
		c0.4-0.3,0.9-0.2,1.2,0.1c0.1,0.1,2.3,2.5,1.9,5.2c-0.2,1.4-1.1,2.7-2.6,3.7C34.6,32.6,31.8,43.3,21,43.3"/>
	<path fill="#4AC8EF" d="M25.9,36.6c-0.3,0-0.6-0.2-0.8-0.5c-0.5-1-1.6-1.6-2.8-1.6h-2.7c-1.2,0-2.3,0.6-2.8,1.6
		c-0.2,0.4-0.7,0.6-1.1,0.4c-0.4-0.2-0.6-0.7-0.4-1.1c0.8-1.5,2.5-2.5,4.3-2.5h2.7c1.8,0,3.5,1,4.3,2.5c0.2,0.4,0,0.9-0.4,1.1
		C26.1,36.6,26,36.6,25.9,36.6"/>
	<path fill="#4AC8EF" d="M22.6,38.1h-3.2c-0.5,0-0.9-0.4-0.9-0.8c0-0.4,0.4-0.8,0.9-0.8h3.2c0.5,0,0.9,0.4,0.9,0.8
		C23.4,37.8,23.1,38.1,22.6,38.1"/>
	<path fill="#4AC8EF" d="M7.8,22c1,2,6.2,3.3,13.2,3.3c6.9,0,12.2-1.3,13.2-3.3l1.7-4.8c0-0.1,0.1-0.2,0.2-0.3l3.9-3.5l-3.9-6.3
		L21,1.6L5.8,7.1l-3.9,6.3l3.9,3.5C6,16.9,6.1,17,6.1,17.2L7.8,22z M21,26.8c-3,0-12.9-0.3-14.8-4.3c0,0,0,0,0-0.1l-1.7-4.6
		l-4.3-3.8c-0.3-0.2-0.3-0.6-0.2-1L4.4,6c0.1-0.2,0.3-0.3,0.4-0.3l15.8-5.6c0.2-0.1,0.4-0.1,0.6,0l15.8,5.6c0.2,0.1,0.3,0.2,0.4,0.3
		l4.3,7.1c0.2,0.3,0.1,0.7-0.2,1l-4.3,3.8l-1.7,4.6c0,0,0,0,0,0.1C33.9,26.5,24,26.8,21,26.8"/>
	<path fill="#4AC8EF" d="M15.7,27.4c0,0.3-0.2,0.5-0.5,0.5c-0.3,0-0.5-0.2-0.5-0.5c0-0.3,0.2-0.5,0.5-0.5
		C15.5,26.9,15.7,27.1,15.7,27.4"/>
	<path fill="#4AC8EF" d="M15.2,27.1c-0.2,0-0.3,0.1-0.3,0.3c0,0.2,0.1,0.3,0.3,0.3c0.2,0,0.3-0.1,0.3-0.3
		C15.5,27.2,15.4,27.1,15.2,27.1 M15.2,28.7c-0.8,0-1.4-0.6-1.4-1.3c0-0.7,0.6-1.3,1.4-1.3c0.8,0,1.4,0.6,1.4,1.3
		C16.6,28.1,16,28.7,15.2,28.7"/>
	<path fill="#4AC8EF" d="M27.3,27.4c0,0.3-0.2,0.5-0.5,0.5c-0.3,0-0.5-0.2-0.5-0.5c0-0.3,0.2-0.5,0.5-0.5
		C27.1,26.9,27.3,27.1,27.3,27.4"/>
	<path fill="#4AC8EF" d="M26.8,27.1c-0.2,0-0.3,0.1-0.3,0.3c0,0.2,0.1,0.3,0.3,0.3c0.2,0,0.3-0.1,0.3-0.3
		C27.1,27.2,27,27.1,26.8,27.1 M26.8,28.7c-0.8,0-1.4-0.6-1.4-1.3c0-0.7,0.6-1.3,1.4-1.3c0.8,0,1.4,0.6,1.4,1.3
		C28.2,28.1,27.6,28.7,26.8,28.7"/>
	<path fill="#4AC8EF" d="M6.8,21.9c-0.4,0-0.7-0.2-0.8-0.6c-0.1-0.4,0.1-0.9,0.6-1c3.5-1,8.6-1.6,14.4-1.6c5.8,0,10.9,0.6,14.4,1.6
		c0.5,0.1,0.7,0.6,0.6,1c-0.1,0.4-0.6,0.6-1.1,0.5c-3.3-1-8.2-1.5-13.9-1.5c-5.7,0-10.6,0.5-13.9,1.5C7,21.8,6.9,21.9,6.8,21.9"/>
	<path fill="#4AC8EF" d="M21,9.1c0.1,0,0.1,0,0.2,0.1l1.2,0.7L22,8.6c0-0.1,0-0.3,0.1-0.3l1.1-0.8l-1.4,0c-0.1,0-0.3-0.1-0.3-0.2
		L21,6l-0.5,1.2c0,0.1-0.2,0.2-0.3,0.2l-1.4,0l1.1,0.8C20,8.4,20.1,8.5,20,8.6l-0.4,1.3l1.2-0.7C20.9,9.1,20.9,9.1,21,9.1 M23,10.9
		c-0.1,0-0.1,0-0.2-0.1L21,9.8l-1.8,1.1c-0.1,0.1-0.3,0.1-0.4,0c-0.1-0.1-0.2-0.2-0.1-0.3l0.6-1.9l-1.7-1.2
		c-0.1-0.1-0.2-0.2-0.1-0.3c0-0.1,0.2-0.2,0.3-0.2l2.1-0.1l0.7-1.9c0.1-0.3,0.6-0.3,0.6,0l0.7,1.9l2.1,0.1c0.1,0,0.3,0.1,0.3,0.2
		c0,0.1,0,0.3-0.1,0.3l-1.7,1.2l0.6,1.9c0,0.1,0,0.3-0.1,0.3C23.1,10.9,23,10.9,23,10.9"/>
</g>
</svg>
