<svg width="49px" viewBox="0 0 49 45.8" preserveAspectRatio="xMidYMid meet">
<path fill="#4AC8EF" d="M24.5,6.1c-0.2,0-0.4,0.2-0.4,0.4c0,0.2,0.2,0.4,0.4,0.4c0.2,0,0.4-0.2,0.4-0.4C24.9,6.2,24.7,6.1,24.5,6.1
	 M24.5,7.1c-0.4,0-0.7-0.3-0.7-0.6c0-0.3,0.3-0.6,0.7-0.6c0.4,0,0.7,0.3,0.7,0.6C25.2,6.8,24.9,7.1,24.5,7.1"/>
<path fill="#4AC8EF" d="M26.1,12.7c-0.2,0-0.5-0.2-0.5-0.4c-0.1-0.3,0.1-0.6,0.4-0.6c2.5-0.6,4.3-2.8,4.3-5.2c0-3-2.6-5.4-5.8-5.4
	c-3.2,0-5.8,2.4-5.8,5.4c0,2.5,1.8,4.6,4.3,5.2c0.3,0.1,0.5,0.4,0.4,0.6c-0.1,0.3-0.4,0.4-0.7,0.4c-3-0.8-5.1-3.3-5.1-6.2
	c0-3.6,3.1-6.5,6.9-6.5c3.8,0,6.9,2.9,6.9,6.5c0,2.9-2.1,5.5-5.1,6.2C26.2,12.7,26.2,12.7,26.1,12.7"/>
<path fill="#4AC8EF" d="M6.9,29.4c-3.8,0-6.9-2.9-6.9-6.5s3.1-6.5,6.9-6.5c3.1,0,5.9,2,6.7,4.8c0.1,0.3-0.1,0.6-0.4,0.6
	c-0.3,0.1-0.6-0.1-0.7-0.4c-0.7-2.4-3-4-5.6-4c-3.2,0-5.8,2.4-5.8,5.4c0,3,2.6,5.4,5.8,5.4c2.6,0,4.9-1.7,5.6-4
	c0.1-0.3,0.4-0.4,0.7-0.4c0.3,0.1,0.5,0.4,0.4,0.6C12.8,27.4,10,29.4,6.9,29.4"/>
<path fill="#4AC8EF" d="M24.5,45.8c-3.8,0-6.9-2.9-6.9-6.5c0-2.9,2.1-5.5,5.1-6.2c0.3-0.1,0.6,0.1,0.7,0.4c0.1,0.3-0.1,0.6-0.4,0.6
	c-2.5,0.6-4.3,2.8-4.3,5.2c0,3,2.6,5.4,5.8,5.4c3.2,0,5.8-2.4,5.8-5.4c0-2.5-1.8-4.6-4.3-5.2c-0.3-0.1-0.5-0.4-0.4-0.6
	c0.1-0.3,0.4-0.4,0.7-0.4c3,0.8,5.1,3.3,5.1,6.2C31.4,42.9,28.3,45.8,24.5,45.8"/>
<path fill="#4AC8EF" d="M42.1,29.4c-3.1,0-5.9-2-6.7-4.8c-0.1-0.3,0.1-0.6,0.4-0.6c0.3-0.1,0.6,0.1,0.7,0.4c0.7,2.4,3,4,5.6,4
	c3.2,0,5.8-2.4,5.8-5.4c0-3-2.6-5.4-5.8-5.4c-2.6,0-4.9,1.7-5.6,4c-0.1,0.3-0.4,0.4-0.7,0.4c-0.3-0.1-0.5-0.4-0.4-0.6
	c0.8-2.8,3.6-4.8,6.7-4.8c3.8,0,6.9,2.9,6.9,6.5S45.9,29.4,42.1,29.4"/>
<path fill="#4AC8EF" d="M6.9,21.9c-0.6,0-1.1,0.5-1.1,1s0.5,1,1.1,1h8.4c4.5,0,8.1,3.4,8.1,7.6v7.8c0,0.6,0.5,1,1.1,1
	c0.6,0,1.1-0.5,1.1-1v-7.8c0-4.2,3.7-7.6,8.1-7.6h8.4c0.6,0,1.1-0.5,1.1-1s-0.5-1-1.1-1h-8.4c-4.5,0-8.1-3.4-8.1-7.6V6.5
	c0-0.6-0.5-1-1.1-1c-0.6,0-1.1,0.5-1.1,1v7.8c0,4.2-3.7,7.6-8.1,7.6H6.9z M24.5,41.4c-1.2,0-2.2-0.9-2.2-2.1v-7.8
	c0-3.6-3.2-6.6-7-6.6H6.9c-1.2,0-2.2-0.9-2.2-2.1s1-2.1,2.2-2.1h8.4c3.9,0,7-3,7-6.6V6.5c0-1.1,1-2.1,2.2-2.1s2.2,0.9,2.2,2.1v7.8
	c0,3.6,3.2,6.6,7,6.6h8.4c1.2,0,2.2,0.9,2.2,2.1s-1,2.1-2.2,2.1h-8.4c-3.9,0-7,3-7,6.6v7.8C26.7,40.5,25.7,41.4,24.5,41.4"/>
<path fill="#4AC8EF" d="M24.5,20.3c-1.5,0-2.7,1.1-2.7,2.6c0,1.4,1.2,2.6,2.7,2.6c1.5,0,2.7-1.1,2.7-2.6
	C27.2,21.5,26,20.3,24.5,20.3 M24.5,26.5c-2.1,0-3.8-1.6-3.8-3.6s1.7-3.6,3.8-3.6c2.1,0,3.8,1.6,3.8,3.6S26.6,26.5,24.5,26.5"/>
<path fill="#4AC8EF" d="M24.5,22.9C24.5,22.9,24.5,22.9,24.5,22.9C24.5,22.9,24.5,22.9,24.5,22.9C24.5,22.9,24.5,22.9,24.5,22.9
	 M24.5,23.9c-0.6,0-1.1-0.5-1.1-1c0-0.6,0.5-1,1.1-1c0.6,0,1.1,0.5,1.1,1C25.6,23.5,25.1,23.9,24.5,23.9"/>
<path fill="#4AC8EF" d="M24.5,5.4c-0.3,0-0.6-0.2-0.6-0.5V2.2c0-0.3,0.2-0.5,0.6-0.5c0.3,0,0.6,0.2,0.6,0.5v2.7
	C25.1,5.2,24.8,5.4,24.5,5.4"/>
<path fill="#4AC8EF" d="M22.9,7h-2.9c-0.3,0-0.6-0.2-0.6-0.5c0-0.3,0.2-0.5,0.6-0.5h2.9c0.3,0,0.6,0.2,0.6,0.5
	C23.4,6.8,23.2,7,22.9,7"/>
<path fill="#4AC8EF" d="M29.1,7h-2.9c-0.3,0-0.6-0.2-0.6-0.5c0-0.3,0.2-0.5,0.6-0.5h2.9c0.3,0,0.6,0.2,0.6,0.5
	C29.6,6.8,29.4,7,29.1,7"/>
<path fill="#4AC8EF" d="M6.9,22.5c-0.2,0-0.4,0.2-0.4,0.4c0,0.2,0.2,0.4,0.4,0.4c0.2,0,0.4-0.2,0.4-0.4C7.3,22.7,7.2,22.5,6.9,22.5
	 M6.9,23.5c-0.4,0-0.7-0.3-0.7-0.6c0-0.3,0.3-0.6,0.7-0.6c0.4,0,0.7,0.3,0.7,0.6C7.6,23.3,7.3,23.5,6.9,23.5"/>
<path fill="#4AC8EF" d="M5.3,23.4H2.3c-0.3,0-0.6-0.2-0.6-0.5c0-0.3,0.2-0.5,0.6-0.5h2.9c0.3,0,0.6,0.2,0.6,0.5
	C5.8,23.2,5.6,23.4,5.3,23.4"/>
<path fill="#4AC8EF" d="M6.9,27.7c-0.3,0-0.6-0.2-0.6-0.5v-2.7c0-0.3,0.2-0.5,0.6-0.5c0.3,0,0.6,0.2,0.6,0.5v2.7
	C7.5,27.5,7.2,27.7,6.9,27.7"/>
<path fill="#4AC8EF" d="M6.9,21.9c-0.3,0-0.6-0.2-0.6-0.5v-2.7c0-0.3,0.2-0.5,0.6-0.5c0.3,0,0.6,0.2,0.6,0.5v2.7
	C7.5,21.6,7.2,21.9,6.9,21.9"/>
<path fill="#4AC8EF" d="M24.5,38.9c-0.2,0-0.4,0.2-0.4,0.4c0,0.2,0.2,0.4,0.4,0.4c0.2,0,0.4-0.2,0.4-0.4
	C24.9,39.1,24.7,38.9,24.5,38.9 M24.5,40c-0.4,0-0.7-0.3-0.7-0.6c0-0.3,0.3-0.6,0.7-0.6c0.4,0,0.7,0.3,0.7,0.6
	C25.2,39.7,24.9,40,24.5,40"/>
<path fill="#4AC8EF" d="M24.5,44.1c-0.3,0-0.6-0.2-0.6-0.5v-2.7c0-0.3,0.2-0.5,0.6-0.5c0.3,0,0.6,0.2,0.6,0.5v2.7
	C25.1,43.9,24.8,44.1,24.5,44.1"/>
<path fill="#4AC8EF" d="M29.1,39.9h-2.9c-0.3,0-0.6-0.2-0.6-0.5c0-0.3,0.2-0.5,0.6-0.5h2.9c0.3,0,0.6,0.2,0.6,0.5
	C29.6,39.6,29.4,39.9,29.1,39.9"/>
<path fill="#4AC8EF" d="M22.9,39.9h-2.9c-0.3,0-0.6-0.2-0.6-0.5c0-0.3,0.2-0.5,0.6-0.5h2.9c0.3,0,0.6,0.2,0.6,0.5
	C23.4,39.6,23.2,39.9,22.9,39.9"/>
<path fill="#4AC8EF" d="M42.1,22.5c-0.2,0-0.4,0.2-0.4,0.4c0,0.2,0.2,0.4,0.4,0.4c0.2,0,0.4-0.2,0.4-0.4
	C42.5,22.7,42.3,22.5,42.1,22.5 M42.1,23.5c-0.4,0-0.7-0.3-0.7-0.6c0-0.3,0.3-0.6,0.7-0.6c0.4,0,0.7,0.3,0.7,0.6
	C42.8,23.3,42.5,23.5,42.1,23.5"/>
<path fill="#4AC8EF" d="M46.7,23.4h-2.9c-0.3,0-0.6-0.2-0.6-0.5c0-0.3,0.2-0.5,0.6-0.5h2.9c0.3,0,0.6,0.2,0.6,0.5
	C47.2,23.2,47,23.4,46.7,23.4"/>
<path fill="#4AC8EF" d="M42.1,21.9c-0.3,0-0.6-0.2-0.6-0.5v-2.7c0-0.3,0.2-0.5,0.6-0.5c0.3,0,0.6,0.2,0.6,0.5v2.7
	C42.6,21.6,42.4,21.9,42.1,21.9"/>
<path fill="#4AC8EF" d="M42.1,27.7c-0.3,0-0.6-0.2-0.6-0.5v-2.7c0-0.3,0.2-0.5,0.6-0.5c0.3,0,0.6,0.2,0.6,0.5v2.7
	C42.6,27.5,42.4,27.7,42.1,27.7"/>
</svg>
