<svg width="30" viewBox="0 0 30 48.7" preserveAspectRatio="xMidYMid meet">
<path fill="#47C7EF" d="M6.1,14.8c-0.5,0-0.8-0.3-0.8-0.8V6.5c0-2,1.8-3.5,3.8-3.5s3.5,1.5,3.5,3.5c0,0.5-0.3,1-0.8,1s-1-0.5-1-1
	c0-1-1-2-2-2s-2,1-2,2v7.5C6.8,14.6,6.6,14.8,6.1,14.8"/>
<path fill="#47C7EF" d="M17.4,22.4c-0.5,0-0.8-0.3-0.8-0.8V3.5c0-1-1-2-2-2c-1,0.3-2,1-2,2v17.8c0,0.5-0.5,0.8-0.8,0.8
	c-0.5,0-0.8-0.3-0.8-0.8V3.5c-0.3-2,1.5-3.5,3.5-3.5s3.8,1.5,3.8,3.5v17.8C18.4,21.9,17.9,22.4,17.4,22.4"/>
<path fill="#47C7EF" d="M23.2,13.3c-0.5,0-0.8-0.3-0.8-0.8v-6c0-1-1-2-2-2s-2,1-2,2c0,0.5-0.5,1-1,1s-0.8-0.5-0.8-1
	c0-2,1.8-3.5,3.8-3.5s3.8,1.5,3.8,3.5v6C24.2,13.1,23.7,13.3,23.2,13.3"/>
<path fill="#47C7EF" d="M17.6,48.7c-0.5,0-0.8-0.3-0.8-0.8c0-0.5,0.3-1,0.8-1c6.1-1,10.6-6,10.6-12.1V12.1c0-1-1-2-2-2
	c-1.3,0-2,1-2,2v11.3c0,0.5-0.5,0.8-0.8,0.8c-0.8,0-1-0.5-1-0.8V12.1c0-2,1.8-3.5,3.8-3.5s3.8,1.5,3.8,3.5v23.1
	C29.7,42,24.7,47.5,17.6,48.7L17.6,48.7"/>
<path fill="#47C7EF" d="M12.1,48.7C12.1,48.7,11.8,48.7,12.1,48.7C5,47.5,0,41.7,0,35.2V18.3c0-0.8,0.5-1.5,1.3-2c1-0.5,2-0.5,3,0
	l1.3,0.8l0,0c1.3,1.3,2.3,3,2.3,4.5v6.8c1.8,0.8,7.1,3.8,7.1,8.8c0,0.5-0.5,0.8-0.8,0.8c-0.5,0-0.8-0.3-0.8-0.8
	c0-4.8-6.6-7.5-6.6-7.5l-0.3-0.3c-0.3-0.3-0.3-0.3-0.3-0.5v-7.3c0-1-0.5-2.3-1.8-3l-1.3-0.8c-0.5-0.3-0.8-0.3-1.3,0
	c-0.3,0-0.3,0.3-0.3,0.5v16.8C1.8,41,6.1,46,12.4,47.2c0.5,0,0.8,0.5,0.8,1C12.9,48.5,12.4,48.7,12.1,48.7"/>
</svg>
