<svg width="44px" viewBox="0 0 44 44" preserveAspectRatio="xMidYMid meet">
<path fill="#4AC8EF" d="M25.3,19.5l-0.1-1.7c1.4-0.1,2.6-0.6,3.6-1.6c2.1-2.1,2.1-5.6,0-7.8c-2.1-2.1-5.6-2.1-7.8,0
	c-0.9,0.9-1.5,2.1-1.6,3.4l-1.7-0.2c0.2-1.7,0.9-3.2,2.1-4.4c2.8-2.8,7.4-2.8,10.2,0c2.8,2.8,2.8,7.4,0,10.2
	C28.7,18.6,27,19.4,25.3,19.5"/>
<path fill="#4AC8EF" d="M32.4,28.8c-1,0-1.9-0.4-2.6-1.1l-1.5-1.5c-0.4-0.4-1-0.8-1.6-1.1l0.8-1.5c0.8,0.4,1.5,0.9,2,1.4l1.5,1.5
	c0.8,0.8,2.1,0.8,2.9,0l5.4-5.4c0.8-0.8,0.8-2.1,0-2.9l-1.5-1.5c-1.3-1.3-2.4-3.7-2.5-5.5c0,0-0.3-4.1-2.8-6.5c-2-2-4.7-3.1-7.5-3.1
	c-2.8,0-5.5,1.1-7.5,3.1c-1.6,1.6-2.6,3.5-3,5.7l-1.7-0.3c0.4-2.5,1.6-4.8,3.4-6.6C18.5,1.3,21.6,0,24.9,0c3.3,0,6.4,1.3,8.7,3.6
	c2.9,2.9,3.2,7.4,3.2,7.6c0.1,1.4,1,3.4,2,4.4l1.5,1.5c1.5,1.5,1.5,3.8,0,5.3L35,27.7C34.3,28.4,33.4,28.8,32.4,28.8"/>
<path fill="#4AC8EF" d="M12.3,14.3c-2.7,0-5.4,1-7.5,3.1c-4.1,4.1-4.1,10.8,0,15c2.4,2.4,6.5,2.7,6.5,2.8c1.8,0.1,4.2,1.2,5.5,2.5
	l1.5,1.5c0.8,0.8,2.1,0.8,2.9,0l5.4-5.4c0.4-0.4,0.6-0.9,0.6-1.4c0-0.5-0.2-1.1-0.6-1.4L25,29.4c-1.3-1.3-2.4-3.7-2.5-5.5
	c0,0-0.3-4.1-2.8-6.5C17.7,15.3,15,14.3,12.3,14.3 M19.7,41.4c-1,0-1.9-0.4-2.6-1.1l-1.5-1.5c-1-1-3-1.9-4.4-2
	c-0.2,0-4.7-0.3-7.6-3.2c-4.8-4.8-4.8-12.6,0-17.4c4.8-4.8,12.6-4.8,17.4,0c2.9,2.9,3.2,7.4,3.2,7.6c0.1,1.4,1,3.4,2,4.4l1.5,1.5
	c0.7,0.7,1.1,1.6,1.1,2.6c0,1-0.4,1.9-1.1,2.6l-5.4,5.4C21.6,41.1,20.7,41.4,19.7,41.4"/>
<path fill="#4AC8EF" d="M12.3,19.4c-1.5,0-2.9,0.6-3.9,1.6c-2.1,2.1-2.1,5.6,0,7.8c1,1,2.4,1.6,3.9,1.6c1.5,0,2.9-0.6,3.9-1.6
	c1-1,1.6-2.4,1.6-3.9c0-1.5-0.6-2.9-1.6-3.9C15.1,20,13.8,19.4,12.3,19.4 M12.3,32.1c-1.9,0-3.7-0.7-5.1-2.1
	c-2.8-2.8-2.8-7.4,0-10.2c1.4-1.4,3.2-2.1,5.1-2.1c1.9,0,3.7,0.7,5.1,2.1c1.4,1.4,2.1,3.2,2.1,5.1c0,1.9-0.7,3.7-2.1,5.1
	C16,31.3,14.2,32.1,12.3,32.1"/>
<path fill="#4AC8EF" d="M39.9,28.2c-0.2,0-0.4-0.1-0.6-0.2l-2.7-2.7c-0.3-0.3-0.3-0.9,0-1.2c0.3-0.3,0.9-0.3,1.2,0l2.7,2.7
	c0.3,0.3,0.3,0.9,0,1.2C40.3,28.2,40.1,28.2,39.9,28.2"/>
<path fill="#4AC8EF" d="M39.1,29.8l0,2.5c0,0.8,0.7,1.5,1.5,1.5h0.3c0.8,0,1.5-0.7,1.5-1.5v-2.5c0-0.4-0.2-0.8-0.4-1
	c-0.3-0.3-0.6-0.4-1-0.4h0h-0.3C39.8,28.3,39.1,29,39.1,29.8 M40.8,35.4h-0.3c-1.7,0-3.2-1.4-3.2-3.2v-2.5c0-1.7,1.4-3.2,3.2-3.2
	h0.3h0c0.8,0,1.6,0.3,2.2,0.9c0.6,0.6,0.9,1.4,0.9,2.2v2.5C44,34,42.6,35.4,40.8,35.4"/>
<path fill="#4AC8EF" d="M29.8,39.1c-0.8,0-1.5,0.7-1.5,1.5v0.3c0,0.4,0.2,0.8,0.4,1c0.3,0.3,0.6,0.4,1,0.4h2.5
	c0.8,0,1.5-0.7,1.5-1.5v-0.3c0-0.8-0.7-1.5-1.5-1.5H29.8z M32.3,44h-2.5c-0.8,0-1.6-0.3-2.2-0.9c-0.6-0.6-0.9-1.4-0.9-2.2v-0.3
	c0-1.7,1.4-3.2,3.2-3.2h2.5c1.7,0,3.2,1.4,3.2,3.2v0.3C35.4,42.6,34,44,32.3,44"/>
<path fill="#4AC8EF" d="M36.9,42c-0.8,0-1.6-0.3-2.2-0.9l-0.7-0.7l1.2-1.2l0.7,0.7c0.6,0.6,1.5,0.6,2.1,0l1.8-1.8
	c0.3-0.3,0.4-0.6,0.4-1c0-0.4-0.1-0.8-0.4-1l-0.2-0.2c-0.5-0.5-1.5-0.5-2.1,0l-1.2,1.2l-1.2-1.2l1.2-1.2c0.6-0.6,1.4-0.9,2.2-0.9
	c0.8,0,1.6,0.3,2.2,0.9l0.2,0.2c1.2,1.2,1.2,3.2,0,4.5l-1.8,1.8C38.5,41.7,37.7,42,36.9,42"/>
<path fill="#4AC8EF" d="M35.8,19c0,0.3-0.2,0.5-0.5,0.5c-0.3,0-0.5-0.2-0.5-0.5c0-0.3,0.2-0.5,0.5-0.5C35.5,18.5,35.8,18.7,35.8,19"
	/>
<path fill="#4AC8EF" d="M35.2,18.7c-0.2,0-0.3,0.1-0.3,0.3c0,0.2,0.1,0.3,0.3,0.3c0.2,0,0.3-0.1,0.3-0.3
	C35.6,18.8,35.4,18.7,35.2,18.7 M35.2,20.4c-0.8,0-1.4-0.6-1.4-1.4c0-0.8,0.6-1.4,1.4-1.4c0.8,0,1.4,0.6,1.4,1.4
	C36.6,19.8,36,20.4,35.2,20.4"/>
<path fill="#4AC8EF" d="M23.1,31.6c0,0.3-0.2,0.5-0.5,0.5c-0.3,0-0.5-0.2-0.5-0.5c0-0.3,0.2-0.5,0.5-0.5
	C22.9,31.1,23.1,31.3,23.1,31.6"/>
<path fill="#4AC8EF" d="M22.6,31.3c-0.2,0-0.3,0.1-0.3,0.3c0,0.2,0.1,0.3,0.3,0.3c0.2,0,0.3-0.1,0.3-0.3
	C22.9,31.4,22.8,31.3,22.6,31.3 M22.6,33c-0.8,0-1.4-0.6-1.4-1.4c0-0.8,0.6-1.4,1.4-1.4c0.8,0,1.4,0.6,1.4,1.4
	C24,32.4,23.4,33,22.6,33"/>
<path fill="#4AC8EF" d="M27.4,40.8c-0.2,0-0.4-0.1-0.6-0.2L24,37.9c-0.3-0.3-0.3-0.9,0-1.2c0.3-0.3,0.9-0.3,1.2,0l2.7,2.7
	c0.3,0.3,0.3,0.9,0,1.2C27.8,40.7,27.6,40.8,27.4,40.8"/>
</svg>
