<svg width="41px" viewBox="0 0 40.8 51.9" preserveAspectRatio="xMidYMid meet">
<g>
	<g>
		<polygon fill="#FFFFFF" points="0.7,25.6 2.8,25.6 6,31 6,25.6 8.1,25.6 8.1,34.9 6,34.9 2.8,29.5 2.8,34.9 0.7,34.9 		"/>
		<path fill="#FFFFFF" d="M13.1,25.6c2.2,0,3.8,0.4,3.8,4.8c0,4.1-1.5,4.6-3.8,4.6c-2.3,0-3.8-0.4-3.8-4.6C9.4,26,11,25.6,13.1,25.6
			 M13.1,33c1.3,0,1.7-0.5,1.7-2.7c0-2.6-0.4-2.9-1.7-2.9c-1.3,0-1.7,0.2-1.7,2.9C11.4,32.6,11.7,33,13.1,33"/>
		<polygon fill="#FFFFFF" points="19.6,25.6 21.5,32.2 23.4,25.6 25.6,25.6 22.7,34.9 20.2,34.9 17.5,25.6 		"/>
		<path fill="#FFFFFF" d="M27.7,25.6h2.4l2.9,9.3h-2.2L30.3,33h-2.8l-0.6,1.9h-2.2L27.7,25.6z M29.8,31.2l-0.9-2.9l-1,2.9H29.8z"/>
		<path fill="#FFFFFF" d="M33.6,28c0-1.8,1.1-2.4,2.5-2.4c1.6,0,2.9,0.1,3.7,0.4v1.6c-0.8-0.1-2.4-0.1-3.1-0.1c-0.7,0-1.1,0-1.1,0.7
			v0.3c0,0.6,0.2,0.8,0.9,0.8h1.3c1.9,0,2.3,1.5,2.3,2.6v0.5c0,2.2-1.3,2.6-2.6,2.6c-1.9,0-2.6-0.1-3.7-0.4V33
			c0.5,0.1,2.1,0.1,3.2,0.1c0.5,0,1-0.1,1-0.7v-0.4c0-0.5-0.1-0.7-0.8-0.7H36c-2.3,0-2.4-1.8-2.4-2.6V28z"/>
		<polygon fill="#FFFFFF" points="2.2,44.4 3.7,49.7 5.3,44.4 7,44.4 4.7,51.8 2.7,51.8 0.5,44.4 		"/>
		<rect x="7.7" y="44.4" fill="#FFFFFF" width="1.7" height="7.4"/>
		<path fill="#FFFFFF" d="M12.7,44.3c1.2,0,1.8,0.1,2.6,0.4V46c0,0-1.2-0.2-2.2-0.2c-1,0-1.3,0.1-1.3,2.3c0,1.7,0.2,2.3,1.3,2.3
			c1.1,0,2.2-0.1,2.2-0.1v1.3c-0.6,0.2-1.4,0.3-2.6,0.3c-1.9,0-2.5-1.4-2.5-3.8C10.1,45.7,10.7,44.3,12.7,44.3"/>
		<rect x="16.1" y="44.4" fill="#FFFFFF" width="1.7" height="7.4"/>
		<polygon fill="#FFFFFF" points="18.7,44.4 20.3,44.4 22.9,48.7 22.9,44.4 24.6,44.4 24.6,51.8 22.9,51.8 20.3,47.5 20.3,51.8 
			18.7,51.8 		"/>
		<path fill="#FFFFFF" d="M27.7,44.4h1.9l2.3,7.4h-1.7l-0.5-1.5h-2.2L27,51.8h-1.7L27.7,44.4z M29.4,48.9l-0.7-2.4l-0.8,2.4H29.4z"
			/>
		<rect x="32.6" y="44.4" fill="#FFFFFF" width="1.7" height="7.4"/>
		<path fill="#FFFFFF" d="M35.1,46.3c0-1.5,0.9-1.9,2-2c1.3,0,2.3,0.1,3,0.3v1.3c-0.6-0.1-2-0.1-2.5-0.1c-0.6,0-0.9,0-0.9,0.6v0.3
			c0,0.5,0.2,0.6,0.7,0.6h1.1c1.5,0,1.8,1.2,1.8,2v0.4c0,1.8-1.1,2.1-2.1,2.1c-1.5,0-2.1,0-3-0.3v-1.3c0.4,0,1.6,0.1,2.6,0.1
			c0.4,0,0.8-0.1,0.8-0.5v-0.3c0-0.4-0.1-0.6-0.6-0.6h-1c-1.9,0-2-1.5-2-2V46.3z"/>
		<path fill="#FFFFFF" d="M0,5.4v10.2c0.1-0.2,0.2-0.4,0.3-0.5c0.2-0.4,0.4-0.8,0.6-1.2s0.5-0.8,0.7-1.2L2,12.1
			c0.1-0.2,0.3-0.4,0.4-0.6L2.8,11c0.1-0.2,0.3-0.4,0.4-0.5c0.1-0.2,0.3-0.4,0.4-0.5C3.8,9.8,4,9.6,4.1,9.5l0.2-0.2L4.6,9
			c0.2-0.1,0.3-0.3,0.5-0.4c0.3-0.3,0.7-0.6,1-0.8c0.3-0.2,0.7-0.5,1-0.7c0.3-0.2,0.7-0.4,1-0.6c0.3-0.2,0.7-0.3,1-0.5
			c0.3-0.1,0.7-0.3,1-0.4c0.3-0.1,0.6-0.2,0.9-0.3c0,0,0,0,0,0C9.2,4.8,7.5,4.7,5.9,4.7C2.5,4.7,0,5.4,0,5.4"/>
		<path fill="#FFFFFF" d="M11.4,6.1c-0.3,0.1-0.5,0.2-0.8,0.4C10.3,6.6,10,6.8,9.7,7C9.5,7.2,9.2,7.4,8.9,7.6C8.6,7.8,8.3,8,8,8.2
			C7.8,8.5,7.5,8.7,7.2,9C7,9.3,6.7,9.6,6.4,9.9c-0.1,0.2-0.2,0.3-0.4,0.5l-0.2,0.2l-0.2,0.2c-0.1,0.2-0.2,0.3-0.3,0.5
			c-0.1,0.2-0.2,0.3-0.3,0.5c-0.1,0.2-0.2,0.3-0.3,0.5l-0.3,0.5c-0.1,0.2-0.2,0.4-0.3,0.5l-0.3,0.5c-0.2,0.4-0.3,0.7-0.5,1.1
			c-0.1,0.4-0.3,0.7-0.4,1.1c-0.1,0.4-0.2,0.7-0.3,1.1c-0.1,0.4-0.2,0.7-0.3,1.1c-0.1,0.4-0.2,0.7-0.2,1C2.1,20,2,20.7,2,21.3
			c0,0.1,0,0.2,0,0.3H6h21.2c-3.1-10.2-9.2-14.4-14.8-16c-0.1,0-0.2,0.1-0.4,0.1C11.8,5.8,11.6,5.9,11.4,6.1"/>
		<polygon fill="#FFFFFF" points="0.2,21.6 0.5,20.4 0,20.3 0,21.6 		"/>
		<polygon fill="#FFFFFF" points="1,18 0.6,17.9 0.3,19.1 0.7,19.2 		"/>
		<polygon fill="#FFFFFF" points="1.8,15.7 1.5,15.6 1,16.8 1.4,16.9 		"/>
		<polygon fill="#FFFFFF" points="2.8,13.5 2.5,13.4 2,14.5 2.3,14.6 		"/>
		<polygon fill="#FFFFFF" points="4,11.5 3.8,11.3 3.1,12.3 3.4,12.5 		"/>
		<polygon fill="#FFFFFF" points="5.6,9.6 5.4,9.4 4.6,10.3 4.8,10.5 		"/>
		<polygon fill="#FFFFFF" points="7.3,7.9 7.2,7.8 6.3,8.6 6.4,8.7 		"/>
		<polygon fill="#FFFFFF" points="9.3,6.5 9.3,6.5 8.2,7.1 8.3,7.2 		"/>
		<polygon fill="#FFFFFF" points="11.5,5.5 11.5,5.5 10.4,5.9 10.4,6 		"/>
		<path fill="#FFFFFF" d="M19.9,7.8c0-0.1,0.1-0.1,0.1-0.2C20.5,7,21.2,6.3,22,5.4c0.4-0.4,0.9-0.9,1.4-1.3c0.5-0.4,1.1-0.9,1.7-1.3
			c0.6-0.4,1.3-0.8,2-1.2c0.3-0.2,0.7-0.4,1.1-0.5c0.4-0.2,0.7-0.3,1.1-0.5c0.4-0.1,0.7-0.3,1.1-0.4c0.1,0,0.3-0.1,0.4-0.1
			C26.3,0.4,21,1.7,16.2,5.5c0.6,0.3,1.3,0.6,1.9,1C18.7,6.9,19.4,7.3,19.9,7.8"/>
		<path fill="#FFFFFF" d="M36,0.5c-0.2,0-0.3,0.1-0.5,0.1c-0.2,0-0.3,0.1-0.5,0.1c-0.3,0.1-0.6,0.1-1,0.2c-0.3,0.1-0.7,0.2-1,0.3
			c-0.2,0.1-0.3,0.1-0.5,0.2c-0.2,0.1-0.3,0.1-0.5,0.2c-0.2,0.1-0.3,0.1-0.5,0.2c-0.2,0.1-0.3,0.2-0.5,0.2c-0.3,0.1-0.6,0.3-0.9,0.5
			c-0.3,0.2-0.6,0.4-0.9,0.5c-0.3,0.2-0.6,0.4-0.9,0.6c-0.6,0.4-1.1,0.8-1.6,1.3c-0.5,0.4-0.9,0.9-1.3,1.3c-0.4,0.4-0.8,0.9-1.1,1.3
			c-0.6,0.8-1.1,1.6-1.4,2.1c-0.1,0.3-0.3,0.5-0.3,0.6c0,0,0,0.1,0,0.1c0,0,0,0,0,0c2.6,2.8,4.6,6.5,5.9,10.9l0.1,0.4h12.1V0.8
			c0,0-1.1-0.3-3-0.6c0,0-0.1,0-0.1,0C37.2,0.3,36.6,0.4,36,0.5"/>
		<path fill="#FFFFFF" d="M21.7,8.8c0.1-0.1,0.1-0.2,0.2-0.4c0.2-0.3,0.3-0.5,0.3-0.5l-0.4-0.3c0,0-0.2,0.3-0.4,0.5
			c-0.1,0.1-0.2,0.3-0.2,0.4c-0.1,0.1-0.1,0.2-0.1,0.2L21.6,9C21.6,9,21.6,8.9,21.7,8.8"/>
		<polygon fill="#FFFFFF" points="22.6,6.7 22.9,7 23.7,6 23.4,5.8 		"/>
		<polygon fill="#FFFFFF" points="24.3,4.9 24.5,5.2 25.4,4.3 25.2,4.1 		"/>
		<polygon fill="#FFFFFF" points="26.2,3.3 26.4,3.6 27.4,2.9 27.2,2.6 		"/>
		<polygon fill="#FFFFFF" points="28.3,2 28.4,2.2 29.5,1.7 29.4,1.5 		"/>
		<polygon fill="#FFFFFF" points="31.7,0.7 31.7,0.6 30.5,1 30.6,1.2 		"/>
		<polygon fill="#FFFFFF" points="32.8,0.3 32.9,0.4 34.1,0.1 34,0 		"/>
		<path fill="#FFFFFF" d="M0.6,37.9c0-1.1,0.8-1.3,1.4-1.3c0,0,1.9,0,2.7,0.1v1.1H2.3c-0.4,0-0.4,0.2-0.4,0.5V39l2.3,0.1v1.1
			l-2.3,0.1V41c0,0.4,0.3,0.4,0.5,0.4h2.2v1.1c-0.6,0.1-2.6,0.1-2.6,0.1c-0.5,0-1.5-0.1-1.5-1.3V37.9z"/>
		<path fill="#FFFFFF" d="M5.2,38.2c0-1.2,0.7-1.6,1.6-1.6c1,0,1.9,0.1,2.4,0.3v1c-0.5,0-1.6-0.1-2-0.1c-0.5,0-0.7,0-0.7,0.5v0.2
			c0,0.4,0.1,0.5,0.6,0.5H8c1.2,0,1.5,1,1.5,1.7V41c0,1.4-0.9,1.7-1.7,1.7c-1.3,0-1.7,0-2.4-0.3v-1c0.3,0,1.3,0.1,2.1,0.1
			c0.3,0,0.6-0.1,0.6-0.4v-0.2c0-0.3-0.1-0.5-0.5-0.5H6.8c-1.5,0-1.6-1.2-1.6-1.7V38.2z"/>
		<polygon fill="#FFFFFF" points="9.6,36.6 14.2,36.6 14.2,37.9 12.6,37.9 12.6,42.6 11.2,42.6 11.2,37.9 9.6,37.9 		"/>
		<path fill="#FFFFFF" d="M14.7,36.6h2.6c1,0,1.7,0.4,1.7,1.9c0,1.5-0.6,1.7-0.9,1.8l1.1,2.3h-1.5l-0.9-2.2l-0.8-0.1v2.3h-1.3V36.6z
			 M17.2,39.3c0.4,0,0.5-0.2,0.5-0.8c0-0.5-0.2-0.7-0.5-0.7h-1.1v1.5H17.2z"/>
		<path fill="#FFFFFF" d="M21.5,36.6h1.6l1.9,6h-1.4l-0.4-1.2h-1.8L21,42.6h-1.4L21.5,36.6z M22.9,40.3l-0.6-1.9l-0.6,1.9H22.9z"/>
		<path fill="#FFFFFF" d="M25.5,36.6h2.7c1.7,0,2.1,1.4,2.1,3c0,1.9-0.6,3-2.1,3h-2.7V36.6z M28.1,41.5c0.6,0,0.8-0.6,0.8-1.8
			c0-1.5-0.3-1.9-0.8-1.9h-1.2v3.7H28.1z"/>
		<path fill="#FFFFFF" d="M32.4,36.6h1.6l1.9,6h-1.4L34,41.4h-1.8l-0.4,1.2h-1.4L32.4,36.6z M33.7,40.3l-0.6-1.9l-0.6,1.9H33.7z"/>
		<path fill="#FFFFFF" d="M36,38.2c0-1.2,0.7-1.6,1.6-1.6c1,0,1.9,0.1,2.4,0.3v1c-0.5,0-1.6-0.1-2-0.1c-0.5,0-0.7,0-0.7,0.5v0.2
			c0,0.4,0.1,0.5,0.6,0.5h0.9c1.2,0,1.5,1,1.5,1.7V41c0,1.4-0.9,1.7-1.7,1.7c-1.3,0-1.7,0-2.4-0.3v-1c0.3,0,1.3,0.1,2.1,0.1
			c0.3,0,0.6-0.1,0.6-0.4v-0.2c0-0.3-0.1-0.5-0.5-0.5h-0.8c-1.5,0-1.6-1.2-1.6-1.7V38.2z"/>
	</g>
</g>
</svg>
