<svg width="59px" viewBox="0 0 59 55.4" preserveAspectRatio="xMidYMid meet">
<path fill="#4AC8EF" d="M24.3,8.3c-2.5,0-4.6,2-4.6,4.5c0,2.5,2.1,4.5,4.6,4.5c2.5,0,4.6-2,4.6-4.5C28.9,10.4,26.8,8.3,24.3,8.3
	 M24.3,19.9c-4,0-7.2-3.2-7.2-7.1c0-3.9,3.2-7.1,7.2-7.1c4,0,7.2,3.2,7.2,7.1C31.5,16.8,28.2,19.9,24.3,19.9 M24.3,2.5
	c-5.9,0-10.6,4.7-10.6,10.4c0,1.6,0.4,3.2,1.1,4.7c0.5,1,2,2.6,3.5,4.3c1.9,2.1,4.2,4.5,5.8,7.1c1.5-2.8,4.1-5.4,6.3-7.6
	c1.5-1.5,2.9-2.9,3.4-3.8c0.7-1.5,1.1-3,1.1-4.7c0-2.8-1.1-5.4-3.1-7.4C29.8,3.6,27.1,2.5,24.3,2.5 M10.9,28.5
	c-0.4,0-0.8,0.1-1.2,0.4c-0.4,0.3-0.5,0.7-0.6,1L2.6,51.2c0,0.1,0,0.2,0,0.3c0,0.3,0.1,0.6,0.4,0.8c0.2,0.2,0.5,0.4,0.8,0.4
	c0.2,0.1,0.4,0.1,0.6,0.1h50.2c0.2,0,0.4,0,0.6-0.1c0.3-0.1,0.6-0.2,0.8-0.4c0.3-0.3,0.4-0.5,0.4-0.8c0-0.1,0-0.2,0-0.3l-6.4-21.3
	c-0.1-0.3-0.3-0.7-0.6-1c-0.3-0.3-0.7-0.4-1.1-0.4h-20c-0.2,0-0.4,0-0.5-0.1c-1,1.3-1.8,2.7-2.1,4.1c-0.1,0.5-0.6,0.9-1.2,1
	c-0.6,0.1-1.1-0.3-1.3-0.8c-0.6-1.5-1.7-3.1-2.9-4.6c-0.2,0.3-0.6,0.5-1,0.5H10.9z M54.6,55.4H4.4c-0.4,0-0.8-0.1-1.3-0.2
	c-0.7-0.2-1.4-0.6-1.9-1C0.4,53.5,0,52.5,0,51.5c0-0.3,0.1-0.7,0.2-1l6.4-21.3C6.9,28.3,7.4,27.5,8,27c0.8-0.7,1.8-1,2.8-1h7.6
	c-0.7-0.8-1.4-1.6-2.1-2.3c-1.7-1.9-3.2-3.5-3.9-4.9C11.5,17,11.1,15,11.1,13c0-7.2,5.9-13,13.2-13c3.5,0,6.8,1.4,9.3,3.8
	c2.5,2.5,3.9,5.7,3.9,9.2c0,2-0.5,4-1.4,5.8c-0.7,1.3-2.1,2.8-3.8,4.5c-0.8,0.8-1.7,1.7-2.6,2.7h18.5c1.1,0,2,0.3,2.8,1
	c0.7,0.6,1.2,1.3,1.4,2.2l6.4,21.3c0.1,0.3,0.1,0.7,0.1,1c0,1-0.4,2-1.3,2.7c-0.5,0.5-1.2,0.8-1.9,1C55.4,55.3,55,55.4,54.6,55.4"/>
<path fill="#4AC8EF" d="M37.3,34.9c-0.1,0-0.2,0-0.2,0c-2.3-0.4-3.7-0.9-4.6-1.5c-0.3-0.2-0.6-0.4-0.8-0.6c-0.5-0.5-0.6-1.3-0.1-1.8
	c0.5-0.5,1.3-0.6,1.8-0.1c0.2,0.2,0.4,0.3,0.6,0.5c0.5,0.4,1.7,0.7,3.5,1.1c0.7,0.1,1.2,0.8,1,1.5C38.5,34.4,37.9,34.9,37.3,34.9
	 M45.9,39.5c-0.6,0-1.2-0.4-1.3-1c-0.2-0.8-1.3-1.9-2.8-2.6c-0.6-0.3-0.9-1-0.6-1.7c0.3-0.6,1.1-0.9,1.7-0.6
	c2.3,1.1,3.9,2.7,4.3,4.4c0.1,0.7-0.3,1.4-1,1.5C46,39.5,46,39.5,45.9,39.5 M9.3,44.6c-0.2,0-0.4,0-0.6-0.1
	c-0.6-0.3-0.9-1.1-0.6-1.7c0.3-0.6,0.6-1.1,1-1.5c1-1.1,2.4-1.7,4.2-1.7c0.7,0,1.3,0.6,1.3,1.3c0,0.7-0.6,1.3-1.3,1.3
	c-1.4,0-2,0.4-2.3,0.8c-0.3,0.3-0.5,0.6-0.7,1C10.2,44.3,9.8,44.6,9.3,44.6 M23.4,44.7c-0.1,0-0.3,0-0.4-0.1l-1.5-0.5
	c-1.2-0.4-2.3-0.8-3.4-1.1c-0.7-0.2-1.1-0.9-0.8-1.6c0.2-0.7,0.9-1,1.6-0.8c1.1,0.3,2.3,0.7,3.5,1.2l1.5,0.5c0.7,0.2,1,1,0.8,1.6
	C24.4,44.4,23.9,44.7,23.4,44.7 M38.5,45.9c-0.5,0-1-0.3-1.2-0.9c-0.2-0.7,0.1-1.4,0.8-1.6c1.4-0.5,2.8-1.2,4.2-2.2
	c0.6-0.4,1.4-0.3,1.8,0.3c0.4,0.6,0.3,1.4-0.3,1.8c-1.6,1.2-3.2,2-4.9,2.6C38.8,45.8,38.7,45.9,38.5,45.9 M33,46.7
	c-0.7,0-1.4,0-2.2-0.1C30,46.6,29,46.4,28,46.2c-0.7-0.2-1.1-0.8-1-1.5c0.2-0.7,0.9-1.1,1.6-0.9c0.9,0.2,1.7,0.3,2.4,0.4
	c0.7,0.1,1.3,0.1,1.9,0.1l0.4,0h0c0.7,0,1.3,0.6,1.3,1.2c0,0.7-0.5,1.3-1.3,1.3L33,46.7z M9.4,54.5c-0.5,0-1-0.3-1.2-0.9
	c-0.6-1.9-1-3.7-1.1-5.3c0-0.7,0.5-1.3,1.2-1.3c0.7,0,1.3,0.5,1.4,1.2c0.1,1.4,0.4,3,1,4.6c0.2,0.7-0.1,1.4-0.8,1.6
	C9.7,54.5,9.5,54.5,9.4,54.5"/>
</svg>
