<svg width="47px" viewBox="0 0 47 45.6" preserveAspectRatio="xMidYMid meet">
<path fill="#4AC8EF" d="M24.5,28.2c-0.5,1-2.1,2.5-3.7,4.2c-2.5,2.4-5.4,5.3-7,8.5c-1.7-2.9-4.3-5.7-6.5-8c-1.7-1.8-3.3-3.5-3.9-4.6
	c-0.8-1.6-1.2-3.3-1.2-5.1c0-6.3,5.3-11.4,11.8-11.4c3.1,0,6.1,1.2,8.3,3.3c2.2,2.2,3.4,5,3.4,8.1C25.7,24.9,25.3,26.7,24.5,28.2
	 M23.8,13.6c-2.6-2.6-6.1-4-9.8-4C6.2,9.6,0,15.7,0,23.1c0,2.1,0.5,4.2,1.5,6c0.7,1.4,2.3,3.1,4.2,5.1c2.6,2.8,5.9,6.3,7.3,9.7
	c0.2,0.4,0.6,0.7,1,0.7c0,0,0.1,0,0.1,0c0.5,0,0.9-0.4,1-0.8c0.9-3.5,4.4-7.1,7.3-9.9c1.8-1.8,3.4-3.4,4.1-4.7c1-1.9,1.5-3.9,1.5-6
	C27.8,19.5,26.4,16.2,23.8,13.6"/>
<path fill="#4AC8EF" d="M13.9,28.1c-2.9,0-5.3-2.3-5.3-5.1s2.4-5.1,5.3-5.1c2.9,0,5.3,2.3,5.3,5.1S16.8,28.1,13.9,28.1 M13.9,15.8
	c-4.1,0-7.4,3.2-7.4,7.2c0,4,3.3,7.2,7.4,7.2c4.1,0,7.4-3.2,7.4-7.2C21.4,19,18,15.8,13.9,15.8"/>
<path fill="#4AC8EF" d="M44,13.8c-0.4,0.7-1.5,1.8-2.7,3c-1.7,1.7-3.7,3.7-4.9,5.9c-1.3-2-3.1-3.9-4.6-5.5c-1.2-1.3-2.4-2.5-2.8-3.3
	c-0.6-1.1-0.9-2.4-0.9-3.6c0-4.5,3.8-8.1,8.4-8.1c2.2,0,4.3,0.8,5.9,2.4C44,6,44.8,8,44.8,10.2C44.8,11.5,44.5,12.7,44,13.8 M43.9,3
	c-2-1.9-4.6-3-7.4-3C30.7,0,26,4.6,26,10.2c0,1.6,0.4,3.1,1.1,4.6c0.5,1.1,1.7,2.3,3.1,3.8c1.9,2,4.3,4.6,5.3,7
	c0.2,0.4,0.6,0.7,1,0.7c0,0,0.1,0,0.1,0c0.5,0,0.9-0.4,1-0.8c0.6-2.5,3.2-5.1,5.3-7.2c1.4-1.3,2.5-2.5,3-3.5c0.7-1.4,1.1-3,1.1-4.6
	C47,7.5,45.9,4.9,43.9,3"/>
<path fill="#4AC8EF" d="M36.5,13.6c-2,0-3.6-1.6-3.6-3.5c0-1.9,1.6-3.5,3.6-3.5c2,0,3.6,1.6,3.6,3.5C40.1,12,38.5,13.6,36.5,13.6
	 M36.5,4.5c-3.2,0-5.8,2.5-5.8,5.6c0,3.1,2.6,5.6,5.8,5.6c3.2,0,5.8-2.5,5.8-5.6C42.2,7,39.7,4.5,36.5,4.5"/>
<path fill="#4AC8EF" d="M33.4,31.1c-0.4,0-0.7-0.2-0.9-0.5c-0.3-0.5-0.1-1.1,0.4-1.4c0.1-0.1,0.2-0.1,0.3-0.2c0.8-0.6,1.5-1.4,2-2.5
	c0.2-0.5,0.9-0.8,1.4-0.5c0.5,0.2,0.8,0.9,0.5,1.4c-0.7,1.4-1.6,2.5-2.7,3.3c-0.1,0.1-0.3,0.2-0.5,0.3C33.8,31,33.6,31.1,33.4,31.1
	 M28.1,35.8c-0.4,0-0.7-0.2-0.9-0.5c-0.4-0.6-0.6-1.2-0.6-1.8c0-1.4,0.9-2.5,2.4-3.1c0.6-0.2,1.2,0.1,1.4,0.6
	c0.2,0.5-0.1,1.1-0.6,1.3c-0.5,0.2-1,0.5-1,1.1c0,0.2,0.1,0.5,0.2,0.7c0.3,0.5,0.2,1.1-0.3,1.4C28.5,35.7,28.3,35.8,28.1,35.8
	 M36.2,37.5c0,0-0.1,0-0.1,0c-0.1,0-0.3,0-0.5,0l-0.8,0c-0.9,0-2-0.1-3-0.2c-0.6-0.1-1-0.6-1-1.1c0.1-0.6,0.6-1,1.2-0.9
	c1,0.1,2.1,0.2,2.9,0.2l0.8,0.1c0.2,0,0.4,0,0.5,0c0.6,0.1,1,0.6,1,1.1C37.3,37.1,36.8,37.5,36.2,37.5 M42.4,41.9
	c-0.1,0-0.2,0-0.4-0.1c-0.6-0.2-0.9-0.8-0.7-1.3c0-0.1,0.1-0.2,0.1-0.3c0-0.6-0.6-1.2-1.5-1.7c-0.5-0.3-0.7-0.9-0.4-1.4
	c0.3-0.5,0.9-0.7,1.5-0.4c1.7,0.9,2.7,2.2,2.7,3.6c0,0.3-0.1,0.7-0.2,1C43.2,41.6,42.8,41.9,42.4,41.9 M34.8,45.1
	c-0.6,0-1-0.4-1.1-1c-0.1-0.6,0.4-1.1,1-1.1l0.8-0.1c1.2-0.1,2.3-0.3,3.2-0.6c0.6-0.2,1.2,0.1,1.4,0.7c0.2,0.6-0.1,1.1-0.7,1.3
	c-1.1,0.3-2.3,0.6-3.6,0.7L34.8,45.1C34.8,45.1,34.8,45.1,34.8,45.1 M26.2,45.6c-0.6,0-1.1-0.4-1.1-1c0-0.6,0.4-1.1,1-1.1
	c1.4,0,2.9-0.1,4.3-0.2c0.6,0,1.1,0.4,1.1,1c0,0.6-0.4,1.1-1,1.1C29.1,45.5,27.7,45.5,26.2,45.6L26.2,45.6z M21.9,45.6L21.9,45.6
	c-1.8,0-3.3-0.1-4.5-0.3c-0.6-0.1-1-0.6-0.9-1.2c0.1-0.6,0.6-1,1.2-0.9c1.1,0.2,2.5,0.3,4.2,0.3c0.6,0,1.1,0.5,1.1,1.1
	C22.9,45.2,22.4,45.6,21.9,45.6"/>
</svg>
