<svg width="46px" viewBox="0 0 46 47.7" preserveAspectRatio="xMidYMid meet">
<path fill="#4AC8EF" d="M17.5,20.3c4.8,0,7.4,2,7.5,2.1c3.4,2.8,5.1,2.2,5.1,2.2l0.1,0c1.5-0.4,1.8-1.8,1.1-4.7
	c0-0.1-0.1-0.2-0.1-0.3l0-0.1l0-0.1c0.3-5-0.4-8.6-0.4-8.7c-0.7-3.5-4.1-5.8-7.1-6.2c-2.8-0.4-5.3-1.2-6.2-1.5
	c-0.9,0.3-3.4,1.1-6.2,1.5c-3,0.4-6.4,2.7-7.1,6.2c0,0-0.7,3.8-0.5,8.8l0,0.1l0,0.1c0,0.1-0.1,0.2-0.1,0.4c-0.7,2.7-0.4,4,1.1,4.5
	l0.1,0c0,0,0.1,0,0.3,0c0.6,0,2.2-0.2,4.8-2.2C10.1,22.3,12.7,20.3,17.5,20.3 M29.6,26.5c-1.2,0-3.1-0.5-5.7-2.6
	c0,0-2.3-1.7-6.4-1.7c-4.1,0-6.4,1.7-6.4,1.7c-4.2,3.1-6.4,2.6-6.9,2.4c-2.4-0.8-3.2-3-2.3-6.7c0-0.1,0-0.1,0-0.2
	c-0.2-5.2,0.5-9,0.5-9.2c1-4.6,5.2-7.2,8.6-7.7c3.2-0.5,6.1-1.5,6.1-1.5l0.3-0.1l0.3,0.1c0,0,2.9,1.1,6.1,1.5
	c3.5,0.5,7.7,3.1,8.6,7.7c0,0.2,0.7,3.8,0.5,9c0,0,0,0.1,0,0.2c0.9,3.8,0.2,6.1-2.3,6.9C30.6,26.4,30.2,26.5,29.6,26.5"/>
<path fill="#4AC8EF" d="M3.4,20.9l-1.3-1.3c0.1-0.1,13.2-12.3,30.7-0.4l-1,1.5C15.5,9.6,3.9,20.4,3.4,20.9"/>
<path fill="#4AC8EF" d="M17.5,0.9c-0.8,0-1.4,0.4-1.4,1h2.9C18.9,1.4,18.3,0.9,17.5,0.9"/>
<path fill="#4AC8EF" d="M19.9,2.8h-4.7V1.9c0-1.1,1-1.9,2.4-1.9c1.3,0,2.4,0.8,2.4,1.9V2.8z"/>
<path fill="#4AC8EF" d="M17.5,40.1c-1,0-2-0.2-2.9-0.6c-0.5-0.2-0.7-0.7-0.5-1.2c0.2-0.5,0.7-0.7,1.2-0.5c1.4,0.6,3,0.6,4.4,0
	c0.5-0.2,1,0,1.2,0.5c0.2,0.5,0,1-0.5,1.2C19.5,39.9,18.5,40.1,17.5,40.1"/>
<path fill="#4AC8EF" d="M12.1,28.8c0,0.3-0.3,0.6-0.6,0.6c-0.3,0-0.6-0.3-0.6-0.6c0-0.3,0.3-0.6,0.6-0.6
	C11.8,28.3,12.1,28.5,12.1,28.8"/>
<path fill="#4AC8EF" d="M11.5,28.5c-0.2,0-0.3,0.2-0.3,0.3c0,0.2,0.2,0.3,0.3,0.3c0.2,0,0.3-0.2,0.3-0.3
	C11.8,28.6,11.7,28.5,11.5,28.5 M11.5,30.3c-0.8,0-1.5-0.7-1.5-1.5c0-0.8,0.7-1.5,1.5-1.5c0.8,0,1.5,0.7,1.5,1.5
	C13,29.7,12.3,30.3,11.5,30.3"/>
<path fill="#4AC8EF" d="M24.1,28.8c0,0.3-0.3,0.6-0.6,0.6c-0.3,0-0.6-0.3-0.6-0.6c0-0.3,0.3-0.6,0.6-0.6
	C23.8,28.3,24.1,28.5,24.1,28.8"/>
<path fill="#4AC8EF" d="M23.5,28.5c-0.2,0-0.3,0.2-0.3,0.3c0,0.2,0.2,0.3,0.3,0.3c0.2,0,0.3-0.2,0.3-0.3
	C23.9,28.6,23.7,28.5,23.5,28.5 M23.5,30.3c-0.8,0-1.5-0.7-1.5-1.5c0-0.8,0.7-1.5,1.5-1.5c0.8,0,1.5,0.7,1.5,1.5
	C25,29.7,24.3,30.3,23.5,30.3"/>
<path fill="#4AC8EF" d="M17.5,46.7c-11,0-14-12-14.5-14.4c-1.7-1.3-2.7-2.8-3-4.5C-0.3,25.2,1.4,23,1.5,23c0.3-0.4,0.9-0.5,1.3-0.1
	c0.4,0.3,0.4,0.9,0.1,1.3c0,0-1.3,1.6-1,3.5c0.2,1.3,1,2.4,2.5,3.4c0.2,0.1,0.4,0.4,0.4,0.6c0,0,0.5,3.4,2.4,6.7
	c2.4,4.3,5.9,6.5,10.3,6.5c4.4,0,7.9-2.2,10.3-6.5c1.9-3.3,2.4-6.6,2.4-6.7c0-0.3,0.2-0.5,0.4-0.6c1.5-1,2.3-2.2,2.5-3.4
	c0.3-1.9-1-3.5-1-3.5c-0.3-0.4-0.3-1,0.1-1.3c0.4-0.3,1-0.3,1.3,0.1c0.1,0.1,1.8,2.2,1.4,4.9c-0.2,1.7-1.2,3.2-3,4.5
	C31.5,34.7,28.5,46.7,17.5,46.7"/>
</svg>
